<svg width="33" height="29" viewBox="0 0 33 29" fill="none" xmlns="http://www.w3.org/2000/svg">
<path d="M29.6875 11.125L27.1807 23.6591C26.8714 25.2053 26.7168 25.9785 26.3132 26.5569C25.9571 27.0668 25.4671 27.4684 24.8972 27.7175C24.2509 28 23.4625 28 21.8855 28H10.4894C8.91252 28 8.12405 28 7.47779 27.7175C6.90789 27.4684 6.41789 27.0668 6.06189 26.5569C5.65819 25.9785 5.50357 25.2053 5.1943 23.6591L2.6875 11.125M29.6875 11.125H26.3125M29.6875 11.125H31.375M2.6875 11.125H1M2.6875 11.125H6.0625M26.3125 11.125H6.0625M26.3125 11.125L21.25 1M6.0625 11.125L11.125 1M11.125 16.1875V21.25M16.1875 16.1875V21.25M21.25 16.1875V21.25" stroke="black" stroke-width="2" stroke-linecap="round" stroke-linejoin="round"/>
</svg>
