<svg width="158" height="48" viewBox="0 0 158 48" fill="none" xmlns="http://www.w3.org/2000/svg">
<path d="M31.0719 44.3346L5.40988 44.3561C5.14386 44.3813 4.79827 44.8095 4.6088 44.9964L3.18018 46.437C2.78153 46.8637 2.40031 47.4006 1.92436 47.7368C1.09448 48.3227 0.0834574 47.6411 0.0053952 46.7043C-0.0741828 45.7615 0.743574 45.2269 1.33473 44.6532L3.04148 42.9345C4.1677 41.8431 4.13814 41.8975 5.01957 40.538L14.8804 25.0973L30.0783 1.32961C30.3693 0.889214 30.6354 0.397507 30.9832 0C31.3372 0.448822 31.632 0.927509 31.9442 1.40544L40.8441 15.3281L42.3295 17.5891L57.1742 40.8497C57.9488 42.0108 57.9981 41.9955 58.9909 42.9445L60.9917 44.9611C61.4578 45.4444 62.0149 45.9001 61.9997 46.63C61.9815 47.5369 60.9917 48.4284 60.1505 47.7758C59.8215 47.5208 59.5343 47.1287 59.2433 46.8238L57.2834 44.8807C56.7309 44.3522 56.9393 44.3385 56.1162 44.3377L31.0719 44.3346ZM32.3239 24.8131L32.2966 41.2526C32.2974 41.3905 32.2838 41.5429 32.3126 41.6769L41.6846 41.6723L41.7725 41.6042C41.4913 41.2227 41.145 40.8842 40.838 40.5235L39.655 39.0207C37.8709 36.6694 36.3293 34.076 35.066 31.4038L33.2538 27.0289C32.9583 26.2837 32.6915 25.5254 32.3239 24.8131ZM29.6706 24.9556C29.1241 26.0164 28.7747 27.1629 28.3556 28.2819L27.1059 31.1824C25.7993 33.9267 24.3487 36.4749 22.5525 38.9189L21.3831 40.4132C21.0443 40.816 20.6813 41.2066 20.3774 41.6378L20.5145 41.6861L29.6759 41.6899L29.6706 24.9556Z" fill="#88AB8E"/>
<path d="M71 39.6775V7H83.7551V10.2677H75.6052V21.16H81.921V24.3873H75.6052V39.6775H71ZM92.4754 40C90.7368 40 89.3648 39.6505 88.3595 38.9508C87.3543 38.2518 86.6414 37.2565 86.2202 35.9658C85.799 34.675 85.5884 33.1555 85.5884 31.4072V24.6295C85.5884 22.8813 85.799 21.3617 86.2202 20.071C86.6414 18.7802 87.3543 17.785 88.3595 17.0853C89.3648 16.3863 90.7368 16.0367 92.4754 16.0367C94.214 16.0367 95.5791 16.3863 96.5708 17.0853C97.5617 17.785 98.2685 18.7802 98.6897 20.071C99.1101 21.3617 99.3207 22.8813 99.3207 24.6295V31.4072C99.3207 33.1555 99.1101 34.675 98.6897 35.9658C98.2685 37.2565 97.5617 38.2518 96.5708 38.9508C95.5791 39.6505 94.214 40 92.4754 40ZM92.4754 36.8133C93.317 36.8133 93.9079 36.571 94.2481 36.0865C94.5875 35.6028 94.7913 34.9637 94.8587 34.1702C94.9269 33.3767 94.961 32.5503 94.961 31.6893V24.3873C94.961 23.5 94.9269 22.666 94.8587 21.886C94.7913 21.106 94.5875 20.4677 94.2481 19.9697C93.9079 19.4725 93.317 19.2235 92.4754 19.2235C91.633 19.2235 91.0353 19.4725 90.6822 19.9697C90.3292 20.4677 90.1186 21.106 90.0504 21.886C89.9823 22.666 89.9489 23.5 89.9489 24.3873V31.6893C89.9489 32.5503 89.9823 33.3767 90.0504 34.1702C90.1186 34.9637 90.3292 35.6028 90.6822 36.0865C91.0353 36.571 91.633 36.8133 92.4754 36.8133ZM103.437 39.6775V16.3593H107.797V19.6675C108.666 18.2417 109.536 17.287 110.405 16.8032C111.274 16.3187 112.143 16.0772 113.013 16.0772C113.121 16.0772 113.224 16.0772 113.318 16.0772C113.413 16.0772 113.542 16.0908 113.705 16.117V20.878C113.38 20.743 113.006 20.629 112.585 20.5345C112.164 20.4408 111.736 20.3935 111.302 20.3935C110.622 20.3935 110.004 20.548 109.447 20.8578C108.89 21.1668 108.34 21.7652 107.797 22.6525V39.6775H103.437ZM122.792 40C120.945 40 119.519 39.6438 118.514 38.9313C117.508 38.218 116.809 37.1695 116.415 35.7842C116.021 34.399 115.824 32.698 115.824 30.6813V25.3555C115.824 23.2847 116.028 21.5635 116.436 20.1918C116.843 18.82 117.556 17.785 118.575 17.0853C119.594 16.3863 120.999 16.0367 122.792 16.0367C124.776 16.0367 126.235 16.4402 127.173 17.2472C128.11 18.0535 128.729 19.2168 129.027 20.7363C129.326 22.2558 129.476 24.0783 129.476 26.203V28.099H120.185V32.779C120.185 33.7203 120.273 34.4867 120.449 35.0785C120.626 35.6702 120.911 36.1068 121.305 36.3895C121.699 36.6715 122.208 36.8133 122.833 36.8133C123.485 36.8133 123.981 36.658 124.32 36.349C124.66 36.04 124.891 35.596 125.013 35.0177C125.135 34.4395 125.197 33.7607 125.197 32.9807V31.5685H129.435V32.4558C129.435 34.7958 128.932 36.6385 127.927 37.9833C126.922 39.3273 125.21 40 122.792 40ZM120.185 25.759H125.197V23.6612C125.197 22.693 125.142 21.8792 125.034 21.2207C124.925 20.5615 124.701 20.0642 124.361 19.7282C124.022 19.3915 123.485 19.2235 122.751 19.2235C122.045 19.2235 121.509 19.3848 121.142 19.708C120.776 20.0305 120.524 20.575 120.389 21.3415C120.252 22.108 120.185 23.164 120.185 24.5088V25.759ZM138.888 40C136.959 40 135.411 39.4015 134.243 38.2045C133.075 37.0082 132.41 35.428 132.246 33.4645L135.873 32.3755C136.09 33.8545 136.457 34.9637 136.973 35.7032C137.49 36.4435 138.25 36.8133 139.255 36.8133C140.043 36.8133 140.64 36.5913 141.048 36.1473C141.456 35.7033 141.659 35.1055 141.659 34.3517C141.659 33.6797 141.509 33.0745 141.211 32.5368C140.912 31.999 140.423 31.4477 139.744 30.883L135.71 27.4532C134.895 26.7542 134.209 25.9743 133.652 25.114C133.095 24.253 132.816 23.137 132.816 21.7652C132.816 20.5277 133.068 19.486 133.571 18.6385C134.073 17.7918 134.78 17.146 135.69 16.702C136.6 16.2588 137.666 16.0367 138.888 16.0367C140.844 16.0367 142.339 16.6352 143.371 17.8322C144.403 19.0285 145.001 20.4745 145.164 22.1688L142.067 23.2578C141.958 22.4508 141.795 21.745 141.578 21.1397C141.361 20.5345 141.048 20.0642 140.64 19.7282C140.233 19.3915 139.703 19.2235 139.051 19.2235C138.345 19.2235 137.781 19.459 137.36 19.93C136.939 20.4003 136.728 20.9583 136.728 21.604C136.728 22.0075 136.817 22.4043 136.994 22.7943C137.17 23.1843 137.475 23.5675 137.91 23.944L142.067 27.736C142.637 28.2468 143.174 28.798 143.676 29.3897C144.179 29.9815 144.593 30.6542 144.919 31.4072C145.245 32.1602 145.409 33.034 145.409 34.0293C145.409 35.347 145.137 36.4503 144.593 37.3375C144.05 38.2248 143.289 38.8907 142.311 39.334C141.334 39.778 140.192 40 138.888 40ZM154.943 40C153.721 40 152.736 39.7712 151.99 39.3145C151.243 38.857 150.699 38.2112 150.359 37.378C150.02 36.544 149.85 35.5622 149.85 34.4327V19.2235H147.364V16.3593H149.85V9.54176H154.21V16.3593H158V19.2235H154.21V34.15C154.21 35.065 154.359 35.7167 154.658 36.1067C154.957 36.4967 155.527 36.6917 156.37 36.6917C156.587 36.6917 156.839 36.6783 157.124 36.6513C157.409 36.625 157.687 36.598 157.959 36.571V39.7578C157.416 39.8388 156.913 39.8995 156.452 39.9393C155.989 39.9798 155.486 40 154.943 40Z" fill="#88AB8E"/>
</svg>
