<svg width="194" height="56" viewBox="0 0 194 56" fill="none" xmlns="http://www.w3.org/2000/svg">
<path d="M29.1592 55.8717L28.9697 55.8893C28.1253 55.9231 27.2252 55.9289 26.383 55.868L24.4094 55.6389C9.81125 53.6858 -0.971049 40.6193 0.0693664 25.9977C1.06866 11.9444 12.5463 0.424196 26.8346 0.0181623C38.0816 -0.372452 48.4219 5.55872 53.2473 15.7705C56.2166 22.0526 56.8407 29.4817 54.7753 36.1397C51.3331 47.2348 40.8717 55.5479 29.1592 55.8717ZM27.0717 7.04849C12.4927 7.73941 2.93583 22.9073 8.82442 36.2359C12.1792 43.8302 20.327 49.1842 28.6782 48.7532L28.8199 48.7437C41.4055 48.1563 51.0857 36.526 48.543 23.8882C46.6582 14.5216 38.8496 7.77686 29.4411 7.06979C28.6569 7.01105 27.8581 7.03895 27.0717 7.04849Z" fill="black"/>
<path d="M31.7 33.2704L31.6993 34.4466C31.6831 40.8499 22.2019 44.8721 17.3141 40.4887C14.709 38.1524 15.2611 34.4334 17.4411 32.0215C19.3075 29.9575 21.8583 28.9979 24.5749 28.8562L24.5896 16.5166C24.5926 14.5407 25.0324 12.8123 27.2902 12.443C28.3996 12.3211 29.197 12.8424 30.1412 13.3292L35.601 15.8065C36.767 16.3146 37.9865 16.7625 39.0483 17.4733C41.9669 19.4285 43.66 22.8714 43.6842 26.3487C43.6879 26.8216 43.7151 27.3407 43.6483 27.8091C43.0521 32.0127 37.3154 32.0765 36.7259 28.5346L36.7148 28.4707C36.4865 27.1167 36.9843 26.2518 36.09 24.7452C35.0099 22.9265 33.4651 22.8633 31.7462 22.4007L31.7 33.2704Z" fill="black"/>
<path d="M66.1953 38.2271V19.5539H69.3937V21.3308C70.0185 20.6201 70.7072 20.0921 71.4613 19.7478C72.2153 19.4034 72.9907 19.2309 73.7873 19.2309C74.4768 19.2309 75.0957 19.4034 75.645 19.7478C76.1942 20.0921 76.587 20.706 76.8241 21.5892C77.4916 20.7706 78.2185 20.1729 79.0048 19.7962C79.7912 19.4196 80.615 19.2309 81.4763 19.2309C82.0791 19.2309 82.6283 19.3763 83.1239 19.667C83.6195 19.9578 84.0175 20.4211 84.3192 21.0562C84.621 21.6913 84.7715 22.5261 84.7715 23.5599V38.2271H81.6055V23.7861C81.6055 22.8815 81.4601 22.2728 81.1694 21.9608C80.8786 21.6487 80.4858 21.4923 79.9902 21.4923C79.5166 21.4923 79.021 21.6267 78.5041 21.8962C77.9872 22.1656 77.5136 22.5372 77.0826 23.0107C77.0826 23.0966 77.0826 23.1833 77.0826 23.2692C77.0826 23.3551 77.0826 23.452 77.0826 23.5599V38.2271H73.9166V23.7861C73.9166 22.8815 73.7712 22.2728 73.4804 21.9608C73.1897 21.6487 72.7968 21.4923 72.3012 21.4923C71.8277 21.4923 71.3372 21.6267 70.8313 21.8962C70.3254 22.1656 69.8459 22.5372 69.3937 23.0107V38.2271H66.1953ZM90.8452 38.4855C90.1131 38.4855 89.5419 38.2917 89.1329 37.904C88.7239 37.5164 88.4383 37.0317 88.2768 36.4502C88.1153 35.8687 88.0345 35.2762 88.0345 34.6734V19.5539H91.4913V33.6396C91.4913 34.307 91.5882 34.8298 91.782 35.2064C91.9759 35.5831 92.3746 35.7718 92.9774 35.7718C93.3651 35.7718 93.7689 35.6587 94.1889 35.4326C94.6089 35.2064 95.0127 34.9318 95.4004 34.6088V19.5539H98.8572V38.2271H95.4004V36.3856C94.7976 36.9671 94.1133 37.4627 93.3489 37.8717C92.5846 38.2807 91.7497 38.4855 90.8452 38.4855ZM106.708 38.4855C105.178 38.4855 103.951 38.0061 103.025 37.0479C102.099 36.0897 101.571 34.8239 101.442 33.2519L104.317 32.3796C104.49 33.5639 104.78 34.4524 105.189 35.0449C105.598 35.6374 106.202 35.9333 106.998 35.9333C107.623 35.9333 108.097 35.7556 108.42 35.4003C108.743 35.0449 108.904 34.5654 108.904 33.9626C108.904 33.4244 108.786 32.9398 108.549 32.5088C108.312 32.0778 107.924 31.6366 107.386 31.1843L104.188 28.4382C103.542 27.878 102.998 27.2539 102.556 26.5644C102.115 25.875 101.894 24.9814 101.894 23.883C101.894 22.8925 102.093 22.0577 102.492 21.3793C102.89 20.7008 103.45 20.1839 104.172 19.8285C104.893 19.4732 105.738 19.2955 106.708 19.2955C108.258 19.2955 109.443 19.7749 110.261 20.7331C111.08 21.6913 111.554 22.8492 111.683 24.2061L109.228 25.0783C109.142 24.4322 109.012 23.8669 108.84 23.3823C108.667 22.8977 108.42 22.521 108.097 22.2515C107.774 21.9821 107.354 21.8477 106.837 21.8477C106.277 21.8477 105.83 22.0364 105.496 22.4131C105.162 22.7897 104.995 23.2369 104.995 23.7538C104.995 24.0768 105.065 24.3948 105.205 24.7068C105.346 25.0189 105.588 25.3258 105.932 25.6276L109.228 28.6644C109.68 29.0733 110.105 29.5154 110.504 29.9889C110.902 30.4625 111.231 31.0014 111.489 31.6043C111.747 32.2071 111.877 32.9075 111.877 33.7042C111.877 34.7593 111.662 35.6426 111.231 36.3533C110.8 37.0641 110.197 37.5971 109.421 37.9525C108.646 38.3078 107.741 38.4855 106.708 38.4855ZM114.687 38.2271V19.5539H118.144V38.2271H114.687ZM114.687 16.7756V13.1573H118.144V16.7756H114.687ZM126.964 38.4855C125.434 38.4855 124.277 38.1786 123.491 37.5648C122.705 36.951 122.177 36.0839 121.908 34.9641C121.638 33.8444 121.504 32.5412 121.504 31.0551V26.7583C121.504 25.1863 121.644 23.8456 121.924 22.7361C122.204 21.6267 122.737 20.7764 123.523 20.1839C124.31 19.5914 125.456 19.2955 126.964 19.2955C128.321 19.2955 129.371 19.5165 130.114 19.9578C130.857 20.399 131.368 21.0562 131.648 21.9285C131.928 22.8007 132.068 23.883 132.068 25.1753V26.2737H128.934V25.143C128.934 24.3243 128.881 23.6782 128.773 23.2046C128.665 22.731 128.471 22.3859 128.191 22.1708C127.912 21.9556 127.513 21.8477 126.996 21.8477C126.436 21.8477 126.006 21.9769 125.704 22.2354C125.402 22.4938 125.203 22.93 125.106 23.5438C125.009 24.1576 124.961 24.9924 124.961 26.0475V31.9273C124.961 33.5214 125.111 34.5875 125.413 35.1257C125.715 35.6639 126.253 35.9333 127.028 35.9333C127.61 35.9333 128.035 35.799 128.305 35.5295C128.574 35.26 128.746 34.8782 128.821 34.3826C128.897 33.887 128.934 33.3275 128.934 32.7027V31.1843H132.068V32.4765C132.068 33.7255 131.923 34.8026 131.632 35.7072C131.341 36.6118 130.824 37.3012 130.081 37.7748C129.338 38.2484 128.299 38.4855 126.964 38.4855ZM146.865 38.4855C145.335 38.4855 144.108 38.0061 143.182 37.0479C142.256 36.0897 141.728 34.8239 141.599 33.2519L144.474 32.3796C144.646 33.5639 144.937 34.4524 145.346 35.0449C145.755 35.6374 146.359 35.9333 147.155 35.9333C147.78 35.9333 148.254 35.7556 148.577 35.4003C148.9 35.0449 149.061 34.5654 149.061 33.9626C149.061 33.4244 148.943 32.9398 148.706 32.5088C148.469 32.0778 148.081 31.6366 147.543 31.1843L144.345 28.4382C143.699 27.878 143.155 27.2539 142.713 26.5644C142.272 25.875 142.051 24.9814 142.051 23.883C142.051 22.8925 142.25 22.0577 142.649 21.3793C143.047 20.7008 143.607 20.1839 144.329 19.8285C145.05 19.4732 145.895 19.2955 146.865 19.2955C148.415 19.2955 149.6 19.7749 150.418 20.7331C151.237 21.6913 151.711 22.8492 151.84 24.2061L149.385 25.0783C149.299 24.4322 149.169 23.8669 148.997 23.3823C148.824 22.8977 148.577 22.521 148.254 22.2515C147.931 21.9821 147.511 21.8477 146.994 21.8477C146.434 21.8477 145.987 22.0364 145.653 22.4131C145.319 22.7897 145.152 23.2369 145.152 23.7538C145.152 24.0768 145.222 24.3948 145.362 24.7068C145.503 25.0189 145.745 25.3258 146.089 25.6276L149.385 28.6644C149.837 29.0733 150.262 29.5154 150.661 29.9889C151.059 30.4625 151.388 31.0014 151.646 31.6043C151.904 32.2071 152.034 32.9075 152.034 33.7042C152.034 34.7593 151.819 35.6426 151.388 36.3533C150.957 37.0641 150.354 37.5971 149.578 37.9525C148.803 38.3078 147.898 38.4855 146.865 38.4855ZM154.715 38.2271V12.0588H158.172V21.4923C158.797 20.8895 159.496 20.3726 160.272 19.9416C161.047 19.5106 161.908 19.2955 162.856 19.2955C163.588 19.2955 164.154 19.4893 164.552 19.877C164.951 20.2647 165.231 20.7493 165.392 21.3308C165.554 21.9123 165.635 22.5048 165.635 23.1077V38.2271H162.178V24.1092C162.178 23.4417 162.081 22.9248 161.887 22.5584C161.693 22.1921 161.295 22.0092 160.692 22.0092C160.283 22.0092 159.857 22.1274 159.416 22.3646C158.974 22.6018 158.56 22.8925 158.172 23.2369V38.2271H154.715ZM174.131 38.4855C172.753 38.4855 171.665 38.2058 170.868 37.6456C170.072 37.0853 169.506 36.2887 169.172 35.2549C168.838 34.2211 168.671 33.0044 168.671 31.6043V26.1768C168.671 24.7766 168.838 23.5599 169.172 22.5261C169.506 21.4923 170.072 20.6957 170.868 20.1355C171.665 19.5752 172.753 19.2955 174.131 19.2955C175.509 19.2955 176.592 19.5752 177.378 20.1355C178.164 20.6957 178.724 21.4923 179.058 22.5261C179.392 23.5599 179.559 24.7766 179.559 26.1768V31.6043C179.559 33.0044 179.392 34.2211 179.058 35.2549C178.724 36.2887 178.164 37.0853 177.378 37.6456C176.592 38.2058 175.509 38.4855 174.131 38.4855ZM174.131 35.9333C174.799 35.9333 175.267 35.7395 175.537 35.3518C175.806 34.9641 175.968 34.4524 176.021 33.8173C176.075 33.1821 176.102 32.5199 176.102 31.8304V25.9829C176.102 25.2722 176.075 24.6048 176.021 23.9799C175.968 23.3551 175.806 22.8441 175.537 22.4454C175.267 22.0467 174.799 21.8477 174.131 21.8477C173.464 21.8477 172.99 22.0467 172.71 22.4454C172.43 22.8441 172.263 23.3551 172.209 23.9799C172.155 24.6048 172.128 25.2722 172.128 25.9829V31.8304C172.128 32.5199 172.155 33.1821 172.209 33.8173C172.263 34.4524 172.43 34.9641 172.71 35.3518C172.99 35.7395 173.464 35.9333 174.131 35.9333ZM182.725 44.3653V19.5539H186.182V21.04C186.591 20.5665 187.086 20.1567 187.668 19.8124C188.249 19.468 188.939 19.2955 189.735 19.2955C190.704 19.2955 191.475 19.5488 192.045 20.0547C192.616 20.5606 193.042 21.1964 193.321 21.9608C193.601 22.7251 193.785 23.5005 193.871 24.2868C193.956 25.0732 194 25.7458 194 26.306V30.8289C194 32.1425 193.871 33.3863 193.612 34.5603C193.354 35.7343 192.885 36.6815 192.207 37.4033C191.528 38.125 190.575 38.4855 189.348 38.4855C188.68 38.4855 188.088 38.3189 187.571 37.9848C187.054 37.6507 186.591 37.2689 186.182 36.8379V44.3653H182.725ZM188.669 35.7718C189.272 35.7718 189.703 35.5508 189.961 35.1095C190.22 34.6682 190.381 34.0706 190.446 33.3165C190.511 32.5624 190.543 31.7335 190.543 30.8289V26.306C190.543 25.5306 190.5 24.8148 190.414 24.1576C190.328 23.5005 190.144 22.9784 189.865 22.5907C189.585 22.2031 189.143 22.0092 188.54 22.0092C188.088 22.0092 187.657 22.1062 187.248 22.3C186.839 22.4938 186.483 22.72 186.182 22.9784V34.9318C186.505 35.169 186.871 35.368 187.28 35.5295C187.689 35.691 188.152 35.7718 188.669 35.7718Z" fill="black"/>
</svg>
