<svg width="38" height="38" viewBox="0 0 38 38" fill="none" xmlns="http://www.w3.org/2000/svg">
<g clip-path="url(#clip0_393_65)">
<path fill-rule="evenodd" clip-rule="evenodd" d="M19 9.5004C16.1509 6.18012 11.3901 5.15401 7.82045 8.19439C4.25074 11.2348 3.74818 16.3181 6.55148 19.914C8.88225 22.9037 15.9359 29.2093 18.2478 31.2502C18.5063 31.4785 18.6357 31.5927 18.7866 31.6375C18.9181 31.6766 19.0622 31.6766 19.194 31.6375C19.3448 31.5927 19.474 31.4785 19.7328 31.2502C22.0446 29.2093 29.0982 22.9037 31.429 19.914C34.2323 16.3181 33.791 11.2028 30.16 8.19439C26.5289 5.18599 21.849 6.18012 19 9.5004Z" stroke="black" stroke-width="3" stroke-linecap="round" stroke-linejoin="round"/>
</g>
<defs>
<clipPath id="clip0_393_65">
<rect width="38" height="38" fill="white" transform="matrix(-1 0 0 1 38 0)"/>
</clipPath>
</defs>
</svg>
