<svg width="226" height="226" viewBox="0 0 226 226" fill="none" xmlns="http://www.w3.org/2000/svg">
<path d="M56.1995 77.9165L56.2662 98.142C55.0342 97.2532 53.9696 96.2448 53.1355 94.9669C51.2741 92.115 50.6171 88.7349 51.3302 85.3939C51.9587 82.4486 53.6361 79.566 56.1995 77.9165Z" fill="#FC4C8E"/>
<path d="M169.718 77.729C172.309 79.3662 174.293 82.2514 174.966 85.2479C175.727 88.6337 175.303 92.3025 173.392 95.2517C172.401 96.7814 171.066 97.8178 169.728 99.007L169.718 77.729Z" fill="#E02570"/>
<path d="M59.2573 72.5533C59.6773 72.4008 60.0808 72.313 60.5208 72.2393L60.4919 97.5122L60.4504 105.457C59.6497 105.221 58.921 104.959 58.2107 104.506L58.1015 104.438C57.2306 103.868 56.4709 102.814 56.2866 101.789C56.0759 100.617 56.2224 99.3286 56.2663 98.1419L56.1997 77.9164C56.2039 77.1565 56.1571 76.1592 56.3762 75.4359C56.8278 73.9442 57.9757 73.2377 59.2573 72.5533Z" fill="white"/>
<path d="M165.417 72.1572L166.646 72.4614C167.721 72.9409 168.888 73.8054 169.336 74.9401C169.684 75.8222 169.669 76.7953 169.718 77.7289L169.728 99.0069C169.771 100.318 169.994 101.636 169.478 102.884C168.955 104.151 167.888 105.382 166.588 105.9C166.252 106.034 165.783 106.141 165.44 105.993L165.398 75.5543L165.417 72.1572Z" fill="white"/>
<path d="M63.9114 72.1743L67.1728 72.1866L67.3248 72.197L70.706 72.167L70.689 95.0221L70.6544 102.02C70.6453 103.216 70.7263 104.502 70.565 105.681L70.5473 105.386C70.2436 105.131 68.821 105.277 68.3736 105.28L60.5371 105.313L60.4912 97.5125L60.5201 72.2396L63.9114 72.1743Z" fill="#FC4C8E"/>
<path d="M158.817 70.2871L158.896 72.1807C159.932 72.171 161.082 72.0547 162.104 72.1708L165.416 72.1573L165.398 75.5544L165.321 105.946L155.034 105.845L155.003 72.2937L158.821 72.254L158.817 70.2871Z" fill="#FC4C8E"/>
<path d="M74.7061 196.271C76.3033 197.764 77.733 199.39 79.4516 200.755C86.4547 206.318 95.6556 209.289 104.448 210.324L110.154 210.756C111.033 210.788 111.989 210.708 112.855 210.817L113.054 210.846L113.179 210.867C113.768 210.941 114.446 210.859 115.044 210.838L118.369 210.699C127.395 210.064 136.795 207.732 144.337 202.547C145.866 201.495 147.35 200.317 148.671 199.014C149.423 198.273 150.151 197.242 151.005 196.648L151.086 196.595L151.073 214.607L74.8065 214.597L74.7334 210.309L74.7061 196.271Z" fill="#375F80"/>
<path d="M59.2568 72.5534C59.2129 69.1318 59.0981 65.6161 59.3239 62.2053C59.9896 52.1536 63.32 42.6183 69.0863 34.3627C76.9899 23.0468 89.5839 15.0907 103.175 12.6846C117.699 10.1133 132.364 13.418 144.427 21.8756C155.718 29.7915 163.61 42.3058 165.979 55.8912C166.278 57.6032 166.515 59.3245 166.651 61.0574C166.756 62.3799 166.961 72.0138 166.646 72.4614L165.416 72.1572L162.104 72.1707C162.09 68.4872 162.195 64.7359 161.848 61.066C160.794 49.9205 156.055 39.0476 148.083 31.093C138.71 21.7399 126.104 16.4225 112.839 16.4392C100.043 16.4552 87.2647 21.5502 78.2265 30.6655C70.3441 38.615 65.2434 49.0441 64.1692 60.2267C63.7885 64.189 63.9015 68.1983 63.9117 72.174L60.5204 72.2393C60.0803 72.3131 59.6768 72.4009 59.2568 72.5534Z" fill="#E02570"/>
<path d="M63.9121 72.1743C63.9019 68.1986 63.7889 64.1893 64.1697 60.227C65.2438 49.0444 70.3445 38.6153 78.2269 30.6658C87.2651 21.5505 100.043 16.4555 112.84 16.4395C126.105 16.4229 138.71 21.7402 148.084 31.0933C156.056 39.0479 160.794 49.9208 161.848 61.0664C162.195 64.7362 162.09 68.4875 162.105 72.171C161.082 72.0549 159.933 72.1713 158.897 72.181L158.817 70.2873L158.153 63.9042C157.664 61.5462 157.202 59.1886 156.461 56.8931C153.283 47.0415 146.818 38.5838 138.182 32.8929C129.86 27.4089 119.75 24.5429 109.777 25.2853C107.766 25.4349 105.74 25.8139 103.767 26.2233C92.2356 28.6159 81.6273 36.213 75.2167 46.0349C71.0048 52.4881 68.5771 59.4583 67.5252 67.0648L67.1734 72.1867L63.9121 72.1743Z" fill="#FFB4D5"/>
<path d="M74.7331 210.309C74.5651 211.671 74.7137 213.218 74.7218 214.599L50.5833 214.59L50.5793 201.624C50.5926 198.927 50.4939 196.143 50.7491 193.46C51.075 190.031 51.7292 186.749 52.614 183.426C55.4408 172.81 61.9561 163.418 70.6905 156.824C71.9904 155.843 73.3005 154.817 74.7108 153.999L74.7057 196.271L74.7331 210.309Z" fill="white"/>
<path d="M151.044 153.473C153.58 155.072 156.027 156.598 158.324 158.546C165.949 165.013 171.252 174.305 173.436 184.008C173.99 186.466 174.378 188.94 174.554 191.454C174.733 193.996 174.692 196.544 174.69 199.091L174.701 208.819L174.707 212.791C174.707 213.323 174.813 214.138 174.646 214.633L151.074 214.607L151.087 196.595L151.044 153.473Z" fill="white"/>
<path d="M85.5068 148.406C85.9017 147.598 96.4901 142.229 98.0514 141.563C99.1134 142.972 100.546 144.215 101.796 145.461L111.979 155.13C112.265 155.407 112.659 155.707 112.891 156.023L105.629 164.413L107.655 167.675L109.148 170.171L105.439 197.756L112.855 210.818C111.989 210.708 111.033 210.789 110.154 210.756L104.448 210.325C95.6556 209.289 86.4547 206.318 79.4516 200.756C77.733 199.391 76.3033 197.764 74.7061 196.271L74.7111 153.999C75.066 153.904 75.5463 153.552 75.8868 153.365C76.8776 152.821 77.8486 152.245 78.8842 151.788L83.884 149.083C84.2671 148.883 84.837 148.471 85.2382 148.368C85.3258 148.345 85.4172 148.394 85.5068 148.406Z" fill="#51789A"/>
<path d="M85.5064 148.406C85.9013 147.598 96.4897 142.229 98.051 141.563C99.113 142.972 100.545 144.215 101.795 145.461L111.979 155.13C112.265 155.407 112.658 155.707 112.89 156.023L105.629 164.413L107.655 167.675L109.147 170.171L105.439 197.756C104.421 196.466 103.65 194.827 102.822 193.403L96.676 182.626L78.8838 151.788L83.8836 149.083C84.2667 148.883 84.8366 148.471 85.2378 148.368C85.3255 148.345 85.4168 148.394 85.5064 148.406Z" fill="white"/>
<path d="M85.5068 148.406C85.9017 147.598 96.4901 142.229 98.0514 141.563C99.1134 142.972 100.546 144.215 101.796 145.461L111.979 155.13C112.265 155.407 112.659 155.707 112.891 156.023L105.629 164.413L98.9441 171.943L90.1895 157.078C88.5925 154.255 86.8085 151.375 85.5068 148.406Z" fill="white"/>
<path d="M85.5068 148.406L85.6415 148.532C86.2252 149.095 86.7013 149.852 87.1584 150.517L89.2087 153.511L95.4636 162.995C96.7329 164.939 97.9649 167.035 99.4131 168.84L111.979 155.13C112.265 155.407 112.659 155.707 112.891 156.023L105.629 164.413L98.9441 171.943L90.1895 157.078C88.5925 154.255 86.8085 151.375 85.5068 148.406Z" fill="#BBBABA"/>
<path d="M67.5254 67.0647C68.5773 59.4581 71.005 52.4879 75.2169 46.0347C81.6274 36.2128 92.2358 28.6157 103.767 26.2231C105.74 25.8137 107.766 25.4347 109.777 25.2851C119.751 24.5427 129.86 27.4087 138.182 32.8927C146.818 38.5836 153.283 47.0414 156.461 56.8929C157.202 59.1884 157.664 61.546 158.153 63.904L158.045 63.9245C157.254 64.0832 156.501 64.3725 155.718 64.5619C153.845 65.0148 151.947 65.3714 150.03 65.5782C141.095 66.5425 131.034 63.8033 123.561 58.8774C121.596 57.5824 119.697 56.1006 118.029 54.4384C118.814 57.1169 119.634 59.6764 120.86 62.1962C121.455 63.4186 122.1 64.6292 123.017 65.6435L119.937 64.5775C110.549 60.7956 101.472 54.1793 97.0113 44.8648L96.2364 43.0815C95.9224 44.2894 95.5785 45.5136 95.0683 46.6553C93.3368 50.5309 90.398 53.8953 87.2955 56.7335C85.145 58.7011 82.9128 60.4495 80.3968 61.9271C77.2944 63.7488 73.9882 65.2525 70.534 66.273C69.5532 66.5628 68.5351 66.8943 67.5254 67.0647Z" fill="#7B1945"/>
<path d="M67.5253 67.0647C68.535 66.8943 69.5531 66.5628 70.5339 66.273C73.9881 65.2525 77.2943 63.7488 80.3967 61.9272C82.9127 60.4496 85.1449 58.7011 87.2954 56.7336C90.3979 53.8953 93.3367 50.5309 95.0681 46.6554C95.5784 45.5137 95.9223 44.2895 96.2363 43.0815L97.0112 44.8648C101.472 54.1794 110.549 60.7956 119.937 64.5776L123.017 65.6436C122.1 64.6292 121.455 63.4187 120.86 62.1962C119.634 59.6764 118.814 57.1169 118.029 54.4385C119.697 56.1006 121.596 57.5824 123.561 58.8775C131.034 63.8034 141.094 66.5425 150.03 65.5783C151.947 65.3715 153.845 65.0148 155.718 64.5619C156.501 64.3726 157.254 64.0832 158.045 63.9245L158.153 63.904L158.817 70.2872L158.822 72.2541L155.004 72.2938L155.034 105.845C155.397 109.838 156.909 113.287 160.04 115.883C162.783 118.155 166.198 119.243 169.751 118.996C168.251 120.402 166.762 121.844 165.169 123.144C156.71 130.047 147.081 134.928 136.626 138.001L128.393 140.047C127.448 140.265 126.318 140.319 125.431 140.688L125.366 140.663C125.2 139.578 125.307 138.349 125.309 137.247L125.328 130.712C126.097 130.538 126.901 130.154 127.637 129.855C132.113 128.034 136.237 125.115 139.703 121.773C146.759 114.968 151.227 105.139 151.381 95.3061L151.39 76.0041C151.39 75.9811 151.39 75.72 151.39 75.72C151.365 75.692 151.315 75.7143 151.277 75.7112L148.763 75.4611C145.314 75.0356 142.047 74.462 138.767 73.2711C134.492 71.7187 130.09 69.3503 126.648 66.3538C125.3 65.1797 124.108 63.8665 122.867 62.5846C123.28 63.3714 123.854 64.0923 124.355 64.8263C126.015 67.26 127.928 69.4706 130.108 71.4527L133.347 74.1393C130.75 73.9767 128.161 73.9257 125.601 73.3896C115.791 71.3357 107.049 66.0567 100.898 58.1286C99.9428 56.8971 99.1406 55.5597 98.2871 54.2573C93.2423 63.9133 84.5022 72.385 74.2658 76.311L74.2953 88.5601C74.3035 91.6073 74.166 94.7433 74.4353 97.7773C74.7968 101.851 75.9901 105.869 77.6805 109.579C82.2148 119.534 90.4475 126.956 100.653 130.783C100.76 131.609 100.74 132.445 100.741 133.277L100.771 139.145C100.748 139.5 100.764 139.894 100.626 140.222L100.1 140.372L98.0242 140.114C84.5872 138.089 71.5427 132.206 61.2964 123.256L58.3465 120.61C57.7912 120.097 57.1796 119.587 56.7305 118.977C59.7852 118.953 62.6475 118.517 65.0726 116.515C68.4683 113.712 70.1415 110.013 70.5657 105.681C70.727 104.502 70.646 103.215 70.6551 102.02L70.6897 95.022L70.7067 72.1669L67.3255 72.1969L67.1735 72.1866L67.5253 67.0647Z" fill="#6D0A33"/>
<path d="M128.015 141.813C128.644 141.841 139.609 147.783 141.131 148.657L147.095 151.393L151.044 153.473L151.086 196.595L151.005 196.648C150.151 197.242 149.423 198.273 148.671 199.014C147.351 200.317 145.866 201.495 144.337 202.547C136.795 207.732 127.395 210.064 118.369 210.699L115.044 210.839C114.446 210.859 113.768 210.941 113.179 210.867L113.054 210.846L112.855 210.818L105.439 197.756L109.148 170.171L107.655 167.675L105.629 164.413L112.891 156.023C113.051 156.067 113.185 156.129 113.35 156.097L114.227 155.202L128.015 141.813Z" fill="white"/>
<path d="M114.228 155.202L126.749 168.798L126.855 168.795L140.312 150.053L140.38 150.188L127.248 171.905L122.544 166.641C121.918 165.932 121.093 165.187 120.587 164.402C120.274 163.656 119.448 162.866 118.92 162.24L115.387 158.19C114.769 157.492 114.127 156.616 113.351 156.097L114.228 155.202Z" fill="#BBBABA"/>
<path d="M112.89 156.023C113.05 156.067 113.184 156.129 113.35 156.097C114.127 156.617 114.768 157.492 115.387 158.191L118.92 162.24C119.447 162.866 120.274 163.657 120.587 164.403L118.542 167.711C118.09 168.497 117.523 169.326 117.176 170.163C116.904 170.299 116.696 170.355 116.391 170.362C115.618 170.379 109.713 170.548 109.358 170.374C109.271 170.331 109.218 170.238 109.148 170.171L107.655 167.675L105.629 164.413L112.89 156.023Z" fill="#FC4C8E"/>
<path d="M107.655 167.675L118.543 167.711C118.091 168.497 117.524 169.326 117.176 170.162C116.904 170.299 116.696 170.355 116.392 170.362C115.618 170.379 109.714 170.548 109.359 170.374C109.271 170.331 109.218 170.238 109.148 170.171L107.655 167.675Z" fill="#7B1945"/>
<path d="M117.176 170.163L120.66 197.732L113.054 210.846L112.855 210.818L105.439 197.756L109.148 170.171C109.218 170.239 109.271 170.331 109.358 170.374C109.713 170.548 115.618 170.379 116.392 170.362C116.696 170.355 116.904 170.299 117.176 170.163Z" fill="#FC4C8E"/>
<path d="M147.095 151.393L151.044 153.473L151.087 196.595L151.005 196.648C150.152 197.242 149.423 198.273 148.672 199.014C147.351 200.317 145.866 201.495 144.337 202.547C136.796 207.732 127.395 210.064 118.369 210.699L115.045 210.839C114.447 210.859 113.769 210.941 113.179 210.867L113.055 210.846L120.66 197.732L147.095 151.393Z" fill="#51789A"/>
<path d="M100.652 130.783C90.4474 126.956 82.2147 119.534 77.6803 109.579C75.99 105.869 74.7966 101.851 74.4351 97.7773C74.1659 94.7433 74.3034 91.6074 74.2952 88.5601L74.2656 76.3111C84.5021 72.385 93.2421 63.9133 98.287 54.2573C99.1404 55.5597 99.9427 56.8972 100.898 58.1287C107.049 66.0568 115.791 71.3358 125.601 73.3896C128.161 73.9257 130.75 73.9767 133.347 74.1394L130.108 71.4527C127.928 69.4706 126.015 67.2601 124.355 64.8264C123.854 64.0923 123.28 63.3715 122.867 62.5847C124.108 63.8665 125.299 65.1797 126.648 66.3538C130.09 69.3503 134.492 71.7187 138.767 73.2711C142.047 74.462 145.314 75.0356 148.763 75.4612L151.277 75.7112C151.315 75.7143 151.365 75.692 151.39 75.72C151.39 75.72 151.39 75.9811 151.39 76.0041L151.381 95.3061C151.227 105.139 146.759 114.968 139.703 121.773C136.237 125.115 132.113 128.034 127.637 129.855C126.901 130.154 126.097 130.538 125.327 130.712L125.309 137.247C125.307 138.349 125.199 139.578 125.366 140.663L125.431 140.688L125.529 140.818C125.67 140.989 125.804 141.078 125.989 141.195L126.227 141.778C126.744 141.51 127.026 141.41 127.583 141.612C127.739 141.669 127.874 141.729 128.015 141.813L114.227 155.202L113.35 156.097C113.185 156.129 113.051 156.067 112.891 156.024C112.659 155.707 112.265 155.408 111.979 155.131L101.796 145.461C100.546 144.215 99.1135 142.972 98.0515 141.563C98.3514 141.457 98.6935 141.243 99.0027 141.375C99.3618 141.529 99.6114 141.889 99.9575 142.07C100.026 141.565 100.215 140.865 100.1 140.372L100.626 140.222C100.764 139.894 100.748 139.5 100.771 139.145L100.741 133.277C100.739 132.445 100.76 131.609 100.652 130.783Z" fill="white"/>
<path d="M113.376 98.599C113.61 98.5233 113.751 98.5399 113.993 98.5542C114.203 98.6981 114.326 98.7615 114.435 99.0018C114.506 99.1592 114.477 99.3667 114.408 99.5249C114.355 99.6461 114.006 99.9131 113.9 100.02C113.52 100.404 113.228 100.786 113.046 101.304C112.74 102.178 112.789 103.237 113.241 104.053C113.608 104.716 114.249 105.039 114.947 105.239C115.159 105.299 115.316 105.328 115.499 105.459C115.634 105.556 115.688 105.774 115.697 105.937C115.719 106.327 115.643 106.435 115.372 106.695C115.065 106.717 114.767 106.736 114.468 106.647C113.246 106.283 112.323 105.468 111.731 104.347C111.292 103.517 111.219 102.135 111.498 101.24L111.551 101.082C111.889 100.05 112.527 99.2572 113.376 98.599Z" fill="#B37056"/>
<path d="M103.2 113.276C103.414 113.309 103.559 113.309 103.719 113.476C103.936 113.701 104.035 114.147 104.167 114.435C104.668 115.526 105.434 116.447 106.432 117.114C107.634 117.917 109.05 118.326 110.462 118.554C113.927 119.115 117.186 118.769 120.089 116.684C121.019 116.017 121.807 115.267 122.472 114.336C122.574 114.194 122.855 113.807 123.024 113.739C123.135 113.695 123.257 113.692 123.373 113.669C123.688 113.821 123.731 113.869 123.93 114.159C123.908 114.648 123.814 114.753 123.56 115.156C122.968 115.895 122.332 116.606 121.616 117.228C118.849 119.633 115.346 120.369 111.763 120.102C108.905 119.889 105.963 119.036 104.045 116.769C103.382 115.986 102.445 114.714 102.53 113.662C102.765 113.397 102.872 113.384 103.2 113.276Z" fill="#6D0A33"/>
<path d="M86.6655 75.0749L99.8904 75.0654C100.396 75.1279 100.845 75.4391 101.144 75.843C101.447 76.2504 101.566 76.788 101.468 77.2839L101.44 77.4117L101.417 77.5263C101.322 77.935 100.923 78.3356 100.558 78.5239C100.093 78.7638 99.4645 78.7088 98.9531 78.7161L96.3647 78.7421L81.1035 78.7856L81.6924 77.924C82.9331 76.2385 84.6145 75.3726 86.6655 75.0749Z" fill="#6D0A33"/>
<path d="M125.317 75.0725C127.656 74.8888 130.111 75.0411 132.462 75.0427L137.138 75.0539C138.137 75.0592 139.177 75.0179 140.165 75.1795C142.344 75.5355 144.04 76.9747 145.305 78.7026L143.949 78.6931L130.821 78.7112L127.296 78.6988C126.643 78.6935 125.915 78.752 125.278 78.6077C124.769 78.4923 124.387 78.2042 124.128 77.7461C123.891 77.3276 123.87 76.8131 124.019 76.3631C124.239 75.6957 124.707 75.3669 125.317 75.0725Z" fill="#6D0A33"/>
<path d="M92.0576 83.34C93.4143 83.2252 94.8905 83.3323 96.0954 84.0222C97.6853 84.9326 98.9733 86.5834 99.4222 88.3579C99.9084 90.2807 99.6619 92.154 98.6337 93.8563C97.6297 95.5184 96.1554 96.4403 94.2995 96.9055C93.6934 97.009 93.0192 97.0335 92.4092 96.9569C90.8029 96.755 89.1794 95.9569 88.1675 94.6722C87.0238 93.22 86.3158 91.2659 86.5811 89.4073L86.6093 89.2193C86.7618 88.1323 87.1463 87.082 87.734 86.1517C88.7464 84.5492 90.2386 83.7375 92.0576 83.34Z" fill="#6D0A33"/>
<path d="M91.0028 85.6368C91.4455 85.6198 92.0202 85.686 92.4192 85.8873C93.0657 86.2133 93.5386 86.7542 93.7763 87.4364C93.9922 88.056 93.8748 88.8068 93.572 89.3813C93.15 90.1818 92.4896 90.5658 91.645 90.8099C91.1749 90.8289 90.7476 90.7635 90.3133 90.5711C89.5748 90.2436 89.0478 89.6079 88.7873 88.8516C88.605 88.3221 88.6874 87.6421 88.9515 87.1502C89.387 86.3389 90.1471 85.8842 91.0028 85.6368Z" fill="white"/>
<path d="M132.693 83.2379C134.086 83.1575 135.489 83.4105 136.676 84.1743C138.441 85.3105 139.519 86.9728 139.938 89.0192C140.311 90.8426 139.749 92.8056 138.706 94.3116C137.613 95.8895 135.979 96.7169 134.129 97.0309C132.591 97.1901 131.11 96.9115 129.79 96.0861C128.177 95.0777 127.039 93.4851 126.652 91.6188C126.269 89.7678 126.792 87.6014 127.888 86.0748C129.102 84.3835 130.644 83.5632 132.693 83.2379Z" fill="#6D0A33"/>
<path d="M131.74 85.3116C132.058 85.2966 132.362 85.3237 132.672 85.3983C133.311 85.5519 133.795 86.0521 134.099 86.6151C134.376 87.1278 134.658 87.8364 134.465 88.4114L134.411 88.5573C134.305 88.8806 134.223 89.1918 134.028 89.4776C133.542 90.192 132.928 90.4081 132.124 90.5813C131.585 90.5378 131.064 90.4818 130.587 90.2048C130.003 89.8651 129.579 89.2653 129.42 88.61C129.257 87.9413 129.316 87.2469 129.689 86.6568C130.181 85.8815 130.882 85.5283 131.74 85.3116Z" fill="white"/>
<path d="M86.5602 99.9091C87.3744 99.8486 88.2627 99.9634 89.0471 100.187C90.9416 100.726 92.5567 101.91 93.5185 103.643C94.415 105.258 94.9716 107.433 94.4038 109.254C94.1018 110.221 93.7304 111.077 93.1191 111.896C91.6779 113.828 89.935 114.641 87.628 114.982C86.6732 114.999 85.5251 115.012 84.6365 114.614L83.0949 113.868C81.4474 112.897 80.0567 111.168 79.5827 109.306L79.541 109.138L79.3836 108.432C79.1148 106.591 79.6919 104.384 80.8358 102.919C82.253 101.104 84.3121 100.161 86.5602 99.9091Z" fill="#FFB4D5"/>
<path d="M137.86 99.9062C138.447 99.8731 139.006 99.8588 139.591 99.9563C141.616 100.294 143.783 101.386 145.388 102.656C145.726 102.924 146.184 103.261 146.398 103.638C146.952 104.616 146.395 107.378 146.058 108.425C145.765 109.333 145.46 110.178 144.989 111.013C143.817 113.093 141.949 114.106 139.705 114.722C138.713 114.799 137.52 114.897 136.565 114.602L136.395 114.546C135.478 114.26 134.666 113.894 133.904 113.306C132.372 112.124 131.185 110.348 130.962 108.395C130.733 106.402 131.179 104.369 132.462 102.792C133.838 101.102 135.719 100.169 137.86 99.9062Z" fill="#FFB4D5"/>
<path d="M100.653 130.783L100.764 130.813C102.107 131.183 103.381 131.691 104.748 132.016C109.082 133.045 113.696 133.257 118.098 132.548C120.56 132.152 122.95 131.451 125.328 130.712L125.309 137.247C125.307 138.349 125.2 139.577 125.366 140.663L125.431 140.688L125.529 140.817C125.67 140.989 125.805 141.078 125.989 141.195L126.228 141.777C126.744 141.509 127.027 141.41 127.583 141.612C127.74 141.668 127.874 141.729 128.016 141.813L114.228 155.202L113.351 156.097C113.185 156.129 113.051 156.067 112.891 156.023C112.659 155.707 112.265 155.407 111.979 155.13L101.796 145.46C100.546 144.215 99.1138 142.971 98.0518 141.563C98.3517 141.457 98.6938 141.242 99.003 141.375C99.3621 141.529 99.6117 141.889 99.9577 142.07C100.027 141.565 100.215 140.865 100.1 140.371L100.626 140.222C100.764 139.894 100.749 139.5 100.771 139.145L100.741 133.276C100.74 132.445 100.76 131.609 100.653 130.783Z" fill="white"/>
<path d="M100.77 139.145L100.855 142.714L99.957 142.07C100.026 141.565 100.215 140.865 100.1 140.371L100.625 140.222C100.763 139.894 100.748 139.5 100.77 139.145Z" fill="#7B1945"/>
<path d="M98.0518 141.563C98.3517 141.457 98.6938 141.242 99.003 141.375C99.3621 141.529 99.6117 141.889 99.9577 142.07L100.856 142.714L113.114 154.523L121.983 145.918C122.633 145.376 123.24 144.755 123.855 144.172C124.349 143.704 124.897 143.254 125.272 142.685L126.228 141.777C126.744 141.509 127.027 141.41 127.583 141.612C127.74 141.668 127.874 141.729 128.016 141.813L114.228 155.202L113.351 156.097C113.185 156.129 113.051 156.067 112.891 156.023C112.659 155.707 112.265 155.407 111.979 155.13L101.796 145.46C100.546 144.214 99.1138 142.971 98.0518 141.563Z" fill="#463C56"/>
<path d="M100.652 130.783L100.764 130.813C102.107 131.183 103.38 131.691 104.748 132.016C109.081 133.045 113.695 133.257 118.097 132.548C120.559 132.152 122.95 131.451 125.327 130.712L125.309 137.247C125.306 138.349 125.199 139.577 125.366 140.663L125.431 140.688L125.528 140.817C125.67 140.989 125.804 141.078 125.989 141.195L126.227 141.777L125.272 142.685C124.896 143.254 124.349 143.704 123.855 144.172C123.24 144.755 122.633 145.376 121.982 145.918C120.612 145.007 119.081 144.24 117.656 143.406L106.931 137.173C104.836 135.946 102.644 134.792 100.74 133.276C100.739 132.445 100.76 131.609 100.652 130.783Z" fill="#EEA78C"/>
<path d="M125.365 140.663L125.43 140.688L125.528 140.818C125.669 140.989 125.804 141.078 125.989 141.195L126.227 141.778L125.271 142.685L125.365 140.663Z" fill="#7B1945"/>
</svg>
