<svg width="294" height="294" viewBox="0 0 294 294" fill="none" xmlns="http://www.w3.org/2000/svg">
<path d="M71.0361 91.8745L101.132 91.8191L106.705 91.8042C107.144 91.8031 108.06 91.9214 108.456 91.7993C108.592 91.7573 108.682 91.6255 108.795 91.5386L108.669 92.3792L93.377 92.3709C94.6862 92.087 96.2593 92.2057 97.6032 92.1816C97.5082 91.9315 96.4743 92.0295 96.1817 92.0295L78.1114 92.0387L73.238 92.0344C72.5409 92.0338 71.6695 92.1645 71.0361 91.8745Z" fill="#5E53CC"/>
<path d="M229.563 112.712L224.694 112.7L239.43 112.714L246.495 112.68C247.606 112.68 248.861 112.567 249.957 112.717C250.297 112.764 250.591 112.913 250.841 113.146C251.128 113.413 251.287 113.728 251.332 114.118C251.5 115.583 251.35 117.24 251.346 118.728L251.33 128.278L251.354 159.586C251.348 160.426 251.444 160.985 250.779 161.614C250.566 161.816 250.367 161.966 250.072 162.007C249.225 162.125 248.223 162.031 247.361 162.035C244.734 162.048 242.029 161.891 239.415 162.079L238.848 162.048L203.652 162.123L202.597 161.9C202.208 162.006 202.005 161.984 201.623 162.001L201.337 162.093L200.945 162.163L191.364 162.262L191.371 161.569L201.576 161.543L201.907 158.385L202.307 136.874L202.282 136.068C201.747 135.483 198.644 136.201 197.709 135.774L202.276 135.731L202.26 120.727C202.261 118.574 202.017 116.09 202.317 113.979C202.371 113.598 202.553 113.309 202.83 113.046C203.03 112.854 203.281 112.684 203.559 112.633C204.141 112.525 204.85 112.595 205.45 112.595L209.039 112.611L219.209 112.667L220.069 112.677C220.394 112.241 224.001 113.305 224 112.698L220.359 112.688L218.5 112.663C225.5 112.701 222.5 112.694 222.5 112.694L220.359 112.688L238.767 112.736L229.563 112.712Z" fill="#473CBC"/>
<path d="M222.789 126.102L237.335 126.104L237.326 128.328L222.798 128.367L222.789 126.102Z" fill="white"/>
<path d="M222.927 144.271L237.332 144.268L237.316 146.634L222.932 146.597L222.927 144.271Z" fill="white"/>
<path d="M222.692 121.337L245.331 121.388L245.288 123.566L222.694 123.617L222.692 121.337Z" fill="white"/>
<path d="M222.846 139.716L245.285 139.857L245.265 142.055L222.844 142.008L222.846 139.716Z" fill="white"/>
<path d="M212.13 119.57C212.797 119.539 213.374 119.533 214.016 119.754C215.115 120.13 216.006 120.937 216.476 121.998C216.971 123.117 216.927 124.214 216.439 125.327C215.864 126.637 214.854 127.329 213.573 127.83C212.64 127.879 211.919 127.874 211.042 127.501C210.173 127.132 209.399 126.353 209.051 125.479L208.975 125.278C208.681 124.51 208.609 123.595 208.815 122.791L208.859 122.629C208.964 122.234 209.087 121.882 209.293 121.526C209.94 120.41 210.923 119.897 212.13 119.57Z" fill="#FE8A7D"/>
<path d="M212.136 133.307C213.034 133.272 213.836 133.373 214.635 133.814C215.671 134.387 216.378 135.455 216.671 136.58C216.939 137.611 216.783 138.72 216.224 139.629C215.521 140.774 214.513 141.391 213.233 141.702C212.359 141.74 211.581 141.558 210.81 141.14C209.786 140.586 209.08 139.59 208.775 138.485C208.474 137.393 208.586 136.27 209.174 135.284C209.861 134.134 210.871 133.59 212.136 133.307Z" fill="#FE8A7D"/>
<path d="M212.137 147.168C212.939 147.126 213.584 147.21 214.331 147.517C215.274 147.904 216.159 148.722 216.515 149.683C216.978 150.936 216.917 152.187 216.276 153.37C215.618 154.584 214.549 155.171 213.265 155.544C212.311 155.609 211.45 155.437 210.64 154.921C209.655 154.294 208.975 153.359 208.742 152.21L208.704 152.009C208.509 151.009 208.674 149.951 209.202 149.07C209.884 147.934 210.909 147.482 212.137 147.168Z" fill="#FE8A7D"/>
<path d="M108.795 91.5386C108.765 89.8704 109.243 87.9524 109.759 86.3631C111.856 79.9035 116.62 75.4691 122.571 72.4422L119.945 68.132C119.591 67.5575 119.007 66.8475 119.079 66.1455C119.216 66.0123 119.368 65.8473 119.536 65.7481C119.892 65.5376 120.135 65.5059 120.528 65.5702L124.132 71.3731C128.282 66.8787 133.042 62.915 139.142 61.5042C147.437 59.5855 156.82 61.763 163.937 66.1819L164.615 66.6997C168.249 69.6674 174.104 70.6202 178.685 70.1784C179.777 70.0732 180.907 69.8456 181.969 69.5722C182.72 69.3789 184.068 68.6063 184.736 68.7296C184.874 69.5293 184.597 70.3265 184.365 71.0886C183.503 73.9254 181.898 76.0487 180.565 78.6253C183.591 78.9976 186.809 78.7715 189.712 77.8104C190.595 77.5179 191.417 77.0936 192.306 76.8122C192.042 83.6333 189.817 89.5479 184.703 94.2233C183.349 95.4614 181.828 96.4588 180.271 97.4218C180.335 102.946 180.082 108.224 179.27 113.697L179.453 113.797C181.711 115.062 183.19 116.917 183.884 119.412C184.6 121.988 184.236 125.025 182.909 127.353C181.821 129.261 179.994 130.837 177.86 131.444C176.706 131.772 175.618 131.721 174.429 131.702C173.909 133.198 173.307 134.499 172.513 135.872L194.96 135.952C195.277 136.147 195.572 136.337 195.858 136.578C197.853 137.147 200.234 136.853 202.307 136.874L201.907 158.385L201.576 161.543L191.371 161.569L191.364 162.262L200.945 162.163L201.337 162.093L201.623 162.001C202.005 161.984 202.208 162.006 202.597 161.9L203.652 162.123L238.848 162.048L239.415 162.079L239.414 170.798L246.986 170.831L247.156 171.024L247.087 171.469C246.306 171.836 240.649 171.529 239.411 171.529L239.413 177.599L255.855 177.594C258.571 177.597 261.544 177.356 264.215 177.714C265.024 177.823 265.781 178.129 266.498 178.51C267.715 179.567 268.551 180.468 268.646 182.159C268.718 183.445 268.293 184.783 268.014 186.036L266.875 191.24L261.734 214.058L258.303 229.785C257.771 232.175 257.339 234.651 256.658 237C256.496 237.556 256.165 237.994 255.763 238.405C255.233 238.947 254.578 239.411 253.817 239.554C252.962 239.716 252.016 239.653 251.148 239.655L246.999 239.658L231.558 239.645L233.594 252.446L238.756 252.472C240.006 252.48 241.759 252.226 242.858 252.874C243.166 253.434 243.042 254.34 243.043 254.976L243.035 259.81L260.821 259.874L264.989 259.891C265.824 259.882 266.736 259.797 267.563 259.888C268.333 259.973 269.2 260.464 269.721 261.023C270.344 261.691 270.8 262.702 270.721 263.625C270.62 264.795 270.142 265.646 269.225 266.369C268.668 266.808 268.027 267.103 267.331 267.246L27.5405 267.236C26.6957 267.118 25.9753 266.907 25.2996 266.366C24.4788 265.708 23.9488 264.911 23.8708 263.848C23.7971 262.843 24.1316 261.886 24.8385 261.166C25.4214 260.573 26.1321 260.121 26.9464 259.927C28.2341 259.621 29.8959 259.803 31.2298 259.803L39.3723 259.811L39.3791 238.579L34.0478 238.478C33.8735 235.981 33.9835 233.406 33.9723 230.9C33.9683 230.02 33.7446 228.361 34.1342 227.611C34.7217 227.222 36.0579 227.403 36.7771 227.405L44.1466 227.435C44.1641 226.622 43.9591 224.368 44.4303 223.82L45.2161 223.823C45.6453 224.427 45.4067 226.604 45.4125 227.43L51.8397 227.393L51.838 223.265L46.2514 217.793C45.989 218.523 45.5612 219.331 45.0697 219.93C43.9514 221.295 41.9683 222.248 40.2221 222.374C38.2034 222.52 36.2476 221.947 34.7418 220.572C32.8115 218.81 31.6215 216.378 30.6039 214.018C30.1477 212.96 29.6128 211.864 29.5669 210.698C29.7033 210.546 29.7001 210.529 29.9057 210.412C30.3507 210.159 31.2063 210.206 31.7254 210.178C34.6938 210.02 37.7722 210.142 40.6261 211.039C43.1655 211.838 44.8704 213.242 46.0556 215.631C46.6071 216.743 48.2468 217.724 49.1888 218.623L51.9029 221.358L51.8305 213.984L44.4799 207.653C44.1937 207.866 43.9597 208.124 43.7022 208.368C42.4168 209.585 40.5882 210.113 38.8445 210.041C36.2634 209.934 34.5434 208.88 32.8313 207.052C31.5388 205.288 30.5454 203.46 29.6817 201.452C29.2318 200.406 28.7707 199.336 28.8063 198.178C29.9189 197.058 33.7326 197.737 35.291 197.711L35.5784 197.704C38.6843 198.139 41.5531 198.776 43.672 201.262C44.9117 202.716 45.3128 204.352 45.1371 206.222L45.1159 206.426L51.8641 212.469C52.0814 211.714 51.9143 210.584 51.9086 209.767L51.8581 203.022C49.3318 200.74 46.8842 198.111 44.1414 196.099C43.6051 196.567 43.074 197.018 42.4205 197.319C40.2841 198.306 38.1914 197.885 36.0814 197.127L35.3392 196.631C32.4136 194.793 30.8236 191.08 29.5772 188.025C29.2895 187.32 28.7679 186.294 28.715 185.536C28.6865 185.125 28.881 185.015 29.1417 184.743C29.7558 184.512 30.4788 184.584 31.1296 184.586C33.8052 184.596 36.5009 184.935 39.088 185.63C41.2554 186.213 42.985 187.741 44.0599 189.682C44.9695 191.324 45.4535 192.893 44.8902 194.738L44.8423 194.89L51.8942 201.249C52.0576 200.337 51.9218 199.199 51.9123 198.264C51.8954 196.564 51.9462 194.834 51.8216 193.139C50.5417 192.07 49.3912 190.835 48.2198 189.65C46.3565 187.765 44.5583 185.887 42.8934 183.823C42.3372 184.098 41.7495 184.368 41.1483 184.531C39.382 185.01 37.3539 184.539 35.79 183.672C32.2752 181.723 30.0791 176.583 29.111 172.883C29.0082 172.49 28.858 172.167 29.1328 171.81C29.4182 171.439 29.9396 171.424 30.3619 171.404C34.0501 171.233 38.7633 171.643 41.9806 173.61C42.7197 174.061 43.2591 174.739 43.9588 175.233C44.9014 175.897 45.8124 176.405 46.668 177.199L51.8592 182.486L51.8457 175.197L47.0625 170.623L46.138 171.247C44.8001 171.985 43.1994 172.075 41.7418 171.675L41.4874 171.602C40.6545 171.368 39.8839 171.021 39.1719 170.528C36.6935 168.812 35.3257 165.68 34.3857 162.935C33.9872 161.771 33.5678 160.543 33.38 159.324C33.2884 158.73 33.2789 158.427 33.6212 157.942C35.0533 157.368 39.6769 158.734 41.2261 159.241C43.8061 160.085 46.5592 161.27 47.7963 163.844C48.7424 165.813 48.6519 167.542 47.9204 169.541C48.9011 170.969 50.6344 172.338 51.8833 173.575L51.8638 161.237C51.2847 161.062 50.7306 160.879 50.1997 160.585C48.3815 159.577 47.051 157.862 46.5219 155.854C46.2393 154.782 46.1655 153.673 46.3705 152.581C46.879 149.871 48.5319 147.076 49.7958 144.637C50.3901 143.49 50.9385 142.227 51.6376 141.144C51.9379 140.678 52.2282 140.549 52.7564 140.45C53.8813 141.017 55.9626 145.936 56.6014 147.324C58.0048 150.374 59.5035 153.295 58.2138 156.656C57.2887 159.066 55.6158 160.26 53.318 161.284L53.3235 173.206L57.0143 169.334L56.6611 167.951C56.31 166.364 56.7877 164.64 57.6396 163.288C59.9614 159.602 65.9758 158.773 69.8819 157.888L70.6459 157.841C70.5911 157.752 70.5018 157.676 70.4811 157.574C70.399 157.167 70.478 156.542 70.4768 156.118L70.4711 153.248L70.4719 141.06L70.4137 118.076L70.3597 92.5497C70.9976 92.3441 71.8547 92.423 72.5271 92.421L76.8653 92.4122L93.377 92.371L108.669 92.3793L108.795 91.5386Z" fill="#0D058C"/>
<path d="M157.505 253.874L160.292 254.009C160.178 254.623 160.062 255.185 159.848 255.774C159.464 256.154 159.45 256.163 158.915 256.234C158.056 255.781 157.834 254.736 157.505 253.874Z" fill="white"/>
<path d="M168.494 79.0234C169.372 78.9119 171.337 80.1154 172.244 80.4542C173.311 80.8528 174.426 81.206 175.539 81.4556C179.172 82.2699 182.884 81.9142 186.549 81.5911C186.361 81.8367 186.031 81.8465 185.736 81.9245C182.406 82.9156 178.539 83.2879 175.136 82.5347C173.266 82.1207 171.514 81.409 169.81 80.5497C169.324 80.305 168.435 79.9278 168.257 79.3808L168.494 79.0234Z" fill="white"/>
<path d="M121.613 82.8834L121.951 82.8208L122.284 83.1065C122.332 83.753 121.344 84.5896 120.936 85.1303C118.706 88.0838 117.108 91.9706 116.88 95.6792C116.756 97.7056 116.969 99.6746 117.251 101.679L116.926 101.847C116.78 101.736 116.713 101.702 116.608 101.524C116.389 101.149 116.276 100.532 116.166 100.108C115.632 98.0645 115.605 95.8931 115.904 93.8117C116.45 90.0027 118.434 85.2253 121.613 82.8834Z" fill="white"/>
<path d="M120.442 77.3075L120.847 77.2715L121.111 77.6984C121.042 78.2119 120.222 78.7335 119.82 79.0815C118.988 79.8006 118.2 80.5286 117.471 81.3527C114.572 84.6281 112.92 88.9684 112.703 93.3201C112.599 95.4229 112.837 97.4425 112.98 99.5327L112.706 99.6107L112.613 99.4635C112.218 98.7418 112.028 97.6867 111.894 96.8752C111.418 93.9789 111.603 90.9099 112.407 88.0823C113.69 83.5727 116.261 79.6451 120.442 77.3075Z" fill="white"/>
<path d="M107.571 226.71C107.662 226.746 107.742 226.803 107.826 226.853L107.656 242.177L104.293 242.172C104.004 242.102 104.127 242.177 103.933 241.937L105.85 233.956L106.935 229.157C107.123 228.357 107.225 227.456 107.571 226.71Z" fill="white"/>
<path d="M57.9207 179.81C58.0203 180.313 58.0479 180.833 58.1937 181.325C58.5997 182.696 59.5265 183.558 60.6221 184.397L54.9129 189.887L53.4125 191.378L53.4053 186.24C53.4048 185.763 53.2928 184.954 53.403 184.508C53.4673 184.248 54.1679 183.653 54.3901 183.425L57.9207 179.81Z" fill="white"/>
<path d="M137.805 85.7427C138.191 85.7821 138.474 86.1173 138.777 86.3543C139.489 86.913 140.209 87.4577 140.97 87.9513C141.808 88.4957 142.697 88.9698 143.588 89.4221C146.872 91.0906 150.656 92.1683 154.284 92.7836C159.114 93.6026 164.492 93.8027 169.366 93.2629L173.397 92.6138C174.019 92.4828 175.187 92.009 175.755 92.2017L175.947 92.6767L175.718 93.0341C174.425 93.7335 172.892 93.9857 171.456 94.2322C166.333 95.1126 161.033 94.9968 155.9 94.2494C149.611 93.3335 141.785 91.0577 137.805 85.7427Z" fill="white"/>
<path d="M44.8255 177.276L51.7989 184.275L51.9275 191.254L51.7518 191.339L51.3848 190.947C48.881 188.338 46.1457 185.894 43.9619 183.003L44.574 182.175C45.5034 180.704 45.1793 178.864 44.8255 177.276Z" fill="white"/>
<path d="M143.914 64.5648C144.739 64.4273 145.703 64.487 146.544 64.4782C151.572 64.425 156.538 65.5833 160.932 68.0372C163.387 69.408 165.752 71.1471 168.482 71.9477C170.949 72.6712 173.516 72.972 176.086 72.9171L179.324 72.7118L178.552 72.9891C177.307 73.366 175.881 73.4618 174.588 73.5055C170.744 73.6356 167.173 72.8453 163.77 71.0773C161.848 70.0025 160.015 68.8347 157.988 67.9546C150.56 64.7286 142.243 64.4504 135.033 68.3343L132.607 69.7583C132.175 70.0217 131.734 70.3945 131.209 70.3759L130.877 70.0162L130.994 69.7726C134.99 66.9155 139.003 65.1633 143.914 64.5648Z" fill="white"/>
<path d="M144.73 76.7359L145.083 76.7173L145.598 77.2048C150.143 81.4622 155.861 83.8861 161.855 85.3395C168.318 86.9064 175.306 87.3502 181.857 86.0309C183.594 85.6809 185.387 85.0758 186.996 84.3381C187.629 84.0476 188.854 83.1892 189.496 83.1695L188.982 83.6101L186.538 85.1888C177.992 89.6389 166.56 88.2412 157.716 85.403C153.886 84.174 150.248 82.5501 147.162 79.9404C146.191 79.1195 145.203 78.2359 144.614 77.0933L144.73 76.7359Z" fill="white"/>
<path d="M59.298 218.51C59.8082 219.65 60.3 220.519 61.3184 221.279L61.4778 221.394L61.4611 227.365L55.6523 227.377L53.2974 227.374L53.2871 223.218C55.4011 222.004 57.3971 220.05 59.298 218.51Z" fill="white"/>
<path d="M159.413 195.015L173.502 195.022L172.557 199.302L172.381 199.832C171.007 200.042 169.423 199.898 168.027 199.898L159.408 199.89L159.413 195.015Z" fill="white"/>
<path d="M69.5999 165.455L69.6438 171.582C67.4104 171.901 65.0283 172.046 62.9459 172.98C61.086 173.814 58.8632 175.921 58.193 177.863L58.1181 178.101C56.3486 179.126 54.7136 181.104 53.3219 182.595L53.2935 176.635C53.2921 176.361 53.1904 175.409 53.2861 175.196C53.4141 174.909 54.2321 174.274 54.4793 174.016L57.6728 170.527C58.1305 170.656 58.5025 171.065 58.9295 171.285C60.322 172.001 62.1302 172.088 63.6174 171.627C66.5729 170.712 68.2123 167.985 69.5999 165.455Z" fill="white"/>
<path d="M204.971 239.78L210.589 239.781L211.78 252.393L204.96 252.424L204.971 239.78Z" fill="white"/>
<path d="M69.4579 181.925C69.8544 182.728 69.6095 184.534 69.6026 185.462L67.7645 185.774C65.225 186.288 62.7625 187.459 61.3106 189.682C60.1949 191.39 59.803 193.327 60.2558 195.312L60.2853 195.436L53.4091 201.51L53.4082 193.291C56.1022 191.164 58.1805 188.225 60.7588 185.93C61.0614 185.661 61.6324 185.041 61.9928 184.887C62.0887 184.846 62.5722 184.892 62.6864 184.892C63.4602 184.894 64.2081 184.922 64.9546 184.689L65.1734 184.616C66.8946 184.069 68.1389 183.124 69.4579 181.925Z" fill="white"/>
<path d="M69.8416 159.196L70.3383 159.188C70.5226 159.926 68.9438 163.979 68.5358 164.835C67.3963 167.224 65.5921 169.725 62.9636 170.573C61.6667 170.992 60.4741 170.61 59.3024 170.035C58.6067 169.457 58.1445 168.923 57.9343 168.021C57.6079 166.621 57.9599 165.02 58.785 163.857C61.0179 160.707 66.2944 159.872 69.8416 159.196Z" fill="#F16361"/>
<path d="M74.5085 186.107C74.814 186.08 74.6581 186.063 74.9742 186.179C74.669 187.266 74.1051 188.33 73.5944 189.333C72.1123 192.244 69.847 195.778 66.5074 196.765C65.0879 197.184 63.8906 197.028 62.6041 196.315C61.9107 195.657 61.4106 194.922 61.3207 193.948C61.1887 192.516 61.944 190.934 62.8375 189.848C65.5725 186.524 70.5467 186.483 74.5085 186.107Z" fill="#F16361"/>
<path d="M72.9887 198.962C73.4642 198.792 74.4757 198.881 75.0146 198.854C73.6778 202.228 71.811 206.24 68.5475 208.173C66.89 209.155 65.2434 209.354 63.403 208.871C62.9991 208.687 62.6327 208.471 62.2813 208.198C61.4966 207.588 61.0263 206.644 60.9187 205.667C60.8015 204.608 61.26 203.442 61.9336 202.636C64.6738 199.355 69.074 199.325 72.9887 198.962Z" fill="#F16361"/>
<path d="M70.6708 211.687L74.1164 211.568C73.4824 214.436 72.1729 217.905 69.7503 219.743C67.9737 221.09 66.2323 221.478 64.0486 221.196L63.932 221.159L63.7382 221.095C63.2206 220.928 62.7101 220.776 62.2662 220.449C61.3055 219.743 60.5786 218.695 60.4494 217.497C60.3449 216.528 60.6389 215.609 61.2777 214.868C63.6435 212.125 67.2987 211.905 70.6708 211.687Z" fill="#F16361"/>
<path d="M34.4937 158.821C37.6857 159.552 41.6378 160.163 44.4248 161.982C45.8439 162.909 46.8902 164.205 47.2103 165.895C47.479 167.312 47.1902 168.365 46.3717 169.53C45.9232 169.911 45.4707 170.287 44.8973 170.458C43.4621 170.888 41.5436 170.588 40.2746 169.834C36.7897 167.766 35.3906 162.487 34.4937 158.821Z" fill="#F16361"/>
<path d="M30.9331 211.398C34.5696 211.176 39.2277 211.156 42.4166 213.167C43.4537 213.821 44.9185 215.341 45.0066 216.635C45.077 217.668 44.1223 218.951 43.4786 219.675C42.824 220.186 42.1665 220.607 41.3816 220.9C39.9736 221.425 38.4281 221.387 37.0683 220.736C33.7746 219.158 32.0422 214.625 30.9331 211.398Z" fill="#F16361"/>
<path d="M29.8594 198.767C33.6435 198.604 38.7463 198.513 41.8226 201.085C42.8872 201.975 43.8646 203.407 43.9392 204.814C44.003 206.016 43.3762 206.768 42.609 207.605C42.1149 207.988 41.6429 208.294 41.0572 208.522C39.5878 209.093 37.8786 209.137 36.4244 208.495C32.9469 206.958 31.0911 202.06 29.8594 198.767Z" fill="#F16361"/>
<path d="M30.0933 185.764C32.573 185.869 35.0267 185.976 37.4677 186.455C38.7711 186.711 40.0588 187.016 41.1076 187.887C42.6081 189.133 43.7867 190.908 43.9015 192.889C43.9695 194.062 43.4002 194.837 42.6523 195.667C42.1134 196.054 41.5133 196.422 40.8762 196.622C39.3827 197.088 37.9678 196.773 36.6063 196.065C33.1297 194.257 31.2029 189.299 30.0933 185.764Z" fill="#F16361"/>
<path d="M116.737 114.61C117.307 114.582 117.903 114.818 118.446 114.974C118.454 119.613 118.155 124.374 119.03 128.942L118.813 129.031C117.145 129.572 115.226 129.03 113.73 128.299L113.056 127.83C111.378 126.584 110.387 124.919 110.136 122.839C109.896 120.851 110.247 118.846 111.512 117.249C112.913 115.48 114.549 114.888 116.737 114.61Z" fill="white"/>
<path d="M30.2495 172.579C33.8034 172.572 38.9949 172.66 41.8559 175.065C42.971 176.003 43.8008 177.512 43.9199 178.97C44.0417 180.456 43.7563 181.282 42.7815 182.425C42.2682 182.821 41.7235 183.172 41.0997 183.369C39.6509 183.825 38.1008 183.572 36.7692 182.882C33.1754 181.021 31.4637 176.157 30.2495 172.579Z" fill="#F16361"/>
<path d="M72.7379 172.518C73.1057 172.494 73.2624 172.408 73.5722 172.635C73.3374 173.812 72.6575 175.085 72.0982 176.144C70.4109 179.338 68.0052 182.494 64.3781 183.543C63.1318 183.904 62.3095 183.76 61.1846 183.164L60.8073 182.866C59.983 182.155 59.3669 181.038 59.2903 179.948C59.1866 178.472 59.766 177.252 60.7229 176.152C63.6282 172.814 68.6417 172.824 72.7379 172.518Z" fill="#F16361"/>
<path d="M174.858 119.114C175.729 118.857 177.529 119.769 178.323 120.201L179.808 121.115C179.102 120.336 178.403 119.605 177.453 119.114C176.897 118.828 176.27 118.622 175.665 118.469C175.553 118.441 174.902 118.33 174.851 118.283C174.816 118.25 174.838 114.69 174.836 114.285C175.732 114.286 176.574 114.277 177.448 114.501L177.669 114.555C179.478 115.022 181.051 116.303 181.975 117.911C183.111 119.888 183.258 122.644 182.63 124.818C182.031 126.891 180.74 128.684 178.797 129.694C177.565 130.334 176.354 130.46 174.993 130.544C174.726 130.378 174.826 130.481 174.677 130.254C174.458 130.358 174.567 130.336 174.354 130.34L174.349 129.849L174.491 129.636L174.527 126.846C174.505 126.509 174.586 126.196 174.532 125.864C174.341 124.7 174.488 123.318 174.492 122.128L174.634 121.985C174.696 121.348 174.744 120.419 174.585 119.794L174.492 119.555C174.663 119.299 174.63 119.407 174.678 119.119L174.705 118.922L174.858 119.114Z" fill="white"/>
<path d="M174.677 130.254C174.458 130.358 174.567 130.336 174.354 130.34L174.349 129.849L174.491 129.636L174.527 126.846C174.505 126.509 174.586 126.196 174.532 125.864C174.341 124.7 174.488 123.318 174.492 122.128L174.634 121.985C174.696 121.349 174.744 120.419 174.585 119.794L174.492 119.555C174.663 119.299 174.63 119.407 174.678 119.119L174.705 118.922L174.858 119.114L174.854 121.399C176.056 121.561 177.116 121.665 177.908 122.702C178.274 123.182 178.472 123.809 178.358 124.409L177.821 126.259C177.742 125.138 177.951 123.605 177.018 122.817C176.404 122.297 175.604 122.213 174.839 122.081L174.677 130.254Z" fill="#2C1A8B"/>
<path d="M52.4936 141.789L55.6062 148.108C56.2192 149.397 56.8729 150.711 57.268 152.088L57.3254 152.294L57.39 152.51C57.8129 154.003 57.4514 155.629 56.6897 156.954C55.7939 158.511 54.4609 159.454 52.7213 159.884C52.0575 159.775 51.4049 159.676 50.787 159.397C49.4109 158.776 48.4218 157.6 47.9068 156.199C46.7632 153.088 48.4635 150.047 49.8232 147.291L52.4936 141.789Z" fill="#F16361"/>
<path d="M83.6113 225.918L85.0825 219.381L106.38 226.274L104.553 233.671C103.843 233.2 102.867 232.88 102.07 232.572L97.5258 230.929L88.9849 227.912C87.1962 227.276 85.4417 226.415 83.6113 225.918Z" fill="#D0ACBC"/>
<path d="M85.5385 211.761L109.766 219.874C109.519 220.901 108.816 224.875 108.258 225.424C105.864 225.018 103.444 224.245 101.11 223.565L90.7769 220.249C88.5093 219.402 86.2948 218.344 83.9824 217.634L85.5385 211.761Z" fill="#FD776B"/>
<path d="M134.896 156.587L134.836 148.241C139.319 150.168 144.348 151.081 149.231 150.492C152.92 150.048 156.251 149.131 159.592 147.481L159.526 155.931L159.469 152.92C158.012 153.857 156.543 154.867 154.895 155.444C151.431 156.656 147.523 156.58 143.895 156.587L134.896 156.587Z" fill="#FE8A7D"/>
<path d="M151.262 242.424L151.744 242.381C155.832 242.145 160.682 242.751 163.868 245.549C165.541 247.018 167.133 249.123 167.23 251.446C167.244 251.786 167.259 251.776 167.031 252.016C166.815 252.044 166.201 252.159 166.032 252.005C165.73 251.73 165.342 250.716 165.111 250.307C163.647 247.717 161.85 246.305 159.299 244.863L158.364 245.576C161.196 247.463 163.044 249.334 164.593 252.382C163.537 252.39 162.318 252.519 161.283 252.341L160.832 251.193C159.781 248.777 157.338 246.757 154.917 245.812C154.036 245.468 152.852 245.031 151.953 245.429C152.09 245.762 154.494 246.883 154.958 247.149C157.189 248.446 158.743 250.101 159.866 252.41L156.753 252.415C155.422 250.374 153.325 249.247 151.02 248.621C149.997 248.343 149.061 248.343 148.008 248.348C150.44 249.519 153.254 250.492 155.153 252.457C154.823 252.594 154.146 252.508 153.773 252.506L150.499 252.492L135.747 252.518C136.324 251.352 136.972 250.237 137.788 249.219C141.326 244.799 145.775 243.052 151.262 242.424Z" fill="white"/>
<path d="M202.639 253.875L241.453 253.888L241.466 259.726L239.29 259.7L200.555 259.82C201.536 258.535 201.837 257.233 201.822 255.643C201.817 255.093 201.732 254.494 201.91 253.967L202.639 253.875Z" fill="#5E53CC"/>
<path d="M185.209 239.707L203.564 239.735L203.599 252.511L185.206 252.401L185.209 239.707Z" fill="white"/>
<path d="M90.4229 212.319L86.3066 210.774L92.4129 192.021C96.3773 182.929 102.468 174.372 110.805 168.764C114.311 166.406 118.299 164.614 122.219 163.061L123.78 166.431C121.618 167.392 119.433 168.304 117.365 169.462C114.679 170.966 111.931 172.748 109.604 174.761C102.645 180.782 98.0577 188.735 94.7956 197.222L90.4229 212.319Z" fill="#FE8A7D"/>
<path d="M161.045 157.465L170.894 161.992L161.085 182.844L159.412 181.664L148.273 173.771C150.116 172.853 151.946 171.722 153.487 170.353C155.791 168.305 157.703 165.838 159.24 163.176C159.848 162.124 160.52 160.956 160.824 159.771C161.008 159.05 161.002 158.208 161.045 157.465Z" fill="#FE8A7D"/>
<path d="M133.251 156.942L133.558 156.94C133.77 157.535 133.79 158.29 133.918 158.921C134.84 163.466 137.504 167.841 141.169 170.707C142.574 171.805 144.13 172.646 145.612 173.626C144.305 175.093 142.605 176.093 140.999 177.199L134.574 181.613L132.811 182.724C132.308 182.281 131.897 181.073 131.61 180.456L128.794 174.235L122.84 161.221L133.251 156.942Z" fill="#FE8A7D"/>
<path d="M133.6 254.872L133.524 259.812L102.319 259.795L93.5366 259.769C91.6052 259.76 89.58 259.864 87.6756 259.526C84.944 259.042 82.2572 257.48 80.6974 255.161C78.3615 251.689 79.3494 248.527 80.0588 244.755C80.8042 248.168 81.7801 251.144 84.8995 253.105C86.2182 253.933 87.6896 254.634 89.2555 254.818C92.4005 255.187 95.8252 254.926 98.9957 254.922L117.362 254.933L129.151 254.945C130.457 254.945 132.248 255.166 133.484 254.905L133.6 254.872Z" fill="#D0ACBC"/>
<path d="M60.4917 238.665L69.4725 238.606L69.4886 259.944L56.1222 259.899C54.0111 259.892 51.7228 260.064 49.6395 259.845C51.3148 259.627 53.2206 259.791 54.9244 259.792L66.3194 259.847L66.4923 248.612C66.4814 246.618 66.7935 243.268 65.5853 241.564C64.966 240.692 63.9571 240.509 62.9689 240.347C62.55 240.353 61.5511 240.239 61.2029 240.374C60.8908 240.496 60.4504 240.908 60.1664 241.111C59.0384 241.919 58.0125 242.846 56.9634 243.75L47.0286 252.299L42.3685 256.329C41.831 256.783 41.3378 257.355 40.748 257.734L40.7503 238.647L60.4917 238.665Z" fill="#F16361"/>
<path d="M134.896 156.587L143.895 156.588C147.523 156.58 151.431 156.656 154.896 155.444C156.543 154.867 158.012 153.857 159.469 152.92L159.526 155.931C159.525 157.117 159.694 158.612 159.442 159.76C159.214 160.804 158.592 161.777 158.036 162.677C156.722 164.804 155.213 166.828 153.436 168.598C151.693 170.334 149.197 172.024 146.907 172.934C141.296 169.872 137.282 165.919 135.443 159.68C135.153 158.695 134.94 157.614 134.896 156.587Z" fill="white"/>
<path d="M62.9689 240.346C63.9571 240.509 64.966 240.691 65.5853 241.564C66.7935 243.268 66.4814 246.618 66.4923 248.612L66.3194 259.847L54.9244 259.792C53.2206 259.791 51.3148 259.626 49.6395 259.845C48.8132 259.971 47.7963 259.865 46.9433 259.869L40.7532 259.86L40.748 257.733C41.3378 257.355 41.831 256.783 42.3685 256.329L47.0286 252.299L56.9634 243.75C58.0125 242.845 59.0384 241.919 60.1664 241.111C60.4504 240.908 60.8908 240.496 61.2029 240.374C61.5511 240.239 62.55 240.353 62.9689 240.346Z" fill="#FE8A7D"/>
<path d="M135.113 253.847L155.99 253.822C156.181 254.063 156.132 253.968 156.244 254.218C156.61 255.029 156.979 255.979 157.533 256.679C157.915 257.161 158.484 257.63 159.13 257.647C159.647 257.66 160.224 257.492 160.592 257.127C161.455 256.27 161.507 255.076 161.545 253.939L197.434 253.793C196.939 254.501 196.637 255.152 196.434 255.987L196.384 256.2C196.337 257.563 196.449 258.448 197.18 259.637L197.28 259.798L135.069 259.666L135.113 253.847Z" fill="#473CBC"/>
<path d="M35.2954 228.655L75.1772 228.631L75.1181 237.385L35.3201 237.389L35.2954 228.655Z" fill="#FAB27B"/>
<path d="M107.984 217.995C108.411 212.208 110.142 206.26 111.76 200.696C112.17 199.287 112.526 197.563 113.23 196.269C113.495 195.781 113.982 195.327 114.401 194.962L115.089 194.4L116.423 202.191C117.62 209.103 119.03 215.752 121.549 222.324C123.694 227.92 126.192 232.922 131.036 236.688C132.895 238.133 134.931 239.249 137.074 240.214C138.03 240.644 139.082 240.975 140 241.464C140.292 241.62 140.437 241.815 140.605 242.091L114.709 242.096L114.712 216.001L114.709 206.269C114.705 204.405 114.783 202.49 114.599 200.634C114.475 199.396 114.135 198.178 113.907 196.954C113.571 198.003 113.562 199.146 113.551 200.237C113.53 202.38 113.728 204.724 113.41 206.838C113.197 208.254 112.676 209.667 112.282 211.042L110.153 218.599L107.984 217.995Z" fill="#F16361"/>
<path d="M109.28 168.035C108.73 168.619 107.942 169.124 107.32 169.646L103.831 172.797L103.88 159.594C103.881 157.222 103.637 154.526 103.965 152.186C104.059 151.513 104.312 150.838 104.664 150.256C105.699 148.542 107.567 147.111 109.536 146.648C111.518 146.181 114.019 146.446 116.054 146.458L125.751 146.479L130.591 146.487C130.832 146.492 131.467 146.429 131.675 146.514C132.259 146.753 132.977 147.368 133.522 147.718C133.758 148.477 133.603 149.489 133.601 150.293L133.624 155.305L133.393 155.382L121.098 160.262L121.683 161.865C120.266 162.405 118.797 162.877 117.424 163.518C114.583 164.842 111.987 166.483 109.28 168.035Z" fill="#5E53CC"/>
<path d="M133.522 147.718C133.757 148.478 133.603 149.489 133.601 150.294L133.624 155.305L133.393 155.382L121.098 160.263L121.683 161.865C120.266 162.405 118.797 162.877 117.423 163.518C114.583 164.843 111.987 166.483 109.28 168.035L109.244 160.386C109.242 159.397 109.087 158.133 109.291 157.19C109.417 156.608 109.794 155.961 110.206 155.533C110.634 155.089 111.148 154.751 111.757 154.621C113.788 154.19 116.186 154.441 118.275 154.443L133.51 154.592L133.522 147.718Z" fill="#2C1A8B"/>
<path d="M172.513 135.872L194.96 135.952C195.277 136.147 195.572 136.337 195.858 136.577C197.853 137.147 200.234 136.853 202.306 136.874L201.907 158.385L201.576 161.542L191.371 161.569C191.376 159.437 191.64 156.918 191.272 154.835C190.967 153.104 190.495 151.588 189.654 150.039C188.268 147.483 185.725 144.993 182.863 144.183L182.602 144.113C180.393 143.505 177.695 143.797 175.4 143.807L165.76 143.816C168.099 141.72 170.226 139.405 171.903 136.742L171.999 136.588L172.513 135.872Z" fill="white"/>
<path d="M172.514 135.872L194.96 135.952C195.277 136.147 195.572 136.337 195.858 136.577L171.999 136.588L172.514 135.872Z" fill="#5E53CC"/>
<path d="M161.168 151.219L161.195 146.986L163.235 145.78C163.497 145.615 163.944 145.232 164.226 145.147C164.465 145.076 164.975 145.139 165.234 145.136L167.46 145.114L176.395 145.057C178.24 145.05 180.518 144.845 182.295 145.366C184.896 146.129 187.198 148.37 188.429 150.722C188.966 151.749 189.386 152.854 189.582 153.997C189.94 156.081 189.802 158.33 189.816 160.446L189.911 172.207C188.71 170.991 187.507 170.027 186.052 169.135C184.675 168.595 183.33 167.576 182.024 166.843L174.365 162.699C173.097 161.988 171.92 161.127 170.635 160.453C167.561 158.843 163.935 158.058 161.112 156.052C161.142 154.436 160.962 152.834 161.168 151.219Z" fill="#5E53CC"/>
<path d="M186.052 169.135C184.675 168.595 183.33 167.576 182.024 166.843L174.365 162.699C173.097 161.988 171.92 161.127 170.635 160.453C167.561 158.843 163.935 158.058 161.112 156.052C161.142 154.436 160.962 152.834 161.168 151.219L161.157 154.456L174.52 154.434L178.052 154.432C178.858 154.431 179.697 154.369 180.488 154.551C181.566 154.799 182.743 155.536 183.523 156.313C185.8 158.581 186.314 161.379 186.235 164.466L186.052 169.135Z" fill="#2C1A8B"/>
<path d="M169.407 238.075C169.176 237.947 168.98 237.815 168.774 237.647C167.949 236.974 167.137 236.045 167.059 234.931C166.964 233.57 167.365 232.026 167.641 230.694L168.792 225.003L175.801 190.893C176.419 187.957 176.743 184.916 177.44 182.01C177.601 181.334 177.826 180.74 178.304 180.22C178.974 179.492 179.856 179.051 180.847 179.003L197.298 178.957L227.552 178.999L252.179 178.987L259.738 179.001C261.102 179.004 262.528 178.924 263.88 179.059C264.749 179.146 265.583 179.433 266.222 180.05C267.12 180.916 267.199 181.811 267.218 182.994L206.275 183.002L190.807 183.024C188.536 183.027 185.905 182.762 183.678 183.152L183.49 183.183C182.602 183.343 181.836 183.976 181.333 184.704C180.386 186.073 180.195 188.955 179.907 190.575L178.545 197.83L174.05 219.966L171.318 233.716C170.94 235.241 169.912 236.558 169.407 238.075Z" fill="#5E53CC"/>
<path d="M200.945 162.163L201.337 162.093L201.623 162.001C202.005 161.983 202.208 162.005 202.597 161.899L203.652 162.122L238.848 162.048L239.415 162.079L239.414 170.797L246.986 170.831L247.156 171.024L247.087 171.469C246.306 171.835 240.649 171.528 239.41 171.528L239.413 177.599L238.863 177.599L200.991 177.581L200.248 177.589L195.585 177.584C194.777 176.3 193.423 175.214 192.324 174.182C192.153 174.022 191.445 173.48 191.377 173.296C191.321 173.144 191.345 172.974 191.329 172.813C191.235 172.138 191.291 171.536 191.366 170.866L191.364 162.261L200.945 162.163Z" fill="white"/>
<path d="M200.945 162.163L201.337 162.093L201.623 162.001C202.005 161.983 202.208 162.005 202.597 161.899L203.652 162.122L202.269 162.132C201.892 162.721 201.566 169.657 201.483 170.667C201.806 170.861 202.831 170.75 203.251 170.751L208.816 170.753L238.82 170.784L238.848 162.048L239.415 162.079L239.414 170.797L246.986 170.831L247.156 171.024L247.087 171.469C246.306 171.835 240.649 171.528 239.41 171.528L239.413 177.599L238.863 177.599C238.643 175.624 238.813 173.472 238.817 171.476L201.408 171.55L200.991 177.581L200.248 177.589L195.585 177.584C194.777 176.3 193.423 175.214 192.324 174.182C192.153 174.022 191.445 173.48 191.377 173.296C191.321 173.144 191.345 172.974 191.329 172.813C191.235 172.138 191.291 171.536 191.366 170.866L191.364 162.261L200.945 162.163Z" fill="#665DD0"/>
<path d="M191.328 172.813L191.404 171.608C191.905 171.313 192.994 171.471 193.574 171.474L200.719 171.527L200.248 177.59L195.585 177.584C194.777 176.3 193.423 175.214 192.323 174.182C192.153 174.022 191.445 173.48 191.377 173.296C191.321 173.144 191.344 172.974 191.328 172.813Z" fill="white"/>
<path d="M200.945 162.163L201.385 162.307C201.495 163.174 201.324 164.147 201.255 165.016L200.766 170.848L191.366 170.866L191.364 162.261L200.945 162.163Z" fill="white"/>
<path d="M200.991 177.581L201.409 171.55L238.817 171.476C238.814 173.472 238.643 175.624 238.864 177.599L200.991 177.581Z" fill="white"/>
<path d="M208.844 207.256L225.227 207.223L232.148 252.407L213.316 252.429L208.844 207.256Z" fill="#5E53CC"/>
<path d="M83.6111 225.918C85.4414 226.415 87.196 227.276 88.9847 227.912L97.5256 230.929L102.069 232.572C102.867 232.88 103.843 233.2 104.552 233.671L102.513 242.096L96.1529 242.06C94.9893 242.054 93.7733 241.966 92.6226 242.118C92.3105 242.53 92.3283 242.54 92.3461 243.06C92.7452 243.473 92.8767 243.445 93.4544 243.465L142.917 243.345C139.164 245.414 135.162 248.848 133.909 253.11C133.742 253.676 133.641 254.283 133.601 254.872L133.485 254.905C132.249 255.166 130.457 254.945 129.152 254.945L117.363 254.933L98.9964 254.922C95.8259 254.926 92.4012 255.187 89.2563 254.818C87.6904 254.634 86.2189 253.934 84.9002 253.105C81.7808 251.145 80.8049 248.168 80.0596 244.756L83.6111 225.918Z" fill="white"/>
<path d="M41.9901 261.166L208.106 261.128L253.434 261.195L264.374 261.239C265.36 261.243 266.874 261.044 267.813 261.255C267.995 261.296 268.369 261.578 268.519 261.695C269.017 262.084 269.325 262.686 269.349 263.311C269.372 263.959 269.194 264.689 268.718 265.16C268.417 265.457 268.001 265.682 267.586 265.765C266.309 266.018 264.636 265.833 263.322 265.835L253.302 265.836L70.7938 265.841L37.367 265.846L29.5218 265.85C28.8264 265.849 27.4317 265.992 26.8009 265.796C26.6014 265.734 26.334 265.515 26.1783 265.381C25.6822 264.953 25.2604 264.457 25.2314 263.775C25.2032 263.111 25.4217 262.376 25.8934 261.893C26.2121 261.566 26.6085 261.349 27.0598 261.272C28.5315 261.02 30.3251 261.199 31.827 261.194L41.9901 261.166Z" fill="#AFAEF8"/>
<path d="M70.176 164.397L102.466 164.386L102.477 164.984L102.48 171.24C102.48 172.224 102.587 173.321 102.446 174.284C93.9806 182.662 89.3538 194.592 86.3374 205.864C86.1459 206.58 85.4856 209.95 85.193 210.269C85.1721 210.292 84.5717 210.355 84.5539 210.357C84.2481 210.79 82.6093 217.577 82.6073 218.33L83.6469 218.845C83.2421 221.694 82.5235 224.462 81.9774 227.282L79.8758 238.81L78.6486 245.477C78.2323 247.841 77.6082 250.277 78.1993 252.659L78.261 252.913C78.922 255.557 80.663 257.774 83.034 259.121C83.6019 259.444 84.218 259.671 84.8272 259.903L70.7741 259.945L70.804 238.624C71.9725 238.626 75.46 238.935 76.2409 238.234C76.4121 238.08 76.4333 237.977 76.4686 237.761C76.6171 236.851 76.4999 235.737 76.5011 234.798V227.997C76.2432 227.622 76.1172 227.48 75.6466 227.415C74.6257 227.273 73.4072 227.392 72.3676 227.393L65.4726 227.401C64.6489 227.401 63.5145 227.554 62.7534 227.325L62.7724 222.112C65.2099 222.626 67.5433 222.709 69.717 221.272C72.6346 219.342 74.7603 215.362 75.4227 211.997C75.526 211.472 75.5849 211.26 75.3994 210.747C74.4643 209.943 70.6228 210.474 69.2857 210.574L66.2745 210.926C64.2441 211.238 61.5361 212.351 60.3302 214.082C59.7141 214.966 59.3469 216.005 59.0678 217.038L58.932 217.122C56.9331 218.388 55.2854 220.166 53.3721 221.559L53.3359 214.058L60.2085 207.865L60.3328 208.024C61.352 209.3 62.7503 210.117 64.3917 210.294C66.4611 210.516 68.6969 209.708 70.3067 208.414C72.4689 206.674 73.8852 204.316 75.0635 201.852C75.607 200.715 76.1732 199.511 76.3679 198.259C76.1944 197.837 76.1964 197.833 75.7971 197.613C73.1571 197.61 70.1956 197.77 67.6216 198.335C65.3733 198.808 62.6994 199.612 61.1651 201.435C60.1281 202.667 59.5039 204.651 59.6845 206.253L59.7144 206.487L53.4479 212.243C53.2409 211.781 53.4008 210.684 53.4028 210.128L53.4244 202.983C56.1358 201.358 58.6216 198.788 60.9903 196.687L62.1284 197.558C63.7655 198.539 65.8103 198.16 67.5421 197.711C68.2668 197.246 69.0618 196.963 69.756 196.435C72.2791 194.517 74.0308 191.369 75.3159 188.532C75.7339 187.609 76.2234 186.692 76.3578 185.678C76.2223 185.258 76.1913 185.174 75.8689 184.877C74.0001 184.844 72.1855 185.132 70.3411 185.393L69.6033 185.462C69.6102 184.534 69.8551 182.728 69.4586 181.925C69.4953 181.781 70.1692 181.216 70.3113 181.08C71.9245 178.788 73.3638 176.586 74.456 173.99C74.7221 173.358 75.1519 172.5 75.0779 171.813C75.0368 171.433 74.9869 171.483 74.7204 171.254C73.3239 171.017 71.6483 171.312 70.2493 171.516L69.6437 171.582L69.5998 165.454C69.5892 165.399 69.8665 164.987 69.9145 164.908L70.176 164.397Z" fill="white"/>
<path d="M70.3107 181.08L70.3406 185.393L69.6027 185.462C69.6096 184.534 69.8545 182.728 69.458 181.925C69.4948 181.781 70.1686 181.216 70.3107 181.08Z" fill="#665DD0"/>
<path d="M69.9146 164.908C72.0917 164.708 74.3493 164.826 76.5405 164.827C77.7449 164.828 79.0923 164.695 80.2732 164.901L70.386 165.007C70.1865 165.368 70.2766 166.215 70.2694 166.655L70.2494 171.516L69.6438 171.582L69.5999 165.454C69.5893 165.399 69.8666 164.987 69.9146 164.908Z" fill="#5E53CC"/>
<path d="M70.1756 164.397L102.465 164.386L102.476 164.984L80.2727 164.901C79.0918 164.695 77.7444 164.828 76.54 164.827C74.3488 164.826 72.0912 164.708 69.9141 164.908L70.1756 164.397Z" fill="#473CBC"/>
<path d="M129.915 88.9004C132.395 91.5299 134.892 93.8832 137.996 95.7918C144.012 99.491 150.473 101.137 157.465 101.703C162.563 102.116 167.365 101.927 172.367 100.749C173.674 108.36 173.553 115.858 173.552 123.548C173.551 125.875 173.847 128.668 173.325 130.934C173.069 132.051 172.468 133.125 171.938 134.13C169.396 138.946 165.678 142.543 161.09 145.419C155.18 148.788 148.511 150.051 141.778 148.981C135.167 147.93 128.799 144.155 124.881 138.745C122.41 135.334 120.532 131.21 119.95 127.02C119.412 123.143 119.724 118.939 119.724 115.027C119.724 111.614 119.443 107.916 120.006 104.543C121.077 98.1211 124.613 92.6745 129.915 88.9004Z" fill="white"/>
<path d="M146.306 122.772C146.635 122.744 146.651 122.803 146.928 122.955C147.157 123.767 146.016 125.536 145.643 126.257C145.933 126.85 146.619 127.425 147.072 127.913C147.02 128.342 146.972 128.325 146.641 128.616C145.782 128.231 144.911 127.21 144.251 126.549L146.306 122.772Z" fill="#2C1A8B"/>
<path d="M139.698 134.638C140.503 134.666 141.267 135.516 141.99 135.869C143.071 136.398 144.37 136.785 145.57 136.879C147.614 137.039 149.5 136.933 151.436 136.185C152.338 135.837 153.178 135.309 154.034 134.863C154.332 135.032 154.369 135.126 154.547 135.425L154.25 135.781C153.098 136.595 151.805 137.168 150.438 137.52C147.224 138.348 143.594 137.981 140.727 136.279C140.2 135.966 139.613 135.614 139.452 134.996L139.698 134.638Z" fill="#0D058C"/>
<path d="M158.761 105.444L158.953 105.429C161.833 105.256 165.694 106.628 167.814 108.581C168.508 109.22 169.113 109.961 169.128 110.941C169.138 111.624 169.011 112.046 168.53 112.514C168.383 112.546 168.237 112.638 168.09 112.608C167.711 112.53 166.702 111.188 166.344 110.873C165.816 110.407 165.222 110.038 164.626 109.666C162.556 108.753 159.723 108.115 157.767 109.687C157.188 110.151 156.611 110.964 155.834 111.091C155.395 111.162 154.957 110.946 154.611 110.696C154.099 110.327 153.694 109.71 153.607 109.081C153.546 108.64 153.646 108.257 153.918 107.903C155.063 106.407 156.969 105.75 158.761 105.444Z" fill="#0D058C"/>
<path d="M133.775 105.032C135.786 104.908 137.815 105.42 139.432 106.634C140.059 107.105 140.782 107.785 140.853 108.607C140.912 109.288 140.65 109.851 140.217 110.364C139.925 110.711 139.522 111.079 139.044 111.096C138.207 111.128 137.488 110.192 136.88 109.716C135.119 108.335 133.318 108.321 131.198 108.57C129.154 109.02 128.003 109.969 126.471 111.258C126.279 111.42 125.895 111.831 125.682 111.921C125.55 111.977 125.395 111.93 125.252 111.934C124.758 111.524 124.502 111.126 124.461 110.47C124.416 109.738 124.731 109.16 125.197 108.618C127.252 106.232 130.757 105.273 133.775 105.032Z" fill="#0D058C"/>
<path d="M158.054 114.944C158.259 114.296 158.653 113.971 159.243 113.643C160.311 113.05 161.948 112.909 163.118 113.275C164.427 113.685 165.653 114.583 166.247 115.841C166.794 116.997 166.818 118.437 166.352 119.626C165.8 121.037 164.659 122.09 163.248 122.622C162.194 123.019 160.918 122.934 159.911 122.449C158.875 121.95 157.986 121.039 157.601 119.952C157.36 119.273 157.163 117.657 157.483 116.982C157.773 117.381 158.059 117.829 158.495 118.084C158.986 118.37 159.56 118.4 160.098 118.232C160.517 118.102 160.925 117.722 161.11 117.327C161.313 116.893 161.307 116.2 161.133 115.758C160.945 115.277 160.517 114.84 160.037 114.649C159.315 114.362 158.707 114.627 158.054 114.944Z" fill="#0D058C"/>
<path d="M130.706 115.339L130.786 115.106C131.056 114.396 131.782 113.636 132.492 113.35C133.684 112.87 135.25 112.836 136.414 113.398C137.843 114.087 138.782 115.125 139.252 116.643C139.637 117.888 139.456 119.272 138.82 120.403C138.168 121.564 136.927 122.479 135.627 122.784C134.455 123.06 133.05 122.782 132.06 122.119C130.877 121.325 130.174 120.094 129.969 118.702C129.896 118.211 129.898 116.946 130.16 116.514L130.321 116.321C130.354 116.598 130.433 116.895 130.553 117.148C130.797 117.662 131.22 118.117 131.78 118.285C132.243 118.424 132.798 118.35 133.219 118.112C133.667 117.858 133.925 117.453 134.024 116.956C134.127 116.439 134.134 115.797 133.796 115.357C133.448 114.905 132.751 114.635 132.196 114.614C131.557 114.591 131.137 114.912 130.706 115.339Z" fill="#0D058C"/>
<path d="M93.3768 92.3706L108.669 92.3789L108.875 96.7252L108.984 97.4861C109.409 100.277 110.026 102.835 111.224 105.409C112.605 108.374 114.562 110.887 116.582 113.435C113.89 113.848 111.932 114.523 110.272 116.797C108.817 118.791 108.546 121.254 108.947 123.627C109.319 125.826 110.613 127.746 112.441 129.011C114.501 130.435 116.426 130.528 118.808 130.229C118.924 130.215 119.273 130.135 119.352 130.223C119.471 130.355 119.623 131.005 119.691 131.2L120.85 134.238C123.017 138.646 125.683 142.431 129.75 145.292L116.988 145.306C114.445 145.31 111.352 144.992 108.886 145.608C107.384 145.984 105.835 146.991 104.749 148.073C103.774 149.045 103.014 150.169 102.664 151.508C102.296 152.912 102.466 154.658 102.465 156.11L102.466 164.386L70.1758 164.397L71.3636 160.565C71.5599 159.833 71.7882 159.13 71.63 158.371C71.2309 157.985 71.1583 157.959 70.6458 157.841C70.5909 157.752 70.5017 157.676 70.481 157.574C70.3989 157.167 70.4778 156.542 70.4767 156.118L70.4709 153.248L70.4718 141.06L70.4135 118.076L70.3595 92.5493C70.9975 92.3437 71.8545 92.4227 72.5269 92.4206L76.8651 92.4118L93.3768 92.3706Z" fill="white"/>
<path d="M79.337 104.043L79.4705 104.013C80.2839 103.896 85.7878 103.827 86.2047 104.126C86.2566 104.58 86.2403 104.663 86.0611 105.084C84.7686 105.337 83.1297 105.162 81.8016 105.163C81.0318 105.163 79.9601 105.292 79.2397 105.043C79.1263 104.617 79.1981 104.443 79.337 104.043Z" fill="#0D058C"/>
<path d="M79.267 127.061C79.7387 126.842 80.3836 126.926 80.9021 126.924L84.8763 126.925L92.431 126.935C93.7701 126.938 95.2171 126.832 96.5407 127.025C96.6891 127.463 96.6403 127.565 96.5407 128.002C95.8703 128.226 95.0549 128.134 94.3503 128.137L90.1812 128.149L83.5438 128.156C82.1769 128.157 80.7715 128.225 79.4106 128.096C79.1944 127.698 79.2481 127.506 79.267 127.061Z" fill="#0D058C"/>
<path d="M79.2485 107.903L79.6056 107.843C81.1382 107.7 100.533 107.792 100.632 107.843C100.716 107.886 100.775 107.966 100.847 108.028C100.893 108.479 100.942 108.558 100.703 108.961C99.1049 109.241 97.1606 109.044 95.521 109.044L84.595 109.056L80.589 109.089C80.2884 109.092 79.6254 109.19 79.3854 109.102C79.2941 109.069 79.2209 108.999 79.1385 108.947C79.0848 108.515 79.1009 108.313 79.2485 107.903Z" fill="#0D058C"/>
<path d="M79.2478 123.058L79.3566 123.026C80.0365 122.879 80.9435 122.977 81.6455 122.974L87.222 122.972L105.93 123.001C106.191 123.01 106.329 123.058 106.545 123.201C106.649 123.645 106.63 123.664 106.446 124.086C105.813 124.382 104.72 124.229 104.018 124.223L99.3722 124.181L85.6458 124.19L81.5559 124.196C80.8068 124.197 80.0009 124.269 79.2694 124.102C79.1376 123.676 79.1614 123.479 79.2478 123.058Z" fill="#0D058C"/>
<path d="M79.5018 119.34L98.1515 119.328L103.745 119.324C104.697 119.323 105.831 119.193 106.747 119.467C106.817 119.852 106.819 120.089 106.733 120.471L106.302 120.58L87.8753 120.646L82.5626 120.653C81.4874 120.654 80.3766 120.73 79.3137 120.559C79.0599 120.125 79.1139 119.974 79.1386 119.483L79.5018 119.34Z" fill="#0D058C"/>
<path d="M85.442 147.745C85.9209 147.704 86.5161 147.654 86.9941 147.729C88.0711 147.899 89.187 148.78 89.7756 149.669C90.3375 150.517 90.554 151.687 90.3524 152.681L90.3117 152.867C90.2241 153.28 90.1026 153.635 89.8976 154.008C89.262 155.165 88.2559 155.674 87.0294 156.004C86.2031 156.038 85.51 156.041 84.7245 155.732C83.6197 155.298 82.7544 154.406 82.3128 153.317C81.9568 152.438 82.0484 151.37 82.4009 150.508C83.0007 149.04 84.0219 148.325 85.442 147.745Z" fill="#FE8A7D"/>
<path d="M108.876 96.7253L108.984 97.4862C105.257 97.5019 74.0805 97.2528 73.6527 97.5165L73.5988 135.571L119.559 135.554C119.738 135.879 119.688 135.813 119.598 136.139C119.074 136.513 114.272 136.297 113.331 136.296L91.0516 136.193L72.9062 136.289L72.9327 96.7241L108.876 96.7253Z" fill="#5E53CC"/>
<path d="M169.408 238.075C169.913 236.558 170.941 235.241 171.319 233.716L174.051 219.966L178.546 197.83L179.908 190.575C180.196 188.955 180.387 186.073 181.334 184.704C181.837 183.976 182.603 183.343 183.491 183.183L183.679 183.152C185.906 182.762 188.537 183.027 190.808 183.024L206.276 183.002L267.219 182.994L265.763 189.681L259.128 219.675L257.302 227.958C256.759 230.647 256.285 233.524 255.428 236.134C255.196 236.844 254.838 237.436 254.206 237.858C253.914 238.053 253.645 238.15 253.303 238.215L253.126 238.25C252.24 238.409 251.281 238.346 250.382 238.352L246.034 238.376L231.476 238.487L228.026 215.318L227.165 209.312C227.042 208.444 226.996 207.481 226.776 206.635C226.662 206.194 226.607 206.022 226.243 205.756L213.478 205.741C211.63 205.743 209.413 205.485 207.618 205.808C207.511 205.937 207.353 206.037 207.296 206.194C207.103 206.725 207.372 208.274 207.429 208.88L210.467 238.455L180.407 238.441L172.997 238.413C171.841 238.39 170.495 238.495 169.408 238.075Z" fill="#2C1A8B"/>
<path d="M123.78 166.431L129.984 179.88L131.327 182.872C131.551 183.381 131.72 184.04 132.214 184.339C133.484 184.374 135.702 182.435 136.775 181.698C139.454 179.86 142.482 178.097 144.922 175.967L145.78 217.629C146.185 216.667 146.131 215.452 146.19 214.415L146.33 206.391L146.331 185.389C146.332 181.738 146.118 177.913 146.47 174.282C148.258 175.251 149.907 176.486 151.563 177.662L157.722 182.002C158.667 182.666 160.603 184.427 161.716 184.516L170.163 166.732C170.507 166.016 171.333 163.663 171.892 163.223C174.055 164.141 176.119 165.326 178.182 166.446C180.816 167.877 183.564 169.273 186.046 170.949C187.582 171.986 189.016 173.205 190.443 174.383C191.634 175.368 192.911 176.357 193.852 177.593L184.093 177.607C182.811 177.609 181.033 177.393 179.804 177.708C178.908 177.938 177.961 178.52 177.321 179.179C176.89 179.623 176.591 180.131 176.38 180.711C175.967 181.845 175.851 183.163 175.615 184.347L173.793 193.651L164.194 193.688C162.559 193.674 160.664 193.439 159.059 193.657C158.763 193.698 158.495 193.818 158.297 194.051C157.905 194.511 158.025 195.325 158.02 195.894C158.006 197.411 157.86 199.115 158.097 200.607C158.343 200.916 158.494 201.143 158.915 201.19L172.204 201.192L167.563 223.981L166.203 230.766C165.96 231.954 165.571 233.295 165.521 234.502C165.481 235.493 165.819 236.397 166.359 237.219C167.077 238.311 168.5 239.393 169.809 239.605C172.312 240.012 175.286 239.699 177.835 239.666L177.842 252.417L168.687 252.405C168.622 249.421 167.383 246.904 165.216 244.855C161.722 241.553 156.681 240.944 152.073 241.084C150.684 241.127 149.22 241.254 147.862 241.553C146.941 241.756 145.773 242.281 144.844 242.294C144.649 242.297 144.479 242.202 144.297 242.152C143.276 241.871 141.689 242.082 140.605 242.091C140.437 241.815 140.293 241.62 140 241.464C139.082 240.975 138.03 240.644 137.074 240.214C134.931 239.249 132.896 238.133 131.036 236.688C126.192 232.922 123.694 227.92 121.55 222.324C119.031 215.752 117.62 209.103 116.423 202.191L115.09 194.4L114.402 194.962C113.982 195.327 113.496 195.781 113.23 196.269C112.526 197.563 112.171 199.287 111.761 200.696C110.142 206.26 108.412 212.208 107.985 217.995L90.4229 212.319L94.7955 197.222C98.0577 188.735 102.645 180.782 109.604 174.761C111.931 172.748 114.679 170.966 117.365 169.462C119.433 168.304 121.618 167.392 123.78 166.431Z" fill="#FD776B"/>
<path d="M150.046 198.832C150.174 198.806 150.238 198.785 150.38 198.801C150.874 198.855 151.315 199.161 151.593 199.564C151.834 199.912 151.968 200.39 151.839 200.804C151.671 201.342 151.272 201.593 150.799 201.834C150.539 201.895 150.282 201.919 150.017 201.871C149.487 201.774 149.199 201.411 148.933 200.982C148.871 200.592 148.801 200.204 148.949 199.825C149.158 199.29 149.545 199.057 150.046 198.832Z" fill="#2C1A8B"/>
<path d="M149.637 211.127C149.908 211.048 150.123 211.013 150.405 211.027C150.806 211.047 151.149 211.271 151.403 211.571C151.687 211.908 151.76 212.263 151.701 212.7C151.622 213.283 151.269 213.629 150.804 213.937C150.532 214.05 150.166 214.092 149.871 214.057C149.453 214.007 149.127 213.76 148.901 213.415C148.657 213.041 148.649 212.475 148.76 212.056C148.886 211.58 149.229 211.353 149.637 211.127Z" fill="#2C1A8B"/>
<path d="M150.033 185.393C150.304 185.409 150.636 185.406 150.884 185.535C151.227 185.713 151.589 186.165 151.701 186.532C151.838 186.978 151.825 187.568 151.574 187.966C151.302 188.396 150.841 188.593 150.373 188.724C150.114 188.709 149.827 188.684 149.584 188.589C149.169 188.428 148.765 187.996 148.63 187.575C148.485 187.123 148.574 186.677 148.802 186.27C149.105 185.731 149.453 185.557 150.033 185.393Z" fill="#0D058C"/>
</svg>
