<svg width="131" height="21" viewBox="0 0 131 21" fill="none" xmlns="http://www.w3.org/2000/svg">
<path d="M0.35 20V2.5H7.55C9.1 2.5 10.425 2.75 11.525 3.25C12.6417 3.75 13.5 4.46667 14.1 5.4C14.7 6.33333 15 7.44167 15 8.725C15 10.0083 14.7 11.1167 14.1 12.05C13.5 12.9833 12.6417 13.7 11.525 14.2C10.425 14.7 9.1 14.95 7.55 14.95H2.15L3.6 13.425V20H0.35ZM3.6 13.775L2.15 12.2H7.4C8.83333 12.2 9.90833 11.9 10.625 11.3C11.3583 10.6833 11.725 9.825 11.725 8.725C11.725 7.60833 11.3583 6.75 10.625 6.15C9.90833 5.55 8.83333 5.25 7.4 5.25H2.15L3.6 3.65V13.775ZM18.1896 20V6.65H21.3146V20H18.1896ZM19.7646 4.45C19.1813 4.45 18.698 4.26667 18.3146 3.9C17.948 3.53333 17.7646 3.09167 17.7646 2.575C17.7646 2.04167 17.948 1.6 18.3146 1.25C18.698 0.883333 19.1813 0.7 19.7646 0.7C20.348 0.7 20.823 0.874999 21.1896 1.225C21.573 1.55833 21.7646 1.98333 21.7646 2.5C21.7646 3.05 21.5813 3.51667 21.2146 3.9C20.848 4.26667 20.3646 4.45 19.7646 4.45ZM32.9912 6.5C34.0579 6.5 35.0079 6.70833 35.8412 7.125C36.6912 7.54167 37.3579 8.18333 37.8412 9.05C38.3245 9.9 38.5662 11 38.5662 12.35V20H35.4412V12.75C35.4412 11.5667 35.1579 10.6833 34.5912 10.1C34.0412 9.51667 33.2662 9.225 32.2662 9.225C31.5329 9.225 30.8829 9.375 30.3162 9.675C29.7495 9.975 29.3079 10.425 28.9912 11.025C28.6912 11.6083 28.5412 12.35 28.5412 13.25V20H25.4162V6.65H28.3912V10.25L27.8662 9.15C28.3329 8.3 29.0079 7.65 29.8912 7.2C30.7912 6.73333 31.8245 6.5 32.9912 6.5ZM45.0805 17.025L45.1555 13.1L52.1305 6.65H55.8805L49.9555 12.6L48.3055 13.975L45.0805 17.025ZM42.5305 20V1.45H45.6555V20H42.5305ZM52.6055 20L47.7305 13.975L49.7055 11.475L56.4055 20H52.6055ZM65.6332 20V2.5H73.8332C75.9332 2.5 77.5332 2.91667 78.6332 3.75C79.7332 4.56667 80.2832 5.66667 80.2832 7.05C80.2832 7.98333 80.0665 8.78333 79.6332 9.45C79.1999 10.1 78.6165 10.6083 77.8832 10.975C77.1665 11.325 76.3832 11.5 75.5332 11.5L75.9832 10.6C76.9665 10.6 77.8499 10.7833 78.6332 11.15C79.4165 11.5 80.0332 12.0167 80.4832 12.7C80.9499 13.3833 81.1832 14.2333 81.1832 15.25C81.1832 16.75 80.6082 17.9167 79.4582 18.75C78.3082 19.5833 76.5999 20 74.3332 20H65.6332ZM68.8832 17.45H74.1332C75.3499 17.45 76.2832 17.25 76.9332 16.85C77.5832 16.45 77.9082 15.8083 77.9082 14.925C77.9082 14.0583 77.5832 13.425 76.9332 13.025C76.2832 12.6083 75.3499 12.4 74.1332 12.4H68.6332V9.875H73.4832C74.6165 9.875 75.4832 9.675 76.0832 9.275C76.6999 8.875 77.0082 8.275 77.0082 7.475C77.0082 6.65833 76.6999 6.05 76.0832 5.65C75.4832 5.25 74.6165 5.05 73.4832 5.05H68.8832V17.45ZM92.5768 20V17.3L92.4018 16.725V12C92.4018 11.0833 92.1268 10.375 91.5768 9.875C91.0268 9.35833 90.1934 9.1 89.0768 9.1C88.3268 9.1 87.5851 9.21667 86.8518 9.45C86.1351 9.68333 85.5268 10.0083 85.0268 10.425L83.8018 8.15C84.5184 7.6 85.3684 7.19167 86.3518 6.925C87.3518 6.64167 88.3851 6.5 89.4518 6.5C91.3851 6.5 92.8768 6.96667 93.9268 7.9C94.9934 8.81667 95.5268 10.2417 95.5268 12.175V20H92.5768ZM88.3768 20.175C87.3768 20.175 86.5018 20.0083 85.7518 19.675C85.0018 19.325 84.4184 18.85 84.0018 18.25C83.6018 17.6333 83.4018 16.9417 83.4018 16.175C83.4018 15.425 83.5768 14.75 83.9268 14.15C84.2934 13.55 84.8851 13.075 85.7018 12.725C86.5184 12.375 87.6018 12.2 88.9518 12.2H92.8268V14.275H89.1768C88.1101 14.275 87.3934 14.45 87.0268 14.8C86.6601 15.1333 86.4768 15.55 86.4768 16.05C86.4768 16.6167 86.7018 17.0667 87.1518 17.4C87.6018 17.7333 88.2268 17.9 89.0268 17.9C89.7934 17.9 90.4768 17.725 91.0768 17.375C91.6934 17.025 92.1351 16.5083 92.4018 15.825L92.9268 17.7C92.6268 18.4833 92.0851 19.0917 91.3018 19.525C90.5351 19.9583 89.5601 20.175 88.3768 20.175ZM107.112 6.5C108.179 6.5 109.129 6.70833 109.962 7.125C110.812 7.54167 111.479 8.18333 111.962 9.05C112.446 9.9 112.687 11 112.687 12.35V20H109.562V12.75C109.562 11.5667 109.279 10.6833 108.712 10.1C108.162 9.51667 107.387 9.225 106.387 9.225C105.654 9.225 105.004 9.375 104.437 9.675C103.871 9.975 103.429 10.425 103.112 11.025C102.812 11.6083 102.662 12.35 102.662 13.25V20H99.5373V6.65H102.512V10.25L101.987 9.15C102.454 8.3 103.129 7.65 104.012 7.2C104.912 6.73333 105.946 6.5 107.112 6.5ZM119.202 17.025L119.277 13.1L126.252 6.65H130.002L124.077 12.6L122.427 13.975L119.202 17.025ZM116.652 20V1.45H119.777V20H116.652ZM126.727 20L121.852 13.975L123.827 11.475L130.527 20H126.727Z" fill="#F875AA"/>
</svg>
