<svg width="739" height="739" viewBox="0 0 739 739" fill="none" xmlns="http://www.w3.org/2000/svg">
<path d="M642.295 465.195C644.605 465.339 646.625 465.772 648.646 467.071C650.955 468.515 653.12 471.401 653.698 474.144C654.275 477.319 653.698 480.494 651.677 483.093C649.656 485.979 646.625 487.134 643.306 487.711C640.852 487.567 638.687 487.134 636.522 485.835C633.779 484.103 632.047 481.649 631.47 478.618C630.893 475.876 631.614 472.556 633.202 470.391C635.511 466.927 638.542 465.917 642.295 465.195Z" fill="#FD0480"/>
<path d="M633.634 478.907C633.49 476.742 633.346 474.721 634.067 472.7C634.789 470.68 636.521 468.947 638.542 468.081L638.975 467.937C641.429 466.927 644.315 467.215 646.769 467.937C648.645 468.659 650.089 470.102 650.955 471.979C651.243 472.556 651.243 472.989 651.388 473.566L651.532 473.999C651.965 476.02 651.965 479.051 650.81 480.783C649.223 483.092 646.913 484.536 644.171 484.969C641.862 485.402 639.408 485.113 637.532 483.814L637.099 483.525C635.366 482.515 634.212 480.927 633.634 478.907Z" fill="#FE39C4"/>
<path d="M141.161 210.297C144.336 226.03 153.285 240.031 166.708 248.835L173.781 252.732L164.832 262.114H164.688C158.481 256.629 152.708 251.289 148.522 244.072C143.615 235.701 140.872 227.04 140.728 217.37C140.728 215.06 140.584 212.751 141.161 210.297Z" fill="#F2BFD4"/>
<path d="M536.208 95.9833C538.518 95.6946 540.971 95.9833 543.137 96.9936C546.023 98.437 548.477 101.179 549.343 104.355C550.353 107.675 549.92 111.139 548.333 114.17C546.456 117.634 543.57 119.077 540.106 120.087C537.507 120.376 534.909 119.943 532.6 118.788C529.713 117.345 527.404 114.603 526.394 111.572C525.528 108.541 525.961 104.643 527.548 102.045C529.569 98.5813 532.456 96.9936 536.208 95.9833Z" fill="#FD0480"/>
<path d="M535.775 98.5815C537.507 98.2928 539.384 98.2928 541.116 98.8701C543.714 99.8805 545.734 102.046 546.745 104.644C547.611 106.809 547.467 109.84 546.456 111.86C545.013 114.747 542.703 116.19 539.672 117.056C538.085 117.056 536.497 117.201 535.054 116.768C532.744 116.046 530.579 114.025 529.424 111.716C528.414 109.407 527.981 107.53 528.847 105.077C530.291 101.757 532.6 100.025 535.775 98.5815Z" fill="#FE39C4"/>
<path d="M270.052 97.5712C272.506 97.4269 274.96 98.1485 277.125 99.4476C280.3 101.324 282.465 104.644 283.043 108.252C283.62 111.572 282.898 115.18 281.022 117.923C278.713 121.242 275.537 122.974 271.64 123.552C268.32 123.407 265.289 122.83 262.547 120.809C260.093 118.933 258.072 116.046 257.639 112.871C257.206 109.407 257.928 105.51 260.093 102.767C262.691 99.4476 266.155 98.0042 270.052 97.5712Z" fill="#FD0480"/>
<path d="M270.485 100.025C272.362 100.169 273.949 100.314 275.537 101.324C277.991 103.056 279.723 105.654 280.3 108.685C280.733 111.283 280.589 113.881 279.001 116.046C276.98 118.789 274.527 120.232 271.063 120.665C268.753 120.521 266.444 120.376 264.423 118.933C262.403 117.49 260.815 114.747 260.382 112.293C259.804 109.262 260.815 105.943 262.691 103.633C265.001 101.18 267.31 100.458 270.485 100.025Z" fill="#FE39C4"/>
<path d="M93.6741 413.955C96.7052 413.811 99.3032 413.955 102.19 415.399C105.221 416.986 107.53 420.017 108.396 423.337C109.262 426.368 108.541 430.265 106.953 433.008C104.644 436.76 101.757 438.492 97.5712 439.503C94.6844 439.647 92.0864 439.503 89.4884 438.204C86.6016 436.76 84.1479 434.018 83.2819 430.843C82.2716 427.378 82.7046 423.626 84.4366 420.45C86.6016 416.698 89.777 415.11 93.6741 413.955Z" fill="#FD0480"/>
<path d="M85.1582 428.967C85.1582 427.668 85.0138 426.224 85.3025 424.925C85.8798 422.183 87.4675 419.585 89.7769 417.997C92.9523 415.976 96.1277 416.121 99.5917 416.842C102.045 417.708 103.777 418.719 104.932 421.172C106.231 423.77 106.664 427.379 105.654 430.266C104.644 433.008 102.478 435.317 99.7361 436.472C97.138 437.627 93.674 437.627 90.9316 436.616C88.6222 435.75 86.6015 433.297 85.7355 430.987L85.1582 428.967Z" fill="#FE39C4"/>
<path d="M629.16 349.726C632.191 349.437 635.366 350.159 638.109 351.458C642.006 353.334 645.614 357.376 646.913 361.706L647.058 362.283L647.491 363.871C648.357 368.778 647.202 374.407 644.171 378.449C640.707 383.067 636.232 384.944 630.603 385.665C626.851 385.665 623.387 384.944 620.211 382.779C615.737 379.603 612.706 375.562 611.84 369.933C611.118 365.603 612.561 361.128 615.159 357.52C618.624 352.757 623.242 350.736 629.16 349.726Z" fill="#FD0480"/>
<path d="M617.325 376.284L616.17 374.407C614.438 371.088 613.716 367.046 615.015 363.438C616.459 359.108 619.778 355.644 623.964 353.767C628.006 352.035 631.758 352.035 635.8 353.623C635.8 355.788 635.944 358.097 634.934 360.118L634.645 360.695C632.624 364.881 628.294 368.923 624.686 371.809L624.253 372.242C623.098 373.253 621.655 374.407 620.211 375.129C619.49 375.562 618.335 375.851 617.325 376.284Z" fill="#FD5BA9"/>
<path d="M635.945 353.768C639.986 355.5 642.44 358.242 644.027 362.283C645.326 365.747 645.182 370.655 643.594 374.119C642.007 377.439 638.976 380.47 635.511 381.624C631.326 383.068 626.563 383.068 622.521 380.903C620.356 379.748 618.624 378.449 617.325 376.284C618.191 375.851 619.49 375.707 620.356 375.129C621.8 374.408 623.243 373.253 624.398 372.243L624.831 371.81C628.439 368.923 632.769 364.881 634.79 360.696L635.078 360.118C636.089 358.242 635.945 355.933 635.945 353.768Z" fill="#FE39C4"/>
<path d="M589.18 371.521C599.283 373.108 608.521 377.15 614.727 385.665C619.346 392.016 621.944 401.975 620.789 409.77L620.356 411.79C618.624 420.162 614.438 427.09 607.222 431.853C601.593 435.606 595.963 437.049 589.324 437.482L589.18 371.521Z" fill="#FE7BBE"/>
<path d="M128.026 311.477C122.397 315.518 116.191 317.972 108.974 317.395C101.901 316.817 95.8393 313.498 91.5093 308.013C87.4679 303.106 85.7358 296.033 86.4575 289.827C87.1792 283.332 90.2102 277.558 95.262 273.517C100.602 269.187 107.964 267.31 114.892 268.176C121.387 269.042 127.305 272.651 131.057 277.847C135.243 283.62 136.398 290.115 135.387 297.043C134.088 303.106 131.923 306.858 128.026 311.477Z" fill="#B10082"/>
<path d="M89.4887 296.177C89.0557 293.002 89.0557 289.971 90.0661 286.795L90.2104 286.218C91.9424 280.878 95.5508 276.115 100.458 273.372C106.52 270.052 113.015 270.197 119.366 272.073C124.707 273.805 129.037 277.702 131.49 282.754C133.944 287.806 134.522 294.878 132.501 300.219C130.191 306.281 125.284 311.333 119.366 313.786C117.923 314.364 116.48 314.797 115.036 314.941L114.459 315.085C108.974 315.951 103.056 314.652 98.4375 311.333C93.9631 307.868 89.9217 302.817 89.3444 297.043L89.4887 296.177Z" fill="#FE39C4"/>
<path d="M89.4887 296.177C89.0557 293.002 89.0557 289.971 90.0661 286.795L90.2104 286.218C91.9424 280.878 95.5508 276.115 100.458 273.372C106.52 270.052 113.015 270.197 119.366 272.073C119.655 273.517 120.088 274.96 120.232 276.259C120.521 281.311 118.789 286.362 115.902 290.548C112.727 295.023 107.819 298.342 102.479 299.208C97.4272 300.219 93.5301 299.064 89.4887 296.177Z" fill="#FD5BA9"/>
<path d="M608.52 587.159L609.242 588.313C604.768 609.819 594.375 628.583 576.478 641.862C550.786 661.059 514.846 662.502 488.144 644.027C484.536 641.573 481.216 638.542 478.041 635.655L474.143 631.614C473.999 631.47 473.133 630.459 472.989 630.315C472.7 630.171 471.545 630.315 471.112 630.315H465.339H435.461H260.815H210.442H196.152C192.977 630.315 189.657 630.459 186.482 629.882C182.585 629.305 179.121 628.439 175.657 626.851C165.265 622.232 156.316 612.995 152.274 602.314C150.398 597.118 149.676 592.499 149.821 587.014C149.821 584.561 149.821 582.396 150.975 580.23C154.584 591.056 161.223 600.87 171.615 606.067C176.523 608.52 181.863 609.964 187.348 610.252C190.668 610.541 194.132 610.252 197.451 610.252H216.504H275.104L475.154 610.397C475.876 610.397 478.329 610.252 478.907 610.541C479.484 610.83 480.494 611.984 481.072 612.417L486.989 617.613C489.299 619.49 491.752 621.222 494.206 622.81C513.692 635.8 539.095 638.254 561.034 630.892C579.797 624.686 597.984 609.675 606.788 591.777L608.52 587.159Z" fill="#F2BFD4"/>
<path d="M149.388 400.388C149.821 402.841 149.676 405.439 149.676 407.893V420.595V466.061L149.532 548.476L149.388 561.755C149.388 562.91 149.676 565.219 149.388 566.23C141.305 571.426 133.222 575.756 123.696 577.344C107.963 579.797 92.2305 576.045 79.3846 566.807C74.4772 563.199 70.4358 558.869 66.8274 553.961C58.4559 542.559 53.9815 526.249 56.1465 512.248C57.3012 504.887 59.3219 498.536 62.786 491.897C70.2914 477.607 83.426 467.071 98.87 462.452C116.912 456.967 133.078 460.72 149.243 469.525L149.388 400.388Z" fill="#F2BFD4"/>
<path d="M141.16 210.297C140.294 200.916 140.006 192.111 142.892 183.018C147.511 168.584 157.759 155.883 171.327 148.955C184.75 142.171 200.338 140.439 214.772 145.202C231.659 150.831 242.34 161.656 250.278 177.389C252.443 183.884 254.031 189.946 254.464 196.73C254.608 212.896 250.278 228.051 238.731 239.886C227.618 251.145 213.328 257.64 197.451 257.784C192.977 257.784 188.358 257.495 183.884 256.341C181.286 255.763 178.832 254.897 176.378 253.887C175.801 253.743 174.213 252.877 173.78 252.877L166.708 248.979C153.285 240.031 144.336 226.03 141.16 210.297Z" fill="#B10082"/>
<path d="M146.934 192.833C147.944 188.214 148.954 183.74 150.686 179.265C154.583 169.883 162.233 161.656 170.605 156.027C179.121 150.398 192.255 146.934 202.503 148.955L204.091 149.099C216.792 150.687 229.349 157.615 237.288 167.718C245.804 178.688 249.99 191.967 248.257 205.823C246.525 219.679 239.597 231.803 228.483 240.319C217.803 248.402 204.812 253.021 191.389 251.289C182.296 250.134 173.78 246.381 166.419 240.752L165.986 240.464C155.594 232.381 148.088 218.236 146.501 205.101C146.212 201.349 146.212 196.73 146.934 192.833Z" fill="#C021AC"/>
<path d="M146.934 192.833C147.944 188.214 148.954 183.74 150.686 179.265C154.583 169.883 162.233 161.656 170.605 156.027C179.12 150.398 192.255 146.934 202.503 148.955C209.142 158.769 211.452 168.007 209.287 179.842C207.555 189.08 201.348 197.307 193.698 202.503C188.791 205.823 183.739 207.555 177.966 208.277C169.45 209.431 161.512 207.411 154.728 202.215C152.563 200.627 147.367 196.008 147.078 193.266L146.934 192.833Z" fill="#FE39C4"/>
<path d="M172.914 162.811L174.502 162.955C175.945 163.1 177.1 163.677 177.822 164.832C178.543 165.842 178.832 167.285 178.543 168.584C178.399 169.306 177.822 170.172 177.244 170.75C176.09 172.049 174.502 172.915 173.347 174.069C171.038 176.234 169.883 179.121 167.141 180.853C166.275 181.142 165.986 181.286 164.976 180.997C163.677 180.564 162.522 179.121 162.089 177.966C161.367 176.234 161.656 174.647 162.378 172.915C164.11 169.162 169.161 164.11 172.914 162.811Z" fill="#FBF7F6"/>
<path d="M558.58 149.676C563.632 145.346 569.694 142.315 575.756 139.862C587.88 135.098 600.726 132.789 613.716 133.655C637.388 135.243 659.038 146.934 674.482 164.832C689.348 181.863 696.277 204.813 694.689 227.185C693.101 249.268 681.41 271.207 664.667 285.496C656.44 292.569 646.769 297.188 636.81 300.94C633.779 302.095 630.459 302.817 627.573 304.116C627.573 304.116 626.851 304.549 626.707 304.693C626.274 305.415 626.274 307.436 625.985 308.446C625.119 311.766 624.109 314.941 622.954 318.116C616.747 334.571 605.201 352.035 591.056 362.716L589.035 364.015V349.582C589.035 348.283 588.746 345.685 589.035 344.53C589.179 344.241 590.767 342.798 591.056 342.509C593.509 340.055 596.107 337.602 598.417 335.004C605.201 327.354 610.685 319.127 615.015 309.889C617.758 304.26 620.356 298.775 622.232 292.858C630.171 268.032 629.449 240.175 620.789 215.782C613.428 194.998 598.994 176.09 581.241 163.1C574.168 157.759 566.519 153.573 558.58 149.676Z" fill="#F2BFD4"/>
<path d="M250.423 177.389C254.608 174.935 258.505 171.327 262.258 168.44L282.321 154.295C306.425 138.129 331.395 123.119 357.953 111.283C385.232 99.1588 413.955 89.7769 444.266 93.241C465.339 95.6947 485.979 107.819 496.371 126.583C497.814 129.181 499.113 132.067 500.268 134.81C500.845 136.253 501.278 138.995 502.289 140.15L502.578 140.439C496.515 141.016 490.598 141.594 484.68 143.037C458.988 148.955 436.616 164.399 420.162 184.75C401.109 208.421 392.594 240.608 395.913 270.63L397.212 279.723C397.645 281.599 399.089 285.496 398.8 287.229L245.948 287.373H201.348C193.843 287.373 185.471 286.651 178.11 287.806C171.471 288.816 165.12 292.136 160.357 296.899C155.161 302.095 151.552 308.302 150.109 315.518C149.532 318.838 149.532 322.446 149.532 325.766V339.911V400.532C139.284 395.625 129.613 386.82 124.273 376.861C115.18 359.829 116.335 343.087 122.685 325.478C124.273 321.003 126.582 316.673 127.881 312.199L128.026 311.766C131.923 307.147 134.088 303.394 135.531 297.476L135.676 297.909L135.82 298.487L164.687 262.547H164.831L173.78 253.165C174.213 253.165 175.801 254.031 176.378 254.176C178.832 255.186 181.286 256.052 183.884 256.629C188.214 257.784 192.833 258.073 197.451 258.073C213.328 257.928 227.618 251.433 238.731 240.175C250.278 228.484 254.608 213.184 254.464 197.019C254.175 189.946 252.588 183.884 250.423 177.389Z" fill="#FE7BBE"/>
<path d="M406.017 129.902C407.316 129.902 408.47 129.902 409.77 130.335C411.502 130.913 413.089 132.5 413.667 134.088C414.388 135.82 414.388 137.841 413.667 139.573C412.656 142.027 410.636 143.181 408.326 144.336C407.171 144.336 406.017 144.336 405.006 144.047C403.419 143.614 401.831 142.027 401.109 140.728C400.099 138.996 399.955 137.263 400.532 135.387C401.542 132.356 403.419 131.057 406.017 129.902Z" fill="#FBF7F6"/>
<path d="M325.622 174.935C327.065 179.842 329.23 183.595 333.849 186.338C337.89 188.791 342.798 189.08 347.272 187.781C351.746 186.482 354.922 183.595 357.375 179.842L358.097 178.688C358.386 180.275 358.097 181.863 357.52 183.307C355.643 187.781 351.746 192.255 347.272 193.987C343.231 195.575 337.89 195.142 333.993 193.266C330.24 191.389 327.065 187.059 325.766 183.162C325.044 180.564 324.323 177.389 325.622 174.935Z" fill="#FD5BA9"/>
<path d="M283.331 245.948C284.342 252.732 286.651 258.506 292.136 262.836C295.167 265.145 298.631 266.589 302.528 267.166L303.105 267.31C308.59 268.032 314.508 265.867 318.838 262.547C322.158 260.093 323.745 256.918 325.622 253.31L325.766 253.743C326.777 256.341 325.622 259.227 324.467 261.681C322.302 266.733 317.828 271.352 312.776 273.228C307.291 275.393 301.806 275.249 296.466 272.651C290.837 269.908 286.507 265.145 284.486 259.227L284.197 258.506C282.754 254.176 283.043 250.279 283.331 245.948Z" fill="#FD5BA9"/>
<path d="M325.622 174.935C324.901 169.883 325.189 165.265 328.365 160.934C331.107 157.182 335.004 154.872 339.623 154.151C344.242 153.429 349.005 154.872 352.613 157.759C356.366 160.646 358.675 164.976 359.253 169.739C359.541 172.914 359.253 175.512 358.242 178.543L357.521 179.698C355.067 183.595 351.891 186.338 347.417 187.637C342.943 188.936 338.035 188.503 333.994 186.193C329.231 183.595 326.921 179.842 325.622 174.935Z" fill="#1F169F"/>
<path d="M333.56 162.378C334.426 159.491 335.437 159.058 338.323 158.336C340.777 157.759 344.097 157.759 346.406 158.625L346.983 158.914C350.736 160.357 353.334 163.1 354.922 166.852C356.077 169.595 355.644 173.492 354.345 176.09C352.757 179.554 349.582 182.441 345.973 183.451C343.375 184.317 340.488 184.173 337.89 183.451L337.457 183.307C334.138 182.296 331.251 179.554 329.807 176.523C328.653 174.069 328.22 170.894 328.508 168.151C329.086 167.574 329.663 166.997 330.529 166.708C331.107 164.687 332.117 163.677 333.56 162.378Z" fill="#3B3DD4"/>
<path d="M333.56 162.378C335.148 161.512 337.024 160.357 338.756 160.935C339.767 161.223 340.344 161.945 340.633 162.955C340.633 164.543 340.488 165.698 339.334 166.852C337.89 168.296 335.292 170.461 333.272 170.605C332.261 170.172 331.54 170.028 330.962 168.873C330.674 168.296 330.674 167.43 330.529 166.708C331.107 164.687 332.117 163.677 333.56 162.378Z" fill="#FBF7F6"/>
<path d="M254.465 196.73C255.331 198.462 254.176 201.782 255.186 203.081C256.052 204.091 256.052 206.256 256.052 207.555C256.197 212.607 256.197 217.659 255.331 222.71C252.733 238.443 244.65 253.021 231.66 262.403C218.381 271.785 202.359 274.527 186.482 271.785C180.276 270.774 173.781 268.176 168.44 264.857C167.286 264.135 165.842 263.413 164.832 262.258L173.781 252.877C174.214 252.877 175.802 253.743 176.379 253.887C178.833 254.897 181.286 255.763 183.884 256.341C188.214 257.495 192.833 257.784 197.452 257.784C213.329 257.64 227.618 251.145 238.732 239.886C250.279 228.195 254.609 212.896 254.465 196.73Z" fill="#FD5BA9"/>
<path d="M283.331 245.948C283.764 239.02 285.64 233.391 291.125 228.772C295.455 225.02 301.95 223.432 307.579 223.865C313.209 224.298 318.26 227.04 322.013 231.226C326.054 235.845 327.209 241.763 326.632 247.825C326.487 249.701 326.054 251.433 325.621 253.165C323.889 256.774 322.157 259.949 318.838 262.403C314.508 265.722 308.59 267.888 303.105 267.166L302.528 267.022C298.631 266.444 295.167 265.145 292.136 262.691C286.651 258.65 284.341 252.732 283.331 245.948Z" fill="#1F169F"/>
<path d="M302.096 228.484C304.116 228.195 306.426 228.195 308.446 228.484C312.488 229.061 316.529 231.371 318.983 234.69L319.272 235.123C320.426 236.855 321.437 238.587 322.014 240.608C323.169 244.938 322.736 249.268 320.571 253.31C317.973 258.073 313.931 260.671 308.735 262.258C304.261 262.691 300.364 262.403 296.466 260.093C292.281 257.64 289.538 253.598 288.528 248.835C287.518 244.505 288.095 239.886 290.549 236.134C293.291 231.804 297.044 229.639 302.096 228.484Z" fill="#3B3DD4"/>
<path d="M299.064 233.68C299.785 233.68 300.218 233.68 300.94 233.824C301.806 234.257 302.383 235.268 302.528 236.278C302.961 239.309 298.198 241.041 296.61 243.35C296.033 244.072 295.744 244.649 294.878 245.227C294.301 245.371 293.868 245.227 293.29 245.082C292.424 244.505 291.991 244.072 291.703 243.206C291.125 241.618 291.991 239.742 292.857 238.443C294.301 235.845 296.321 234.257 299.064 233.68Z" fill="#FBF7F6"/>
<path d="M502.578 140.15C521.342 137.696 541.404 142.026 558.58 149.676C566.663 153.573 574.313 157.759 581.53 163.1C599.283 176.09 613.861 195.142 621.078 215.782C629.738 240.319 630.46 268.176 622.521 292.857C620.645 298.775 618.047 304.404 615.304 309.889C610.83 319.127 605.49 327.354 598.706 335.004C596.396 337.602 593.798 340.055 591.345 342.509C591.056 342.798 589.324 344.241 589.324 344.53C589.035 345.684 589.324 348.283 589.324 349.582V364.015L589.468 371.521V437.338V484.247L589.613 492.763C589.613 493.196 589.468 494.928 589.613 495.361C590.19 496.66 593.077 498.825 594.087 499.98C596.974 502.866 599.283 506.042 601.592 509.361C614.294 528.558 618.335 550.93 612.995 573.447C611.985 578.065 610.686 582.828 608.665 587.159L606.644 591.633C597.84 609.531 579.653 624.542 560.89 630.748C538.951 638.109 513.547 635.655 494.062 622.665C491.608 621.077 489.155 619.345 486.845 617.469L480.928 612.273C480.35 611.84 479.484 610.685 478.763 610.397C478.185 610.108 475.732 610.252 475.01 610.252L274.96 610.108H216.36H197.307C193.988 610.108 190.524 610.397 187.204 610.108C181.864 609.675 176.379 608.232 171.471 605.922C161.079 600.726 154.44 590.911 150.831 580.086C150.11 575.467 149.677 571.137 149.532 566.374C149.821 565.219 149.532 563.054 149.532 561.9L149.677 548.621L149.821 466.205V420.739V408.038C149.821 405.584 149.965 402.986 149.532 400.532V400.388V339.767V325.622C149.532 322.158 149.388 318.694 150.11 315.374C151.553 308.157 155.161 301.951 160.357 296.755C165.121 291.992 171.471 288.672 178.111 287.661C185.472 286.507 193.843 287.228 201.349 287.228H245.949L398.8 287.084C399.089 285.352 397.646 281.455 397.213 279.579L395.914 270.485C392.594 240.464 401.11 208.277 420.162 184.606C436.616 164.254 458.989 148.81 484.68 142.892C490.454 141.305 496.516 140.872 502.578 140.15Z" fill="#B10082"/>
<path d="M155.306 351.025H164.543V375.562C164.543 378.882 164.976 383.067 164.399 386.243H155.45C154.873 382.634 155.306 378.304 155.162 374.696L155.306 351.025Z" fill="#3B3DD4"/>
<path d="M155.306 351.025L155.45 329.519C155.45 325.333 155.161 320.859 156.027 316.817C156.749 313.498 158.048 310.178 159.78 307.291C163.388 301.085 169.595 295.889 176.667 294.157L177.389 294.012C181.286 293.002 185.616 293.291 189.513 293.291L205.968 293.435C203.658 295.023 201.06 296.322 198.751 297.909C191.678 303.105 187.637 310.611 186.049 319.271C185.616 321.869 185.761 324.467 185.616 327.065C184.462 326.344 183.884 326.199 182.585 326.344C181.43 326.921 180.131 327.787 179.698 329.086C179.265 330.674 179.554 333.127 179.554 334.859C179.554 340.2 179.843 345.829 179.41 351.169C177.245 351.169 174.935 351.314 172.77 351.169V331.107C172.77 327.643 173.636 320.714 171.76 317.683C171.183 316.673 170.317 316.096 169.162 315.951C168.007 315.807 166.853 316.529 166.131 317.25C165.554 317.828 164.976 318.694 164.832 319.56C164.11 322.879 164.543 326.921 164.543 330.241V351.169L155.306 351.025Z" fill="#FE7BBE"/>
<path d="M155.45 386.387H164.399L163.822 529.28V560.889C163.822 566.663 163.1 573.447 164.255 579.22C165.265 584.705 168.007 590.045 171.183 594.664C172.482 596.54 174.214 597.984 174.936 600.149C171.76 598.417 168.873 596.396 166.275 593.942C161.079 589.035 157.615 582.54 156.316 575.467C155.162 569.405 155.739 562.333 155.739 556.126V517.733L155.595 448.163L155.45 386.387Z" fill="url(#paint0_linear_77_3)"/>
<path d="M164.543 351.169V330.24C164.543 326.921 164.11 322.879 164.832 319.56C164.976 318.694 165.409 317.972 166.131 317.25C166.852 316.529 168.007 315.807 169.162 315.951C170.316 316.096 171.182 316.817 171.76 317.683C173.636 320.57 172.77 327.498 172.77 331.106V351.169C174.935 351.458 177.244 351.169 179.409 351.169L179.265 386.243H172.77L173.059 518.166V555.693C173.059 563.199 172.337 571.426 173.78 578.787C174.935 585.282 178.543 591.488 183.162 596.107C186.193 598.994 189.513 601.159 192.977 603.468C191.101 603.468 188.936 603.324 187.059 603.757C182.729 603.901 178.543 601.881 174.791 600.149C174.069 598.128 172.337 596.54 171.038 594.664C167.863 590.045 165.12 584.705 164.11 579.22C162.955 573.446 163.677 566.807 163.677 560.889V529.28L164.254 386.387C164.976 383.212 164.399 378.882 164.399 375.706L164.543 351.169Z" fill="#FBF7F6"/>
<path d="M172.914 351.169C175.079 351.458 177.388 351.169 179.554 351.169L179.409 386.243H172.914V351.169Z" fill="#3B3DD4"/>
<path d="M340.056 293.146L400.677 292.569C405.584 306.136 411.502 319.271 420.595 330.529C426.657 338.179 434.163 344.818 441.957 350.881C438.06 350.881 433.874 350.592 429.977 351.025H361.562L361.85 340.921C360.984 322.446 353.768 305.848 340.056 293.146Z" fill="#FD0480"/>
<path d="M509.795 373.83C527.548 373.83 544.869 370.51 560.89 362.861C568.54 359.252 575.612 354.778 582.685 350.015V386.532L567.962 386.387L449.03 386.243C445.998 385.81 442.39 386.099 439.215 386.099H418.719H345.252C354.489 376.572 359.397 364.16 361.129 351.169H361.562H429.977L438.782 351.314C439.648 351.314 441.38 351.025 442.246 351.314C443.545 351.747 445.421 353.479 446.576 354.345C449.607 356.365 452.782 358.242 455.958 359.974C473.134 369.067 490.598 372.964 509.795 373.83Z" fill="#1F169F"/>
<path d="M206.112 293.291L340.056 293.146C353.768 305.703 360.985 322.302 361.851 340.921L361.562 351.025H361.129L186.049 350.881L186.194 337.024C186.194 333.705 186.338 330.241 185.761 326.921C185.905 324.323 185.761 321.58 186.194 319.127C187.781 310.611 191.823 302.961 198.895 297.765C201.06 296.177 203.658 295.023 206.112 293.291Z" fill="#FE39C4"/>
<path d="M528.126 482.804C533.899 481.938 540.25 482.371 545.879 483.092C563.632 485.113 581.386 495.217 592.499 509.217C604.624 524.661 609.82 543.713 607.51 563.199C605.778 577.921 600.871 590.334 591.489 601.881C579.365 616.459 560.601 625.841 541.838 627.573C522.929 629.305 504.887 623.387 490.454 611.263C474.721 597.984 464.329 579.653 462.741 558.869C462.164 551.363 462.741 543.858 464.906 536.641C465.484 534.909 465.917 533.033 466.927 531.445C469.525 522.063 474 513.836 480.35 506.475C492.619 492.186 509.651 484.247 528.126 482.804Z" fill="#C021AC"/>
<path d="M528.125 482.804H531.734C533.321 482.948 534.765 483.958 536.208 484.68C541.693 487.711 546.312 492.763 548.044 498.825L548.188 499.402C550.353 506.619 550.642 514.269 549.343 521.63L549.198 522.352C546.167 538.806 534.765 554.394 521.053 563.632C512.537 569.261 500.268 573.591 490.021 571.57C483.237 570.271 476.597 566.374 472.845 560.456C467.071 551.796 466.494 541.548 467.215 531.445C469.814 522.063 474.288 513.836 480.639 506.475C492.619 492.186 509.65 484.247 528.125 482.804Z" fill="#FE39C4"/>
<path d="M500.269 507.774C501.135 507.774 502.145 507.629 503.155 507.774C504.743 508.062 505.898 509.217 506.764 510.516C507.63 511.959 508.207 513.98 507.63 515.568C506.908 518.166 501.712 520.908 499.547 522.785C495.939 526.104 492.186 530.723 490.31 535.342C489.588 537.362 489.155 539.528 487.856 541.26C487.134 542.27 485.979 542.847 484.969 543.425C483.67 543.569 482.371 543.569 481.072 543.28C479.629 542.847 478.618 541.837 478.041 540.538C476.886 538.373 477.464 535.919 478.185 533.754C481.794 523.362 490.31 512.681 500.269 507.774Z" fill="#FBF7F6"/>
<path d="M449.029 386.099L567.962 386.243L582.684 386.387L582.539 489.588C564.064 477.319 541.404 472.123 519.465 476.597C498.536 480.783 480.061 493.196 468.37 511.238C457.256 528.27 453.503 550.353 457.833 570.127C460.431 582.396 466.06 594.231 473.854 604.046H287.661C289.537 601.015 292.569 598.272 295.022 595.674L306.569 582.973L361.272 522.64C368.634 514.702 377.005 507.485 384.078 499.114C386.82 500.99 389.274 502 392.593 502.145C399.521 502.578 403.852 498.536 408.615 494.351L409.914 495.361C412.8 497.382 416.553 498.392 420.017 497.67C428.677 495.938 427.956 483.237 431.997 476.886C435.461 482.226 438.637 486.989 445.132 489.01C448.74 490.165 452.348 489.732 455.668 488.144C464.328 483.814 470.823 474.577 475.587 466.349C477.174 463.463 478.906 460.432 479.917 457.401C480.494 455.38 481.36 452.06 480.35 450.184C479.195 449.895 478.906 450.761 478.329 451.627C472.7 460.432 466.926 471.69 456.101 474.577C453.503 473.999 451.771 473.133 450.039 471.112C449.75 470.679 448.74 469.813 449.173 469.236C450.328 467.793 453.214 465.916 454.658 464.617C461.153 458.988 468.803 450.184 469.669 441.235C469.957 437.627 469.669 433.874 467.215 431.131C465.772 429.544 463.751 428.389 461.586 428.245C459.998 428.245 458.699 428.678 457.256 429.255C458.411 427.234 460.287 425.502 461.875 423.77L471.256 414.1L497.237 386.532L449.317 386.387L449.029 386.099Z" fill="#F2BFD4"/>
<path d="M505.465 146.934C508.784 146.212 512.537 146.357 516.001 146.357C535.053 146.79 554.25 153.429 570.127 163.677C575.612 167.141 580.952 170.894 585.86 175.08C603.757 191.101 614.727 212.318 619.779 235.556C621.366 242.773 621.655 249.99 621.655 257.351C621.222 278.857 615.304 299.642 603.469 317.684C587.447 342.365 561.9 359.397 533.177 365.314C505.032 371.232 474.865 365.17 450.906 349.293C431.853 336.736 417.708 318.117 409.481 297.043C407.461 291.703 405.44 286.218 404.285 280.589C402.842 273.661 402.12 266.444 402.12 259.516V258.794C402.12 228.628 413.378 199.905 434.884 178.399C449.174 163.966 466.783 154.295 486.557 149.676C492.619 148.089 499.114 146.934 505.465 146.934Z" fill="#FD0480"/>
<path d="M556.415 182.008H556.848L557.137 182.296L493.629 319.993C493.196 321.003 492.474 322.879 491.753 323.745C491.175 324.467 487.856 325.333 486.845 325.766L465.051 333.993L464.185 333.705L525.094 206.978C530.146 198.462 537.219 189.657 546.312 185.327C549.343 183.74 552.951 182.874 556.415 182.008Z" fill="#FBF7F6"/>
<path d="M550.786 254.176C557.714 253.454 564.209 254.464 570.416 257.495C578.931 261.681 585.282 268.898 588.313 277.847L588.602 278.568L589.757 282.61C591.633 292.425 589.324 302.239 583.694 310.467C578.21 318.405 569.838 323.024 560.456 324.756C551.652 326.055 542.27 323.746 534.909 318.838C528.125 314.219 522.207 305.559 520.764 297.476C519.032 288.095 520.62 278.28 525.96 270.341C532.022 261.537 540.538 256.052 550.786 254.176Z" fill="#FBF7F6"/>
<path d="M553.239 277.847C555.404 277.558 557.714 277.702 559.734 278.568C562.621 279.867 565.075 282.754 566.229 285.641C567.24 288.672 567.095 291.991 565.652 294.878C563.776 298.198 561.033 299.786 557.569 300.94C555.116 301.085 552.662 300.94 550.352 299.93C547.61 298.775 545.445 296.466 544.435 293.579C543.28 290.404 543.569 286.362 545.156 283.476C546.744 280.012 549.775 278.857 553.239 277.847Z" fill="#FD0480"/>
<path d="M402.12 259.516V258.794C402.12 228.628 413.378 199.905 434.884 178.399C449.174 163.966 466.783 154.295 486.557 149.676C492.763 148.233 499.114 147.078 505.465 147.078C511.382 148.666 517.589 151.697 520.62 157.182C521.342 158.481 521.775 159.78 522.208 161.079L522.352 161.656C523.651 166.131 522.496 172.048 520.187 175.946C516.001 183.162 508.063 189.08 500.557 192.833C496.949 194.565 493.196 195.864 489.588 197.452C486.99 198.606 484.392 200.194 481.794 201.782C490.021 206.545 496.227 213.617 498.681 222.855C501.135 231.948 499.403 242.196 494.639 250.279C490.309 257.64 482.515 263.413 474.288 265.434H474.144C473.711 267.166 472.556 268.754 471.546 270.197C469.092 273.661 466.35 276.692 462.886 279.29C455.38 284.775 445.277 286.796 436.183 285.352C420.162 282.898 411.213 271.785 402.12 259.516Z" fill="#FE7BBE"/>
<path d="M423.193 247.392C423.77 247.247 424.203 247.247 424.636 247.392C426.224 247.825 427.379 249.412 428.101 250.856C429.111 252.732 429.688 254.897 430.554 256.774C432.286 260.815 435.75 267.166 434.163 271.64C433.297 273.95 431.998 275.104 429.833 275.97C428.678 275.97 427.379 275.826 426.368 275.393C423.77 274.238 422.038 271.64 420.884 269.042C418.574 263.846 416.987 256.485 419.296 251.144C420.162 249.268 421.461 248.113 423.193 247.392Z" fill="#FBF7F6"/>
<path d="M474.144 265.434L473.422 265.578C466.638 267.021 459.133 266.877 452.493 264.279C443.544 260.671 436.472 253.598 432.719 244.794C429.255 236.278 429.977 226.607 433.585 218.236C437.194 209.72 444.41 203.225 452.926 199.905C463.03 196.008 472.123 197.307 481.793 201.637C490.021 206.4 496.227 213.473 498.681 222.71C501.134 231.803 499.402 242.051 494.639 250.134C490.309 257.495 482.515 263.269 474.144 265.434Z" fill="#FBF7F6"/>
<path d="M463.029 221.989C465.05 221.7 467.071 221.7 469.091 222.422C471.834 223.432 473.855 225.597 475.009 228.339C476.02 230.793 475.731 233.969 474.721 236.278C473.277 239.453 470.679 241.041 467.648 242.196C465.916 242.484 464.04 242.484 462.308 241.763C459.565 240.752 457.256 238.732 455.957 236.134C454.947 233.969 454.802 230.938 455.668 228.628C457.112 225.02 459.421 223.432 463.029 221.989Z" fill="#FD0480"/>
<path d="M464.761 223.721C466.205 223.576 467.504 223.865 468.947 224.442C470.39 225.02 472.267 227.04 472.844 228.628C473.71 231.082 473.71 233.824 472.556 236.134C471.256 238.443 469.236 239.309 466.926 240.031C465.194 240.031 463.462 240.175 462.019 239.309C460.143 238.299 458.266 236.278 457.689 234.113C457.256 232.381 457.256 229.638 458.266 228.051C459.565 225.453 461.875 224.298 464.761 223.721Z" fill="#FE39C4"/>
<path d="M179.41 351.17C179.987 345.829 179.554 340.2 179.554 334.86C179.554 333.128 179.265 330.674 179.698 329.086C180.131 327.643 181.43 326.921 182.585 326.344C183.884 326.199 184.462 326.344 185.616 327.065C186.194 330.385 186.049 333.849 186.049 337.169L185.905 351.025L360.984 351.17C359.252 364.304 354.345 376.573 345.107 386.099H418.574H439.07C442.246 386.099 445.854 385.81 448.885 386.243V386.532L496.805 386.676L470.824 414.244L461.442 423.915C459.854 425.647 457.978 427.379 456.823 429.4C458.267 428.822 459.566 428.389 461.154 428.389C463.319 428.534 465.339 429.688 466.783 431.276C469.236 434.018 469.669 437.771 469.236 441.379C468.37 450.328 460.721 459.133 454.225 464.762C452.782 466.061 449.751 467.793 448.741 469.381C448.452 469.814 449.318 470.824 449.607 471.257C451.194 473.422 453.071 474.144 455.669 474.721C466.494 471.834 472.412 460.576 477.896 451.772C478.474 450.906 478.762 450.04 479.917 450.328C480.783 452.205 480.062 455.524 479.484 457.545C478.474 460.576 476.742 463.752 475.154 466.494C470.535 474.577 463.896 483.959 455.236 488.289C451.916 489.876 448.308 490.309 444.699 489.155C438.204 487.134 435.029 482.371 431.565 477.03C427.668 483.381 428.245 495.938 419.585 497.815C416.121 498.537 412.368 497.382 409.481 495.505L408.182 494.495C403.419 498.681 398.945 502.722 392.161 502.289C388.841 502.145 386.387 501.135 383.645 499.258C376.573 507.485 368.346 514.702 360.84 522.785L306.137 583.117L294.59 595.819C292.136 598.417 289.105 601.159 287.229 604.19H217.226H197.74C194.132 604.19 190.379 604.479 186.915 603.902C188.792 603.613 190.957 603.757 192.833 603.613C189.369 601.304 185.905 599.283 183.018 596.252C178.399 591.633 174.791 585.427 173.636 578.932C172.337 571.571 172.915 563.343 172.915 555.838V518.311L172.626 386.388H179.121L179.41 351.17Z" fill="#FBEEF7"/>
<path d="M344.675 427.379C346.262 427.234 348.139 427.379 349.582 427.956C351.603 428.822 352.902 430.698 353.623 432.719C354.634 435.606 353.912 439.647 352.469 442.245C350.015 446.575 346.118 448.452 341.499 449.895C339.623 450.039 337.313 449.751 335.581 448.74C333.705 447.586 332.406 445.854 331.973 443.689C331.251 440.369 332.55 436.328 334.427 433.585C337.169 429.977 340.344 428.1 344.675 427.379Z" fill="#FD0480"/>
<path d="M179.409 351.17C179.987 345.829 179.554 340.2 179.554 334.86C179.554 333.128 179.265 330.674 179.698 329.086C180.131 327.643 181.43 326.921 182.585 326.344C183.884 326.199 184.461 326.344 185.616 327.065C186.193 330.385 186.049 333.849 186.049 337.169L185.904 351.025L185.76 386.388L186.049 435.606C186.049 437.915 186.626 447.153 185.76 448.885C185.038 450.184 184.028 450.617 182.729 450.906C181.719 450.761 181.286 450.617 180.564 449.895C179.698 449.029 179.409 447.875 179.265 446.72C178.832 440.513 179.121 434.018 179.121 427.812L179.265 386.243L179.409 351.17Z" fill="#FBF7F6"/>
<path d="M411.646 475.01C412.368 471.69 413.523 468.37 414.389 465.195L423.049 438.06L430.121 416.265C431.132 413.09 431.854 409.626 433.297 406.45C434.163 404.718 435.029 403.275 436.761 402.265C438.926 400.965 441.235 400.388 443.689 401.11C446.143 401.687 447.875 403.13 449.029 405.44C449.607 406.45 449.896 407.461 449.896 408.615C449.463 413.378 447.153 418.43 445.71 423.049L437.916 447.73L437.627 448.885C433.874 451.05 430.41 455.669 427.523 458.844L417.131 469.669C415.255 471.401 413.667 473.422 411.646 475.01Z" fill="#FD0480"/>
<path d="M247.392 518.888C251.577 505.753 254.897 492.763 257.351 479.195L259.949 465.05C260.526 461.442 260.671 457.112 261.97 453.503C262.691 451.483 264.279 449.751 266.3 448.74C268.176 447.73 270.919 447.153 273.084 448.019C275.393 449.029 277.269 451.338 278.135 453.648C279.867 458.122 277.702 465.339 276.836 469.958L271.929 496.516C282.754 493.051 292.569 484.969 297.909 474.721C302.817 465.05 304.982 451.483 301.662 441.091C300.074 436.327 297.043 431.997 292.425 429.544C285.785 426.08 276.692 427.379 269.908 429.544C257.784 433.585 248.835 441.091 243.206 452.637C238.732 461.731 236.855 472.7 240.031 482.515C241.041 485.69 244.505 489.01 242.773 492.618C242.051 494.062 240.608 495.072 239.165 495.505C236.422 496.371 232.814 495.361 230.504 493.918C225.164 490.742 222.422 484.536 221.123 478.618C219.102 469.525 222.566 458.411 227.618 450.761C238.01 435.173 256.196 425.647 274.238 422.183C285.208 420.018 299.786 419.729 309.456 426.08C316.096 430.554 320.137 438.348 321.58 445.998C323.601 456.968 319.415 468.659 313.209 477.463C303.25 491.608 287.95 499.402 271.207 502.289L270.486 502.433C268.609 510.083 266.3 517.733 262.98 524.95C261.681 527.981 259.949 531.301 257.784 533.754C257.64 534.476 256.629 535.486 256.052 536.208C254.32 538.373 252.444 540.394 250.278 542.126C241.618 549.198 230.649 552.662 219.535 551.363C213.473 550.642 207.699 547.755 203.947 542.847C200.05 537.796 198.895 530.723 199.761 524.517L199.905 523.939C200.194 522.207 200.483 520.62 201.204 518.888C202.936 514.413 206.4 510.372 210.875 508.495C212.895 507.629 215.061 507.485 217.226 508.351C224.875 511.671 220.257 517.3 219.102 522.64C218.236 526.537 218.38 531.734 219.968 535.342C220.978 537.651 222.855 539.816 225.308 540.538C227.906 541.404 230.937 540.682 233.391 539.528C240.897 536.208 244.505 526.537 247.392 518.888Z" fill="url(#paint1_linear_77_3)"/>
<path d="M456.967 429.255C458.411 428.678 459.71 428.245 461.297 428.245C463.462 428.389 465.483 429.544 466.927 431.131C469.38 433.874 469.813 437.626 469.38 441.235C468.514 450.184 460.864 458.988 454.369 464.617C452.926 465.916 449.895 467.648 448.885 469.236C448.596 469.669 449.462 470.679 449.751 471.112C451.338 473.277 453.215 473.999 455.813 474.576C466.638 471.69 472.556 460.432 478.04 451.627C478.618 450.761 478.906 449.895 480.061 450.184C480.927 452.06 480.205 455.38 479.628 457.4C478.618 460.432 476.886 463.607 475.298 466.349C470.679 474.432 464.04 483.814 455.38 488.144C452.06 489.732 448.452 490.165 444.843 489.01C438.348 486.989 435.173 482.226 431.709 476.886C427.812 483.237 428.389 495.794 419.729 497.67C416.265 498.392 412.512 497.237 409.625 495.361L408.326 494.35C403.563 498.536 399.089 502.578 392.305 502.145C388.985 502 386.531 500.99 383.789 499.114C382.923 498.248 382.201 497.382 381.624 496.371L381.335 496.083C378.016 491.464 380.469 484.824 381.913 480.061L384.366 470.968C385.377 466.927 386.098 463.03 386.676 458.988C375.562 465.339 369.933 486.701 366.469 498.248C365.17 502.722 363.582 510.372 359.974 513.547C358.242 515.135 355.355 516.29 353.045 516.145C350.592 516.001 347.994 512.537 346.406 510.805C343.375 514.557 340.488 518.022 335.581 519.321C332.405 520.187 329.23 519.609 326.343 518.022C322.879 516.001 320.859 512.248 319.993 508.351L319.848 507.629C317.972 498.969 320.426 488.577 322.591 480.061C323.601 475.731 324.756 471.257 326.343 467.071C327.787 463.174 329.663 459.854 333.704 458.266C335.581 457.4 338.468 457.4 340.488 458.266C342.798 459.277 343.952 461.153 344.385 463.751C344.818 467.648 343.231 472.844 342.22 476.597L338.035 493.34C337.169 496.66 335.581 501.567 337.024 504.887C337.457 505.753 338.035 506.186 338.901 506.619C347.561 505.031 350.736 488 352.757 481.072L357.376 465.916C358.386 462.597 359.396 458.411 361.417 455.668C363.005 453.503 365.747 451.483 368.489 451.338C370.366 451.194 372.386 451.627 373.686 452.926C376.139 455.235 375.851 458.267 375.851 461.442C379.17 457.545 381.191 452.782 384.944 448.885C388.119 445.565 392.594 442.967 397.357 443.111C399.81 443.111 401.975 443.977 403.707 445.854C404.862 447.153 405.872 449.029 406.017 450.905C406.305 454.947 405.151 458.988 404.14 462.885L399.81 477.896C398.511 482.371 397.068 485.979 396.924 490.742C397.212 490.742 397.068 490.742 397.212 491.031C397.645 491.897 397.645 492.185 398.367 492.763C400.099 491.897 401.687 489.587 402.986 488C406.305 483.958 409.625 480.206 411.646 475.298C413.667 473.855 415.254 471.69 416.986 469.813L427.378 458.988C430.265 455.813 433.729 451.194 437.482 449.029L437.771 447.874C439.791 446.575 441.523 444.699 443.255 442.967C447.297 439.07 450.905 434.595 455.091 430.843L456.967 429.255Z" fill="url(#paint2_linear_77_3)"/>
<path d="M437.915 447.441C439.936 446.142 441.668 444.266 443.4 442.534C447.442 438.637 451.05 434.162 455.236 430.41C453.937 442.39 448.596 454.369 439.214 462.019C437.482 463.463 434.596 465.916 432.431 466.494L435.895 455.091C436.472 452.926 437.338 450.617 437.482 448.452L437.915 447.441Z" fill="#F2BFD4"/>
<path d="M186.049 351.025L361.128 351.169C359.396 364.304 354.489 376.572 345.251 386.099H418.718H439.214C442.389 386.099 445.998 385.81 449.029 386.243V386.532C446.286 386.243 443.4 386.387 440.657 386.387H425.213H371.665H185.904L186.049 351.025Z" fill="#3B3DD4"/>
<defs>
<linearGradient id="paint0_linear_77_3" x1="176.611" y1="493.487" x2="152.079" y2="492.602" gradientUnits="userSpaceOnUse">
<stop stop-color="#FCE1F6"/>
<stop offset="1" stop-color="#FFF6FF"/>
</linearGradient>
<linearGradient id="paint1_linear_77_3" x1="263.345" y1="549.666" x2="257.157" y2="422.263" gradientUnits="userSpaceOnUse">
<stop stop-color="#B70063"/>
<stop offset="1" stop-color="#FF0890"/>
</linearGradient>
<linearGradient id="paint2_linear_77_3" x1="416.342" y1="509.481" x2="375.202" y2="435.083" gradientUnits="userSpaceOnUse">
<stop stop-color="#A10073"/>
<stop offset="1" stop-color="#FF0287"/>
</linearGradient>
</defs>
</svg>
