<svg width="253" height="249" viewBox="0 0 253 249" fill="none" xmlns="http://www.w3.org/2000/svg">
<g clip-path="url(#clip0_85_1819)" filter="url(#filter0_d_85_1819)">
<path d="M144.896 14.5312C145.347 14.5622 145.789 14.5891 146.207 14.7794C147.021 15.1508 147.632 15.8922 147.922 16.7308C148.17 17.447 148.156 18.1922 147.803 18.8739C147.301 19.8404 146.552 20.196 145.56 20.5131C144.95 20.5072 144.401 20.496 143.85 20.2055C143.076 19.7978 142.526 19.0588 142.28 18.2253C142.059 17.4771 142.204 16.559 142.615 15.899C143.166 15.0153 143.921 14.7319 144.896 14.5312Z" fill="#FEBF35"/>
<path d="M14.2969 143.328L14.4511 143.318C15.1016 143.267 15.6035 143.233 16.2195 143.476C16.9729 143.774 17.6174 144.391 17.9142 145.15C18.209 145.903 18.1379 146.767 17.8004 147.492C17.3907 148.373 16.6656 148.849 15.7806 149.169C15.2981 149.221 14.7427 149.228 14.273 149.096C13.462 148.869 12.7759 148.261 12.3925 147.517C11.9983 146.751 11.9252 145.909 12.2414 145.099C12.6296 144.105 13.3888 143.73 14.2969 143.328Z" fill="#FFE36A"/>
<path d="M49.4225 29.8989C49.925 29.856 50.054 30.2939 50.2758 30.6773C50.5353 31.1258 50.891 32.0236 51.2401 32.3694C51.3973 32.525 51.8881 32.6727 52.1156 32.7805C52.7718 33.0908 53.4025 33.4024 54.006 33.8088C53.2081 34.4767 52.2041 34.8551 51.422 35.5154C50.7639 36.0708 50.1949 37.188 49.7043 37.9077L49.5596 38.0095C48.9792 37.7117 48.4137 36.1911 47.8468 35.6378C47.1222 34.9303 46.0621 34.7495 45.373 33.9712C45.6725 33.0954 47.5113 32.7696 48.1897 32.0588C48.7188 31.5045 48.9708 30.5507 49.4225 29.8989Z" fill="white"/>
<path d="M220.419 38.2861C221.009 38.335 221.557 38.3983 222.103 38.6439C222.87 38.9901 223.535 39.7725 223.812 40.5628C224.112 41.422 224.037 42.4086 223.581 43.2019C222.962 44.2783 221.944 44.7526 220.785 45.0165C220.165 45.0605 219.524 44.915 218.983 44.6087C218.188 44.1586 217.551 43.4112 217.33 42.5134C217.124 41.6721 217.259 40.7124 217.729 39.9761C218.402 38.9217 219.233 38.531 220.419 38.2861Z" fill="#FFB4D5"/>
<path d="M236.423 148.266C236.737 148.408 236.973 148.841 237.189 149.116C237.704 149.773 238.226 150.418 238.819 151.008C239.52 151.705 240.333 152.253 241.142 152.816C239.269 154.036 237.554 155.453 236.256 157.286C234.982 155.481 233.453 154.022 231.728 152.656C233.536 151.56 235.094 149.896 236.423 148.266Z" fill="white"/>
<path d="M22.7816 60.1142C23.5046 60.083 24.1977 60.0545 24.8921 60.3081C25.7731 60.6298 26.5487 61.4885 26.909 62.3412C27.2549 63.1606 27.2595 64.215 26.9179 65.0319C26.4312 66.1968 25.5518 66.7401 24.4542 67.2279C23.5654 67.3246 22.7754 67.3707 21.9495 66.9722C21.0628 66.5443 20.4707 65.8062 20.1417 64.8902C19.8002 63.9405 19.9118 62.8144 20.3678 61.9234C20.8875 60.9078 21.7318 60.4471 22.7816 60.1142Z" fill="#FFB4D5"/>
<path d="M217.096 147.758C217.753 148.728 218.089 150.121 218.478 151.23C220.95 158.268 221.614 165.725 220.208 173.059C219.848 174.94 219.394 176.827 218.836 178.661C218.578 179.51 218.341 180.445 217.893 181.215C217.674 180.387 217.801 179.334 217.807 178.469L217.85 171.813C217.857 170.574 217.98 169.212 217.733 167.996C217.561 167.148 217.191 166.307 216.583 165.681C215.471 164.532 214.191 164.317 212.679 164.272L216.745 148.186C216.789 147.978 216.944 147.901 217.096 147.758Z" fill="#17B3FA"/>
<path d="M3.72852 200.165C3.90862 200.175 4.28815 200.143 4.44246 200.202C4.97216 200.407 5.85193 201.349 6.30848 201.751L13.0086 207.857C16.5854 210.991 20.5081 213.823 24.4234 216.52L30.9431 220.997C29.8895 221.704 29.2678 222.351 28.9119 223.598L28.9151 227.114C28.9189 228.375 28.686 229.858 29.6406 230.848L30.2975 231.432C29.8887 231.422 29.4934 231.335 29.0927 231.259C27.4152 230.754 25.6318 229.955 24.1142 229.083C15.2641 223.999 9.59375 215.771 5.91174 206.424C5.10904 204.386 4.30393 202.278 3.72852 200.165Z" fill="#007E89"/>
<path d="M13.3172 169.121L13.3733 168.436L13.6053 168.288C19.114 170.081 24.9873 173.419 29.0677 177.533C30.6426 179.121 31.9297 180.945 33.4696 182.547C32.1238 182.537 30.9974 182.539 29.9883 183.571C29.3865 184.186 29.1435 184.893 28.9342 185.707C28.9255 187.527 28.7058 189.645 29.0482 191.422L29.0851 191.625L29.1098 191.747L29.6134 192.348C30.1996 193.04 30.8457 193.428 31.6797 193.761C32.0921 194.193 32.7586 194.696 32.9106 195.268C31.6922 195.322 30.8359 195.51 29.9672 196.456C29.5586 196.9 29.3311 197.47 29.0924 198.017L29.0566 201.356C29.0544 202.643 28.8728 204.058 29.8094 205.085C30.815 206.188 32.0997 206.288 33.4804 206.464C34.192 206.596 34.4401 206.601 34.8813 207.214C35.0559 207.457 35.1248 207.66 35.2082 207.944L31.8694 207.975C30.4184 207.771 28.6961 206.336 27.4073 205.613L23.0888 203.291C22.1661 201.952 21.1781 200.664 20.3498 199.261C15.0914 190.352 12.2975 179.484 13.3172 169.121Z" fill="#17B3FA"/>
<path d="M13.3174 169.121L13.3735 168.436L13.6055 168.288C19.1142 170.081 24.9875 173.419 29.0679 177.533C30.6428 179.121 31.9299 180.945 33.4698 182.547C32.124 182.537 30.9976 182.539 29.9885 183.571C29.3867 184.186 29.1437 184.893 28.9344 185.707C28.9257 187.527 28.706 189.645 29.0484 191.422L29.0853 191.625L29.11 191.747C27.9437 190.73 27.1165 189.3 26.2722 188.017L22.5333 182.26L16.5873 173.472C15.6759 172.119 14.6244 170.043 13.3174 169.121Z" fill="#3FABEE"/>
<path d="M34.3901 151.478L34.7153 151.323C35.387 151.679 35.9338 152.069 36.5166 152.554C41.3233 156.651 45.771 160.792 49.3093 166.08C50.535 167.912 51.3755 170.112 52.6602 171.861L52.2741 182.526L44.6777 182.553L42.3845 182.59L34.7786 182.567C34.4029 180.725 33.4459 178.991 33.0406 177.113C32.1232 172.864 31.6595 168.532 31.9625 164.184C32.1425 161.602 32.6279 159.012 33.1415 156.478C33.4725 154.846 33.7578 153.026 34.3901 151.478Z" fill="#17B3FA"/>
<path d="M34.3901 151.479L34.6401 151.644L34.6396 151.864C34.6567 152.361 35.0197 152.963 35.1709 153.447L38.1276 162.485L42.0606 175.246C42.8466 177.705 43.6018 180.202 44.6777 182.553L42.3845 182.59L34.7786 182.567C34.4029 180.726 33.4459 178.991 33.0406 177.113C32.1232 172.864 31.6595 168.532 31.9625 164.184C32.1425 161.602 32.6279 159.012 33.1415 156.479C33.4725 154.846 33.7578 153.026 34.3901 151.479Z" fill="#3FABEE"/>
<path d="M217.855 183.933C218.654 183.074 219.299 182.051 220.083 181.166C222.739 178.165 225.913 175.446 229.269 173.271C230.382 172.549 237.223 168.324 238.376 168.575C238.797 169.381 238.772 170.862 238.813 171.764C239.088 177.871 238.186 183.682 236.358 189.507C235.157 193.332 233.382 197.095 231.295 200.521C230.613 201.642 229.659 202.673 229.057 203.823L225.381 205.84C222.525 207.586 220.065 209.671 217.85 212.175L217.835 205.876L217.81 191.268L217.801 186.616C217.799 185.911 217.691 185.006 217.882 184.34L217.855 183.933Z" fill="#17B3FA"/>
<path d="M217.855 183.933C218.655 183.074 219.299 182.051 220.083 181.166C222.739 178.165 225.913 175.446 229.269 173.271C230.383 172.549 237.223 168.324 238.377 168.575C238.234 169.553 236.914 171.075 236.338 171.953L226.317 186.483C223.461 190.636 220.505 194.813 217.943 199.151L217.946 188.408L217.941 185.563C217.938 185.176 217.998 184.705 217.882 184.34L217.855 183.933Z" fill="#3FABEE"/>
<path d="M229.057 203.823C234.315 201.643 239.503 200.021 245.25 199.817C245.892 199.795 248.026 199.605 248.435 199.984L248.261 200.562C244.759 212.177 238.333 224.359 227.21 230.244L225.056 231.298C222.402 232.179 219.727 232.633 216.914 232.291C218.39 230.126 217.863 226.907 217.837 224.384L217.851 212.175C220.065 209.671 222.526 207.586 225.382 205.84L229.057 203.823Z" fill="#007E89"/>
<path d="M229.056 203.823C234.314 201.643 239.502 200.021 245.249 199.817C245.891 199.795 248.025 199.605 248.435 199.984L248.26 200.562C246.845 201.174 245.61 202.849 244.463 203.886L240.519 207.198L227.486 217.032L221.36 221.481C220.172 222.369 218.842 223.289 217.836 224.384L217.85 212.175C220.065 209.671 222.525 207.586 225.381 205.84L229.056 203.823Z" fill="#0098A7"/>
<path d="M199.364 11.3711C202.967 14.7804 205.177 19.5935 205.303 24.5631C205.451 30.3897 203.471 35.464 199.442 39.6717L199.012 40.1142C198.029 40.9317 197.071 41.7016 195.967 42.3488C191.233 45.125 185.728 45.9226 180.426 44.5128C175.601 43.2298 171.009 39.8989 168.503 35.5704C169.112 35.496 169.749 35.7471 170.333 35.9073C171.29 36.1698 172.224 36.4087 173.202 36.5822C178.979 37.6063 185.448 35.9374 190.236 32.6413C194.774 29.5163 198.356 24.6877 199.459 19.2433C199.977 16.6895 199.834 13.9222 199.364 11.3711Z" fill="#FE880A"/>
<path d="M28.9127 223.598C31.7679 223.148 34.9603 223.406 37.8584 223.418C38.6069 223.421 40.1183 223.242 40.7457 223.526C40.503 225.201 40.0493 227.968 41.1249 229.391C41.4431 229.812 41.9179 230.22 42.4511 230.305C43.4157 230.46 44.5144 230.387 45.495 230.386L50.4987 230.365L67.4871 230.322L71.2339 230.32C71.718 230.322 72.2085 230.233 72.6307 230.477C72.1578 230.981 71.7106 231.388 71.1481 231.795L91.3756 231.812C94.72 232.157 98.2322 231.981 101.601 232.005L121.736 232.018L147.795 231.964L161.786 231.921C165.323 232.149 168.966 231.948 172.517 231.979L178.868 232.036C180.24 232.047 181.662 232.138 183.02 231.925C183.9 232.788 184.645 233.591 185.882 233.904C186.649 234.097 187.6 234.021 188.395 234.026L193.085 234.023L209.51 233.963L213.2 233.881C213.896 233.85 214.646 233.859 215.297 233.585C215.826 233.361 216.287 232.931 216.69 232.53L216.914 232.291C219.728 232.633 222.402 232.179 225.056 231.298C226.145 231.54 227.416 231.422 228.535 231.421L234.616 231.42C236.16 231.421 237.717 231.249 239.09 232.105C240.25 232.828 241.226 234.196 241.477 235.548C241.692 236.706 241.365 237.989 240.688 238.942C240.004 239.907 238.813 240.848 237.636 241.049L237.445 241.078C235.801 241.339 233.957 241.182 232.291 241.182L222.225 241.179L187.397 241.197L62.4052 241.143L30.4531 241.165L20.4082 241.175C18.8111 241.174 17.0912 241.297 15.5063 241.148C14.7128 241.073 13.9564 240.868 13.2812 240.435C12.1553 239.713 11.2978 238.585 11.053 237.251C10.8066 235.908 11.151 234.493 11.947 233.391C12.4789 232.655 13.3184 231.957 14.1948 231.67C15.367 231.287 16.7603 231.413 17.9825 231.413L24.9795 231.428C26.2698 231.429 27.6623 231.535 28.9312 231.293L29.0936 231.259C29.4943 231.334 29.8895 231.422 30.2984 231.432L29.6414 230.848C28.6869 229.858 28.9198 228.375 28.916 227.114L28.9127 223.598Z" fill="#F8427D"/>
<path d="M28.9127 223.598C31.7679 223.148 34.9603 223.406 37.8584 223.418C38.6069 223.421 40.1182 223.242 40.7456 223.526C40.5029 225.201 40.0493 227.968 41.1249 229.391C41.4431 229.812 41.9179 230.22 42.4511 230.305C43.4157 230.46 44.5144 230.387 45.495 230.386L50.4987 230.365L67.4871 230.322L71.2339 230.32C71.7179 230.322 72.2085 230.233 72.6307 230.477C72.1577 230.981 71.7106 231.388 71.1481 231.795C69.7092 232.045 68.0374 231.863 66.5757 231.853L58.1964 231.843L41.2112 231.912L32.0771 231.866C31.4115 231.833 30.903 231.719 30.2984 231.432L29.6414 230.848C28.6868 229.858 28.9198 228.375 28.916 227.114L28.9127 223.598Z" fill="#FE880A"/>
<path d="M212.679 164.271C214.191 164.317 215.471 164.532 216.584 165.68C217.191 166.307 217.561 167.148 217.733 167.995C217.98 169.212 217.857 170.574 217.851 171.813L217.807 178.469C217.801 179.334 217.674 180.387 217.893 181.215L217.856 183.933L217.882 184.34C217.691 185.006 217.8 185.911 217.802 186.616L217.81 191.268L217.835 205.876L217.851 212.175L217.837 224.384C217.863 226.907 218.39 230.126 216.914 232.291L216.69 232.531C216.287 232.931 215.826 233.361 215.297 233.585C214.646 233.859 213.896 233.85 213.2 233.881L209.51 233.963L193.084 234.023L188.395 234.026C187.6 234.021 186.649 234.097 185.882 233.904C184.645 233.591 183.9 232.788 183.02 231.925C182.71 231.498 182.433 231.057 182.351 230.526C182.15 229.217 182.324 227.622 182.324 226.282L182.323 216.616L182.329 201.075L182.275 178.126L182.24 171.514C182.234 170.28 182.109 168.893 182.386 167.682C182.706 166.286 183.634 165.48 184.782 164.75C185.187 164.602 185.512 164.522 185.94 164.474L206.678 164.372L212.679 164.271Z" fill="white"/>
<path d="M195.811 168.492C198.009 168.213 200.521 168.415 202.75 168.422C203.307 168.424 204.352 168.288 204.866 168.436C204.971 168.466 205.042 168.563 205.13 168.627L205.07 169.061L204.493 169.103L196.171 169.096C195.847 169.095 195.867 169.123 195.638 168.899L195.811 168.492Z" fill="black"/>
<path d="M183.838 172.381L216.125 172.469L216.169 225.921L183.949 225.977L183.838 172.381Z" fill="#797BEC"/>
<path d="M187.088 205.084L194.98 205.109L194.961 208.726L187.091 208.743L187.088 205.084Z" fill="#4A46C2"/>
<path d="M197.523 205.071H212.606L212.604 208.781L197.51 208.76L197.523 205.071Z" fill="#4A46C2"/>
<path d="M197.504 215.1L212.564 215.105L212.518 218.923L197.446 218.928L197.504 215.1Z" fill="#4A46C2"/>
<path d="M197.583 185.114L212.747 185.083L212.74 188.913L197.543 188.915L197.583 185.114Z" fill="#4A46C2"/>
<path d="M205.494 195.504L212.71 195.455L212.685 199.356L204.694 199.342L197.566 199.35L197.599 195.507L205.494 195.504Z" fill="#4A46C2"/>
<path d="M189.953 193.29C190.955 193.173 191.838 193.191 192.773 193.605C193.91 194.109 194.845 195.157 195.252 196.331C195.608 197.357 195.526 198.381 195.06 199.356C194.435 200.663 193.379 201.36 192.072 201.854C191.288 202.021 190.394 201.98 189.629 201.745C188.479 201.391 187.493 200.604 186.966 199.515C186.427 198.402 186.363 197.337 186.821 196.183C187.406 194.709 188.549 193.886 189.953 193.29Z" fill="#F52752"/>
<path d="M190.333 180.926C191.367 180.885 192.237 180.935 193.178 181.445C194.277 182.042 194.983 182.993 195.335 184.18C195.677 185.331 195.506 186.525 194.928 187.571C194.25 188.795 193.215 189.361 191.926 189.724C190.891 189.896 189.774 189.798 188.838 189.299C187.802 188.746 187.001 187.768 186.682 186.634C186.336 185.406 186.561 183.957 187.241 182.888C187.959 181.759 189.081 181.233 190.333 180.926Z" fill="#FFE36A"/>
<path d="M190.288 210.114L190.4 210.113C191.475 210.096 192.268 210.205 193.231 210.755C194.329 211.381 195.079 212.344 195.428 213.555C195.801 214.853 195.521 216.143 194.851 217.292C194.107 218.571 193.172 219.061 191.792 219.403C190.795 219.5 189.622 219.375 188.715 218.93C187.573 218.369 186.913 217.244 186.558 216.07C186.209 214.915 186.384 213.516 186.979 212.472C187.728 211.157 188.882 210.516 190.288 210.114Z" fill="#FEBF35"/>
<path d="M182.101 118.227L183.049 118.864L183.048 118.871L185.616 120.717L187.549 118.293L187.654 119.341C187.743 120.265 188.392 121.35 188.122 122.223L187.773 122.446L187.567 122.498C186.484 122.748 184.954 122.535 183.825 122.518L183.792 133.852C183.775 135.846 183.553 138.072 183.828 140.036L183.844 140.164L185.931 137.735C186.102 138.841 185.922 140.015 185.842 141.126L185.506 146.321L184.929 158.278L184.782 164.75C183.634 165.481 182.705 166.287 182.386 167.682C182.109 168.893 182.234 170.28 182.24 171.514L182.274 178.127L182.329 201.075L182.323 216.616L182.324 226.282C182.324 227.622 182.15 229.218 182.351 230.526C182.433 231.057 182.71 231.498 183.02 231.925C181.662 232.138 180.24 232.048 178.868 232.037L172.516 231.979C168.965 231.948 165.323 232.15 161.786 231.921L147.795 231.964L121.736 232.018L101.601 232.005C98.232 231.982 94.7198 232.157 91.3754 231.812C90.6994 231.469 89.9319 231.333 89.2168 231.093C87.1117 230.384 85.2784 229.285 83.7073 227.707C81.3715 225.361 79.9994 222.376 79.4285 219.143C79.0334 216.906 79.1996 214.464 79.2004 212.2L79.2381 201.023L79.2935 163.301L79.2772 122.966L82.1273 122.946C82.1162 124.373 81.8946 125.785 83.0378 126.863C83.9693 127.742 85.1489 127.848 86.3676 127.859L86.3722 132.494L82.0016 132.497L82.0472 207.629L82.0244 213.471C82.0255 214.968 81.9207 216.564 82.092 218.049C82.377 220.517 83.5751 223.218 85.3012 225.011C87.9159 227.728 90.944 229.099 94.7174 229.161L106.56 229.14L115.696 215.808L115.781 215.784L170.105 215.795L170.1 172.434L170.118 132.749L167.092 132.778L167.071 128.743L167.181 128.3L167.931 128.28C168.88 128.23 169.204 127.922 169.82 127.233C170.2 126.445 170.497 125.263 170.163 124.413C169.791 123.467 168.454 123.052 167.606 122.636L172.121 122.623L172.999 122.676L175.435 122.693L175.426 118.209L182.101 118.227Z" fill="#1E025D"/>
<path d="M172.98 170.752L173.133 169.781L173.306 169.766C173.891 171.246 174.113 172.966 174.42 174.532L175.768 181.345C176.86 186.794 178.341 192.222 180.312 197.421C180.784 198.668 181.215 200.459 181.994 201.51L182.181 201.477L182.329 201.075L182.323 216.616C180.971 216.319 176.81 209.96 175.987 208.575C175.051 206.997 174.297 205.116 173.143 203.709L173.092 209.826L173.076 209.98C172.9 208.547 173.009 206.954 173.009 205.501L173.029 196.935L172.98 170.752Z" fill="#0098A7"/>
<path d="M173.077 209.98L173.093 209.826L173.143 203.709C174.298 205.116 175.051 206.997 175.988 208.575C176.81 209.96 180.971 216.319 182.323 216.616L182.324 226.282C182.324 227.621 182.15 229.217 182.351 230.526C182.433 231.056 182.709 231.498 183.019 231.925C181.662 232.138 180.24 232.047 178.868 232.036L172.516 231.978C168.965 231.948 165.322 232.149 161.786 231.921C163.724 231.352 165.401 230.924 167.133 229.812C170.093 227.912 171.959 224.447 172.736 221.092C173.089 219.569 173.022 218.004 173.029 216.45L173.077 209.98Z" fill="#02A4BB"/>
<path d="M182.101 118.227L183.049 118.864L183.048 118.871L185.616 120.717L187.549 118.293L187.654 119.341C187.743 120.265 188.392 121.35 188.122 122.223L187.773 122.446L187.567 122.498C186.484 122.748 184.954 122.535 183.825 122.518L183.792 133.852C183.775 135.846 183.553 138.072 183.828 140.036L183.844 140.164C180.528 144.241 177.628 148.57 175.418 153.357L172.979 159.323L172.999 122.676L175.435 122.693L175.426 118.209L182.101 118.227Z" fill="#3FABEE"/>
<path d="M187.549 118.292L187.653 119.341C187.742 120.265 188.392 121.35 188.121 122.223L187.772 122.446L183.741 122.425L183 120.227C182.853 119.688 182.763 119.35 183.048 118.871L185.616 120.717L187.549 118.292Z" fill="#17B3FA"/>
<path d="M183.844 140.164L185.931 137.735C186.102 138.841 185.922 140.015 185.842 141.126L185.506 146.32L184.929 158.278L184.782 164.75C183.634 165.481 182.705 166.287 182.386 167.682C182.109 168.893 182.234 170.28 182.24 171.514L182.274 178.127L182.329 201.075L182.181 201.477L181.994 201.51C181.215 200.46 180.785 198.668 180.312 197.421C178.342 192.223 176.86 186.795 175.768 181.346L174.42 174.532C174.113 172.966 173.891 171.246 173.306 169.766L173.133 169.781L172.981 170.752L172.979 159.323L175.418 153.357C177.628 148.57 180.528 144.241 183.844 140.164Z" fill="#007E89"/>
<path d="M170.105 215.795C170.129 217.061 170.222 218.396 170.048 219.652C169.721 222.012 168.532 224.113 166.903 225.82C165.02 227.793 162.117 229.058 159.393 229.095L106.561 229.14L115.696 215.808L115.782 215.784L170.105 215.795Z" fill="#282085"/>
<path d="M120.796 220.168L128.681 220.145C129.861 220.146 131.866 219.894 132.934 220.339C133.397 220.532 133.798 221.013 133.98 221.47C134.238 222.118 134.226 222.812 133.913 223.438C133.592 224.078 133.032 224.371 132.388 224.609L125.088 224.636C123.72 224.634 122.136 224.801 120.805 224.53C120.25 224.417 119.727 224.103 119.432 223.609C119.076 223.018 119.046 222.303 119.271 221.658C119.533 220.909 120.102 220.485 120.796 220.168Z" fill="white"/>
<path d="M173.26 86.7252C176.808 86.1068 180.102 85.733 183.707 86.1619L183.818 86.2157C189.425 87.0475 195.174 89.7395 199.534 93.3383C200.552 94.1783 201.48 95.1508 202.417 96.0798C205.286 93.5162 208.796 91.7119 212.555 90.8961C217.484 89.8264 223.539 90.4918 227.869 93.2547C232.362 95.5727 235.648 100.115 237.437 104.749C239.121 110.186 238.645 115.942 236.001 121.009C233.218 126.341 228.166 130.44 222.426 132.184C219.339 133.122 216.037 133.209 212.861 132.781L213.063 150.399C214.214 149.466 215.562 148.156 216.875 147.504L217.096 147.758C216.943 147.9 216.788 147.978 216.744 148.186L212.678 164.271L206.678 164.372L185.939 164.474C185.511 164.522 185.187 164.602 184.782 164.75L184.928 158.278L185.506 146.32L185.842 141.126C185.922 140.015 186.102 138.841 185.93 137.735L183.844 140.164L183.828 140.036C183.552 138.072 183.775 135.846 183.792 133.851L183.825 122.518C184.954 122.535 186.484 122.748 187.566 122.498L187.772 122.446L188.122 122.223C188.392 121.35 187.742 120.265 187.654 119.341L187.549 118.292L188.391 116.678L183.794 113.688L173.227 106.888L173.26 86.7252Z" fill="#82DEFD"/>
<path d="M213.062 150.399C214.213 149.466 215.562 148.156 216.875 147.504L217.095 147.758C216.943 147.901 216.788 147.978 216.744 148.186L212.678 164.272L206.677 164.373L201.272 164.34C203.404 160.661 205.807 157.339 208.793 154.301C210.147 152.924 211.638 151.7 213.062 150.399Z" fill="#3FABEE"/>
<path d="M185.931 137.735L186.884 136.596C188.876 138.88 190.481 141.411 191.979 144.036C195.562 150.315 198.144 157.205 199.278 164.358L190.486 164.341C189.083 164.339 187.283 164.144 185.94 164.474C185.511 164.522 185.187 164.602 184.782 164.75L184.929 158.278L185.506 146.32L185.842 141.126C185.922 140.015 186.102 138.841 185.931 137.735Z" fill="#0098A7"/>
<path d="M173.26 86.7252C176.808 86.1068 180.102 85.733 183.707 86.1619L183.818 86.2157L183.828 104.948L183.827 110.689C183.827 111.67 183.899 112.717 183.794 113.688L173.227 106.888L173.26 86.7252Z" fill="#3FABEE"/>
<path d="M202.417 96.0798C205.285 93.5162 208.796 91.7119 212.555 90.8961C217.484 89.8264 223.538 90.4918 227.869 93.2547C232.361 95.5727 235.647 100.115 237.437 104.749C239.121 110.186 238.645 115.942 236.001 121.009C233.218 126.341 228.166 130.44 222.426 132.184C219.339 133.122 216.037 133.209 212.86 132.781L210.317 132.046C204.823 130.165 200.475 126.409 197.902 121.186C196.133 118.046 195.371 114.133 195.519 110.556C195.755 104.828 198.251 99.9585 202.417 96.0798Z" fill="#9CC530"/>
<path d="M215.313 100.02L217.724 99.9321L217.887 102.124C218.658 102.149 219.454 102.295 220.205 102.473C220.816 102.618 221.932 102.86 222.262 103.403C222.08 104.444 221.716 105.459 221.316 106.434C220.43 106.051 219.484 105.632 218.537 105.443C217.691 105.275 216.866 105.073 215.997 105.205C215.413 105.293 214.891 105.624 214.551 106.108C214.29 106.48 214.263 107.174 214.394 107.599C214.798 108.911 218.898 109.754 220.148 110.402C221.418 111.061 222.506 112.073 222.915 113.484C223.294 114.793 223.106 116.009 222.431 117.193C221.656 118.55 220.315 119.462 218.813 119.83C218.488 119.91 218.253 119.974 217.965 120.144C217.681 120.783 217.757 121.56 217.747 122.25L215.929 122.258C215.764 122.242 215.623 122.187 215.466 122.136L215.182 120.268C213.228 119.532 211.505 119.098 209.779 117.838C209.97 116.852 210.449 115.845 210.806 114.903C213.134 116.076 215.15 117.519 217.884 116.926C218.456 116.802 218.976 116.474 219.263 115.959C219.496 115.541 219.494 114.902 219.334 114.459C218.747 112.844 215.521 112.471 214.092 111.883C212.714 111.316 211.519 110.468 210.959 109.028C210.497 107.839 210.554 106.374 211.075 105.212C211.837 103.513 213.397 102.87 215.005 102.213C215.245 101.551 215.243 100.722 215.313 100.02Z" fill="white"/>
<path d="M227.869 93.2549C232.362 95.5728 235.648 100.115 237.437 104.749C239.122 110.186 238.646 115.942 236.002 121.009C233.219 126.341 228.167 130.44 222.427 132.185C219.34 133.123 216.038 133.209 212.861 132.781L210.317 132.046C204.823 130.165 200.475 126.409 197.903 121.186C198.492 121.449 198.959 121.92 199.459 122.321C200.311 123.003 201.167 123.675 202.1 124.243C206.542 126.947 211.023 127.645 216.074 126.353C221.598 124.94 226.214 121.167 229.068 116.278C231.118 112.765 232.413 108.249 231.982 104.178C231.748 101.974 231.019 99.7637 230.124 97.7444C229.736 96.8681 229.281 96.0164 228.81 95.1819C228.471 94.5778 228.066 94.0609 227.896 93.3741L227.869 93.2549Z" fill="#73B230"/>
<path d="M61.6415 114.704C64.8016 114.32 67.937 113.34 70.8812 112.146C72.0858 111.657 73.2803 110.996 74.5321 110.647C72.4433 112.1 69.8496 113.312 68.133 115.2C68.594 116.774 69.2615 118.08 70.4639 119.212C71.6699 118.703 72.7186 117.845 73.7557 117.06C74.0823 117.347 74.4841 117.624 74.6668 118.02C74.0236 118.803 73.7516 119.4 73.8751 120.439C73.9742 121.272 74.4102 122.169 75.0884 122.679C75.9365 123.316 78.2376 123.08 79.2766 122.966L79.2929 163.301L79.2375 201.022L79.1998 212.2C79.1989 214.464 79.0328 216.906 79.4278 219.143C79.9987 222.376 81.3708 225.361 83.7067 227.707C85.2777 229.285 87.1111 230.384 89.2162 231.092C89.9313 231.333 90.6988 231.469 91.3747 231.812L71.1473 231.795C71.7098 231.388 72.1569 230.981 72.6298 230.477C72.2077 230.233 71.7171 230.322 71.233 230.319L67.4863 230.322L50.4979 230.365L45.4942 230.386C44.5136 230.387 43.4149 230.46 42.4503 230.305C41.9171 230.22 41.4423 229.812 41.1241 229.391C40.0485 227.968 40.5021 225.201 40.7448 223.526C40.1174 223.242 38.6061 223.421 37.8576 223.418C34.9595 223.406 31.7671 223.148 28.9119 223.598C29.2678 222.351 29.8895 221.704 30.9431 220.996L24.4234 216.52C20.5081 213.822 16.5854 210.99 13.0086 207.857L6.30849 201.75C5.85193 201.349 4.97216 200.407 4.44246 200.202C4.28815 200.142 3.90862 200.175 3.72852 200.165L3.77062 199.788C4.82664 199.593 5.95192 199.629 7.02412 199.626C10.5502 199.618 14.1945 200.184 17.5489 201.268L23.0886 203.29L27.4071 205.612C28.6958 206.336 30.4181 207.771 31.8692 207.975L35.2079 207.943C35.1245 207.66 35.0556 207.457 34.881 207.214C34.4399 206.601 34.1917 206.596 33.4802 206.464C32.0994 206.288 30.8147 206.187 29.8091 205.085C28.8725 204.058 29.0542 202.643 29.0563 201.356L29.0922 198.017C29.3308 197.47 29.5583 196.9 29.9669 196.456C30.8356 195.51 31.6919 195.322 32.9103 195.268C32.7583 194.696 32.0918 194.193 31.6794 193.761C30.8454 193.428 30.1993 193.04 29.6131 192.348L29.1095 191.747L29.0848 191.625L29.0479 191.422C28.7056 189.645 28.9252 187.527 28.9339 185.707C29.1432 184.893 29.3862 184.186 29.9881 183.571C30.9972 182.539 32.1236 182.537 33.4693 182.547L34.7781 182.567L42.384 182.59L44.6773 182.553L52.2737 182.526L52.6597 171.861C51.3751 170.112 50.5345 167.912 49.3088 166.08C45.7705 160.792 41.3228 156.651 36.5162 152.554C37.168 148.796 38.1888 144.924 39.4444 141.323L41.6051 135.403L43.2131 135.179C45.6465 135.165 48.8036 133.735 50.872 132.556C55.9254 129.675 59.4216 124.821 60.9612 119.267C60.9074 119.026 61.237 118.012 61.2935 117.693C61.4691 116.704 61.553 115.704 61.6415 114.704Z" fill="#0098A7"/>
<path d="M30.9434 220.997C32.4341 220.568 34.1268 220.712 35.6688 220.711L42.8162 220.713C42.6864 221.283 42.1068 221.639 41.7218 222.05C41.4083 222.384 41.1558 222.778 40.9038 223.16L40.745 223.526C40.1176 223.242 38.6063 223.421 37.8578 223.418C34.9597 223.406 31.7673 223.148 28.9121 223.598C29.268 222.351 29.8897 221.704 30.9434 220.997Z" fill="#FEB52A"/>
<path d="M42.8166 220.713L62.4129 220.803L68.1339 220.824C69.067 220.83 70.0976 220.74 71.013 220.876C71.5991 220.963 72.1921 221.379 72.6036 221.791C73.1013 222.29 73.2652 222.821 73.3898 223.498L41.0979 223.435L40.9043 223.16C41.1562 222.778 41.4087 222.384 41.7223 222.05C42.1072 221.639 42.6869 221.283 42.8166 220.713Z" fill="#FFE36A"/>
<path d="M28.9368 210.75L40.8737 210.744L40.8219 210.941C40.4844 212.252 40.1187 215.072 40.8165 216.276C41.1694 216.885 41.6909 217.193 42.2708 217.536L42.4196 217.635C42.7253 217.789 43.4952 217.702 43.8538 217.703L48.1693 217.717L72.8019 217.671C72.1058 218.467 71.2965 219.381 70.2011 219.455C67.549 219.633 64.8371 219.557 62.1766 219.571L46.8885 219.587L37.0138 219.592C35.503 219.591 33.8388 219.727 32.3426 219.56C31.4788 219.463 30.6002 219.083 29.962 218.487C28.7321 217.338 28.9466 215.768 28.9404 214.245L28.9368 210.75Z" fill="#FE880A"/>
<path d="M40.7456 223.526L40.9044 223.16L41.0979 223.435L73.3899 223.497L73.3644 226.589C73.3579 227.882 73.5892 229.458 72.6306 230.477C72.2084 230.233 71.7178 230.322 71.2338 230.32L67.487 230.322L50.4986 230.365L45.4949 230.386C44.5143 230.387 43.4156 230.46 42.451 230.305C41.9178 230.22 41.443 229.812 41.1248 229.391C40.0492 227.968 40.5029 225.201 40.7456 223.526Z" fill="#FEBF35"/>
<path d="M52.1425 225.232C52.9502 225.045 63.1148 224.963 63.6909 225.232C63.6999 225.642 63.7129 225.687 63.4903 226.025L55.447 226.078C54.4602 226.078 53.0596 226.256 52.1422 225.999C52.0127 225.683 52.0868 225.561 52.1425 225.232Z" fill="white"/>
<path d="M35.2085 207.943L40.2326 207.969C41.1812 207.974 42.1848 207.909 43.1253 208.032L43.2238 208.007L62.1867 208.045L67.3582 208.042C68.3103 208.041 69.3767 208.12 70.3109 207.969C71.3159 208.13 72.094 208.363 72.7404 209.211C73.0328 209.596 73.1846 210.051 73.3426 210.502L73.357 214.238C73.358 215.432 73.4867 216.622 72.8026 217.671L48.17 217.717L43.8545 217.703C43.4958 217.702 42.7259 217.789 42.4202 217.635L42.2715 217.536C41.6916 217.193 41.17 216.885 40.8171 216.276C40.1194 215.072 40.4851 212.252 40.8225 210.941L40.8744 210.744L28.9375 210.75C29.1001 210.198 29.2551 209.72 29.6135 209.256C30.185 208.516 30.9622 208.11 31.8698 207.975L35.2085 207.943Z" fill="#FEB52A"/>
<path d="M52.4264 212.336H63.6031C63.7752 212.691 63.6943 212.833 63.6262 213.214C62.9024 213.334 62.0768 213.28 61.3416 213.281L57.3543 213.276C55.8033 213.273 53.8196 213.49 52.3283 213.178C52.2654 212.775 52.2721 212.715 52.4264 212.336Z" fill="white"/>
<path d="M43.2235 208.008L62.1864 208.045L67.3579 208.042C68.31 208.041 69.3764 208.12 70.3106 207.97C71.3156 208.13 72.0937 208.363 72.7401 209.212C73.0325 209.596 73.1842 210.051 73.3422 210.502L40.9854 210.674C41.6038 209.636 42.2592 208.868 43.1249 208.032L43.2235 208.008Z" fill="#FFE36A"/>
<path d="M67.1908 140.083C67.2726 140.229 67.3554 140.358 67.3727 140.529C67.5177 141.964 67.3689 143.565 67.3581 145.013L67.2897 154.861L67.2389 182.535L52.2744 182.526L52.6605 171.861C53.0758 169.904 53.3004 167.93 53.7855 165.981C56.1689 156.405 60.6994 147.525 67.1908 140.083Z" fill="#007E89"/>
<path d="M43.4148 195.29L70.0841 195.271C71.1279 195.376 71.95 195.478 72.6599 196.336C73.0623 196.823 73.3294 197.375 73.5059 197.977L73.4961 201.5C73.4896 202.662 73.5664 203.632 73.072 204.72C72.6578 205.409 72.0966 206.245 71.2444 206.418L71.0793 206.439C70.7009 206.491 70.2451 206.481 69.9684 206.771L70.0062 207.745C70.1039 207.829 70.1886 207.925 70.3105 207.97C69.3763 208.12 68.3099 208.041 67.3578 208.042L62.1863 208.045L43.2234 208.008L43.1249 208.032C42.1845 207.909 41.1808 207.974 40.2322 207.969L35.2081 207.944C35.1248 207.66 35.0558 207.457 34.8813 207.214C34.4401 206.601 34.192 206.597 33.4804 206.464C32.0996 206.288 30.815 206.188 29.8094 205.085C28.8728 204.058 29.0544 202.643 29.0566 201.356L29.0924 198.017C29.331 197.47 29.5585 196.9 29.9671 196.456C30.8359 195.51 31.6921 195.322 32.9106 195.269L42.4964 195.325L43.4148 195.29Z" fill="#FEBF35"/>
<path d="M52.3537 199.305C54.332 199.15 56.4001 199.257 58.388 199.251C60.0264 199.246 61.8287 199.097 63.4465 199.305C63.5858 199.644 63.5217 199.755 63.4479 200.12C62.5398 200.401 52.7842 200.366 52.228 200.12C52.1723 199.767 52.2033 199.627 52.3537 199.305Z" fill="white"/>
<path d="M43.4145 195.289L70.0838 195.271C71.1276 195.376 71.9497 195.478 72.6596 196.336C73.062 196.823 73.3291 197.375 73.5056 197.977L48.5971 198.063L43.0016 198.062C42.391 198.06 41.4701 198.178 40.8892 198.041C40.7165 198 40.6706 197.95 40.5449 197.856C40.7922 197.267 41.149 196.766 41.5858 196.301C41.914 195.951 42.3188 195.795 42.4961 195.325L43.4145 195.289Z" fill="#FFE36A"/>
<path d="M32.9106 195.269L42.4964 195.325C42.3191 195.795 41.9143 195.952 41.5861 196.301C41.1493 196.766 40.7926 197.268 40.5452 197.856L40.4508 198.029C40.5026 199.68 39.9719 202.825 41.1583 204.056C41.3198 204.224 41.8576 204.689 42.1019 204.743C42.7239 204.88 43.5845 204.799 44.2323 204.8H48.9985L65.4409 204.779C67.9529 204.772 70.5758 204.577 73.0721 204.72C72.6578 205.409 72.0966 206.245 71.2444 206.418L71.0794 206.439C70.7009 206.491 70.2451 206.481 69.9684 206.771L70.0062 207.745C70.1039 207.829 70.1886 207.925 70.3105 207.97C69.3763 208.12 68.3099 208.041 67.3579 208.042L62.1864 208.045L43.2234 208.008L43.1249 208.032C42.1845 207.909 41.1808 207.974 40.2322 207.969L35.2081 207.944C35.1248 207.66 35.0558 207.457 34.8813 207.214C34.4401 206.601 34.192 206.597 33.4804 206.464C32.0996 206.288 30.815 206.188 29.8094 205.085C28.8728 204.058 29.0544 202.643 29.0566 201.356L29.0924 198.017C29.331 197.47 29.5585 196.9 29.9671 196.456C30.8359 195.51 31.6921 195.322 32.9106 195.269Z" fill="#FE880A"/>
<path d="M33.4805 206.464L44.5226 206.552C44.6314 206.986 44.8212 207.494 44.812 207.94L43.2235 208.008L43.1249 208.032C42.1845 207.909 41.1808 207.974 40.2323 207.969L35.2082 207.943C35.1248 207.66 35.0559 207.457 34.8813 207.214C34.4402 206.601 34.192 206.596 33.4805 206.464Z" fill="#007E89"/>
<path d="M32.9109 195.269L42.4968 195.325C42.3195 195.795 41.9147 195.952 41.5865 196.301C41.1497 196.766 40.7929 197.268 40.5456 197.856L40.4511 198.029L29.0928 198.017C29.3314 197.47 29.5589 196.9 29.9675 196.456C30.8362 195.51 31.6925 195.322 32.9109 195.269Z" fill="#FEB52A"/>
<path d="M44.5227 206.552L71.0796 206.439C70.7011 206.491 70.2453 206.481 69.9686 206.771L70.0064 207.745C70.1041 207.829 70.1888 207.925 70.3107 207.97C69.3765 208.12 68.3101 208.041 67.3581 208.042L62.1866 208.045L43.2236 208.008L44.8121 207.94C44.8213 207.494 44.6316 206.986 44.5227 206.552Z" fill="#9A463E"/>
<path d="M52.2745 182.526L67.239 182.535C68.9152 182.523 71.1587 182.122 72.4667 183.374C72.947 183.834 73.2353 184.443 73.4791 185.052L73.4726 188.929C73.471 189.911 73.5885 190.94 73.0575 191.815C72.3815 192.806 71.8423 193.42 70.6133 193.655L70.2186 193.724L70.0847 195.271L43.4155 195.29L42.497 195.325L32.9112 195.269C32.7592 194.697 32.0927 194.193 31.6803 193.761C30.8463 193.428 30.2001 193.04 29.614 192.349L29.1104 191.747L29.0857 191.626L29.0488 191.422C28.7064 189.645 28.9261 187.527 28.9348 185.707C29.1441 184.893 29.3871 184.186 29.9889 183.571C30.998 182.539 32.1244 182.537 33.4702 182.547L34.779 182.567L42.3849 182.59L44.6781 182.553L52.2745 182.526Z" fill="#FEBF35"/>
<path d="M52.6664 186.41L60.007 186.36C61.0332 186.36 62.591 186.168 63.5453 186.49C63.6284 186.818 63.5765 186.875 63.491 187.19L63.0838 187.325C61.6965 187.393 52.9169 187.618 52.3311 187.266L52.3066 186.545L52.6664 186.41Z" fill="white"/>
<path d="M52.2736 182.526L67.2381 182.535C68.9143 182.523 71.1578 182.122 72.4658 183.374C72.9461 183.834 73.2344 184.443 73.4782 185.052L40.7478 185.153L40.7119 184.892C41.0456 184.095 41.5074 183.567 42.1701 183.027C42.3701 182.864 42.3316 182.832 42.384 182.59L44.6772 182.553L52.2736 182.526Z" fill="#FFE36A"/>
<path d="M33.4702 182.547L34.779 182.567L42.3849 182.59C42.3325 182.832 42.3711 182.864 42.171 183.027C41.5083 183.566 41.0465 184.095 40.7128 184.892L40.7487 185.153L40.5795 185.36C40.4557 186.398 40.4715 187.435 40.4766 188.478C40.4791 188.977 40.4123 189.603 40.4899 190.09C40.5326 190.359 40.7701 190.648 40.9382 190.853C41.1657 191.129 41.4179 191.301 41.7046 191.505L41.9068 191.655C42.4346 191.938 43.5352 191.82 44.1479 191.822L49.8708 191.82L65.7996 191.828L70.4974 191.789C71.33 191.783 72.2384 191.701 73.0575 191.815C72.3815 192.806 71.8423 193.419 70.6133 193.655L70.2186 193.724L70.0847 195.271L43.4155 195.29L42.497 195.325L32.9112 195.269C32.7592 194.697 32.0927 194.193 31.6803 193.761C30.8463 193.428 30.2001 193.04 29.614 192.348L29.1104 191.747L29.0857 191.625L29.0488 191.422C28.7064 189.645 28.9261 187.527 28.9348 185.707C29.1441 184.893 29.3871 184.186 29.9889 183.571C30.998 182.539 32.1244 182.537 33.4702 182.547Z" fill="#FE880A"/>
<path d="M31.6797 193.761L43.2992 193.796L43.4149 195.289L42.4964 195.325L32.9106 195.268C32.7586 194.696 32.0921 194.193 31.6797 193.761Z" fill="#007E89"/>
<path d="M33.47 182.547L34.7788 182.567L42.3847 182.59C42.3323 182.832 42.3709 182.864 42.1708 183.027C41.5081 183.566 41.0463 184.095 40.7126 184.892L40.7485 185.153L40.5794 185.36C40.502 185.284 40.4469 185.174 40.347 185.131C40.0312 184.996 38.8188 185.127 38.3866 185.127L30.6851 185.134C30.0512 185.14 29.6904 185.304 29.148 185.605L28.9346 185.707C29.1439 184.893 29.3869 184.186 29.9887 183.571C30.9979 182.539 32.1242 182.537 33.47 182.547Z" fill="#FEB52A"/>
<path d="M43.2998 193.796L59.192 193.696L66.1925 193.672C67.5233 193.669 68.8937 193.596 70.2186 193.723L70.0847 195.271L43.4155 195.289L43.2998 193.796Z" fill="#9A463E"/>
<path d="M61.6419 114.704C64.802 114.32 67.9374 113.34 70.8816 112.146C72.0862 111.657 73.2807 110.996 74.5326 110.647C72.4438 112.1 69.85 113.312 68.1334 115.2C68.5944 116.774 69.262 118.08 70.4644 119.212C71.6703 118.703 72.719 117.845 73.7561 117.06C74.0827 117.347 74.4845 117.624 74.6672 118.02C74.0241 118.803 73.752 119.4 73.8756 120.439C73.9747 121.272 74.4107 122.169 75.0888 122.679C75.937 123.316 78.2381 123.08 79.277 122.966L79.2933 163.301C78.6203 161.676 78.2527 159.858 77.6587 158.188C75.7876 152.928 73.6988 148.146 70.624 143.465C69.7514 142.137 68.8151 140.683 67.6988 139.556L67.1905 140.083C60.6991 147.524 56.1685 156.405 53.7852 165.98C53.3 167.929 53.0755 169.904 52.6602 171.861C51.3755 170.112 50.535 167.912 49.3092 166.08C45.771 160.792 41.3232 156.651 36.5166 152.554C37.1684 148.796 38.1892 144.924 39.4448 141.323L41.6056 135.403L43.2136 135.179C45.6469 135.165 48.804 133.735 50.8724 132.556C55.9258 129.675 59.422 124.821 60.9616 119.267C60.9078 119.026 61.2374 118.012 61.2939 117.693C61.4695 116.704 61.5534 115.704 61.6419 114.704Z" fill="#82DEFD"/>
<path d="M157.901 122.786L158.005 122.706C160.884 122.405 163.825 122.605 166.717 122.557C167.753 122.539 171.326 122.262 172.12 122.623L167.605 122.636C168.453 123.051 169.79 123.467 170.162 124.412C170.497 125.263 170.199 126.445 169.82 127.233C169.204 127.922 168.88 128.23 167.93 128.28L167.181 128.3L167.07 128.742L167.092 132.778L170.118 132.749L170.099 172.433L170.105 215.795L115.781 215.784L115.695 215.808L106.56 229.14L94.7169 229.161C90.9435 229.099 87.9154 227.728 85.3007 225.011C83.5746 223.218 82.3766 220.517 82.0915 218.049C81.9202 216.564 82.025 214.967 82.0239 213.471L82.0467 207.629L82.0011 132.497L86.3717 132.494L86.3671 127.859L91.07 127.859C91.8237 127.859 92.6756 127.776 93.4165 127.9L93.4129 132.274L102.423 132.331L110.81 132.415L110.812 128.089L117.414 128.112L117.415 132.483L124.645 132.529L131.873 132.597C132.942 132.602 134.163 132.489 135.217 132.622L135.232 128.047C137.338 127.929 139.804 127.772 141.897 127.993L141.92 132.688L150.25 132.756L160.097 132.91L160.092 128.337C159.268 128.378 158.377 128.381 157.611 128.037C156.919 127.726 156.292 127.081 156.07 126.345C155.928 125.872 155.908 125.13 156.147 124.682L156.226 124.546C156.639 123.816 157.272 123.322 157.901 122.786Z" fill="#FFB4D5"/>
<path d="M136.317 192.856C136.35 192.687 136.419 192.541 136.484 192.382C137.651 191.757 139.458 192.035 140.765 192.045L140.306 192.858C139.079 192.846 137.481 192.532 136.317 192.856Z" fill="#FF9379"/>
<path d="M129.004 189.836L131.968 189.791L131.965 192.3L120.464 192.313L120.456 189.892L129.004 189.836Z" fill="#1E025D"/>
<path d="M98.8775 189.915L106.9 189.973L106.903 192.59L94.4023 192.6L94.376 190.01C94.7843 189.842 95.2572 189.909 95.6962 189.91L98.8775 189.915Z" fill="#1E025D"/>
<path d="M120.456 189.892L120.463 192.313L131.965 192.3L131.973 203.704L131.963 206.07L120.502 206.127C120.305 206.512 120.342 206.99 120.324 207.414L120.327 194.965L120.308 191.295C120.306 190.816 120.233 190.332 120.456 189.892Z" fill="#282085"/>
<path d="M94.3754 190.01L94.4017 192.6L106.903 192.59L106.889 206.424L94.3464 206.42C94.2454 205.412 94.3176 204.346 94.3192 203.332L94.3244 197.369L94.2912 192.511C94.2809 191.717 94.1501 190.767 94.3754 190.01Z" fill="#282085"/>
<path d="M82.1198 208.892L94.2058 208.901C94.1971 208.253 94.0703 207.177 94.2753 206.574L94.3467 206.42L106.889 206.423L106.95 206.577C107.134 207.213 107.014 208.239 107.005 208.91L120.188 208.844L117.062 213.726C116.646 214.383 116.112 215.084 115.781 215.784L115.696 215.808L82.0986 215.798L82.1198 208.892Z" fill="#FE6291"/>
<path d="M94.3466 206.42L106.889 206.423L106.9 208.963L94.3301 208.987L94.3466 206.42Z" fill="#010029"/>
<path d="M102.423 132.331L110.811 132.414L110.779 168.779L108.727 168.824L108.741 173.945L100.37 173.937L100.393 173.903L102.399 173.867L102.423 132.331Z" fill="#FE6291"/>
<path d="M86.3674 127.859L91.0703 127.86C91.824 127.86 92.6759 127.776 93.4168 127.9L93.4132 132.274L93.3769 168.832L94.9593 168.868C95.1266 169.065 95.0403 169.897 95.0397 170.204L95.0337 173.88L84.9989 173.9L84.9326 168.944L86.3956 168.833L86.372 132.494L86.3674 127.859Z" fill="white"/>
<path d="M82.0467 207.629L82.1195 208.892L82.0983 215.798L115.695 215.808L106.56 229.14L94.7169 229.161C90.9435 229.099 87.9154 227.728 85.3007 225.011C83.5746 223.218 82.3766 220.517 82.0915 218.049C81.9202 216.564 82.025 214.967 82.0239 213.471L82.0467 207.629Z" fill="#4A46C2"/>
<path d="M110.813 128.088L117.415 128.111L117.416 132.482L124.646 132.529L124.622 173.967L118.877 173.974L108.741 173.945L108.728 168.824L110.779 168.779L110.811 132.414L110.813 128.088Z" fill="white"/>
<path d="M117.415 132.482L124.645 132.529L124.621 173.967L118.876 173.974L118.858 170.074C118.857 169.873 118.918 169.166 118.853 169.035C118.814 168.955 118.731 168.906 118.67 168.842L117.346 168.814L117.415 132.482Z" fill="#FFB4D5"/>
<path d="M157.901 122.786L158.005 122.706C160.884 122.405 163.825 122.605 166.717 122.557C167.753 122.539 171.326 122.262 172.12 122.623L167.605 122.636C168.454 123.051 169.791 123.467 170.163 124.412C170.497 125.263 170.199 126.445 169.82 127.233C169.204 127.922 168.88 128.23 167.93 128.28L167.181 128.3L167.07 128.742L167.092 132.778L170.118 132.749L170.1 172.433L170.105 215.795L115.781 215.784C116.111 215.084 116.645 214.383 117.062 213.726L120.188 208.844L120.326 208.59L120.324 207.414C120.342 206.99 120.305 206.512 120.502 206.128L131.964 206.07L131.973 203.704L135.249 199.387C136.184 198.157 137.274 196.934 137.989 195.561C137.585 195.439 137.156 195.317 136.791 195.099C136.45 194.895 136.088 194.405 136.011 194.011C135.919 193.542 136.053 193.229 136.318 192.856C137.482 192.532 139.08 192.847 140.306 192.859L140.765 192.045L141.045 191.994C141.707 190.275 143.409 188.561 144.55 187.11L149.497 180.742L135.457 180.747L105.546 180.781L105.336 180.726C102.746 180.732 85.8482 180.986 85.2094 180.64L85.1757 180.031L85.1279 173.972L100.37 173.937L108.74 173.945L118.876 173.975L124.622 173.968L124.645 132.529L131.873 132.597C132.943 132.602 134.163 132.489 135.217 132.622L135.232 128.047C137.338 127.929 139.804 127.772 141.897 127.993L141.92 132.688L150.25 132.756L160.097 132.91L160.092 128.337C159.268 128.378 158.377 128.381 157.611 128.037C156.919 127.726 156.292 127.081 156.071 126.345C155.928 125.872 155.908 125.13 156.147 124.682L156.226 124.546C156.639 123.816 157.272 123.322 157.901 122.786Z" fill="#F8427D"/>
<path d="M141.616 191.724L146.263 189.163C146.932 188.816 147.67 188.348 148.388 188.137C150.75 189.088 153.047 190.361 155.188 191.735L154.962 191.865L145.77 191.89C144.665 191.888 142.587 192.14 141.616 191.724Z" fill="#FFE36A"/>
<path d="M120.324 207.414C120.342 206.99 120.305 206.512 120.502 206.127L131.964 206.07L131.952 208.599L120.326 208.59L120.324 207.414Z" fill="#010029"/>
<path d="M155.189 191.735C155.569 191.985 156.159 192.593 156.531 192.738C156.68 192.796 157.177 192.74 157.35 192.741L160.443 192.753C160.662 192.829 160.929 192.904 161.12 193.035C161.43 193.245 161.606 193.641 161.589 194.011C161.572 194.4 161.383 194.859 161.038 195.071C160.769 195.237 160.38 195.258 160.072 195.298L159.813 195.505L159.765 196.387C159.324 196.729 158.313 196.636 157.757 196.659L157.755 206.228C158.172 206.609 158.883 206.237 158.932 206.902L158.945 208.747L139.175 208.813L139.175 206.424L140.742 206.334L140.784 196.508C140.123 196.513 138.999 196.667 138.451 196.319L138.421 196.097C138.371 195.776 138.403 195.9 138.261 195.6L137.99 195.561C137.586 195.439 137.157 195.317 136.792 195.099C136.45 194.895 136.089 194.405 136.011 194.011C135.919 193.542 136.054 193.229 136.318 192.856C137.482 192.533 139.08 192.847 140.307 192.859L140.766 192.045L141.046 191.994L141.617 191.724C142.588 192.14 144.666 191.889 145.771 191.891L154.963 191.865L155.189 191.735Z" fill="#FFE36A"/>
<path d="M155.189 191.735C155.569 191.985 156.159 192.593 156.531 192.738C156.68 192.796 157.177 192.74 157.35 192.741L160.443 192.753C158.852 193.01 157.071 192.844 155.456 192.879L140.307 192.859L140.766 192.045L141.046 191.994L141.617 191.724C142.588 192.14 144.666 191.889 145.771 191.891L154.963 191.865L155.189 191.735Z" fill="#FEB52A"/>
<path d="M151.226 196.516L153.846 196.514L153.834 206.461L151.191 206.485L151.226 196.516Z" fill="#FEB52A"/>
<path d="M144.479 196.514L147.259 196.493L147.279 206.557L144.473 206.56L144.479 196.514Z" fill="#FEB52A"/>
<path d="M160.092 128.337L166.791 128.274C167.024 128.505 166.979 128.457 167.025 128.745L166.956 169.1L169.808 169.098L169.849 172.514L169.814 174.002L166.972 173.995L157.937 173.984L157.956 169.033L159.961 168.955L160.097 132.91L160.092 128.337Z" fill="white"/>
<path d="M150.25 132.756L160.097 132.91L159.961 168.955L157.956 169.033L157.937 173.984C157.154 173.885 156.241 173.978 155.447 173.977L150.275 173.977C150.441 172.977 150.291 171.69 150.293 170.664L150.295 162.284L150.25 132.756Z" fill="#F52752"/>
<path d="M100.37 173.937L108.74 173.945L118.876 173.975L124.622 173.968L133.728 173.981L144.063 173.985L150.274 173.977L155.446 173.977C156.241 173.978 157.154 173.885 157.936 173.984L166.972 173.995L166.979 178.067L166.966 180.701L105.336 180.726C102.746 180.732 85.8482 180.986 85.2094 180.641L85.1757 180.031L85.1279 173.972L100.37 173.937Z" fill="#4A46C2"/>
<path d="M85.1758 180.031L85.2081 178.138C85.5502 177.985 86.1523 178.061 86.5359 178.061L89.8198 178.062L106.085 178.066L166.979 178.067L166.966 180.701L105.336 180.726C102.746 180.732 85.8482 180.986 85.2094 180.64L85.1758 180.031Z" fill="#1E025D"/>
<path d="M135.232 128.047C137.339 127.929 139.805 127.772 141.898 127.993L141.92 132.688L150.25 132.756L150.296 162.284L150.293 170.664C150.291 171.69 150.442 172.977 150.275 173.977L144.063 173.985L133.728 173.981L124.622 173.968L124.646 132.529L131.874 132.597C132.943 132.602 134.164 132.489 135.217 132.622L135.232 128.047Z" fill="white"/>
<path d="M141.92 132.688L150.25 132.756L150.295 162.284L150.292 170.664C150.291 171.69 150.441 172.977 150.275 173.977L144.063 173.985L144.064 168.808L141.936 168.779L141.92 132.688Z" fill="#F8427D"/>
<path d="M124.646 132.529L131.874 132.597C132.943 132.602 134.164 132.489 135.217 132.622L135.213 168.83L133.729 168.946L133.728 173.981L124.622 173.968L124.646 132.529Z" fill="#F52752"/>
<path d="M67.2167 79.6704C67.7322 79.6851 68.2698 79.7508 68.7386 79.9785C69.3731 80.2867 69.9763 80.9841 70.1978 81.6552C70.4492 82.4167 70.3686 83.2977 69.9722 83.9973C69.4369 84.9424 68.589 85.3648 67.5786 85.6224C66.9216 85.547 66.3699 85.4177 65.7984 85.0692C65.1159 84.6532 64.6349 84.0044 64.4622 83.2209C64.2871 82.4268 64.469 81.7049 64.9235 81.036C65.5281 80.1458 66.1973 79.8778 67.2167 79.6704Z" fill="#82DEFD"/>
<path d="M197.898 69.9431L198.02 69.916C198.44 69.86 198.83 69.9426 199.156 70.2146C199.609 70.8903 199.49 71.9597 199.505 72.7617C200.179 72.7448 201.11 72.6262 201.722 72.9539C202.012 73.1089 202.202 73.3825 202.26 73.704C202.338 74.1384 202.161 74.4592 201.909 74.7918C201.323 75.2091 200.293 75.044 199.591 75.037L199.534 77.0017C199.329 77.4019 199.207 77.4847 198.826 77.6831C198.702 77.7081 198.618 77.7309 198.487 77.7304C198.176 77.7295 197.952 77.5911 197.741 77.3791C197.206 76.841 197.404 75.7697 197.421 75.0638C196.867 75.1111 196.318 75.1513 195.765 75.0742C195.187 74.9938 195.032 74.7989 194.715 74.3547C194.709 73.9231 194.626 73.4789 194.976 73.1444C195.442 72.6989 196.758 72.8238 197.414 72.7999C197.321 72.1601 197.224 71.4705 197.313 70.8254C197.371 70.4101 197.586 70.1891 197.898 69.9431Z" fill="#FE6291"/>
<path d="M91.0254 20.0687C91.5754 20.0022 92.1917 19.9842 92.7205 20.1621C93.7494 20.5079 94.6084 21.1503 95.0504 22.1618C95.4636 23.1074 95.3431 24.1689 94.9266 25.0966C94.4808 26.0888 93.4364 26.6375 92.4789 27.0059C91.8705 27.1053 91.3932 27.1449 90.7954 26.9429C89.8126 26.6106 88.9708 25.9781 88.5454 25.0124C88.1522 24.1195 88.0863 23.0716 88.4816 22.17C88.9871 21.0172 89.9297 20.5193 91.0254 20.0687Z" fill="#FEB52A"/>
<path d="M140.436 85.7701C138.856 84.9678 137.408 83.7163 135.934 82.7256L129.641 78.5996C131.149 78.8323 132.846 78.7337 134.379 78.7606L144.884 78.8686L140.436 85.7701Z" fill="#FFB4D5"/>
<path d="M107.608 26.4792C108.604 26.3815 109.648 26.7314 110.458 27.3004C111.44 27.9906 112.193 29.193 112.387 30.3739C112.598 31.6624 112.256 33.1322 111.48 34.1853C110.549 35.4477 109.4 35.8313 107.918 36.0762C106.886 35.9654 105.789 35.8416 104.926 35.2104C103.824 34.4038 103.188 33.3494 102.994 32.0083C102.815 30.7611 103.129 29.4319 103.895 28.4276C104.864 27.1557 106.085 26.6904 107.608 26.4792Z" fill="#FFB4D5"/>
<path d="M171.813 50.2778C172.582 50.6321 173.214 51.4352 173.809 52.037L177.785 56.1642C178.913 57.3231 180.229 58.4495 181.224 59.7144C181.945 60.6309 182.473 61.6593 182.879 62.7485C183.186 63.5681 183.437 64.4651 183.533 65.3357C183.776 67.5328 183.606 69.9184 183.612 72.1388L183.706 86.1618C180.102 85.7329 176.808 86.1067 173.259 86.7251L173.202 64.3185L173.209 57.957C173.212 56.6778 173.28 55.3516 173.113 54.0821C172.934 52.7244 172.399 51.5028 171.813 50.2778Z" fill="#FFB4D5"/>
<path d="M73.7559 117.06L126.236 82.2622L161.428 105.033L167.438 109.014L176.373 114.721C178.207 115.836 180.515 116.794 182.101 118.227L175.425 118.209L173.535 118.165L173.748 118.046C173.545 117.595 172.772 117.108 172.353 116.811L162.149 110.282L136.452 93.7715L126.454 87.4172C126.016 87.5195 125.574 87.8884 125.199 88.132L122.409 89.9441L95.7485 107.545L84.593 114.828C83.0257 115.873 81.3183 116.854 79.8743 118.056L74.667 118.021C74.4842 117.624 74.0825 117.347 73.7559 117.06Z" fill="#DEBA98"/>
<path d="M82.0251 105.434C81.2152 106.205 80.1236 106.855 79.1793 107.465L79.1641 72.2136L79.1731 61.4026C79.1766 59.3599 79.0309 57.1943 79.3382 55.1777C79.8342 51.9234 81.7975 48.7919 84.4489 46.8573C86.1196 45.6383 88.14 44.8912 90.1908 44.6596C91.7187 44.4872 93.3679 44.5996 94.9083 44.598L103.792 44.5939L133.738 44.582L154.355 44.5953L160.308 44.6007C161.451 44.6026 162.685 44.525 163.814 44.7085L164.008 44.7421L164.403 44.8032C167.608 45.397 170.014 47.7258 171.814 50.2777C172.399 51.5026 172.935 52.7243 173.113 54.082C173.28 55.3515 173.213 56.6777 173.21 57.9569L173.202 64.3183L173.26 86.725L173.227 106.888L170.283 105.03L170.376 63.2476L154.085 63.2251C154.904 61.4569 155.966 59.7826 156.979 58.1206L161.275 51.1044C161.994 49.918 163.005 48.6328 163.486 47.3373L109.744 47.3185L96.7145 47.3546C94.5579 47.3609 92.0409 47.1372 89.9312 47.5333C88.1801 47.862 86.4975 48.9485 85.2487 50.1935C83.7273 51.7106 82.6666 53.7364 82.271 55.8442C81.9746 57.4245 82.1092 59.2256 82.0956 60.8393L82.0213 68.4954L82.04 93.1736L82.0462 101.057C82.0468 102.504 82.1165 103.992 82.0251 105.434Z" fill="#1E025D"/>
<path d="M163.485 47.3374C165.341 47.5052 167.537 48.9601 168.707 50.3856C170.741 52.8624 170.509 55.9752 170.484 58.9654C170.472 60.3336 170.519 61.7508 170.392 63.112L170.375 63.2477L154.084 63.2252C154.904 61.457 155.965 59.7828 156.979 58.1208L161.274 51.1045C161.993 49.9181 163.005 48.6329 163.485 47.3374Z" fill="#282085"/>
<path d="M154.085 63.2251L170.376 63.2476L170.283 105.03L140.437 85.77L144.884 78.8686C146.683 78.805 160.415 79.0532 161.042 78.6981C161.069 78.3066 161.153 78.0552 160.954 77.7099L145.569 77.7791C145.612 77.1932 146.571 75.9854 146.908 75.4498L157.016 75.4788C158.129 75.4791 160.08 75.7318 161.099 75.3852L161.143 74.6937C161.057 74.6326 160.987 74.5381 160.886 74.5107C160.684 74.4561 160.253 74.5107 160.031 74.5107L157.712 74.511H147.405L148.841 72.094C150.843 71.7668 160.259 72.4765 161.117 71.9096C161.126 71.5379 161.212 71.3905 160.954 71.0981L149.438 71.0726C149.757 70.7914 150.08 69.9745 150.311 69.5865C151.557 67.4974 152.928 65.4295 153.994 63.2425L154.085 63.2251Z" fill="#F8427D"/>
<path d="M82.0243 105.434C82.1158 103.992 82.046 102.504 82.0455 101.058L82.0392 93.1737L82.0205 68.4955L82.0949 60.8393C82.1085 59.2256 81.9738 57.4246 82.2703 55.8443C82.6658 53.7365 83.7265 51.7107 85.2479 50.1936C86.4967 48.9486 88.1794 47.8621 89.9305 47.5333C92.0402 47.1372 94.5571 47.361 96.7138 47.3547L109.743 47.3186L163.485 47.3373C163.005 48.6329 161.993 49.9181 161.274 51.1045L156.979 58.1207C155.965 59.7827 154.903 61.457 154.084 63.2251L153.993 63.2425L82.1201 63.2308L82.1364 105.343L82.0243 105.434Z" fill="#4A46C2"/>
<path d="M132.557 51.5615L132.747 51.5794C133.074 51.6079 133.412 51.6223 133.713 51.7657C134.196 51.9954 134.511 52.3782 134.679 52.8807C134.882 53.4869 134.801 54.1979 134.476 54.7482C134.101 55.3821 133.55 55.5694 132.875 55.7581C132.605 55.7296 132.346 55.6919 132.087 55.6091C131.534 55.4332 131.057 55.0007 130.822 54.4683C130.591 53.946 130.584 53.4035 130.81 52.8804C131.147 52.0996 131.825 51.8612 132.557 51.5615Z" fill="white"/>
<path d="M115.642 51.876L124.216 51.8806C125.347 51.8831 127.236 51.6444 128.23 52.1605C128.649 52.378 129.036 52.8878 129.112 53.3551C129.179 53.7639 128.924 54.4434 128.675 54.7736C128.316 55.2476 128.07 55.2886 127.527 55.3559L118.709 55.3491C117.689 55.3458 115.725 55.5736 114.837 55.1469C114.379 54.927 114.003 54.5322 113.87 54.0349C113.753 53.5929 113.812 53.0857 114.07 52.7024C114.445 52.1453 115.019 51.993 115.642 51.876Z" fill="white"/>
<path d="M82.1364 105.343L82.1201 63.231L153.993 63.2426C152.927 65.4297 151.557 67.4976 150.31 69.5867C150.079 69.9746 149.756 70.7915 149.437 71.0728L160.953 71.0983C161.211 71.3907 161.125 71.5381 161.116 71.9098C160.258 72.4766 150.842 71.767 148.84 72.0941L147.404 74.5111H157.711L160.03 74.5109C160.252 74.5109 160.683 74.4563 160.885 74.5109C160.987 74.5383 161.056 74.6328 161.142 74.6938L161.098 75.3853C160.079 75.732 158.128 75.4792 157.015 75.479L146.908 75.4499C146.57 75.9856 145.611 77.1934 145.569 77.7793L134.733 77.7638L130.719 77.7752C130.038 77.7806 129.285 77.7271 128.62 77.8642C127.901 77.3587 126.942 76.5573 126.098 76.3187L82.1364 105.343Z" fill="#FFB4D5"/>
<path d="M106.387 74.4231L116.293 74.3905C117.132 74.3903 119.018 74.1704 119.723 74.5021C119.761 74.8779 119.844 75.0166 119.62 75.3321L105.401 75.4013C103.63 75.4094 92.4532 75.6649 91.8057 75.2368L91.8258 74.6259C92.4279 74.2268 94.7317 74.4592 95.5112 74.456L106.387 74.4231Z" fill="white"/>
<path d="M91.8569 77.8158C91.9995 77.7678 92.123 77.7425 92.2739 77.7398L114.583 77.7061L118.507 77.7007C118.693 77.7007 119.411 77.6331 119.552 77.6999C119.632 77.7373 119.678 77.8223 119.741 77.8837L119.713 78.6303C119.104 78.8252 118.167 78.7152 117.515 78.7169L112.516 78.7261L99.6363 78.7413L91.9286 78.6835C91.7141 78.3935 91.8222 78.1633 91.8569 77.8158Z" fill="white"/>
<path d="M91.8412 71.0286C93.474 70.8331 95.2307 70.9675 96.8827 70.9661L107.355 71.0009L115.463 71.0614C116.848 71.0731 118.316 70.9808 119.688 71.1592C119.807 71.517 119.795 71.6639 119.688 72.0239C117.632 72.1501 115.505 72.0486 113.441 72.0494H101.361L94.403 72.0363C93.6702 72.0317 92.4564 72.1802 91.8084 71.9109C91.6857 71.5621 91.7555 71.3747 91.8412 71.0286Z" fill="white"/>
<path d="M146.908 75.4498C144.21 75.4085 126.592 75.6561 125.741 75.2367L125.718 74.6258C126.309 74.2276 144.961 74.4651 147.405 74.511H157.712L160.031 74.5107C160.253 74.5107 160.684 74.4562 160.886 74.5107C160.987 74.5382 161.057 74.6326 161.143 74.6937L161.099 75.3852C160.08 75.7319 158.129 75.4791 157.016 75.4789L146.908 75.4498Z" fill="white"/>
<path d="M148.84 72.0942L132.212 72.0646L127.988 72.0584C127.287 72.0578 126.48 72.1398 125.797 71.9805C125.711 71.6699 125.742 71.4674 125.797 71.1524C126.572 70.9803 127.446 71.0566 128.242 71.0552L132.538 71.0525L149.438 71.0729L160.954 71.0984C161.212 71.3908 161.126 71.5382 161.117 71.9099C160.259 72.4767 150.843 71.7671 148.84 72.0942Z" fill="white"/>
<path d="M79.8747 118.056C81.3187 116.854 83.0261 115.873 84.5934 114.828L95.7489 107.545L122.409 89.944L125.199 88.1318C125.575 87.8883 126.016 87.5193 126.455 87.417L136.452 93.7714L162.149 110.282L172.353 116.81C172.773 117.107 173.546 117.595 173.749 118.046L173.535 118.165L175.426 118.209L175.435 122.692L172.999 122.676L172.121 122.623C171.326 122.261 167.753 122.539 166.717 122.556C163.826 122.604 160.884 122.405 158.006 122.706L157.901 122.785C157.272 123.322 156.639 123.816 156.226 124.546L156.147 124.681C155.908 125.13 155.929 125.871 156.071 126.345C156.292 127.081 156.92 127.726 157.611 128.037C158.377 128.381 159.269 128.378 160.092 128.337L160.097 132.909L150.25 132.756L141.92 132.688L141.897 127.992C139.805 127.772 137.338 127.929 135.232 128.047L135.217 132.622C134.163 132.489 132.943 132.602 131.873 132.597L124.646 132.528L117.416 132.482L117.415 128.111L110.813 128.088L110.81 132.414L102.423 132.331L93.4133 132.273L93.4169 127.9C92.676 127.776 91.8241 127.859 91.0704 127.859L86.3675 127.859C85.1488 127.847 83.9692 127.742 83.0378 126.863C81.8945 125.784 82.1161 124.373 82.1272 122.945L79.2772 122.965C78.2382 123.08 75.9371 123.316 75.089 122.678C74.4108 122.169 73.9748 121.272 73.8757 120.439C73.7522 119.4 74.0242 118.803 74.6673 118.02L79.8747 118.056Z" fill="#FFB4D5"/>
<path d="M125.196 94.6103C126.784 94.4094 128.26 94.7431 129.642 95.5391C131.222 96.4494 132.443 97.961 132.876 99.7476C133.348 101.692 133.154 103.576 132.063 105.297C130.984 106.999 129.283 107.974 127.344 108.392C126.162 108.543 125.047 108.599 123.891 108.231L123.692 108.164C123.148 107.987 122.657 107.772 122.166 107.474C120.642 106.547 119.615 105.119 119.207 103.379C118.764 101.496 119.116 99.4916 120.162 97.8725C121.336 96.0563 123.11 95.0379 125.196 94.6103Z" fill="#4A46C2"/>
<path d="M74.6673 118.021L79.8747 118.056L173.535 118.165L175.426 118.209L175.435 122.692L172.999 122.676L172.121 122.623C171.326 122.262 167.753 122.539 166.717 122.556C163.826 122.605 160.884 122.405 158.006 122.706L157.901 122.786C157.272 123.322 156.639 123.816 156.226 124.546L156.147 124.682C155.908 125.13 155.929 125.872 156.071 126.345C156.292 127.081 156.92 127.726 157.611 128.037C158.377 128.381 159.269 128.378 160.092 128.337L160.097 132.91L150.25 132.756L141.92 132.688L141.897 127.993C139.805 127.772 137.338 127.929 135.232 128.047L135.217 132.622C134.163 132.489 132.943 132.602 131.873 132.597L124.646 132.529L117.416 132.482L117.415 128.112L110.813 128.089L110.81 132.415L102.423 132.331L93.4133 132.273L93.4169 127.9C92.676 127.776 91.8241 127.859 91.0704 127.859L86.3675 127.859C85.1488 127.847 83.9692 127.742 83.0378 126.863C81.8945 125.784 82.1161 124.373 82.1272 122.945L79.2772 122.966C78.2382 123.08 75.9371 123.316 75.089 122.679C74.4108 122.169 73.9748 121.272 73.8757 120.439C73.7522 119.4 74.0242 118.803 74.6673 118.021Z" fill="#FE6291"/>
<path d="M134.305 122.837L141.418 122.797C142.209 122.8 143.307 122.664 144.066 122.828L144.102 122.932C144.234 123.208 144.545 123.399 144.763 123.613C145.506 124.34 145.61 125.087 145.379 126.072C145.236 126.683 144.824 127.394 144.272 127.719C143.629 128.098 142.622 128.098 141.897 127.993C139.805 127.772 137.338 127.929 135.232 128.047C134.517 128.11 133.754 127.997 133.038 127.945C132.445 127.555 132.007 127.19 131.739 126.513C131.525 125.972 131.493 125.349 131.733 124.813C132.089 124.014 132.572 123.636 133.373 123.326C133.639 123.224 133.874 123.136 134.11 122.975L134.305 122.837Z" fill="#F8427D"/>
<path d="M109.035 122.834L119.906 122.833L119.94 122.937C120.069 123.209 120.451 123.446 120.683 123.649C121.301 124.19 121.708 125.039 121.483 125.868C121.27 126.651 120.554 127.464 119.823 127.809C119.178 128.113 118.12 128.081 117.414 128.111L110.812 128.088C110.452 127.961 110.026 127.96 109.651 127.889C108.847 127.737 108.142 127.282 107.687 126.599C107.334 126.067 107.141 125.442 107.312 124.808C107.515 124.06 108.07 123.673 108.692 123.284C108.919 123.142 108.918 123.066 109.035 122.834Z" fill="#F8427D"/>
<path d="M82.1269 122.945C83.5644 122.713 85.2031 122.846 86.6642 122.844L95.3281 122.837C96.2099 123.488 97.289 124.134 97.4316 125.325C97.4956 125.861 97.2695 126.326 96.9255 126.724C96.0801 127.702 94.9315 127.863 93.7193 127.903C93.6186 127.907 93.5162 127.915 93.4166 127.9C92.6757 127.776 91.8238 127.859 91.0701 127.859L86.3672 127.859C85.1485 127.847 83.9689 127.742 83.0375 126.863C81.8942 125.784 82.1158 124.373 82.1269 122.945Z" fill="#F8427D"/>
<path d="M95.3281 122.837L109.035 122.834C108.918 123.066 108.919 123.142 108.693 123.284C108.071 123.673 107.515 124.06 107.313 124.808C107.142 125.442 107.334 126.067 107.688 126.599C108.142 127.282 108.848 127.737 109.652 127.889C110.027 127.96 110.453 127.961 110.812 128.089L110.81 132.415L102.423 132.331L93.4131 132.274L93.4166 127.9C93.5163 127.916 93.6186 127.907 93.7193 127.904C94.9315 127.864 96.0802 127.703 96.9256 126.724C97.2695 126.326 97.4957 125.862 97.4316 125.326C97.2891 124.134 96.2099 123.488 95.3281 122.837Z" fill="#1E025D"/>
<path d="M119.907 122.833L134.305 122.837L134.111 122.975C133.874 123.136 133.639 123.224 133.374 123.326C132.572 123.636 132.09 124.014 131.733 124.813C131.494 125.349 131.525 125.972 131.739 126.513C132.007 127.19 132.445 127.555 133.039 127.945C133.755 127.997 134.517 128.11 135.232 128.047L135.217 132.622C134.164 132.489 132.943 132.602 131.874 132.597L124.646 132.529L117.416 132.482L117.415 128.111C118.121 128.081 119.179 128.113 119.824 127.809C120.555 127.464 121.271 126.651 121.484 125.868C121.709 125.039 121.302 124.19 120.683 123.649C120.452 123.446 120.07 123.209 119.941 122.937L119.907 122.833Z" fill="#1E025D"/>
<path d="M144.066 122.828L153.183 122.844C154.704 122.846 156.4 122.993 157.901 122.786C157.272 123.322 156.639 123.816 156.226 124.546L156.147 124.682C155.908 125.13 155.929 125.872 156.071 126.345C156.292 127.081 156.919 127.726 157.611 128.037C158.377 128.381 159.269 128.378 160.092 128.337L160.097 132.91L150.25 132.756L141.92 132.688L141.897 127.993C142.622 128.099 143.629 128.098 144.272 127.719C144.824 127.394 145.236 126.684 145.379 126.072C145.61 125.088 145.506 124.34 144.764 123.613C144.545 123.399 144.234 123.208 144.102 122.932L144.066 122.828Z" fill="#1E025D"/>
</g>
<defs>
<filter id="filter0_d_85_1819" x="0" y="0" width="254" height="249" filterUnits="userSpaceOnUse" color-interpolation-filters="sRGB">
<feFlood flood-opacity="0" result="BackgroundImageFix"/>
<feColorMatrix in="SourceAlpha" type="matrix" values="0 0 0 0 0 0 0 0 0 0 0 0 0 0 0 0 0 0 127 0" result="hardAlpha"/>
<feOffset dy="4"/>
<feGaussianBlur stdDeviation="2"/>
<feComposite in2="hardAlpha" operator="out"/>
<feColorMatrix type="matrix" values="0 0 0 0 0 0 0 0 0 0 0 0 0 0 0 0 0 0 0.25 0"/>
<feBlend mode="normal" in2="BackgroundImageFix" result="effect1_dropShadow_85_1819"/>
<feBlend mode="normal" in="SourceGraphic" in2="effect1_dropShadow_85_1819" result="shape"/>
</filter>
<clipPath id="clip0_85_1819">
<rect width="246" height="241" fill="white" transform="translate(4)"/>
</clipPath>
</defs>
</svg>
