<svg width="269" height="269" viewBox="0 0 269 269" fill="none" xmlns="http://www.w3.org/2000/svg">
<path d="M146.427 28.1084C149.474 28.1084 152.731 29.2117 155.674 29.9473C162.083 31.4709 168.23 33.6775 174.272 36.357C179.579 38.7213 184.78 41.3482 189.666 44.448C191.505 45.6039 193.239 46.9699 194.973 48.2834C198.913 51.2256 202.696 54.4305 206.111 57.9506C217.407 69.4566 225.866 82.8541 231.172 98.0904L232.696 102.766C233.011 103.712 233.431 104.921 233.431 105.919C233.431 106.339 233.484 106.654 233.642 107.022C232.748 106.392 231.96 105.604 231.12 104.92L226.864 101.295L214.833 91.4705C214.465 91.1553 214.202 90.8926 213.992 90.4723L205.586 74.1326L202.854 68.8262C202.118 67.4076 201.435 65.9365 200.332 64.7281C199.176 63.4146 197.337 62.574 195.603 62.4164C195.13 62.3639 194.605 62.5215 194.132 62.4164C193.764 62.3639 189.561 59.1064 188.878 58.5811L164.605 40.9805L146.427 28.1084Z" fill="white"/>
<path d="M115.954 236.11L130.875 224.499L171.908 192.871L186.882 181.417C188.248 180.419 189.614 179.211 191.085 178.37C192.188 177.74 193.607 177.267 194.815 176.741L204.43 172.801L233.694 160.612C233.116 164.342 231.645 168.177 230.384 171.698C226.706 182.1 221.61 192.188 214.938 201.014C209.684 208.002 203.169 214.202 196.129 219.403C191.19 223.081 185.831 226.443 180.314 229.175C163.239 237.476 143.485 240.681 124.676 237.844L115.954 236.11Z" fill="white"/>
<path d="M130.139 28.1611C131.295 26.1646 133.186 24.5359 135.445 23.9054C136.969 23.4851 139.123 23.5376 140.542 24.2206C142.591 25.1663 144.324 26.9527 146.321 28.056L146.426 28.1085L164.762 41.0331L189.035 58.6337C189.718 59.1066 193.869 62.364 194.289 62.4691C194.762 62.5216 195.287 62.4165 195.76 62.4691C197.494 62.6792 199.28 63.5199 200.489 64.7808C201.592 65.9892 202.275 67.4603 203.011 68.8788L205.743 74.1853L214.149 90.5249C214.359 90.9453 214.674 91.2079 214.989 91.5232L227.021 101.348L231.277 104.973C232.065 105.656 232.905 106.497 233.798 107.075L233.904 107.232C235.007 108.441 236.32 109.439 237.581 110.49L242.94 114.956C244.201 116.059 245.567 117.11 246.408 118.581C247.196 119.894 247.406 121.313 247.354 122.836C247.354 123.309 247.248 123.73 247.091 124.202L247.038 124.413C246.776 125.201 246.408 125.936 245.882 126.567C244.884 127.828 243.413 128.931 242.257 129.982L236.688 135.131L241.522 144.377C242.31 145.849 243.361 147.53 243.833 149.159C244.201 150.419 244.201 152.048 243.833 153.309C243.256 155.253 241.837 157.092 240.051 158.038L233.746 160.612L204.482 172.801L194.867 176.742C193.659 177.267 192.293 177.687 191.137 178.37C189.666 179.211 188.3 180.419 186.934 181.418L171.96 192.871L130.927 224.5L116.006 236.111C113.589 237.739 111.277 239.788 108.966 241.627C107.284 242.941 105.603 244.569 103.449 244.937C101.558 245.252 99.7188 245.042 98.09 244.044C97.0393 243.414 96.0936 242.363 95.2004 241.522L89.7889 236.163L84.3774 230.962L82.7486 229.386C82.591 229.228 82.2758 228.808 82.0656 228.703C81.8555 228.598 81.2775 228.545 81.0148 228.493C79.9641 228.23 78.9658 227.757 78.0727 227.126C76.3389 225.813 75.4457 223.869 75.1305 221.768C75.0779 221.452 74.6051 221.085 74.3424 220.822L71.4527 217.985L46.7068 193.554L23.6947 171.698C22.2236 170.279 21.4355 168.388 21.4355 166.339C21.4355 165.235 21.8033 163.975 22.4338 163.029C23.2744 161.768 24.6404 160.665 25.7438 159.614L29.4215 156.041C28.791 152.784 28.4232 149.631 28.108 146.374C27.8453 143.589 27.4775 140.49 27.7928 137.705C26.3217 134.448 23.2219 131.716 23.8523 127.828L23.9049 127.618C24.01 127.145 24.0625 126.672 24.2201 126.199C25.2709 123.152 27.4775 121.891 30.2621 120.525C32.0484 112.749 34.0975 105.131 37.2498 97.7753C37.6176 96.8822 37.9854 95.6212 38.6158 94.8857C38.1955 93.1519 38.0904 91.4706 38.826 89.7894C39.9293 87.215 41.6631 86.3218 44.1324 85.3761C48.7559 77.7579 53.4318 70.3499 59.4213 63.73C63.099 59.632 67.0395 55.7441 71.2951 52.2765C84.8502 40.9806 101.925 33.0472 119.368 29.7898C122.888 29.1068 126.619 28.3712 130.139 28.1611Z" fill="#59003F"/>
<path d="M63.3623 152.363C63.5199 151.522 63.7301 150.367 64.2029 149.684C64.5707 150.629 64.991 151.575 65.4639 152.521C65.674 152.941 66.1469 153.519 66.1469 153.992L64.7283 156.093C64.4656 155.463 64.1504 154.832 63.9928 154.149C63.7826 153.519 63.7826 152.941 63.3623 152.363Z" fill="#F758A6"/>
<path d="M63.3619 152.363C63.7297 152.941 63.7822 153.519 63.9924 154.15C64.2025 154.78 64.5178 155.411 64.7279 156.094L60.8926 162.241L63.3619 152.363Z" fill="#EF95BB"/>
<path d="M62.4688 184.517C62.6789 183.939 62.8365 183.204 63.2043 182.678L70.7699 186.724L70.875 187.354L62.4688 184.517Z" fill="#E33A97"/>
<path d="M66.6719 159.194L67.9328 157.145L70.2971 161.4L68.5633 164.132H68.5107C68.1955 163.607 68.0379 162.976 67.8277 162.398C67.46 161.295 67.1447 160.244 66.6719 159.194Z" fill="#F683B3"/>
<path d="M74.4477 169.806L82.1709 185.568C81.3828 185.2 80.8574 184.149 80.332 183.466L77.6525 180.314L75.2883 177.267C74.868 176.741 74.4477 176.058 73.7646 175.796L73.502 175.113C73.5545 173.116 73.8697 171.75 74.4477 169.806Z" fill="#AD0D75"/>
<path d="M83.5371 204.85L91.1553 207.582C91.523 207.739 92.7314 208.002 92.9941 208.212C93.1518 208.37 93.3094 208.79 93.4145 209L94.6229 211.049L87.5301 211.364C87.4775 210.734 86.9522 210.051 86.5844 209.526L83.5371 204.85Z" fill="#D12284"/>
<path d="M73.8701 175.796C74.5531 176.059 74.9734 176.742 75.3937 177.267L77.758 180.314L80.4375 183.467C80.9629 184.15 81.4883 185.2 82.2764 185.568L84.483 189.876L78.0207 186.514C78.0732 185.726 77.6004 184.675 77.3377 183.939C76.1818 181.207 74.6057 178.58 73.8701 175.796Z" fill="#E33A97"/>
<path d="M70.2443 161.4L74.4475 169.806C73.817 171.698 73.5018 173.064 73.5543 175.113L70.9274 171.592C69.9291 170.332 68.7207 168.966 68.1428 167.494C67.6699 166.286 68.0377 165.235 68.5106 164.132H68.5631L70.2443 161.4Z" fill="#D12284"/>
<path d="M71.3479 117.845C71.5581 117.845 71.7157 117.845 71.9259 117.687C72.2936 117.425 72.7665 116.899 73.0817 116.531C74.185 115.428 75.2358 114.272 76.5493 113.432L74.9731 120.84C74.8155 121.785 74.5003 122.731 74.5003 123.624C72.136 128.353 68.6684 132.608 66.8296 137.6C66.7245 137.284 66.8821 136.706 66.9872 136.444L67.7227 133.239L71.3479 117.845Z" fill="#F758A6"/>
<path d="M27.6352 137.705L35.0432 150.472L29.2639 156.041C28.6334 152.784 28.2656 149.631 27.9504 146.374C27.6877 143.537 27.3199 140.437 27.6352 137.705Z" fill="white"/>
<path d="M70.7178 186.776L82.6441 192.713C83.2746 193.029 86.1117 194.079 86.3744 194.447C87.0049 195.288 87.4777 196.601 87.9506 197.547C88.8963 199.386 89.9996 201.33 90.6826 203.274L90.7877 203.589L80.5426 200.121V200.069L80.6477 199.911C78.9139 197.232 76.7598 194.657 74.7107 192.188C73.4498 190.612 72.2414 188.825 70.7703 187.407L70.7178 186.776Z" fill="#D12284"/>
<path d="M90.3145 214.464L98.0377 214.149C98.8258 214.149 99.5613 214.359 100.349 214.412C101.348 214.517 102.346 214.464 103.292 214.202C106.391 213.466 109.334 211.943 112.276 210.787L126.514 205.218C129.719 203.957 132.924 202.433 136.181 201.487C133.817 203.221 131.347 204.902 128.721 206.216C125.621 207.792 122.416 209 119.211 210.366L105.025 216.356L94.5176 220.506L90.3145 214.464Z" fill="#E33A97"/>
<path d="M75.6035 164.185L81.3828 165.603L81.4879 165.761L92.8889 188.878C91.9432 189.561 91.2602 189.613 90.1568 189.561C89.9467 189.561 89.5264 189.508 89.3162 189.561C88.9484 189.666 88.5807 190.086 88.318 190.296L75.6035 164.185Z" fill="#EF95BB"/>
<path d="M94.5176 220.559L84.4301 224.552C83.1691 225.025 82.2234 225.34 80.91 224.762C80.2795 224.447 79.649 224.026 79.2287 223.449C78.5982 222.608 78.3356 221.347 78.0203 220.349L76.3916 215.358L90.367 214.464L94.5176 220.559Z" fill="#F758A6"/>
<path d="M62.4686 184.517L70.8223 187.407C72.2934 188.825 73.5018 190.559 74.7627 192.188C76.7592 194.71 78.9133 197.232 80.6996 199.911L80.5945 200.069V200.121L68.0902 196.181C66.3564 195.603 64.36 195.235 62.7312 194.447C62.1008 194.132 61.4703 193.501 61.1025 192.871C60.7873 192.345 60.6297 191.715 60.5771 191.084C60.5771 190.244 60.8924 189.298 61.1551 188.51L62.4686 184.517Z" fill="#F758A6"/>
<path d="M38.4582 94.8857L42.9766 114.43L30.1045 120.577C31.8908 112.802 33.9398 105.183 37.0922 97.8279C37.46 96.8822 37.8277 95.6738 38.4582 94.8857Z" fill="white"/>
<path d="M87.4771 211.312L78.2303 211.837L75.1305 212.153C74.3424 212.258 73.4492 212.415 72.6611 212.31C72.0307 212.205 71.4527 211.942 70.9273 211.522C70.3494 211.102 69.824 210.419 69.5613 209.736C69.1935 208.738 69.141 207.477 69.0359 206.426L68.1953 199.596L79.0709 203.063C80.5945 203.589 82.1707 204.009 83.6418 204.692L86.6891 209.368C86.8992 209.998 87.4246 210.681 87.4771 211.312Z" fill="#F758A6"/>
<path d="M57.7402 124.15C60.3672 119.894 62.8891 115.796 66.5143 112.224C67.5125 111.278 68.6158 110.227 69.8768 109.597L61.8383 144.062L61.7332 144.01C61.3129 143.537 60.9977 140.385 60.84 139.544L57.7402 124.255V124.15Z" fill="#F758A6"/>
<path d="M57.74 124.308L60.8398 139.596C60.9975 140.437 61.3127 143.589 61.733 144.062L61.8381 144.115L59.2637 154.885L56.7418 165.288L51.1201 135.236L51.4879 135.026C52.276 134.553 53.0115 131.873 53.2742 130.928C53.5369 130.087 53.642 129.351 54.1148 128.563L54.8504 131.978C55.7961 130.455 56.0588 128.406 56.6893 126.724C57.0045 125.936 57.4773 125.148 57.74 124.308Z" fill="#F758A6"/>
<path d="M57.7406 124.308L60.8404 139.596C60.998 140.437 61.3133 143.589 61.7336 144.062L61.8387 144.115L59.2643 154.885C59.0016 154.15 58.8965 153.362 58.7389 152.626L58.0033 148.633L54.9561 132.083C55.9018 130.56 56.1645 128.511 56.7949 126.829C57.0051 125.936 57.4779 125.148 57.7406 124.308Z" fill="#D12284"/>
<path d="M66.6719 159.193C67.1448 160.244 67.5125 161.295 67.8278 162.398C68.0379 162.976 68.143 163.659 68.5108 164.132C68.0379 165.235 67.7227 166.339 68.143 167.495C68.7209 168.966 69.9819 170.332 70.9276 171.593L73.5545 175.113L73.8172 175.796C74.6053 178.58 76.1815 181.207 77.1797 183.939C77.4424 184.675 77.9153 185.726 77.8627 186.514L60.8401 177.897C59.5791 177.214 58.3707 176.269 57.9504 174.85C57.7403 174.167 57.7403 173.326 58.003 172.696C58.5809 171.33 59.7368 169.964 60.5248 168.703C62.6789 165.603 64.833 162.451 66.6719 159.193Z" fill="#FAC0CB"/>
<path d="M222.398 106.97C221.085 105.131 220.086 102.977 219.141 100.928L217.827 98.248C220.296 100.56 223.081 102.661 225.708 104.868L235.69 113.484L240.524 117.53C241.365 118.213 242.363 118.948 243.046 119.789C243.624 120.472 243.939 121.26 243.992 122.153C244.044 123.257 243.466 124.255 242.678 125.043C241.049 126.672 239.316 128.195 237.634 129.719C236.951 130.349 236.006 131.505 235.165 131.821L227.757 117.32C227.021 116.216 226.444 114.85 225.813 113.642C224.605 111.383 223.344 109.176 222.398 106.97Z" fill="#EF95BB"/>
<path d="M222.397 106.97C223.711 107.653 224.919 109.176 226.023 110.175C226.863 110.91 227.756 111.593 228.65 112.276L228.597 112.434C228.124 113.537 227.967 114.588 227.809 115.796C227.756 116.269 227.809 116.9 227.651 117.32C226.916 116.217 226.338 114.851 225.707 113.642C224.604 111.383 223.343 109.176 222.397 106.97Z" fill="#E33A97"/>
<path d="M226.969 133.975C227.547 133.975 228.177 133.712 228.703 133.502C229.701 133.187 230.647 132.871 231.593 132.451L233.747 136.707L240.314 149.999C240.682 150.945 240.629 151.996 240.209 152.889C239.841 153.624 239.316 154.202 238.633 154.623C237.267 155.411 235.533 155.831 234.062 156.462L223.186 161.032C222.451 159.561 221.715 158.248 221.085 156.724C220.822 155.989 220.612 155.253 220.454 154.465C219.981 152.206 220.244 149.789 221.032 147.635C221.925 145.271 223.186 143.169 225.183 141.593C226.496 140.542 227.967 139.859 229.438 139.176L228.966 138.23L226.969 133.975Z" fill="#FADAB3"/>
<path d="M226.969 133.975C227.547 133.975 228.177 133.712 228.703 133.502C229.701 133.187 230.646 132.871 231.592 132.451L233.746 136.707L229.07 138.23L226.969 133.975Z" fill="#F0C898"/>
<path d="M108.073 91.8906C108.914 92.6262 109.387 93.782 110.122 94.6227C110.595 95.2006 111.383 95.5684 111.961 96.0937L111.541 96.3039C112.381 97.6699 113.275 98.7732 114.798 99.4037L115.376 99.6664L115.429 99.9291C115.113 100.192 114.851 100.139 114.43 100.192C116.217 100.244 117.951 100.507 119.737 100.297C121.996 100.034 123.993 99.3512 126.147 98.5631C127.04 98.2479 127.933 97.9852 128.774 97.5123L129.667 99.9291L88.4762 124.517C88.4237 124.15 88.844 123.677 89.0016 123.362L90.9981 120.104L99.6145 105.866L105.762 95.5684L107.916 91.9432L108.073 91.8906Z" fill="#F683B3"/>
<path d="M114.482 100.192C112.749 100.98 111.803 102.399 110.962 104.027L110.857 103.712C110.069 101.558 108.861 100.612 106.864 99.6665C108.178 99.0886 109.229 98.5106 110.122 97.3022C110.489 96.7769 110.7 96.1989 111.12 95.7261C111.383 95.8312 111.488 96.0938 111.645 96.3565C112.486 97.7226 113.379 98.8259 114.903 99.4564L115.481 99.719L115.533 99.9817C115.165 100.192 114.85 100.087 114.482 100.192Z" fill="#FBF8F2"/>
<path d="M71.3477 117.845V117.74L73.817 108.23L81.8555 75.4984L85.0078 62.6263C85.6383 59.8943 86.1111 56.9521 87.0568 54.3252C87.4246 53.2744 88.0025 52.5388 88.9482 51.9609C89.6838 51.5406 90.682 51.1728 91.5752 51.2779C92.3633 51.3304 93.0988 51.5931 93.8869 51.8033L97.6172 52.6965L114.167 56.2166L111.908 60.1045L105.708 58.8961C104.71 62.9416 102.871 66.4092 99.1934 68.6158C97.5646 69.614 95.7783 70.1394 93.9395 70.3496C91.8379 70.6648 89.5787 70.3496 87.5822 69.8242L80.8047 97.197L78.1252 107.862C77.6523 109.649 77.2846 111.75 76.549 113.432C75.2355 114.272 74.1848 115.428 73.0814 116.531C72.7662 116.847 72.3459 117.425 71.9256 117.687C71.7154 117.845 71.5578 117.845 71.3477 117.845Z" fill="#F683B3"/>
<path d="M76.549 113.432C77.2845 111.751 77.7048 109.649 78.1251 107.863L80.8046 97.1973L87.4771 69.7719C89.5261 70.3498 91.7328 70.6125 93.8343 70.2973C95.7257 70.0346 97.4595 69.5092 99.0882 68.5635C102.766 66.3043 104.605 62.8893 105.603 58.8438L111.803 60.0522L109.386 64.2027L82.013 110.857L74.5 123.677C74.4474 122.731 74.7626 121.786 74.9728 120.892L76.549 113.432Z" fill="#E33A97"/>
<path d="M82.0131 110.857C81.908 110.122 82.3808 108.966 82.591 108.23L84.3773 101.243L90.9973 74.6055C93.0988 74.8156 95.358 74.658 97.407 74.0275C101.137 72.8191 104.657 70.5074 106.759 67.1449C107.442 66.0941 107.915 64.9383 108.493 63.835C108.966 63.835 109.123 63.94 109.491 64.2027L82.0131 110.857Z" fill="#EF95BB"/>
<path d="M57.3727 192.713C57.5828 193.344 57.8455 193.974 58.1607 194.552C59.3691 196.706 61.2605 197.442 63.4672 198.072C63.9926 199.333 64.6756 200.647 64.9908 201.96C65.4111 203.694 65.4637 205.585 65.7789 207.372L26.5322 169.596C25.6391 168.755 24.7984 167.862 24.851 166.549C24.851 165.866 25.1137 165.025 25.534 164.447C26.2695 163.449 27.4779 162.503 28.3711 161.663L36.9875 153.519C37.9857 154.938 38.8264 156.619 39.667 158.142L42.9769 164.237L45.8666 169.386L50.5951 177.95C51.8035 179.999 53.2221 182.1 54.1152 184.307L57.11 189.508C57.4777 190.349 57.3201 191.82 57.3727 192.713Z" fill="#F758A6"/>
<path d="M42.9248 164.342L45.8145 169.491L50.543 178.055C51.7514 180.104 53.1699 182.206 54.0631 184.412L57.0578 189.614C57.5307 190.402 57.373 191.82 57.373 192.766L37.6709 174.009C39.1945 173.064 40.2453 172.118 41.0859 170.489L41.191 170.279C42.0842 168.44 42.6096 166.339 42.9248 164.342Z" fill="#D12284"/>
<path d="M45.7613 169.438L50.4898 178.002C51.6982 180.051 53.1168 182.153 54.01 184.36C53.4846 184.202 48.7035 178.948 47.9154 178.16L43.5547 173.957C44.658 172.486 45.2359 171.12 45.7613 169.438Z" fill="#F758A6"/>
<path d="M53.6427 167.232L54.7461 170.384C55.1138 171.277 54.5359 173.116 54.5884 174.22C54.6935 177.057 56.6375 178.791 58.5814 180.524C58.739 181.26 58.8966 182.048 58.8966 182.784C58.8966 183.624 58.6339 184.622 58.5289 185.516L28.3189 132.031C27.5308 130.665 26.8478 129.246 27.3207 127.565C27.5834 126.672 28.1088 125.884 28.8443 125.306C29.5273 124.78 30.3154 124.413 31.1035 124.097L34.5185 122.469L43.8705 117.845L46.2873 129.036L47.4957 134.29C47.6533 135.078 47.9685 136.076 47.9685 136.917L51.4361 155.043C52.1191 156.987 52.3293 159.299 52.697 161.295C53.0123 163.239 53.5902 165.341 53.6427 167.232Z" fill="#F758A6"/>
<path d="M46.2344 129.088L47.4428 134.342C47.6004 135.13 47.9156 136.129 47.9156 136.969L51.3832 155.095C52.0662 157.039 52.2764 159.351 52.6441 161.347C53.0119 163.239 53.5898 165.288 53.5898 167.232C52.9068 166.444 52.3814 165.393 51.8561 164.447L48.5461 158.405L38.8789 141.75C42.2939 139.544 44.2379 136.496 45.2361 132.556C45.6039 131.453 45.709 130.139 46.2344 129.088Z" fill="#D12284"/>
<path d="M51.3828 155.096C50.8574 154.57 50.4896 153.624 50.0693 152.941L44.0273 142.644C44.868 141.698 45.7086 140.805 46.3916 139.702C46.9695 138.808 47.3373 137.863 47.8627 136.917L51.3828 155.096Z" fill="#F758A6"/>
<path d="M101.82 84.378C103.344 81.3307 105.34 78.3885 107.022 75.3938L120.839 51.5936L130.086 35.3065C131.295 33.2049 132.398 30.7881 133.869 28.8442C134.657 27.7934 135.708 27.2155 137.021 27.0578C137.862 26.9528 138.598 27.1104 139.333 27.4781C141.12 28.4239 142.853 29.9475 144.535 31.1033L156.041 39.2994L178.212 55.2188L190.086 63.8877L186.251 66.0944L150.997 40.5604C150.051 43.0822 147.582 45.2363 145.165 46.3397C143.799 46.9701 142.433 47.2854 140.962 47.4955C137.652 47.9684 134.132 46.76 131.452 44.7635L130.139 43.6076L105.078 87.4778C103.922 86.6897 102.713 85.4287 101.82 84.378Z" fill="url(#paint0_linear_81_570)"/>
<path d="M152.941 196.916C160.559 191.873 168.808 187.617 177.162 183.992L174.167 186.146L162.608 195.393L131.085 219.718L113.589 233.326L107.6 237.949C106.391 238.895 105.236 239.946 103.975 240.734C103.029 241.312 102.136 241.522 100.98 241.364C100.297 241.259 99.719 240.997 99.1936 240.576C97.5123 239.263 95.9361 237.476 94.4125 236.005L85.8486 227.599L99.141 222.345L104.237 220.296L131.295 208.79C131.347 208.685 131.505 208.633 131.61 208.58L135.288 206.899L142.328 203.168L149.158 199.175C150.472 198.44 151.68 197.494 152.941 196.916Z" fill="#F758A6"/>
<path d="M131.453 208.79C131.505 208.685 131.663 208.632 131.768 208.58L135.446 206.899L142.486 203.168L149.316 199.175C150.524 198.44 151.733 197.547 152.994 196.969C152.311 198.072 150.472 199.175 149.421 199.963L144.798 203.589L121.523 222.24L112.959 229.28L99.2988 222.345L104.395 220.296L131.453 208.79Z" fill="#D12284"/>
<path d="M104.396 220.296L131.453 208.79C130.455 209.788 129.194 210.681 128.091 211.575L117.688 219.823C115.744 221.294 113.747 222.713 111.909 224.342C111.488 224.342 110.437 223.554 110.017 223.291L106.497 221.399C105.814 221.032 105.026 220.716 104.396 220.296Z" fill="#E33A97"/>
<path d="M221.137 156.724C221.767 158.248 222.45 159.561 223.238 161.032L212.783 165.341L156.934 188.458L133.607 198.177L128.616 200.279C127.67 200.699 126.672 201.172 125.673 201.435L125.463 201.54C123.887 202.381 121.996 202.959 120.314 203.642L108.808 208.423C106.654 209.316 104.29 210.524 102.031 210.997C101.19 211.155 100.455 210.997 99.6141 210.734C98.6158 210.367 97.7752 209.684 97.1447 208.843C96.0414 207.319 95.3584 205.323 94.5703 203.642L88.2656 190.402C88.5283 190.139 88.8961 189.771 89.2639 189.666C89.4215 189.614 89.8943 189.666 90.1045 189.666C91.2078 189.719 91.8908 189.666 92.8365 188.983C93.3094 189.981 93.9398 191.715 95.0432 192.135C95.8312 192.451 97.0922 192.03 97.8803 191.873C98.6158 191.768 99.4039 191.663 100.139 191.663C102.714 191.61 105.236 192.398 107.547 193.607C109.386 194.605 111.12 196.023 112.434 197.652C113.012 198.388 113.484 199.123 113.957 199.911C114.01 200.016 114.378 200.752 114.43 200.804C114.535 200.857 114.903 200.647 115.008 200.594L123.677 197.179C126.251 195.813 129.299 194.815 132.031 193.712L148.003 187.092L201.33 164.973L213.676 159.929C216.146 158.931 218.825 157.985 221.137 156.724Z" fill="url(#paint1_linear_81_570)"/>
<path d="M105.079 87.4774L130.087 43.6073L131.401 44.7632C134.028 46.7597 137.548 47.9681 140.91 47.4952C142.381 47.2851 143.747 46.9173 145.113 46.3394C147.53 45.236 149.999 43.0819 150.945 40.5601L186.199 66.094L181.943 68.6685L151.733 47.0749C148.844 50.0171 145.218 51.6458 141.12 52.2237C137.705 52.6966 134.973 51.8034 131.979 50.2272L112.854 83.537L109.439 89.3163C108.966 90.1044 108.336 90.9976 108.021 91.8907L107.968 91.9433L105.814 95.5685L99.667 105.866L91.0506 120.104L89.0541 123.362C88.8439 123.677 88.4762 124.097 88.5287 124.517C86.9 125.673 85.0611 126.672 83.3273 127.67C82.2766 128.3 81.1207 129.141 79.9648 129.614C79.0717 130.559 77.548 131.295 76.3922 132.031C74.816 133.029 73.2398 134.132 71.5586 134.973L101.769 84.3776C102.714 85.4284 103.923 86.6894 105.079 87.4774Z" fill="#F758A6"/>
<path d="M80.0166 129.614C80.2268 128.931 80.8047 128.195 81.225 127.565L83.3266 124.15L95.5682 104.133L101.873 93.2569L104.079 89.4741C104.447 88.8437 104.763 88.1606 105.235 87.6353C105.761 88.3708 108.072 91.2604 108.072 92.0485L105.918 95.6737L99.7713 105.971L91.1549 120.209L89.1584 123.467C88.9482 123.782 88.5805 124.202 88.633 124.623C87.0043 125.779 85.1654 126.777 83.4316 127.775C82.2758 128.3 81.1725 129.141 80.0166 129.614Z" fill="#D12284"/>
<path d="M51.1209 135.183L49.0719 125.779L44.3434 104.71L42.2943 95.989C42.0842 94.9907 41.7164 93.9925 41.6113 92.9942C41.5588 92.2587 41.6639 91.4706 42.0316 90.8401C42.4519 90.1046 43.1875 89.4741 43.9756 89.1063C45.6043 88.4233 47.4432 88.003 49.1244 87.5302L56.2697 85.3761L77.443 78.9663L76.0244 84.3253L74.816 89.3165L69.8248 109.649C68.5639 110.227 67.4605 111.33 66.4623 112.276C62.8371 115.849 60.3152 119.894 57.6883 124.202V124.36C57.4256 125.253 57.0053 125.989 56.69 126.829C56.0596 128.511 55.8494 130.56 54.8512 132.083L54.1156 128.668C53.6428 129.404 53.4851 130.192 53.275 131.033C53.0123 131.978 52.2767 134.658 51.4887 135.131L51.1209 135.183Z" fill="url(#paint2_linear_81_570)"/>
<path d="M54.1156 128.616L48.9668 105.393C51.4361 105.026 53.7479 104.395 55.7969 103.029C58.6865 101.138 60.9982 97.9328 61.6813 94.5178L61.7338 94.2551C62.1016 92.4162 62.049 90.5248 61.7863 88.6859L75.9719 84.3252L74.7635 89.3164C73.6076 89.474 72.3992 89.9469 71.2959 90.2621L65.8844 91.9434C65.6217 96.9346 63.7828 101.348 60.0525 104.763C58.2137 106.444 56.0596 107.337 53.7479 108.178L57.6357 124.15V124.307C57.373 125.201 56.9527 125.936 56.6375 126.777C56.007 128.458 55.7969 130.507 54.7986 132.031L54.1156 128.616Z" fill="#E33A97"/>
<path d="M57.7404 124.15L53.8525 108.178C56.1643 107.337 58.3184 106.392 60.1572 104.763C63.8875 101.4 65.7264 96.9346 65.9891 91.9434L71.4006 90.2621C72.5564 89.8943 73.7123 89.474 74.8682 89.3164L69.877 109.649C68.616 110.227 67.5127 111.33 66.5145 112.276C62.8367 115.796 60.3674 119.894 57.7404 124.15Z" fill="#FAC0CB"/>
<path d="M43.9756 85.4287C48.599 77.8106 53.275 70.4025 59.2645 63.7826C62.9422 59.6846 66.8826 55.7967 71.1383 52.3291C84.851 40.9807 101.926 33.0473 119.369 29.7898C122.889 29.1068 126.567 28.3713 130.14 28.1611L115.954 52.9596L100.192 49.5971L95.1486 48.4938C93.8352 48.2311 92.4691 47.8633 91.1557 47.8107C89.6846 47.7582 88.1609 48.2311 86.9 49.0191C85.7441 49.7022 84.7459 50.7004 84.1154 51.9613C83.2223 53.8002 82.907 56.217 82.4342 58.2135L79.1242 71.7686C79.0191 72.1363 78.4937 74.9209 78.2311 75.0785C78.0734 75.1836 77.3904 75.2887 77.1803 75.3412L73.0297 76.5496L52.7496 82.6967L43.9756 85.4287Z" fill="white"/>
<path d="M108.073 91.891C108.336 90.9978 109.019 90.1047 109.492 89.3166L112.907 83.5373L132.031 50.2275C135.026 51.8037 137.758 52.6443 141.173 52.224C145.218 51.6986 148.844 50.0174 151.786 47.0752L181.996 68.6687L168.493 76.8123C168.073 77.075 165.078 79.0189 164.815 79.0189L134.5 97.0398L129.719 99.9295L128.826 97.5127C127.986 97.933 127.092 98.2482 126.199 98.5635C124.045 99.3516 122.049 100.035 119.789 100.297C118.003 100.507 116.269 100.245 114.483 100.192C114.851 100.14 115.166 100.192 115.481 99.9295L115.429 99.6668L114.851 99.4041C113.327 98.7736 112.434 97.6703 111.593 96.3043L112.014 96.0941C111.436 95.5687 110.648 95.201 110.175 94.6231C109.387 93.7824 108.861 92.6266 108.073 91.891Z" fill="#FAC0CB"/>
<path d="M111.96 96.0938C113.011 96.8818 114.272 97.8801 115.06 98.8783L115.008 99.1936L114.797 99.3512C113.274 98.7207 112.381 97.6174 111.54 96.2514L111.96 96.0938Z" fill="#EF95BB"/>
<path d="M117.687 88.896C118.633 91.1026 119.736 91.9433 121.785 92.994C120.104 94.2024 118.948 95.2532 117.792 97.0395C117.635 97.2497 117.635 97.3022 117.372 97.3548C116.374 95.621 115.218 94.4651 113.694 93.1517C114.377 92.7314 115.06 92.311 115.691 91.7856C116.531 90.9976 117.109 89.8942 117.687 88.896Z" fill="#FBF8F2"/>
<path d="M128.825 97.46C127.512 93.9399 127.039 89.6842 127.617 85.954C128.458 80.3848 131.557 74.6581 136.128 71.3481C141.014 67.828 147.319 65.9891 153.361 66.9874C159.981 68.0907 164.604 71.3481 168.44 76.7596C168.02 77.0223 165.025 78.9663 164.762 78.9663C164.237 78.0731 163.449 77.285 162.713 76.602C160.506 74.553 158.142 73.0294 155.2 72.1887C150.577 70.8227 145.48 71.4006 141.277 73.7649C137.127 76.1292 134.237 80.0696 133.029 84.6405C132.188 87.8454 132.293 90.9977 133.291 94.2026C133.554 94.9907 133.817 95.8839 134.184 96.5669C134.289 96.7245 134.395 96.8821 134.5 97.0397L129.719 99.9294L128.825 97.46Z" fill="#E33A97"/>
<path d="M134.5 97.0398C134.395 96.8822 134.29 96.7771 134.185 96.567C133.817 95.8839 133.554 94.9382 133.292 94.2027C132.293 91.0504 132.188 87.898 133.029 84.6406C134.237 80.0697 137.127 76.0767 141.278 73.765C145.481 71.4007 150.577 70.8228 155.2 72.1888C158.09 73.0295 160.507 74.5531 162.714 76.6021C163.449 77.2851 164.29 78.0732 164.763 78.9664L134.5 97.0398Z" fill="#F758A6"/>
<path d="M146.217 72.9243C147.372 73.0294 148.423 73.187 149.369 73.9226C150.525 74.7632 151.26 75.9716 151.47 77.3901C151.786 79.4392 151.26 81.4356 149.999 83.0644C148.318 85.271 146.374 86.2167 143.695 86.5319C143.117 86.5319 142.591 86.4794 142.013 86.3218C140.647 85.954 139.492 85.0608 138.809 83.8524C138.02 82.4864 137.758 80.7001 138.231 79.1765L138.283 78.9663C138.703 77.6528 139.281 76.6021 140.175 75.5513C141.751 73.8175 143.957 73.1345 146.217 72.9243Z" fill="#EF95BB"/>
<path d="M75.6036 164.185L69.0362 151.681L67.46 148.791C67.0923 148.16 66.6719 147.53 66.4618 146.847C66.1466 145.849 66.1991 144.588 66.5143 143.589C66.8821 142.171 67.8803 141.068 69.0362 140.227C70.4022 139.281 71.9784 138.441 73.4495 137.548L81.6456 132.714L114.745 112.959L169.596 80.1749L183.939 71.5584L192.03 66.5672C193.186 65.9368 194.499 65.5165 195.813 65.9368C196.811 66.252 197.862 66.8825 198.44 67.7231C199.491 69.2993 200.279 71.2432 201.172 72.9245L208.738 87.6354L219.088 108.073L231.697 132.399C230.751 132.819 229.806 133.134 228.807 133.449C228.282 133.607 227.652 133.922 227.074 133.922C226.075 134.5 224.92 134.868 223.869 135.341C223.659 135.446 223.028 135.656 222.871 135.814C222.766 135.919 222.766 136.024 222.713 136.129C222.03 135.026 221.557 133.607 220.927 132.399C220.454 131.243 219.823 130.192 219.298 129.089L215.252 121.05L205.007 101.085L200.647 92.7317C200.016 91.5758 199.386 89.9997 198.545 88.9489C194.237 90.6301 190.034 90.7352 185.725 88.7913C183.204 87.6879 181.47 86.1643 179.631 84.1678L91.2077 136.707C92.3636 139.491 92.4686 142.644 91.9432 145.639C91.1026 150.472 88.318 154.57 84.4301 157.407L82.7489 158.458L86.8469 166.602L83.9048 166.076C83.1692 165.919 82.3811 165.656 81.6456 165.603L81.5405 165.446L75.6036 164.185Z" fill="#FADAB3"/>
<path d="M81.3834 165.603L78.126 159.194C77.7057 158.405 76.9701 157.355 76.8125 156.514C78.6514 155.831 80.3326 155.043 81.9613 153.94L82.6969 153.362C85.6916 150.787 87.4254 147.267 87.7932 143.379C88.0033 141.488 87.6881 139.544 87.1627 137.705C87.0051 137.075 86.6898 136.339 86.5848 135.709C86.5322 135.446 86.5322 135.341 86.6898 135.078C87.1627 134.237 88.6863 133.554 89.527 133.029L97.8281 128.196L108.126 122.048L119.054 115.586L163.292 89.1064L171.593 84.1152L178.791 79.7545C179.421 79.3867 180.052 78.8088 180.735 78.5986L181.418 79.7545C183.257 82.5916 186.462 84.6932 189.771 85.3762C193.975 86.2693 197.652 85.2185 201.172 82.8543L226.969 133.975C225.971 134.553 224.815 134.921 223.764 135.393C223.554 135.498 222.924 135.709 222.766 135.866C222.661 135.971 222.661 136.076 222.608 136.181C221.925 135.078 221.453 133.66 220.822 132.451C220.349 131.295 219.719 130.245 219.193 129.141L215.148 121.103L204.903 101.138L200.542 92.7842C199.912 91.6283 199.281 90.0521 198.44 89.0014C194.132 90.6826 189.929 90.7877 185.621 88.8438C183.099 87.7404 181.365 86.2168 179.526 84.2203L91.1031 136.759C92.259 139.544 92.3641 142.696 91.8387 145.691C90.998 150.525 88.2135 154.623 84.3256 157.46L82.6443 158.511L86.7424 166.654L83.8002 166.129C83.0647 165.971 82.2766 165.708 81.541 165.656L81.3834 165.603Z" fill="#F758A6"/>
<path d="M220.822 132.503C221.452 133.659 221.872 135.13 222.608 136.234C222.661 136.129 222.661 135.971 222.766 135.918C222.923 135.761 223.554 135.551 223.764 135.446C224.815 134.973 225.97 134.605 226.969 134.027L229.07 138.283L229.543 139.228C228.02 139.911 226.548 140.647 225.287 141.645C223.291 143.221 222.03 145.323 221.137 147.687C220.349 149.841 220.086 152.258 220.559 154.517C220.717 155.253 220.874 156.041 221.189 156.776C218.93 158.09 216.198 159.036 213.729 160.034L201.382 165.078L148.003 187.092L132.031 193.711C129.299 194.815 126.304 195.813 123.677 197.179L115.008 200.594C114.903 200.647 114.483 200.804 114.43 200.804C114.378 200.804 114.01 200.016 113.957 199.911C113.537 199.123 113.012 198.387 112.434 197.652C111.12 196.023 109.439 194.605 107.547 193.606C105.288 192.398 102.766 191.557 100.139 191.662C99.4039 191.662 98.6158 191.767 97.8803 191.873C97.0922 192.03 95.8312 192.45 95.0432 192.135C93.9398 191.715 93.3094 189.981 92.8365 188.983L81.4355 165.866C82.2236 165.918 82.9592 166.128 83.6947 166.339L86.6369 166.864L86.7945 166.917L96.7769 167.705C101.821 167.862 106.812 167.389 111.803 166.917L111.908 166.969C112.223 166.706 112.749 166.811 113.169 166.759L115.954 166.496C120.104 165.971 124.045 164.657 127.88 162.976C128.931 162.503 129.982 162.135 130.927 161.505L133.712 160.192C134.237 159.981 134.763 159.614 135.288 159.614L135.341 159.509C136.496 158.773 137.862 158.248 139.071 157.722C145.848 154.78 152.941 153.046 160.139 151.733L165.078 150.945C165.918 150.787 166.864 150.734 167.652 150.367L167.967 150.472C168.44 150.209 169.649 150.262 170.227 150.157L174.482 149.421C177.845 148.791 181.26 147.897 184.254 146.216L185.515 145.638C186.514 145.533 187.512 145.113 188.458 144.85L193.922 142.959C194.815 142.591 196.076 141.855 197.021 141.803L197.127 141.698C198.02 141.645 199.176 141.067 200.016 140.752L207.845 137.705L220.822 132.503Z" fill="#EF95BB"/>
<path d="M200.279 149.474C201.014 150.367 201.592 151.313 202.485 152.101C203.168 152.731 204.114 153.099 204.955 153.519C203.063 154.675 202.17 156.041 201.172 157.932L200.909 158.09C199.648 156.199 198.545 154.938 196.391 153.992C196.969 153.624 197.599 153.309 198.072 152.836C199.018 151.943 199.648 150.629 200.279 149.474Z" fill="#FBF8F2"/>
<path d="M154.675 155.306C155.2 156.094 155.568 156.934 156.198 157.67L156.356 157.88C157.564 159.351 159.141 159.982 160.874 160.612C158.51 162.083 156.619 163.554 155.831 166.339L155.778 166.496L155.568 166.654C154.885 165.761 154.254 164.763 153.466 163.922C152.363 162.819 151.05 162.136 149.684 161.4C150.419 160.98 151.155 160.507 151.785 159.929C153.099 158.721 153.939 156.934 154.675 155.306Z" fill="#FBF8F2"/>
<path d="M185.568 145.481C186.566 145.376 187.564 144.955 188.51 144.693L193.974 142.801C194.867 142.434 196.128 141.698 197.074 141.646C194.237 146.216 188.825 150.157 183.571 151.418C178.422 152.626 172.958 152.363 168.072 150.367C168.545 150.104 169.754 150.157 170.331 150.052L174.587 149.316C177.95 148.686 181.365 147.793 184.359 146.111L185.568 145.481Z" fill="#D12284"/>
<path d="M130.927 161.4L133.712 160.087C134.237 159.877 134.763 159.509 135.288 159.509C134.815 163.344 133.239 166.602 130.139 169.018C127.46 171.12 123.835 171.961 120.472 171.54C117.162 171.12 114.167 169.334 111.908 166.917C112.223 166.654 112.749 166.759 113.169 166.707L115.954 166.444C120.104 165.919 124.045 164.605 127.88 162.924C128.931 162.398 130.034 162.031 130.927 161.4Z" fill="#D12284"/>
<path d="M226.969 133.975L229.07 138.23L229.543 139.176C228.02 139.859 226.548 140.595 225.287 141.593C223.291 143.169 222.03 145.271 221.137 147.635C220.349 149.789 220.086 152.206 220.559 154.465C220.717 155.2 220.874 155.988 221.189 156.724C218.93 158.037 216.198 158.983 213.729 159.981L201.382 165.025L148.003 187.039L132.031 193.659C129.299 194.762 126.304 195.761 123.677 197.127L115.008 200.542C114.903 200.594 114.483 200.752 114.43 200.752C114.378 200.752 114.01 199.964 113.957 199.859C113.537 199.071 113.012 198.335 112.434 197.599C111.12 195.971 109.439 194.552 107.547 193.554C105.288 192.346 102.766 191.505 100.139 191.61C99.4039 191.61 98.6158 191.715 97.8803 191.82C97.0922 191.978 95.8312 192.398 95.0432 192.083C93.9398 191.663 93.3094 189.929 92.8365 188.93L81.4355 165.813C82.2236 165.866 82.9592 166.076 83.6947 166.286L86.6369 166.812L86.7945 166.864C87.425 168.808 88.6859 170.752 89.5791 172.591L96.9871 187.564C98.3531 187.354 99.5615 187.197 100.928 187.249C105.183 187.407 109.491 189.351 112.696 192.03C113.747 192.923 114.693 193.974 115.638 194.972L214.675 154.202C215.358 153.151 215.778 151.89 216.303 150.787L219.823 143.169C220.717 141.225 221.872 139.176 222.555 137.179C222.661 136.864 222.608 136.602 222.555 136.286C222.608 136.181 222.608 136.024 222.713 135.971C222.871 135.813 223.501 135.603 223.711 135.498C224.815 134.973 225.97 134.605 226.969 133.975Z" fill="#E33A97"/>
<path d="M86.6898 166.759L82.5918 158.615L84.273 157.565C88.2135 154.728 90.9455 150.577 91.7861 145.796C92.3115 142.854 92.1539 139.701 91.0506 136.864L179.474 84.3252C181.365 86.2691 183.099 87.7928 185.568 88.9486C189.824 90.84 194.08 90.735 198.388 89.1063C199.229 90.1045 199.859 91.6807 200.489 92.8891L204.85 101.243L215.095 121.208L219.141 129.246C219.666 130.349 220.297 131.453 220.77 132.556L207.74 137.652L199.912 140.7C199.071 141.015 197.915 141.54 197.022 141.645L196.917 141.75C195.971 141.803 194.763 142.538 193.817 142.906L188.353 144.798C187.407 145.113 186.409 145.481 185.411 145.586L184.15 146.164C181.155 147.845 177.74 148.686 174.378 149.369L170.122 150.104C169.544 150.157 168.336 150.157 167.863 150.419L167.547 150.314C166.759 150.63 165.814 150.735 164.973 150.892L160.034 151.68C152.784 152.994 145.691 154.728 138.966 157.67C137.705 158.195 136.339 158.721 135.236 159.456L135.183 159.561C134.605 159.614 134.08 159.929 133.607 160.139L130.823 161.453C129.877 162.083 128.826 162.503 127.775 162.924C123.94 164.605 120 165.971 115.849 166.444L113.064 166.706C112.644 166.706 112.119 166.654 111.804 166.917L111.698 166.864C106.655 167.337 101.716 167.757 96.6723 167.652L86.6898 166.864V166.759Z" fill="#FAC0CB"/>
<path d="M140.752 127.04C141.855 128.195 143.011 129.509 144.482 130.192C145.27 130.56 146.163 130.77 147.004 131.033C146.111 131.926 145.008 132.661 144.22 133.659C143.484 134.605 143.011 135.919 142.591 137.075L142.538 137.127C142.486 137.127 142.433 137.18 142.381 137.18C142.171 137.127 141.172 135.603 140.857 135.288C139.649 134.027 138.178 133.502 136.549 133.029C138.755 131.4 140.069 129.982 140.752 127.25V127.04Z" fill="#FBF8F2"/>
<path d="M114.01 147.214C117.057 145.113 120.682 144.22 124.413 144.903C128.038 145.586 131.138 147.53 133.187 150.629C134.973 153.309 135.446 156.199 135.393 159.351L135.341 159.456C134.763 159.508 134.237 159.824 133.764 160.034L130.98 161.347C131.768 159.298 132.293 157.249 132.083 155.043C131.821 152.468 130.349 150.262 128.353 148.633C125.936 146.689 122.363 145.586 119.264 145.953C117.477 146.164 116.006 146.689 114.378 147.372L114.01 147.214Z" fill="#E33A97"/>
<path d="M114.01 147.214L114.325 147.372C115.954 146.689 117.425 146.216 119.211 145.954C122.311 145.586 125.884 146.689 128.301 148.633C130.297 150.209 131.768 152.468 132.031 155.043C132.241 157.249 131.716 159.351 130.927 161.347C129.982 161.978 128.931 162.398 127.88 162.819C124.045 164.5 120.104 165.866 115.954 166.339L113.169 166.601C112.749 166.601 112.224 166.549 111.908 166.812L111.803 166.759L111.436 166.234C109.281 162.976 107.863 159.141 108.703 155.148C109.386 152.101 111.383 148.948 114.01 147.214Z" fill="#F758A6"/>
<path d="M119.841 148.58C120.524 148.528 121.312 148.475 122.048 148.633C123.256 148.896 124.254 149.526 124.885 150.629C125.62 151.89 125.62 153.677 125.2 155.095L125.148 155.305C124.937 156.041 124.622 156.776 124.202 157.459C122.994 159.298 121.312 160.297 119.211 160.769C118.37 160.822 117.687 160.822 116.846 160.664C115.691 160.454 114.64 159.719 114.009 158.72C113.326 157.617 113.221 155.988 113.484 154.78L113.536 154.622C113.747 153.572 114.167 152.731 114.745 151.838C115.848 149.999 117.74 149.001 119.841 148.58Z" fill="#EF95BB"/>
<path d="M167.705 150.209C163.765 148.475 160.56 146.216 157.88 142.801C153.992 137.915 152.311 131.663 153.047 125.463C153.835 118.948 157.197 113.379 162.293 109.386C166.812 105.866 173.432 104.027 179.106 104.763C182.258 105.131 185.095 105.866 187.933 107.337C193.659 110.332 197.757 115.481 199.649 121.628C201.855 128.773 200.489 135.078 197.022 141.54L196.917 141.645C195.971 141.698 194.763 142.433 193.817 142.801L188.353 144.693C187.407 145.008 186.409 145.376 185.411 145.481L184.15 146.059C181.155 147.74 177.74 148.58 174.377 149.263L170.122 149.999C169.544 150.052 168.335 150.052 167.863 150.314L167.705 150.209Z" fill="#F758A6"/>
<path d="M185.462 123.52C186.04 123.52 186.566 123.572 187.144 123.73C188.667 124.15 190.033 125.201 190.769 126.567C191.557 128.038 191.82 130.087 191.347 131.716L191.294 131.926C190.979 132.819 190.559 133.712 189.928 134.448C188.615 136.024 186.934 136.759 184.885 136.97C183.939 136.97 182.888 136.864 182.047 136.444L181.942 136.392L181.312 136.024C180.051 135.183 179.053 133.712 178.79 132.136L178.737 131.926L178.685 131.558C178.422 129.719 178.895 127.933 180.051 126.462C181.417 124.675 183.256 123.782 185.462 123.52Z" fill="#EF95BB"/>
<path d="M169.543 113.905C171.33 113.852 172.906 114.062 174.43 115.061C175.796 115.954 176.741 117.688 177.057 119.264C177.529 121.576 177.004 123.887 175.743 125.884C174.219 128.248 172.065 129.614 169.333 130.192C168.545 130.192 167.652 130.297 166.916 130.087L166.759 130.034C165.866 129.824 165.13 129.509 164.395 128.984C162.923 127.985 161.82 126.357 161.505 124.57C161.085 122.206 161.61 119.842 163.029 117.898C164.605 115.586 166.759 114.43 169.543 113.905Z" fill="#EF95BB"/>
<path d="M167.705 150.209C163.765 148.475 160.56 146.216 157.88 142.801C153.992 137.915 152.311 131.663 153.047 125.463C153.835 118.948 157.197 113.379 162.293 109.386C166.812 105.866 173.432 104.027 179.106 104.763C182.258 105.131 185.095 105.866 187.933 107.337C193.659 110.332 197.757 115.481 199.649 121.628C201.855 128.773 200.489 135.078 197.022 141.54L196.917 141.645C195.971 141.698 194.763 142.433 193.817 142.801L188.353 144.693C187.407 145.008 186.409 145.376 185.411 145.481L185.516 145.376C186.514 144.43 187.67 143.642 188.668 142.644C192.503 138.913 194.868 134.395 195.025 129.036C195.13 123.992 193.239 119.053 189.719 115.428C186.094 111.698 181.26 109.439 176.059 109.386C171.435 109.334 166.602 110.91 163.239 114.22C159.404 118.003 157.355 122.626 157.355 128.038C157.355 132.976 159.089 137.6 162.556 141.067C166.864 145.323 172.486 146.742 178.37 146.689C179.474 146.689 180.525 146.584 181.628 146.374C182.468 146.216 183.309 145.953 184.202 146.006C181.208 147.687 177.792 148.528 174.43 149.211L170.174 149.946C169.596 149.999 168.388 149.999 167.915 150.262L167.705 150.209Z" fill="#E33A97"/>
<defs>
<linearGradient id="paint0_linear_81_570" x1="158.256" y1="89.2272" x2="118.996" y2="41.0691" gradientUnits="userSpaceOnUse">
<stop stop-color="#FED6C5"/>
<stop offset="1" stop-color="#FEE4C7"/>
</linearGradient>
<linearGradient id="paint1_linear_81_570" x1="129.403" y1="151.314" x2="178.384" y2="203.143" gradientUnits="userSpaceOnUse">
<stop stop-color="#EAD184"/>
<stop offset="1" stop-color="#FD5BD2"/>
</linearGradient>
<linearGradient id="paint2_linear_81_570" x1="53.2451" y1="84.6919" x2="72.7892" y2="124.326" gradientUnits="userSpaceOnUse">
<stop stop-color="#FE5193"/>
<stop offset="1" stop-color="#FE95D6"/>
</linearGradient>
</defs>
</svg>
