<svg width="277" height="284" viewBox="0 0 277 284" fill="none" xmlns="http://www.w3.org/2000/svg">
<path d="M54.7566 144.706C65.3858 144.706 74.0024 136.089 74.0024 125.46C74.0024 114.831 65.3858 106.214 54.7566 106.214C44.1274 106.214 35.5107 114.831 35.5107 125.46C35.5107 136.089 44.1274 144.706 54.7566 144.706Z" fill="url(#paint0_linear_80_315)"/>
<path d="M54.7569 142.36C64.0908 142.36 71.6574 134.794 71.6574 125.46C71.6574 116.126 64.0908 108.56 54.7569 108.56C45.423 108.56 37.8564 116.126 37.8564 125.46C37.8564 134.794 45.423 142.36 54.7569 142.36Z" fill="url(#paint1_linear_80_315)"/>
<path d="M61.0337 124.287C60.3438 123.736 59.5161 123.322 58.6193 123.184C57.7226 123.046 56.4119 123.046 54.6874 123.115L53.4457 119.321C53.9976 119.252 54.4804 119.252 54.8943 119.39C55.1702 119.528 55.4462 119.666 55.7221 119.942C56.2739 120.493 57.1017 120.7 57.7915 120.424C59.0332 119.942 59.3781 118.424 58.4813 117.527C58.0674 117.113 57.5156 116.768 56.8948 116.493C55.7221 116.01 54.2735 115.941 52.4799 116.424L51.5832 113.526C51.4452 113.181 51.1003 113.043 50.8244 113.112C50.4795 113.25 50.3415 113.595 50.4105 113.871L51.3073 116.699C50.1346 117.113 49.1688 117.665 48.479 118.286C47.6512 118.976 47.1684 119.804 46.8925 120.7C46.6165 121.597 46.6855 122.494 46.9614 123.391C47.3753 124.77 48.2721 125.736 49.6517 126.288C50.6175 126.702 52.0661 126.84 54.0665 126.702C54.2735 126.702 54.4114 126.702 54.5494 126.702L56.067 131.393C55.2392 131.599 54.4804 131.531 53.8596 131.255C53.3767 131.048 52.9628 130.772 52.6179 130.289C52.0661 129.668 51.2383 129.461 50.4795 129.806C49.3758 130.289 49.0999 131.668 49.7897 132.565C50.4105 133.393 51.2383 133.945 52.0661 134.29C53.4457 134.842 55.1012 134.842 57.0327 134.359L57.9295 137.256C58.0675 137.601 58.4123 137.739 58.6883 137.67C59.0332 137.532 59.1711 137.187 59.1022 136.911L58.2054 134.014C59.3781 133.6 60.3438 133.048 61.0337 132.427C61.8614 131.668 62.4823 130.841 62.6892 129.806C62.9651 128.771 62.9651 127.806 62.6202 126.771C62.2753 125.736 61.7235 124.908 61.0337 124.287ZM50.9624 123.046C50.5485 122.839 50.2725 122.563 50.1346 122.149C49.9966 121.735 50.0656 121.321 50.3415 120.907C50.7554 120.356 51.3762 119.942 52.204 119.597L53.3767 123.184C52.204 123.322 51.3762 123.253 50.9624 123.046ZM58.8952 129.875C58.5503 130.358 57.9985 130.841 57.2397 131.117L55.7911 126.702C56.3429 126.702 56.7568 126.633 57.0327 126.633C57.7225 126.633 58.2054 126.771 58.4813 126.978C58.8262 127.185 59.0332 127.461 59.1712 127.874C59.3781 128.564 59.2401 129.185 58.8952 129.875Z" fill="#D17B1E"/>
<path d="M48.0652 77.4488C57.3229 77.4488 64.8277 69.944 64.8277 60.6863C64.8277 51.4287 57.3229 43.9238 48.0652 43.9238C38.8076 43.9238 31.3027 51.4287 31.3027 60.6863C31.3027 69.944 38.8076 77.4488 48.0652 77.4488Z" fill="url(#paint2_linear_80_315)"/>
<path d="M48.0651 75.3793C56.1799 75.3793 62.7582 68.801 62.7582 60.6862C62.7582 52.5715 56.1799 45.9932 48.0651 45.9932C39.9504 45.9932 33.3721 52.5715 33.3721 60.6862C33.3721 68.801 39.9504 75.3793 48.0651 75.3793Z" fill="url(#paint3_linear_80_315)"/>
<path d="M53.2391 58.4789C52.5493 58.134 51.7905 57.9961 50.9627 57.9961C50.135 58.065 49.0313 58.272 47.5826 58.7549L45.7891 55.7887C46.272 55.5817 46.6169 55.5127 47.0308 55.5817C47.3067 55.6507 47.5826 55.7197 47.8586 55.9266C48.4104 56.2715 49.1692 56.3405 49.7211 55.9266C50.6868 55.3058 50.6868 53.9262 49.7211 53.3053C49.2382 53.0294 48.7553 52.8225 48.2035 52.7535C47.0998 52.5465 45.8581 52.8224 44.4785 53.5123L43.0988 51.2359C42.9609 50.96 42.616 50.891 42.34 51.0289C42.0641 51.1669 41.9951 51.5118 42.1331 51.7877L43.4438 53.9951C42.547 54.547 41.8572 55.1678 41.3053 55.8576C40.7535 56.6164 40.4775 57.3752 40.4775 58.203C40.4775 59.0308 40.6155 59.7896 41.0294 60.4794C41.6502 61.5141 42.616 62.2039 43.8576 62.4109C44.7544 62.5489 46.065 62.4109 47.7206 61.928C47.8586 61.859 47.9965 61.859 48.1345 61.79L50.3419 65.5151C49.6521 65.86 49.0312 65.9289 48.4794 65.86C48.0655 65.791 47.6516 65.584 47.2377 65.3081C46.6859 64.8942 45.8581 64.8942 45.3062 65.3081C44.4785 65.9289 44.4785 67.1016 45.3062 67.7225C45.9961 68.2743 46.7549 68.6192 47.5826 68.7572C48.8243 68.9641 50.2729 68.6882 51.7905 67.7914L53.1701 70.0678C53.3081 70.3437 53.653 70.4127 53.9289 70.2748C54.2049 70.1368 54.2738 69.7919 54.1359 69.516L52.7563 67.2396C53.653 66.6188 54.3428 65.9979 54.8257 65.3771C55.3776 64.6183 55.7225 63.7215 55.7225 62.8248C55.7225 61.928 55.5155 61.0313 55.1016 60.2725C54.5498 59.4447 53.9289 58.8238 53.2391 58.4789ZM44.4095 59.3757C43.9956 59.3067 43.7197 59.0998 43.5127 58.8238C43.3058 58.4789 43.3058 58.134 43.4438 57.7201C43.6507 57.1683 44.1336 56.6854 44.7544 56.2715L46.41 59.0998C45.5132 59.3757 44.8234 59.4447 44.4095 59.3757ZM52.4803 63.5836C52.2734 64.0664 51.9285 64.5493 51.3076 64.9632L49.2382 61.5141C49.7211 61.3762 50.066 61.3072 50.2729 61.2382C50.8248 61.1002 51.2387 61.1002 51.5836 61.2382C51.9285 61.3762 52.1354 61.5831 52.3424 61.859C52.6183 62.4109 52.6873 62.9627 52.4803 63.5836Z" fill="#D17B1E"/>
<path d="M210.723 54.6162C221.353 54.6162 229.969 45.9995 229.969 35.3703C229.969 24.7412 221.353 16.1245 210.723 16.1245C200.094 16.1245 191.478 24.7412 191.478 35.3703C191.478 45.9995 200.094 54.6162 210.723 54.6162Z" fill="url(#paint4_linear_80_315)"/>
<path d="M210.724 52.2707C220.058 52.2707 227.624 44.7041 227.624 35.3702C227.624 26.0363 220.058 18.4697 210.724 18.4697C201.39 18.4697 193.823 26.0363 193.823 35.3702C193.823 44.7041 201.39 52.2707 210.724 52.2707Z" fill="url(#paint5_linear_80_315)"/>
<path d="M216.725 37.5089C216.38 36.6811 215.897 35.9223 215.138 35.3015C214.448 34.6807 213.276 34.0598 211.689 33.301L212.517 29.3691C213.069 29.576 213.414 29.852 213.69 30.1279C213.897 30.4038 214.034 30.6798 214.172 31.0247C214.379 31.7835 215 32.3353 215.759 32.4733C217.001 32.6802 218.104 31.5075 217.76 30.2659C217.553 29.645 217.277 29.0932 216.932 28.6103C216.173 27.5756 214.862 26.8168 213.138 26.3339L213.759 23.3677C213.828 23.0228 213.621 22.6779 213.276 22.6089C212.931 22.5399 212.586 22.7469 212.517 23.0918L211.896 26.058C210.654 25.851 209.62 25.851 208.654 25.989C207.619 26.196 206.791 26.6098 206.102 27.2997C205.412 27.9895 204.998 28.7483 204.86 29.645C204.584 31.0247 204.86 32.3353 205.757 33.508C206.378 34.3358 207.619 35.2325 209.413 36.0603C209.551 36.1293 209.689 36.1983 209.896 36.2672L208.93 41.0959C208.102 40.82 207.481 40.4751 207.067 39.9233C206.791 39.5094 206.516 39.0265 206.447 38.4747C206.309 37.6469 205.619 37.026 204.86 36.9571C203.687 36.8191 202.722 37.8538 202.928 39.0265C203.135 40.0612 203.48 40.958 204.032 41.6478C204.929 42.8205 206.378 43.6483 208.309 44.1311L207.688 47.0973C207.619 47.4423 207.826 47.7872 208.171 47.8561C208.516 47.9251 208.861 47.7182 208.93 47.3733L209.551 44.4071C210.792 44.614 211.827 44.614 212.793 44.4071C213.897 44.2001 214.793 43.7173 215.552 42.9585C216.311 42.1997 216.794 41.3029 217.001 40.3372C217.07 39.3714 217.07 38.3367 216.725 37.5089ZM208.585 31.4385C208.309 31.0936 208.171 30.6798 208.309 30.2659C208.378 29.783 208.654 29.5071 209.068 29.3001C209.689 29.0242 210.447 28.9552 211.344 29.0932L210.585 32.7492C209.551 32.2663 208.861 31.7834 208.585 31.4385ZM212.103 41.2339C211.551 41.5098 210.861 41.6478 210.034 41.5098L210.999 36.9571C211.482 37.233 211.896 37.371 212.103 37.5089C212.655 37.8538 213.069 38.1987 213.207 38.5436C213.414 38.8886 213.414 39.2335 213.345 39.6474C213.207 40.4062 212.793 40.889 212.103 41.2339Z" fill="#D17B1E"/>
<path d="M206.516 97.7294C215.545 97.7294 222.864 90.4099 222.864 81.3808C222.864 72.3518 215.545 65.0322 206.516 65.0322C197.486 65.0322 190.167 72.3518 190.167 81.3808C190.167 90.4099 197.486 97.7294 206.516 97.7294Z" fill="url(#paint6_linear_80_315)"/>
<path d="M206.515 95.729C214.439 95.729 220.863 89.3051 220.863 81.3809C220.863 73.4566 214.439 67.0327 206.515 67.0327C198.591 67.0327 192.167 73.4566 192.167 81.3809C192.167 89.3051 198.591 95.729 206.515 95.729Z" fill="url(#paint7_linear_80_315)"/>
<path d="M211.896 82.1397C211.482 81.5188 210.931 80.967 210.241 80.6221C209.551 80.2772 208.447 79.9323 207.068 79.5874V76.2073C207.55 76.2763 207.895 76.4142 208.171 76.6901C208.378 76.8281 208.585 77.104 208.723 77.3799C208.999 78.0008 209.62 78.3457 210.31 78.3457C211.413 78.2767 212.103 77.104 211.62 76.1383C211.344 75.6554 211.068 75.2415 210.655 74.8966C209.827 74.2068 208.654 73.7929 207.137 73.6549V71.1026C207.137 70.8267 206.93 70.5508 206.585 70.5508C206.309 70.5508 206.033 70.7577 206.033 71.1026V73.6549C204.998 73.6549 204.101 73.8619 203.343 74.2068C202.515 74.5517 201.894 75.1036 201.48 75.7244C201.066 76.4142 200.79 77.104 200.79 77.8628C200.79 79.0355 201.273 80.0702 202.17 80.898C202.86 81.5188 203.963 82.0017 205.619 82.4156C205.757 82.4846 205.895 82.4846 206.033 82.4846V86.6924C205.343 86.6235 204.722 86.4165 204.308 86.0026C203.963 85.7267 203.756 85.3818 203.549 84.8989C203.274 84.2781 202.653 83.8642 201.963 83.9332C200.997 84.0022 200.376 85.0369 200.721 85.9336C201.066 86.7614 201.48 87.3823 202.101 87.9341C203.067 88.7619 204.377 89.1758 206.102 89.2448V91.7971C206.102 92.073 206.309 92.3489 206.654 92.3489C206.93 92.3489 207.206 92.142 207.206 91.7971V89.2448C208.24 89.1758 209.137 89.0378 209.896 88.6929C210.793 88.348 211.482 87.7272 211.965 86.9684C212.448 86.2096 212.724 85.3818 212.724 84.554C212.517 83.5883 212.31 82.7605 211.896 82.1397ZM204.101 78.4837C203.825 78.2077 203.618 77.9318 203.618 77.5869C203.618 77.173 203.756 76.8971 204.101 76.6211C204.584 76.2762 205.205 76.1383 205.964 76.0693V79.2425C204.998 78.9665 204.377 78.7596 204.101 78.4837ZM208.654 86.0026C208.24 86.3475 207.688 86.5545 206.999 86.6235V82.6915C207.481 82.8295 207.826 82.8985 207.964 82.9674C208.516 83.1744 208.861 83.3813 209.068 83.6573C209.275 83.9332 209.413 84.2091 209.413 84.554C209.413 85.1059 209.206 85.5887 208.654 86.0026Z" fill="#D17B1E"/>
<path d="M244.18 97.3155C251.076 97.3155 256.666 91.7255 256.666 84.8299C256.666 77.9343 251.076 72.3442 244.18 72.3442C237.284 72.3442 231.694 77.9343 231.694 84.8299C231.694 91.7255 237.284 97.3155 244.18 97.3155Z" fill="url(#paint8_linear_80_315)"/>
<path d="M244.18 95.7979C250.237 95.7979 255.148 90.8874 255.148 84.8299C255.148 78.7724 250.237 73.8618 244.18 73.8618C238.122 73.8618 233.212 78.7724 233.212 84.8299C233.212 90.8874 238.122 95.7979 244.18 95.7979Z" fill="url(#paint9_linear_80_315)"/>
<path d="M246.732 88.21C246.87 87.6582 246.87 87.0373 246.663 86.4855C246.456 85.9336 246.111 85.1748 245.49 84.2091L247.353 82.3466C247.56 82.6225 247.698 82.8984 247.698 83.1744C247.698 83.3813 247.698 83.5882 247.629 83.8642C247.491 84.347 247.56 84.8989 247.974 85.2438C248.595 85.7956 249.629 85.5887 249.836 84.7609C249.974 84.347 249.974 84.0021 249.974 83.5882C249.905 82.7605 249.491 81.9327 248.733 81.0359L250.112 79.6563C250.25 79.5184 250.25 79.2424 250.112 79.1044C249.974 78.9665 249.698 78.9665 249.56 79.1044L248.181 80.4841C247.629 79.9322 247.008 79.5184 246.456 79.3114C245.835 79.0355 245.214 78.9665 244.594 79.1044C243.973 79.2424 243.49 79.5183 243.076 79.9322C242.455 80.5531 242.11 81.3808 242.179 82.3466C242.248 83.0364 242.593 83.9332 243.214 85.0369C243.283 85.1058 243.352 85.2438 243.352 85.3128L241.076 87.5892C240.731 87.1753 240.524 86.7614 240.524 86.2785C240.524 85.9336 240.524 85.5887 240.731 85.2438C240.938 84.7609 240.8 84.2091 240.386 83.8642C239.834 83.3813 238.937 83.5882 238.592 84.2781C238.316 84.8989 238.247 85.5197 238.247 86.1406C238.316 87.1063 238.799 88.0721 239.696 88.9688L238.316 90.3484C238.178 90.4864 238.178 90.7623 238.316 90.9003C238.454 91.0382 238.73 91.0382 238.868 90.9003L240.248 89.5207C240.869 90.0725 241.421 90.4864 241.972 90.6933C242.662 90.9693 243.352 91.0382 243.973 90.9003C244.663 90.7623 245.215 90.4174 245.697 90.0035C246.249 89.3137 246.594 88.7619 246.732 88.21ZM244.456 82.0017C244.456 81.7258 244.525 81.4498 244.732 81.2429C244.939 81.0359 245.214 80.967 245.49 80.967C245.904 81.0359 246.318 81.2429 246.801 81.6568L245.077 83.3813C244.732 82.7605 244.525 82.2776 244.456 82.0017ZM242.869 88.5549C242.455 88.4859 242.041 88.348 241.627 88.0031L243.766 85.8646C243.973 86.2096 244.042 86.4165 244.111 86.5545C244.318 86.9683 244.387 87.2443 244.318 87.5202C244.318 87.7961 244.18 88.0031 243.973 88.21C243.766 88.4859 243.352 88.6239 242.869 88.5549Z" fill="#D17B1E"/>
<path d="M248.112 115.734C241.628 107.801 187.546 39.1642 121.048 59.0309C92.6276 67.5156 70.8295 93.2457 62.2758 121.597C60.6202 127.047 59.4475 132.772 56.4123 137.532C53.3082 142.429 48.4795 146.017 43.9957 149.811C35.235 157.261 27.4401 165.814 20.8869 175.265C16.1271 182.163 11.9883 189.613 10.5396 197.822C7.84937 212.998 14.9545 228.863 26.4744 239.073C37.9943 249.282 53.3771 254.869 68.76 255.904C99.1808 257.973 149.606 252.524 167.128 249.351C224.106 238.866 254.389 206.237 262.115 176.644C267.565 155.605 261.839 132.565 248.112 115.734Z" fill="white"/>
<mask id="mask0_80_315" style="mask-type:luminance" maskUnits="userSpaceOnUse" x="9" y="55" width="256" height="202">
<path d="M248.112 115.734C241.628 107.801 187.546 39.1642 121.048 59.0309C92.6276 67.5156 70.8295 93.2457 62.2758 121.597C60.6202 127.047 59.4475 132.772 56.4123 137.532C53.3082 142.429 48.4795 146.017 43.9957 149.811C35.235 157.261 27.4401 165.814 20.8869 175.265C16.1271 182.163 11.9883 189.613 10.5396 197.822C7.84937 212.998 14.9545 228.863 26.4744 239.073C37.9943 249.282 53.3771 254.869 68.76 255.904C99.1808 257.973 149.606 252.524 167.128 249.351C224.106 238.866 254.389 206.237 262.115 176.644C267.565 155.605 261.839 132.565 248.112 115.734Z" fill="white"/>
</mask>
<g mask="url(#mask0_80_315)">
<path d="M65.3799 190.579C70.4155 186.991 76.6239 183.887 84.3498 183.611C88.9026 183.473 94.4901 184.646 97.1803 187.681C98.56 189.199 98.9738 190.992 99.0428 192.648C99.8706 204.375 89.0405 213.204 78.6933 220.999C70.4845 227.208 62.2067 233.485 53.9979 239.693C47.4447 244.66 30.1303 261.147 21.1627 277.702C16.541 270.873 23.0252 251.351 25.0947 245.212C32.5447 224.586 53.3771 199.132 65.3799 190.579Z" fill="url(#paint10_linear_80_315)"/>
<path d="M80.9697 194.787C67.1044 204.996 54.6878 217.55 44.1336 231.14C33.7174 244.591 23.784 260.595 20.5419 277.633C20.4039 278.53 21.6456 278.875 21.9215 277.978C26.6813 260.457 34.8211 244.936 45.9961 230.588C56.3433 217.412 68.484 205.962 81.6595 195.683C82.2114 195.338 81.5215 194.442 80.9697 194.787Z" fill="#D34A8C"/>
<path d="M46.8926 165.055C50.0658 159.675 54.2047 154.57 59.9301 152.156C63.3102 150.707 67.725 150.569 70.2773 153.26C71.588 154.639 72.2088 156.502 72.5537 158.295C75.175 171.195 68.6218 184.025 62.2065 195.545C57.1019 204.789 51.9972 213.963 46.8926 223.207C42.8227 230.519 32.6824 253.628 28.8884 274.667C24.2667 268.252 25.7153 244.66 26.2671 237.279C28.1986 211.963 39.3736 177.886 46.8926 165.055Z" fill="url(#paint11_linear_80_315)"/>
<path d="M59.1714 165.745C50.2038 181.473 43.3746 198.58 38.0631 215.826C32.2686 234.52 27.5779 254.938 28.2677 274.667C28.2677 275.564 29.6473 275.564 29.6473 274.667C30.3371 254.662 33.3033 235.348 39.1668 216.171C44.4783 198.856 51.6524 182.301 60.1371 166.366C60.482 165.676 59.5163 165.124 59.1714 165.745Z" fill="#F9A89A"/>
<path d="M236.04 170.16C235.488 164.504 234.315 158.502 230.521 154.295C228.521 152.087 224.934 150.501 222.589 152.294C220.657 153.812 220.45 156.847 218.312 158.089C216.449 159.192 213.828 158.089 212.586 156.295C211.345 154.501 211.138 152.156 211.069 150.018C210.793 140.981 212.172 131.807 210.103 123.046C209.206 119.183 205.481 108.215 198.721 118.424C189.132 132.91 202.446 159.261 199.135 160.917C192.789 160.158 186.994 148.362 183.2 147.741C181.889 147.534 180.51 147.396 179.406 148.086C178.44 148.707 177.888 149.88 177.544 150.983C175.681 156.916 177.061 163.814 181.131 168.574C186.511 174.851 195.548 177.058 200.928 183.336C202.032 184.646 202.929 186.164 203.067 187.82C203.412 193.683 194.168 196.235 193.754 202.099C193.547 204.996 195.755 207.617 198.238 209.204C200.721 210.79 203.619 211.549 206.171 213.067C215.621 218.654 217.691 231.692 225.762 239.073C228.038 241.211 231.418 242.798 234.246 241.487C236.247 240.521 237.351 238.176 237.489 235.9C237.557 233.623 236.868 231.416 236.04 229.346C232.591 220.103 230.245 212.17 233.212 202.582C236.454 192.234 237.075 180.99 236.04 170.16Z" fill="url(#paint12_linear_80_315)"/>
<path d="M202.929 129.461C204.722 151.673 209.137 173.402 215.69 194.718C219.139 206.03 223.209 217.205 227.693 228.174C229.832 233.347 232.039 238.521 234.453 243.625C236.937 249.006 239.282 254.869 242.593 259.767C242.731 259.974 243.214 259.836 243.076 259.56C241.145 254.318 238.247 249.351 235.902 244.246C233.419 238.866 231.004 233.347 228.728 227.898C224.313 217.136 220.312 206.168 216.863 195.062C210.31 173.816 205.412 151.673 203.481 129.461C203.412 129.185 202.86 129.116 202.929 129.461Z" fill="#D34A8C"/>
<path d="M190.236 164.159C197.617 172.299 205.343 181.059 214.172 187.682C214.448 187.889 214.724 187.475 214.517 187.199C210.723 183.129 206.377 179.611 202.376 175.679C198.376 171.747 194.582 167.746 190.719 163.676C190.443 163.4 189.96 163.883 190.236 164.159Z" fill="#D34A8C"/>
<path d="M203.067 201.892C207.758 204.099 211.69 207.479 215.346 210.997C218.519 214.033 221.347 218.034 224.934 220.517C225.21 220.724 225.624 220.31 225.417 220.034C222.796 216.171 218.657 212.653 215.277 209.48C211.759 206.169 207.965 203.065 203.55 201.064C202.998 200.857 202.515 201.616 203.067 201.892Z" fill="#D34A8C"/>
<path d="M219.347 203.41C219.899 197.615 221.002 191.821 222.106 186.095C222.658 183.129 223.279 180.163 223.899 177.197C224.382 174.782 225.417 172.161 225.348 169.678C225.348 169.333 224.934 169.195 224.727 169.54C223.555 171.678 223.279 174.575 222.796 176.921C222.106 180.232 221.485 183.543 220.864 186.854C219.899 192.372 218.864 197.891 218.588 203.479C218.657 203.823 219.278 203.823 219.347 203.41Z" fill="#D34A8C"/>
<path d="M173.405 237.072C170.094 233.209 166.989 228.657 166.852 223.138C166.783 220.241 168.162 216.516 170.921 215.826C173.198 215.205 175.336 216.93 177.613 216.033C179.613 215.274 180.648 212.584 180.303 210.515C179.958 208.445 178.647 206.859 177.268 205.479C171.611 199.753 164.713 195.27 160.436 188.303C158.505 185.198 153.952 175.679 165.196 176.645C181.062 178.093 189.133 204.375 192.444 202.858C196.238 197.477 192.513 185.819 194.72 182.508C195.479 181.404 196.307 180.232 197.548 179.818C198.652 179.404 199.756 179.749 200.721 180.163C205.826 182.37 209.344 187.613 209.689 193.614C210.103 201.616 205.412 209.963 205.895 217.896C205.964 219.482 206.309 221.138 207.344 222.241C210.931 226.104 218.795 220.517 222.933 223.69C225.003 225.277 225.21 228.588 224.52 231.485C223.83 234.382 222.382 237.072 221.623 239.97C218.795 250.662 225.9 260.181 225.279 271.011C225.072 274.046 223.899 277.703 221.071 279.013C219.071 279.979 216.794 279.427 215.277 278.116C213.759 276.806 212.793 274.943 211.965 273.012C208.378 264.734 204.722 258.043 196.514 254.525C187.408 250.8 179.751 244.453 173.405 237.072Z" fill="url(#paint13_linear_80_315)"/>
<path d="M169.128 187.061C182.304 202.237 193.341 219.482 202.584 237.348C207.551 247.006 212.035 256.87 216.036 266.941C217.967 271.839 219.829 276.737 221.554 281.772C223.279 286.739 224.52 292.12 226.728 296.948C226.866 297.224 227.279 297.017 227.21 296.741C226.314 291.223 224.037 285.635 222.175 280.324C220.312 275.012 218.312 269.701 216.173 264.458C212.31 254.87 208.034 245.488 203.205 236.314C193.892 218.447 182.855 201.823 169.542 186.716C169.266 186.371 168.852 186.785 169.128 187.061Z" fill="#E79032"/>
<path d="M199.893 197.96C199.962 203.409 199.962 208.859 199.824 214.308C199.686 219.758 198.996 225.276 199.065 230.726C199.065 231.071 199.548 231.14 199.617 230.795C201.342 220.103 200.859 208.721 200.583 197.96C200.583 197.546 199.893 197.546 199.893 197.96Z" fill="#E79032"/>
<path d="M215.414 230.657C213.759 235.21 213.207 240.039 212.931 244.867C212.724 249.42 212.172 254.663 212.931 259.215C213 259.56 213.552 259.56 213.621 259.215C214.518 255.008 213.828 250.317 213.966 246.04C214.173 240.935 214.656 235.831 216.38 230.933C216.587 230.312 215.621 230.036 215.414 230.657Z" fill="#E79032"/>
<path d="M206.723 243.833C202.86 240.66 198.652 238.038 194.445 235.486C191.961 233.968 189.409 232.451 186.857 231.071C184.925 229.967 182.787 228.381 180.579 227.967C180.303 227.898 180.027 228.243 180.234 228.519C181.752 229.967 184.028 230.795 185.891 231.83C188.443 233.278 190.995 234.727 193.479 236.176C197.825 238.728 202.239 241.349 206.309 244.453C206.654 244.591 206.999 244.04 206.723 243.833Z" fill="#E79032"/>
</g>
<path d="M261.631 119.873C261.631 119.804 261.631 119.735 261.7 119.666C263.08 118.286 264.183 116.7 264.39 114.768C264.666 112.768 264.045 110.905 263.287 109.043C263.149 108.629 262.666 108.56 262.321 108.629C260.665 108.905 258.734 111.319 258.458 112.837C257.906 115.182 258.941 118.424 260.458 120.218C260.803 120.632 261.493 120.356 261.631 119.873ZM260.183 114.561C259.976 113.319 260.941 111.457 262.045 110.698C263.011 113.457 262.942 115.941 261.355 118.355C261.286 118.217 261.148 118.01 261.079 117.872C260.527 116.838 260.32 115.596 260.183 114.561Z" fill="url(#paint14_linear_80_315)"/>
<path d="M272.255 116.907C270.668 116.148 269.082 115.182 267.219 115.596C265.012 116.148 262.735 117.734 260.942 119.183C260.666 119.183 260.459 119.39 260.459 119.666C260.666 122.08 264.253 122.08 266.047 121.873C268.53 121.528 270.806 119.873 272.462 118.148C272.807 117.872 272.738 117.182 272.255 116.907ZM266.115 120.149C265.081 120.287 264.046 120.356 263.011 120.011C262.597 119.873 262.253 119.666 261.908 119.528C263.425 118.562 265.081 117.872 266.874 117.32C268.254 116.907 269.289 117.251 270.461 117.803C269.22 118.907 267.633 119.873 266.115 120.149Z" fill="url(#paint15_linear_80_315)"/>
<path d="M261.217 119.459C260.39 118.424 259.976 117.803 259.562 116.493C259.286 115.527 258.872 114.423 258.527 113.526C258.251 112.699 257.286 110.836 256.389 108.008C256.389 108.008 255.906 108.767 255.699 109.387L254.319 108.56C254.388 111.457 256.389 113.181 256.872 114.837C257.492 117.113 257.906 120.011 260.873 120.218C261.355 120.149 261.424 119.666 261.217 119.459Z" fill="url(#paint16_linear_80_315)"/>
<path d="M260.39 120.217C261.493 121.528 262.804 123.184 264.529 123.666C265.356 123.873 269.012 123.597 270.875 125.115V123.942L272.117 123.253C271.427 122.218 268.736 121.735 267.495 121.804C266.322 121.873 265.287 121.804 264.184 121.39C263.011 120.907 262.183 120.148 261.424 119.252C260.804 118.493 259.838 119.528 260.39 120.217Z" fill="url(#paint17_linear_80_315)"/>
<path d="M254.251 112.768L240.109 126.909C239.902 127.116 239.902 127.461 240.109 127.668L252.595 140.153C252.802 140.36 253.147 140.36 253.354 140.153L267.495 126.012L254.251 112.768Z" fill="url(#paint18_linear_80_315)"/>
<path d="M267.908 126.426L253.974 112.492C253.836 112.354 253.56 112.354 253.422 112.492L248.938 116.975C248.8 117.113 248.8 117.389 248.938 117.527L262.873 131.462C263.011 131.6 263.287 131.6 263.425 131.462L267.908 126.978C268.046 126.84 268.046 126.564 267.908 126.426Z" fill="url(#paint19_linear_80_315)"/>
<path d="M263.32 121.859L258.491 117.03L243.956 131.565L248.785 136.394L263.32 121.859Z" fill="#F05291"/>
<path d="M263.356 121.837L258.527 117.008L253.503 122.032L258.332 126.861L263.356 121.837Z" fill="#D34083"/>
<path d="M263.011 38.8192C263.011 38.7502 263.011 38.6123 262.942 38.5433C263.907 36.4738 264.528 34.2664 263.976 31.921C263.425 29.5757 262.045 27.7132 260.458 25.9196C260.113 25.5747 259.562 25.6437 259.148 25.8507C257.354 26.8164 256.25 30.3345 256.457 32.128C256.802 35.0252 259.286 38.1984 261.769 39.578C262.39 39.9919 263.08 39.44 263.011 38.8192ZM259.217 33.3697C258.527 31.99 258.803 29.5067 259.769 28.265C261.976 30.9553 262.873 33.7835 262.114 37.0947C261.976 36.9567 261.769 36.8187 261.562 36.6118C260.527 35.784 259.838 34.5423 259.217 33.3697Z" fill="url(#paint20_linear_80_315)"/>
<path d="M273.773 31.1622C271.634 30.9553 269.496 30.4724 267.564 31.7831C265.288 33.3006 263.356 36.0599 261.977 38.4053C261.701 38.4743 261.494 38.8882 261.632 39.1641C262.873 41.8544 266.874 40.3368 268.806 39.371C271.427 37.9914 273.29 35.2321 274.531 32.5419C274.738 31.99 274.462 31.2312 273.773 31.1622ZM268.185 37.3016C267.081 37.9224 265.909 38.4053 264.667 38.4053C264.115 38.4053 263.701 38.3363 263.218 38.2673C264.529 36.5428 266.185 35.0942 267.909 33.7835C269.289 32.7488 270.599 32.6798 272.117 32.8868C271.151 34.6113 269.841 36.3358 268.185 37.3016Z" fill="url(#paint21_linear_80_315)"/>
<path d="M262.39 38.474C261.08 37.6463 260.321 37.0944 259.355 35.7838C258.665 34.818 257.7 33.7833 257.01 32.8176C256.389 31.9898 254.526 30.2653 252.319 27.437C252.319 27.437 252.043 28.4717 252.112 29.2305L250.181 28.8856C251.422 32.1278 254.457 33.2314 255.63 34.887C257.286 37.2324 258.941 40.3365 262.321 39.3708C262.804 39.2328 262.735 38.681 262.39 38.474Z" fill="url(#paint22_linear_80_315)"/>
<path d="M261.838 39.7157C263.563 40.7504 265.77 42.1301 267.909 41.9231C268.943 41.8542 272.944 39.9917 275.634 40.9574L275.152 39.6468L276.255 38.3361C275.083 37.4393 271.84 37.9912 270.461 38.543C269.15 39.0259 267.978 39.5088 266.529 39.4398C265.011 39.3708 263.839 38.8879 262.528 38.1292C261.562 37.5773 260.872 39.1639 261.838 39.7157Z" fill="url(#paint23_linear_80_315)"/>
<path d="M251.905 33.8525L241.765 55.5127C241.627 55.8576 241.765 56.2025 242.11 56.4095L261.218 65.3081C261.562 65.4461 261.907 65.3081 262.114 64.9632L272.255 43.303L251.905 33.8525Z" fill="url(#paint24_linear_80_315)"/>
<path d="M272.738 43.5788L251.353 33.5765C251.146 33.4386 250.802 33.5765 250.733 33.7835L247.559 40.6126C247.421 40.8196 247.559 41.1645 247.766 41.2335L269.151 51.2358C269.358 51.3738 269.703 51.2358 269.771 51.0289L272.945 44.1997C273.083 43.9927 272.945 43.7168 272.738 43.5788Z" fill="url(#paint25_linear_80_315)"/>
<path d="M265.715 40.3289L258.341 36.8809L247.938 59.1274L255.312 62.5755L265.715 40.3289Z" fill="#FEBD5D"/>
<path d="M265.755 40.3475L258.381 36.8994L254.787 44.5857L262.161 48.0338L265.755 40.3475Z" fill="#EFAB50"/>
<path d="M15.2993 85.5202C15.2304 85.4512 15.1614 85.4512 15.0234 85.4512C13.7128 83.5197 12.1262 81.9332 9.8498 81.1744C7.57341 80.4156 5.22804 80.6915 2.88267 81.1744C2.3998 81.2433 2.19285 81.7952 2.19285 82.2781C2.12387 84.2785 4.53822 87.0378 6.26276 87.7966C8.95303 88.9693 12.885 88.4174 15.3683 87.0378C15.9892 86.6929 15.8512 85.7961 15.2993 85.5202ZM8.67711 86.0721C7.15951 86.0031 5.15905 84.4855 4.53822 83.0369C7.98729 82.485 10.8845 83.1748 13.3679 85.5202C13.1609 85.5892 12.954 85.6582 12.678 85.7271C11.4364 86.141 9.98776 86.141 8.67711 86.0721Z" fill="url(#paint26_linear_80_315)"/>
<path d="M14.1949 72.3446C12.8842 74.0692 11.4356 75.7247 11.5736 78.0011C11.7116 80.6914 13.0912 83.7956 14.4018 86.2099C14.3329 86.4858 14.5398 86.8308 14.8847 86.8997C17.7819 87.1757 18.6097 82.9678 18.7477 80.8294C18.9546 77.8631 17.506 74.828 15.7815 72.4136C15.3676 71.9308 14.5398 71.8618 14.1949 72.3446ZM16.6092 80.2775C16.6092 81.5192 16.4023 82.7608 15.7815 83.8645C15.5055 84.3474 15.2296 84.6923 14.9537 85.0372C14.1259 83.0368 13.712 80.8983 13.5051 78.6909C13.2981 76.9664 13.9879 75.7937 14.8847 74.621C15.7815 76.3456 16.6782 78.415 16.6092 80.2775Z" fill="url(#paint27_linear_80_315)"/>
<path d="M14.6781 85.8652C13.2985 86.624 12.4707 86.9689 10.8152 87.1069C9.64249 87.1758 8.26287 87.4518 7.09018 87.6587C6.05546 87.7967 3.6411 88.4865 0.123047 88.9694C0.123047 88.9694 0.881847 89.7281 1.57166 90.0731L0.261018 91.5217C3.71009 92.0735 6.12444 90.0731 8.19389 89.8661C11.0221 89.5902 14.5402 89.7971 15.4369 86.417C15.5749 85.9342 15.023 85.7272 14.6781 85.8652Z" fill="url(#paint28_linear_80_315)"/>
<path d="M15.4365 87.0376C17.23 86.0719 19.5064 84.8992 20.4032 82.9677C20.8171 82.071 21.2999 77.6562 23.5073 75.8626L22.1277 75.5867L21.5759 73.9312C20.1962 74.483 19.0236 77.5872 18.8166 79.0358C18.6097 80.4154 18.3337 81.6571 17.575 82.8298C16.7472 84.0714 15.7124 84.8992 14.4018 85.589C13.4361 86.1409 14.4708 87.5205 15.4365 87.0376Z" fill="url(#paint29_linear_80_315)"/>
<path d="M5.36523 92.5562L18.8856 112.285C19.0926 112.561 19.5064 112.63 19.7824 112.423L37.1657 100.558C37.4416 100.351 37.5106 99.9373 37.3037 99.6613L23.7833 79.9326L5.36523 92.5562Z" fill="url(#paint30_linear_80_315)"/>
<path d="M24.336 79.5879L4.81424 92.9013C4.60729 93.0393 4.5383 93.3152 4.67627 93.5911L8.95313 99.7995C9.09109 100.006 9.36702 100.075 9.64294 99.9374L29.1647 86.624C29.3716 86.486 29.4406 86.2101 29.3027 85.9342L25.0258 79.7258C24.8878 79.5189 24.5429 79.4499 24.336 79.5879Z" fill="url(#paint31_linear_80_315)"/>
<path d="M17.9429 83.9739L11.2227 88.5664L25.0779 108.841L31.7982 104.249L17.9429 83.9739Z" fill="#FEBD5D"/>
<path d="M17.9156 83.9676L11.1953 88.5601L15.9824 95.565L22.7026 90.9725L17.9156 83.9676Z" fill="#EFAB50"/>
<path d="M135.672 277.702C136.017 278.185 136.707 278.185 137.328 278.323C138.293 278.53 139.19 279.22 140.018 279.772C142.915 281.634 146.364 282.462 149.675 283.221C150.227 283.359 150.779 283.497 151.331 283.359C151.883 283.29 152.366 282.876 152.504 282.324C152.573 281.634 152.021 281.082 151.469 280.668C147.606 277.564 143.605 274.115 142.087 269.425C141.949 268.873 141.812 268.321 141.536 267.907C139.949 265.217 136.569 266.734 135.948 269.149C135.465 270.528 134.913 276.737 135.672 277.702Z" fill="url(#paint32_linear_80_315)"/>
<path d="M71.7949 259.077C71.7949 260.25 73.7264 261.147 74.2783 262.181C76.1408 265.837 78.1412 270.045 79.9347 273.149C80.4176 273.977 83.5218 276.461 82.832 270.39C82.4181 266.941 80.2797 260.181 81.3144 257.215C81.7283 256.111 82.694 254.593 82.2801 253.559C81.8662 252.386 81.0384 251.282 79.7968 251.006C77.9343 250.593 77.5204 252.524 76.6236 253.628C75.313 255.214 71.7949 257.422 71.7949 259.077Z" fill="url(#paint33_linear_80_315)"/>
<path d="M103.388 217.068C102.837 218.792 86.6259 239.28 76.3477 252.938C77.3134 255.49 79.8657 257.077 82.3491 257.422C89.1092 250.248 114.701 229.346 116.978 221.482C120.703 208.652 118.771 198.305 122.634 185.543C126.704 196.442 128.912 210.859 130.843 222.31C133.188 236.176 133.395 251.972 135.258 269.839C137.051 270.183 142.363 270.321 142.501 268.528C145.881 227.898 144.225 201.064 139.466 171.609C139.328 170.712 123.117 166.987 116.426 166.09C113.805 165.745 105.734 170.436 103.25 171.126C103.25 171.126 104.078 214.722 103.388 217.068Z" fill="#AC294F"/>
<path d="M151.123 54.8921C150.64 52.8916 150.157 50.8222 150.847 48.8907C151.537 46.9592 153.124 45.6486 154.779 46.8213C155.607 47.4421 156.09 49.4426 156.297 50.4083C159.884 65.3083 157.883 86.0717 149.882 105.525C149.192 107.111 147.95 108.56 146.363 109.318C141.742 111.595 138.5 105.042 139.879 101.731C142.225 96.35 144.294 90.9694 146.156 86.0717C150.157 75.6555 153.124 62.9629 151.123 54.8921Z" fill="#FFB380"/>
<path d="M167.403 0.396724L71.8636 15.6416C69.5182 15.9865 67.9316 18.194 68.2766 20.6083L77.3821 77.794C77.727 80.1393 79.9344 81.7259 82.3488 81.381L177.888 66.1361C180.233 65.7912 181.82 63.5838 181.475 61.1694L172.301 3.91478C171.956 1.56941 169.748 -0.0171648 167.403 0.396724Z" fill="url(#paint34_linear_80_315)"/>
<path opacity="0.2" d="M180.371 54.3403L181.475 61.1005C181.82 63.4459 180.233 65.6533 177.888 66.0672L82.3488 81.3121C80.0034 81.657 77.796 80.0704 77.3821 77.7251L68.2766 20.5394C67.9316 18.194 69.5182 15.9866 71.8636 15.5727L76.7613 14.814L83.0386 54.1334C84.4182 62.7561 92.558 68.6885 101.181 67.3089L177.819 55.0991C178.716 54.9612 179.544 54.6853 180.371 54.3403Z" fill="url(#paint35_linear_80_315)"/>
<path d="M95.6624 24.8164L83.2457 26.8168C82.211 26.9548 81.5212 27.9205 81.6591 28.9553L83.0388 37.6469C83.1767 38.6816 84.1425 39.3715 85.1772 39.2335L97.5939 37.233C98.6286 37.0951 99.3184 36.1293 99.1804 35.0946L97.8008 26.4029C97.5939 25.3682 96.6281 24.6784 95.6624 24.8164Z" fill="url(#paint36_linear_80_315)"/>
<path d="M95.3868 35.9916L86.9021 37.3712C86.0054 37.5092 85.1776 36.8883 85.0396 35.9916L84.0739 30.0592C83.9359 29.1624 84.5568 28.3346 85.4535 28.1967L93.9382 26.817C94.835 26.6791 95.6628 27.2999 95.8007 28.1967L96.7665 34.1291C96.9044 34.9569 96.2836 35.8536 95.3868 35.9916ZM85.5225 28.8175C85.0396 28.8865 84.6947 29.3694 84.7637 29.8522L85.7294 35.7846C85.7984 36.2675 86.2813 36.6124 86.8331 36.5434L95.3179 35.1638C95.8007 35.0948 96.1456 34.612 96.0767 34.1291L95.1109 28.1967C95.0419 27.7138 94.5591 27.3689 94.0072 27.4379L85.5225 28.8175Z" fill="#D17B1E"/>
<path d="M98.2692 28.9586L82.125 31.5352L82.2337 32.2163L98.378 29.6398L98.2692 28.9586Z" fill="#D17B1E"/>
<path d="M98.8171 32.4796L82.6729 35.0562L82.7816 35.7373L98.9258 33.1608L98.8171 32.4796Z" fill="#D17B1E"/>
<path d="M154.02 54.1337C153.606 51.4434 154.71 48.8221 156.642 47.2355C155.469 46.7527 154.158 46.6147 152.848 46.8216C148.847 47.4425 146.088 51.2364 146.708 55.3064C147.329 59.3763 151.123 62.0665 155.193 61.4457C156.504 61.2388 157.676 60.6869 158.711 59.8591C156.297 58.9624 154.434 56.824 154.02 54.1337Z" fill="url(#paint37_linear_80_315)"/>
<path d="M160.16 45.6488C158.849 45.8557 157.607 46.4076 156.642 47.2354C159.056 48.1321 160.849 50.2705 161.332 52.9608C161.746 55.6511 160.643 58.2724 158.711 59.859C159.884 60.3418 161.194 60.4798 162.505 60.2729C166.506 59.652 169.265 55.858 168.644 51.7881C167.955 47.7872 164.161 45.0279 160.16 45.6488Z" fill="white"/>
<path d="M161.332 52.9608C160.918 50.2705 159.056 48.1321 156.641 47.2354C154.641 48.8219 153.537 51.4432 154.02 54.1335C154.434 56.8238 156.296 58.9622 158.711 59.859C160.642 58.2034 161.746 55.6511 161.332 52.9608Z" fill="#FFCE77"/>
<path d="M160.436 19.7805L133.533 24.0574C131.326 24.4023 129.187 22.8847 128.842 20.6773L128.773 20.3324C128.429 18.125 129.946 15.9865 132.154 15.6416L159.056 11.3648C161.264 11.0199 163.402 12.5375 163.747 14.7449L163.816 15.0898C164.23 17.2972 162.712 19.4356 160.436 19.7805Z" fill="url(#paint38_linear_80_315)"/>
<path d="M102.416 44.4087L86.749 46.9092L87.2709 50.1789L102.938 47.6785L102.416 44.4087Z" fill="white"/>
<path d="M124.348 40.8907L108.681 43.3911L109.202 46.6608L124.87 44.1604L124.348 40.8907Z" fill="white"/>
<path d="M146.292 37.438L130.625 39.9385L131.147 43.2082L146.814 40.7078L146.292 37.438Z" fill="white"/>
<path d="M168.225 33.9185L152.558 36.4189L153.079 39.6887L168.747 37.1882L168.225 33.9185Z" fill="white"/>
<path d="M91.6614 78.8977C92.2132 71.7236 94.6275 65.6532 92.903 61.1004C91.1785 56.4097 90.9715 54.5472 92.4202 55.237C92.972 55.5129 92.834 55.9268 93.8687 57.6513C95.4553 48.9597 97.9387 47.718 98.2146 48.8217C98.3526 49.5115 96.0762 54.2023 96.9039 54.4782C97.5248 54.6162 100.836 49.4426 101.526 49.6495C102.284 49.8565 99.0424 55.237 99.3183 55.4439C100.215 56.2027 103.457 50.7532 103.94 51.1671C104.906 51.9949 101.802 55.7889 101.319 56.8236C101.112 57.3064 104.975 54.3402 105.182 54.6851C105.941 55.6509 102.009 58.5481 101.802 58.962C97.6627 66.55 98.7664 72.6203 99.4563 81.174C100.077 88.693 100.353 92.2801 102.836 101.593C103.94 105.662 94.0757 113.526 92.903 106.628C91.1785 96.4189 90.7646 90.2796 91.6614 78.8977Z" fill="#FFB380"/>
<path d="M149.95 105.594C147.743 104.766 140.776 100.696 140.017 101.8C137.672 105.18 134.774 108.491 132.912 111.733C126.566 110.422 118.288 110.974 111.252 112.561C111.252 112.561 104.492 104.766 102.905 101.593C102.905 101.593 95.1791 105.801 92.9717 106.628C96.2138 122.701 101.249 129.599 103.181 133.186C103.043 146.5 103.526 163.262 103.25 171.126C109.251 173.678 130.98 174.161 139.465 171.609C139.465 171.609 140.224 148.017 139.189 130.565C142.086 125.529 148.019 112.975 149.95 105.594Z" fill="url(#paint39_linear_80_315)"/>
<path d="M115.321 115.182C117.874 117.458 124.703 118.079 128.428 116.217C129.118 115.872 129.876 115.251 129.945 114.492C129.945 114.147 129.876 113.871 129.807 113.595C128.98 110.905 127.945 108.353 126.772 105.801C125.324 102.834 116.149 99.6612 116.08 103.731C115.873 108.284 115.459 111.94 115.321 115.182Z" fill="#F78E69"/>
<path d="M127.256 109.25C128.635 109.043 130.084 108.56 130.981 107.456C131.601 106.766 131.946 105.869 132.222 104.904C133.257 100.558 131.532 96.143 129.808 92.0042C129.325 90.8315 128.083 87.7273 127.256 86.7616C123.876 82.8296 117.943 85.7268 115.598 86.8995C109.251 90.0037 108.631 95.6602 109.113 97.0398C110.631 101.662 113.459 105.249 117.598 106.973C120.909 108.56 123.048 109.939 127.256 109.25Z" fill="#FFB380"/>
<path d="M130.015 82.8296C129.739 82.6916 129.394 82.6227 129.049 82.4847C128.152 82.0708 127.945 80.9671 127.945 80.0014C127.945 79.0356 128.152 78.0699 127.738 77.1731C126.98 75.5176 124.289 75.5866 123.186 77.0352C122.427 76.4833 121.392 76.3453 120.495 76.6903C119.599 77.1041 118.978 77.9319 118.909 78.8977C118.012 78.0009 116.356 78.2768 115.391 79.0356C114.356 79.8634 113.735 81.0361 112.907 82.0018C112.149 82.8986 111.183 83.6574 110.355 84.5541C109.872 85.106 107.182 87.5203 109.044 90.7625C109.044 90.7625 107.941 91.7282 107.527 92.625C106.354 95.3842 108.493 100.213 110.424 102.558C114.08 107.042 116.563 106.835 117.598 107.042C116.356 104.766 115.529 103.179 115.529 103.179C115.529 103.179 113.321 104.214 112.149 101.179C110.493 96.9018 114.701 99.4541 114.701 99.4541C114.218 98.0745 113.045 94.9014 113.942 93.9356C116.081 93.1768 119.668 92.0731 122.634 90.9694C125.531 90.4176 128.083 89.1069 129.877 86.2787C130.222 85.7268 130.567 85.106 130.705 84.4852C130.843 83.9333 130.636 83.1745 130.015 82.8296Z" fill="url(#paint40_linear_80_315)"/>
<defs>
<linearGradient id="paint0_linear_80_315" x1="35.4585" y1="125.438" x2="74.0076" y2="125.438" gradientUnits="userSpaceOnUse">
<stop offset="0.00360327" stop-color="#F8EC3B"/>
<stop offset="1" stop-color="#F4855C"/>
</linearGradient>
<linearGradient id="paint1_linear_80_315" x1="37.8162" y1="125.437" x2="71.6505" y2="125.437" gradientUnits="userSpaceOnUse">
<stop stop-color="#FFD887"/>
<stop offset="1" stop-color="#FFB049"/>
</linearGradient>
<linearGradient id="paint2_linear_80_315" x1="31.3303" y1="60.6818" x2="64.8584" y2="60.6818" gradientUnits="userSpaceOnUse">
<stop offset="0.00360327" stop-color="#F8EC3B"/>
<stop offset="1" stop-color="#F4855C"/>
</linearGradient>
<linearGradient id="paint3_linear_80_315" x1="33.3806" y1="60.6817" x2="62.8079" y2="60.6817" gradientUnits="userSpaceOnUse">
<stop stop-color="#FFD887"/>
<stop offset="1" stop-color="#FFB049"/>
</linearGradient>
<linearGradient id="paint4_linear_80_315" x1="191.421" y1="35.3726" x2="229.967" y2="35.3726" gradientUnits="userSpaceOnUse">
<stop offset="0.00360327" stop-color="#F8EC3B"/>
<stop offset="1" stop-color="#F4855C"/>
</linearGradient>
<linearGradient id="paint5_linear_80_315" x1="193.779" y1="35.3725" x2="227.61" y2="35.3725" gradientUnits="userSpaceOnUse">
<stop stop-color="#FFD887"/>
<stop offset="1" stop-color="#FFB049"/>
</linearGradient>
<linearGradient id="paint6_linear_80_315" x1="190.144" y1="81.3877" x2="222.839" y2="81.3877" gradientUnits="userSpaceOnUse">
<stop offset="0.00360327" stop-color="#F8EC3B"/>
<stop offset="1" stop-color="#F4855C"/>
</linearGradient>
<linearGradient id="paint7_linear_80_315" x1="192.143" y1="81.3877" x2="220.839" y2="81.3877" gradientUnits="userSpaceOnUse">
<stop stop-color="#FFD887"/>
<stop offset="1" stop-color="#FFB049"/>
</linearGradient>
<linearGradient id="paint8_linear_80_315" x1="231.708" y1="84.8592" x2="256.718" y2="84.8592" gradientUnits="userSpaceOnUse">
<stop offset="0.00360327" stop-color="#F8EC3B"/>
<stop offset="1" stop-color="#F4855C"/>
</linearGradient>
<linearGradient id="paint9_linear_80_315" x1="233.237" y1="84.8591" x2="255.188" y2="84.8591" gradientUnits="userSpaceOnUse">
<stop stop-color="#FFD887"/>
<stop offset="1" stop-color="#FFB049"/>
</linearGradient>
<linearGradient id="paint10_linear_80_315" x1="19.6694" y1="230.722" x2="99.1716" y2="230.722" gradientUnits="userSpaceOnUse">
<stop stop-color="#F78D97"/>
<stop offset="1" stop-color="#EE5291"/>
</linearGradient>
<linearGradient id="paint11_linear_80_315" x1="25.6461" y1="212.878" x2="73.1598" y2="212.878" gradientUnits="userSpaceOnUse">
<stop stop-color="#F38A98"/>
<stop offset="0.9964" stop-color="#6C3392"/>
</linearGradient>
<linearGradient id="paint12_linear_80_315" x1="176.817" y1="178.142" x2="237.458" y2="178.142" gradientUnits="userSpaceOnUse">
<stop stop-color="#F78D97"/>
<stop offset="1" stop-color="#EE5291"/>
</linearGradient>
<linearGradient id="paint13_linear_80_315" x1="157.847" y1="228.13" x2="225.164" y2="228.13" gradientUnits="userSpaceOnUse">
<stop stop-color="#FFD887"/>
<stop offset="1" stop-color="#FFB049"/>
</linearGradient>
<linearGradient id="paint14_linear_80_315" x1="258.26" y1="114.536" x2="264.427" y2="114.536" gradientUnits="userSpaceOnUse">
<stop stop-color="#F78D97"/>
<stop offset="1" stop-color="#EE5291"/>
</linearGradient>
<linearGradient id="paint15_linear_80_315" x1="260.453" y1="118.768" x2="272.668" y2="118.768" gradientUnits="userSpaceOnUse">
<stop stop-color="#F78D97"/>
<stop offset="1" stop-color="#EE5291"/>
</linearGradient>
<linearGradient id="paint16_linear_80_315" x1="254.381" y1="114.022" x2="261.32" y2="114.022" gradientUnits="userSpaceOnUse">
<stop stop-color="#F78D97"/>
<stop offset="1" stop-color="#EE5291"/>
</linearGradient>
<linearGradient id="paint17_linear_80_315" x1="260.236" y1="122.041" x2="272.144" y2="122.041" gradientUnits="userSpaceOnUse">
<stop stop-color="#F78D97"/>
<stop offset="1" stop-color="#EE5291"/>
</linearGradient>
<linearGradient id="paint18_linear_80_315" x1="239.98" y1="126.57" x2="267.518" y2="126.57" gradientUnits="userSpaceOnUse">
<stop stop-color="#FFD887"/>
<stop offset="1" stop-color="#FFB049"/>
</linearGradient>
<linearGradient id="paint19_linear_80_315" x1="248.778" y1="121.932" x2="267.997" y2="121.932" gradientUnits="userSpaceOnUse">
<stop offset="0.00360327" stop-color="#F8EC3B"/>
<stop offset="1" stop-color="#F4855C"/>
</linearGradient>
<linearGradient id="paint20_linear_80_315" x1="256.501" y1="32.7532" x2="264.228" y2="32.7532" gradientUnits="userSpaceOnUse">
<stop offset="0.00360327" stop-color="#F8EC3B"/>
<stop offset="1" stop-color="#F4855C"/>
</linearGradient>
<linearGradient id="paint21_linear_80_315" x1="261.607" y1="35.7518" x2="274.589" y2="35.7518" gradientUnits="userSpaceOnUse">
<stop offset="0.00360327" stop-color="#F8EC3B"/>
<stop offset="1" stop-color="#F4855C"/>
</linearGradient>
<linearGradient id="paint22_linear_80_315" x1="250.218" y1="33.511" x2="262.661" y2="33.511" gradientUnits="userSpaceOnUse">
<stop offset="0.00360327" stop-color="#F8EC3B"/>
<stop offset="1" stop-color="#F4855C"/>
</linearGradient>
<linearGradient id="paint23_linear_80_315" x1="261.361" y1="39.8765" x2="276.239" y2="39.8765" gradientUnits="userSpaceOnUse">
<stop offset="0.00360327" stop-color="#F8EC3B"/>
<stop offset="1" stop-color="#F4855C"/>
</linearGradient>
<linearGradient id="paint24_linear_80_315" x1="241.688" y1="49.6142" x2="272.172" y2="49.6142" gradientUnits="userSpaceOnUse">
<stop stop-color="#F37D6B"/>
<stop offset="1" stop-color="#E52581"/>
</linearGradient>
<linearGradient id="paint25_linear_80_315" x1="247.453" y1="42.4389" x2="273.003" y2="42.4389" gradientUnits="userSpaceOnUse">
<stop stop-color="#F78D97"/>
<stop offset="1" stop-color="#EE5291"/>
</linearGradient>
<linearGradient id="paint26_linear_80_315" x1="2.24004" y1="84.5346" x2="15.7959" y2="84.5346" gradientUnits="userSpaceOnUse">
<stop stop-color="#FFD887"/>
<stop offset="1" stop-color="#FFB049"/>
</linearGradient>
<linearGradient id="paint27_linear_80_315" x1="11.5266" y1="79.4351" x2="18.6879" y2="79.4351" gradientUnits="userSpaceOnUse">
<stop stop-color="#FFD887"/>
<stop offset="1" stop-color="#FFB049"/>
</linearGradient>
<linearGradient id="paint28_linear_80_315" x1="0.0874524" y1="88.7067" x2="15.4404" y2="88.7067" gradientUnits="userSpaceOnUse">
<stop stop-color="#FFD887"/>
<stop offset="1" stop-color="#FFB049"/>
</linearGradient>
<linearGradient id="paint29_linear_80_315" x1="14.0426" y1="80.5077" x2="23.5106" y2="80.5077" gradientUnits="userSpaceOnUse">
<stop stop-color="#FFD887"/>
<stop offset="1" stop-color="#FFB049"/>
</linearGradient>
<linearGradient id="paint30_linear_80_315" x1="5.3453" y1="96.2783" x2="37.4484" y2="96.2783" gradientUnits="userSpaceOnUse">
<stop stop-color="#F78D97"/>
<stop offset="1" stop-color="#B268A7"/>
</linearGradient>
<linearGradient id="paint31_linear_80_315" x1="4.63157" y1="89.768" x2="29.3474" y2="89.768" gradientUnits="userSpaceOnUse">
<stop stop-color="#F38A98"/>
<stop offset="0.9964" stop-color="#6C3392"/>
</linearGradient>
<linearGradient id="paint32_linear_80_315" x1="135.293" y1="274.953" x2="152.476" y2="274.953" gradientUnits="userSpaceOnUse">
<stop stop-color="#F38A98"/>
<stop offset="0.9964" stop-color="#6C3392"/>
</linearGradient>
<linearGradient id="paint33_linear_80_315" x1="71.78" y1="262.652" x2="82.9158" y2="262.652" gradientUnits="userSpaceOnUse">
<stop stop-color="#F38A98"/>
<stop offset="0.9964" stop-color="#6C3392"/>
</linearGradient>
<linearGradient id="paint34_linear_80_315" x1="68.2413" y1="40.8481" x2="181.512" y2="40.8481" gradientUnits="userSpaceOnUse">
<stop stop-color="#F38A98"/>
<stop offset="0.9964" stop-color="#6C3392"/>
</linearGradient>
<linearGradient id="paint35_linear_80_315" x1="68.2386" y1="48.1045" x2="181.512" y2="48.1045" gradientUnits="userSpaceOnUse">
<stop stop-color="#F38A98"/>
<stop offset="0.9964" stop-color="#6C3392"/>
</linearGradient>
<linearGradient id="paint36_linear_80_315" x1="81.6507" y1="32.0442" x2="99.2007" y2="32.0442" gradientUnits="userSpaceOnUse">
<stop stop-color="#FFD887"/>
<stop offset="1" stop-color="#FFB049"/>
</linearGradient>
<linearGradient id="paint37_linear_80_315" x1="146.62" y1="54.1153" x2="158.672" y2="54.1153" gradientUnits="userSpaceOnUse">
<stop stop-color="#F37D6B"/>
<stop offset="1" stop-color="#E52581"/>
</linearGradient>
<linearGradient id="paint38_linear_80_315" x1="128.76" y1="17.7138" x2="163.91" y2="17.7138" gradientUnits="userSpaceOnUse">
<stop offset="0.00360327" stop-color="#F8EC3B"/>
<stop offset="1" stop-color="#F4855C"/>
</linearGradient>
<linearGradient id="paint39_linear_80_315" x1="92.9442" y1="137.433" x2="149.933" y2="137.433" gradientUnits="userSpaceOnUse">
<stop stop-color="#F37D6B"/>
<stop offset="1" stop-color="#E52581"/>
</linearGradient>
<linearGradient id="paint40_linear_80_315" x1="107.274" y1="91.5602" x2="130.787" y2="91.5602" gradientUnits="userSpaceOnUse">
<stop stop-color="#F38A98"/>
<stop offset="0.9964" stop-color="#6C3392"/>
</linearGradient>
</defs>
</svg>
