<svg width="672" height="672" viewBox="0 0 672 672" fill="none" xmlns="http://www.w3.org/2000/svg">
<path d="M349.39 134.451L349.776 146.016L348.3 144.552L348.076 144.821C347.567 145.33 346.987 145.555 346.372 145.897C345.85 146.188 346.034 146.075 345.607 146.621C345.255 145.166 344.55 141.172 345.272 139.945C345.916 140.237 345.688 140.196 346.306 140.274C346.963 140.357 347.608 140.355 348.231 140.604C348.729 140.803 348.303 140.718 348.961 140.771L349.086 138.676C349.052 137.271 349.254 135.849 349.39 134.451Z" fill="#FFCA8A"/>
<path d="M345.606 146.622C346.033 146.075 345.849 146.188 346.371 145.898C346.987 145.555 347.566 145.331 348.075 144.821L348.299 144.552L349.776 146.016L351.095 151.257C349.863 151.729 348.221 152.131 347.231 152.991L345.606 146.622Z" fill="#FEBB47"/>
<path d="M163.412 525.842C165.252 524.015 166.538 521.619 168.052 519.527C171.349 514.976 174.64 510.458 177.548 505.641C179.174 502.945 180.867 499.928 181.385 496.793L182.102 493.058C183.447 499.041 179.707 504.87 176.643 509.713C174.902 512.468 166.523 525.593 164.883 526.127L163.412 525.842Z" fill="#FC4091"/>
<path d="M518.082 259.055C518.936 258.964 519.083 259.028 519.873 259.383C520.512 260.233 520.932 261.075 520.912 262.17C520.869 264.483 518.164 267.368 516.633 268.939L515.807 269.277C514.946 268.82 514.217 268.03 513.928 267.072C513.424 265.406 513.943 263.285 514.689 261.771C515.432 260.264 516.511 259.529 518.082 259.055Z" fill="white"/>
<path d="M472.25 191.1C474.049 193.075 475.982 194.755 478.042 196.451C476.191 197.781 474.602 199.211 472.992 200.822L472.476 201.291C470.819 200.668 468.583 197.745 467.27 196.408C469.04 194.935 470.598 193.423 471.939 191.542L472.25 191.1Z" fill="white"/>
<path d="M238.3 114.679L239.367 114.419C240.453 114.309 241.56 114.686 242.266 115.539C242.89 116.293 243.164 117.275 242.928 118.221C242.381 120.414 240.038 121.785 238.27 122.932L236.906 123.266C236.023 123.356 235.109 123.209 234.503 122.495C233.846 121.722 233.501 120.502 233.752 119.51C234.311 117.297 236.397 115.713 238.3 114.679Z" fill="white"/>
<path d="M228.109 216.627C230.055 219.541 230.904 220.809 234.043 222.559C231.729 224.217 229.98 226.318 228.237 228.539C228.018 228.563 227.79 228.679 227.58 228.613C227.361 228.544 225.83 226.493 225.543 226.148C224.464 224.858 223.216 223.86 221.909 222.817L223.447 221.742C225.467 220.342 226.714 218.611 228.109 216.627Z" fill="white"/>
<path d="M512.732 451.664C513.248 451.555 513.71 451.479 514.239 451.551C515.945 451.783 517.235 452.663 518.173 454.104C518.798 455.061 518.985 456.483 518.66 457.583C518.234 459.017 516.57 460.087 515.312 460.717L514.862 460.754L513.139 460.833C511.892 460.682 510.898 459.781 510.205 458.777C509.468 457.711 509.338 456.074 509.687 454.845C510.109 453.362 511.428 452.337 512.732 451.664Z" fill="white"/>
<path d="M577.488 380.461C578.534 380.291 579.569 380.18 580.558 380.63C581.791 381.19 582.631 382.343 583.088 383.593C583.496 384.712 583.428 385.944 582.908 387.02C582.312 388.253 581.189 389.011 579.961 389.484C579.14 389.555 578.227 389.621 577.413 389.482C576.299 389.293 575.262 388.425 574.693 387.461C573.954 386.208 573.816 384.498 574.394 383.142C574.947 381.846 576.26 381.01 577.488 380.461Z" fill="white"/>
<path d="M128.598 379.912C130.428 384.06 132.551 385.62 136.295 387.953L135.352 388.505C132.217 390.25 130.759 392.704 129.113 395.774C126.859 392.592 125.783 390.373 122.04 388.604L121.571 388.385C122.623 387.5 123.866 386.754 124.852 385.809C126.647 384.088 127.616 382.137 128.598 379.912Z" fill="white"/>
<path d="M548.348 222.664C549.284 224.534 550.187 226.653 551.608 228.211C552.909 229.637 554.865 230.689 556.419 231.842C552.031 234.152 550.653 236.385 548.36 240.669C545.942 236.306 544.302 234.161 539.897 231.598C544.51 229.28 546.075 227.217 548.348 222.664Z" fill="white"/>
<path d="M118.444 433.305C122.256 434.692 125.49 437.453 127.197 441.182C128.88 444.86 128.924 449.248 127.477 453.009C125.957 456.956 122.807 460.222 118.945 461.947C116.059 463.236 112.864 463.625 109.758 463.086L109.22 462.995C105.516 462.323 101.767 460.206 99.5959 457.104C99.0256 456.289 98.599 455.386 98.1816 454.486C99.2815 454.908 100.056 455.852 101.013 456.504C102.624 457.604 105.021 458.494 106.966 458.666C111.267 459.046 116.272 457.767 119.51 454.849C122.203 452.421 123.51 448.826 123.727 445.266C124.067 439.72 121.966 437.334 118.444 433.305Z" fill="#FE9002"/>
<path d="M516.824 507.376C519.557 505.382 523.347 503.758 526.805 504.415C530.453 505.107 533.522 507.498 535.462 510.608C537.466 513.819 537.894 517.565 537.014 521.224C536.024 525.333 533.493 529.111 529.82 531.29C524.477 534.459 518.501 534.654 512.695 536.362C509.507 537.299 506.695 538.966 503.858 540.656C503.534 539.789 503.186 538.937 502.952 538.04C503.893 536.22 504.878 534.046 506.378 532.628C507.883 531.207 510.463 530.837 512.398 530.386C516.583 529.408 520.813 528.809 524.822 527.183C528.285 525.78 531.181 523.138 532.57 519.633C533.846 516.415 533.848 513.032 532.41 509.879C531.477 507.834 529.488 506.371 527.415 505.62C525.181 504.812 523.634 504.744 521.44 505.727C520.366 506.08 517.689 507.584 516.824 507.376Z" fill="#C5104B"/>
<path d="M569.352 431.551C572.598 434.577 574.171 438.513 574.298 442.922C574.442 447.916 572.827 452.339 569.316 455.93C566.138 459.178 561.902 460.736 557.4 460.724C555.796 460.72 554.415 460.612 552.87 460.141L552.37 459.993C548.225 458.735 544.426 455.881 542.363 452.033C540.225 448.044 539.644 443.023 540.995 438.68C541.543 436.914 542.45 435.337 543.506 433.83C543.133 436.348 542.526 438.95 542.849 441.503C543.351 445.458 545.534 449.244 548.704 451.662C551.504 453.798 555.628 454.781 559.097 454.26L559.617 454.177L561.75 453.759C565.677 452.51 568.843 449.527 570.535 445.804C572.778 440.87 571.17 436.294 569.352 431.551Z" fill="#FE9002"/>
<path d="M577.606 323.599C579.629 323.582 581.321 324.123 583.113 325.029C585.228 326.097 587.135 328.818 587.78 331.031C588.485 333.453 587.841 336.373 586.556 338.487C584.894 341.223 582.737 342.208 579.695 342.912C577.343 342.868 575.318 342.805 573.236 341.536C570.891 340.107 569.348 337.357 568.878 334.703C568.445 332.255 568.849 329.679 570.327 327.633C572.188 325.059 574.606 324.171 577.606 323.599Z" fill="#EE8D9C"/>
<path d="M474.491 82.5234C475.339 83.2591 476.371 86.8908 476.959 88.0464C477.715 89.5309 478.744 90.9005 479.853 92.1395C481.48 93.9566 483.252 95.1143 485.399 96.199C486.441 96.7253 487.876 97.2116 488.691 98.0365L483.985 100.112C478.367 103.134 476.616 108.044 474.774 113.758C472.706 109.26 470.017 102.704 465.383 100.272C463.761 99.4206 461.697 98.9973 459.977 98.3017C461.46 96.9964 463.762 96.4025 465.483 95.4089C469.818 92.9047 473.118 87.6277 474.388 82.9172L474.491 82.5234Z" fill="white"/>
<path d="M522.941 148.74C527.025 150.34 530.375 153.631 532.15 157.664C533.728 161.25 534.03 165.431 532.605 169.114C530.895 173.529 527.299 176.861 522.991 178.703C519.029 180.397 514.82 180.074 510.902 178.4C507.02 176.741 504.109 174.12 502.238 170.344C504.74 171.523 507.402 172.895 510.176 173.282L510.562 173.329C511.837 173.501 512.943 173.475 514.219 173.261C518.082 172.61 521.813 170.284 523.992 167.016C525.663 164.511 527.082 159.73 526.398 156.757C526.257 156.145 526.305 156.569 526.262 155.997C526.054 153.28 524.46 150.926 522.941 148.74Z" fill="#FE9002"/>
<path d="M108.354 218.5L110.26 223.453C113.067 229.584 117.924 232.371 123.984 234.715L119.704 236.748C116.184 238.531 113.062 240.843 111.212 244.428C110.082 246.62 109.42 249.199 108.666 251.547L107.03 247.824C103.382 240.404 99.608 237.829 92.0283 235.15C96.7448 233.106 101.766 231.112 104.703 226.642C106.283 224.237 107.287 221.169 108.354 218.5Z" fill="white"/>
<path d="M270.797 119.196L272.939 120.173C275.993 121.846 278.409 125.806 279.262 129.045C280.255 132.807 279.17 136.556 277.365 139.864L277.158 140.254C273.429 146.998 263.579 148.557 256.887 150.888C252.433 152.439 247.822 154.764 244.667 158.343C244.571 156.608 244.56 154.749 244.033 153.083C241.437 144.874 233.612 139.217 231.159 131.014C232.186 131.777 232.825 133.066 233.677 134.034C237.004 137.811 240.99 140.295 245.878 141.512C252.069 143.054 259.431 142.204 264.889 138.808C268.813 136.366 272.045 132.115 272.933 127.543C273.582 124.202 272.631 121.881 270.797 119.196Z" fill="#FE64AE"/>
<path d="M502.238 170.344C500.646 167.061 500.102 162.529 501.188 158.996L501.355 158.484C501.638 157.582 501.934 156.777 502.378 155.937C504.314 152.277 507.631 149.536 511.609 148.379L512.203 148.212C515.75 147.174 519.497 147.516 522.941 148.739C524.46 150.926 526.054 153.279 526.262 155.997C526.305 156.569 526.257 156.145 526.398 156.757C527.082 159.73 525.663 164.51 523.993 167.015C521.813 170.284 518.082 172.61 514.219 173.26C512.943 173.475 511.837 173.501 510.562 173.329L510.176 173.281C507.403 172.895 504.74 171.523 502.238 170.344Z" fill="#FED703"/>
<path d="M168.906 482.845C173.076 483.41 176.524 483.935 179.261 487.49C180.472 489.064 181.627 491.117 182.102 493.058L181.385 496.793C180.867 499.928 179.174 502.946 177.548 505.641C174.64 510.458 171.349 514.976 168.052 519.528C166.538 521.619 165.252 524.015 163.412 525.842C162.924 525.427 162.337 525.228 161.766 524.944C157.356 522.754 153.139 520.267 148.938 517.707C145.113 515.377 140.754 512.887 138.051 509.226C137.083 507.914 136.538 506.263 136.016 504.736L136.305 504.746C140.017 509.12 144.42 511.744 150.136 512.637C154.784 513.363 159.267 512.085 163.057 509.322C167.698 505.94 171.103 500.059 171.865 494.38C172.445 490.058 171.5 486.364 168.906 482.845Z" fill="#FE64AE"/>
<path d="M349.086 138.676C347.756 138.025 346.169 137.942 344.714 137.733C343.86 133.006 344.059 127.509 345.089 122.8C348.465 107.35 357.359 94.5586 370.77 86.0575C381.457 79.2831 393.715 76.5176 406.298 78.5205C409.969 79.1046 413.405 80.3921 416.997 81.1219L417.365 81.1849L420.346 82.5354C420.065 82.6713 419.814 82.9167 419.503 82.943C418.403 83.0362 416.465 82.332 415.266 82.1863C412.122 81.8057 409.031 81.5865 405.864 81.5576C390.365 81.4165 373.9 88.5762 363.499 100.104C358.356 105.804 354.349 113.039 351.85 120.282C350.284 124.819 349.421 129.644 349.39 134.451C349.253 135.849 349.051 137.271 349.086 138.676Z" fill="white"/>
<path d="M98.1816 454.486C96.5161 451.119 95.9694 447.658 96.9551 444.013L97.1113 443.461L97.6166 441.732C98.9659 437.885 101.874 435.011 105.557 433.379C109.788 431.503 114.184 431.685 118.444 433.305C121.966 437.334 124.067 439.72 123.727 445.265C123.51 448.826 122.203 452.421 119.51 454.849C116.272 457.767 111.267 459.046 106.966 458.666C105.021 458.494 102.624 457.604 101.013 456.504C100.056 455.852 99.2815 454.908 98.1816 454.486Z" fill="#FED703"/>
<path d="M543.506 433.83C544.256 432.654 545.259 431.482 546.278 430.531C549.509 427.514 553.524 426.046 557.92 426.199C562.302 426.352 566.381 428.406 569.352 431.55C571.17 436.293 572.779 440.869 570.535 445.804C568.843 449.526 565.677 452.51 561.75 453.759L559.617 454.177L559.097 454.26C555.629 454.781 551.504 453.798 548.705 451.662C545.534 449.244 543.351 445.458 542.85 441.502C542.526 438.95 543.133 436.348 543.506 433.83Z" fill="#FED703"/>
<path d="M319.37 169.038C331.13 173.391 341.658 181.27 347.022 192.972C352.015 203.863 352.761 216.849 348.494 228.118C344.409 238.909 336.288 247.333 325.796 252.065C315.46 256.726 302.369 257.467 291.735 253.32C287.817 251.792 283.491 249.68 280.257 246.975C279.984 246.341 279.73 245.942 279.229 245.474L278.741 245.027L279.215 244.733C279.768 244.727 280.149 244.732 280.665 244.499L280.993 244.326C281.182 244.472 281.431 244.682 281.651 244.767C283.737 245.572 285.501 246.828 287.547 247.776C294.472 250.987 301.909 252.162 309.492 251.125C320.475 249.622 330.647 243.915 337.332 234.978C343.164 227.18 347.145 215.114 345.649 205.286C344.436 197.317 342.136 191.273 337.327 184.734C332.733 178.488 326.677 174.72 319.852 171.32C319.527 170.564 319.46 169.845 319.37 169.038Z" fill="url(#paint0_linear_84_1717)"/>
<path d="M498.192 221.897C502.537 224.658 505.205 229.697 506.314 234.609C506.858 237.024 506.981 239.211 506.662 241.664L506.581 242.314C505.77 248.524 501.721 254.312 496.806 258.043C491.521 262.054 485.125 264.505 478.734 266.116C474.417 267.204 470.052 267.926 466.227 270.362C463.761 271.932 461.996 274.096 460.323 276.452C459.521 273.697 458.736 270.871 457.406 268.317C454.272 262.297 449.28 257.309 444.959 252.127C442.967 249.737 440.893 247.356 439.526 244.537C440.906 244.772 444.241 247.826 445.672 248.706C449.246 250.903 453.035 252.373 457.062 253.503C467.328 256.384 480.56 256.562 490.057 251.145C495.18 248.222 499.15 243.497 500.681 237.738L500.81 237.234C501.753 233.664 501.741 229.28 500.171 225.888C499.625 224.709 498.589 223.567 498.271 222.337L498.192 221.897Z" fill="#C5104B"/>
<path d="M139.471 258.374C141.451 257.648 143.25 257.299 145.352 257.124C150.332 256.708 155.768 258.659 159.559 261.883C163.115 264.907 165.379 269.503 165.7 274.148C166.427 284.726 161.345 292.005 154.58 299.672C148.746 306.283 141.661 312.049 138.732 320.634C138.496 321.326 138.616 321.029 138.253 321.726C130.013 309.806 114.004 309.877 103.665 300.674C104.789 300.256 106.004 300.761 107.144 300.949C108.95 301.246 110.802 301.361 112.629 301.434C119.784 301.719 127.471 300.738 134.036 297.759C140.964 294.616 146.761 288.724 149.356 281.508C151.403 275.818 151.528 268.554 148.868 263.064C147.519 260.28 145.891 258.957 142.797 258.879C141.831 258.854 140.718 258.992 139.822 258.587L139.471 258.374Z" fill="#C5104B"/>
<path d="M502.952 538.04C501.789 535.495 500.47 533.078 498.71 530.886C494.812 526.031 490.215 522.378 487.915 516.383C486.482 512.646 486.815 507.752 488.498 504.152C490.248 500.405 493.667 497.647 497.546 496.327C501.113 495.113 504.792 495.687 508.097 497.327C511.673 499.1 514.076 502.636 515.37 506.314L515.983 507.636L516.823 507.376C517.688 507.584 520.366 506.08 521.439 505.727C523.633 504.743 525.181 504.812 527.415 505.62C529.488 506.371 531.477 507.834 532.409 509.879C533.847 513.032 533.846 516.415 532.569 519.633C531.18 523.138 528.284 525.78 524.822 527.183C520.813 528.809 516.583 529.408 512.397 530.386C510.462 530.837 507.882 531.207 506.378 532.628C504.877 534.046 503.892 536.22 502.952 538.04Z" fill="#E32168"/>
<path d="M491.355 504.669C491.607 503.151 491.639 501.513 492.787 500.406C493.549 499.671 494.068 499.114 494.977 498.579L495.449 498.254C496.391 497.629 497.474 497.455 498.525 497.075C499.862 496.592 503.221 496.181 504.532 496.747L504.821 496.899C506.116 497.354 507.218 497.514 508.433 498.258L508.873 498.512C510.005 499.201 511.033 500.458 511.74 501.539L514.02 504.99C514.357 505.496 514.599 505.99 514.85 506.543L515.371 506.314L515.984 507.636L516.824 507.376C517.689 507.584 520.367 506.08 521.44 505.727C521.466 506.075 521.507 506.241 521.373 506.611C520.786 508.233 519.093 510.166 518.188 511.702C515.419 516.4 513.319 522.651 507.491 524.374C504.148 525.363 501.391 524.726 498.422 522.998C493.41 520.079 491.183 516.362 489.647 510.891C489.493 510.345 489.46 510.376 489.399 509.794C489.152 507.447 489.509 504.994 491.122 503.178L491.204 503.836L490.958 504.41L491.2 504.989L491.355 504.669Z" fill="#FC4091"/>
<path d="M491.354 504.669C492.215 503.555 492.946 502.507 494.156 501.745C495.147 501.645 495.216 501.573 496.044 502.099C496.292 504.035 495.124 506.24 493.992 507.777L492.351 509.566L491.672 509.414C490.766 507.791 490.84 506.77 491.199 504.989L491.354 504.669Z" fill="#EE8D9C"/>
<path d="M417.366 81.1849L418.061 81.1606C419.798 81.1869 421.68 82.0722 423.287 82.7015C431.239 85.8154 438.397 90.6992 444.221 96.9612C454.431 107.939 459.583 122.766 458.874 137.737C458.148 153.076 451.534 167.001 440.18 177.372C429.429 187.192 414.785 192.896 400.183 192.149C383.911 191.316 369.706 184.51 358.801 172.374C355.18 168.344 351.912 163.764 349.635 158.827C348.767 156.944 348.173 154.808 347.231 152.991C348.222 152.131 349.864 151.729 351.096 151.257C354.155 160.526 359.577 168.18 367.327 174.113C378.141 182.392 391.314 186.752 405.006 184.849C407.602 184.489 410.134 184.082 412.638 183.286C426.745 178.808 438.684 169.49 445.55 156.299C451.924 144.057 453.78 129.322 449.532 116.06C444.647 100.805 434.555 89.7759 420.347 82.5355L417.366 81.1849Z" fill="url(#paint1_linear_84_1717)"/>
<path d="M549.973 264.443C553.221 261.855 557.476 259.792 561.76 260.272L562.734 260.422L563.305 260.51C565.525 260.878 567.672 261.716 569.585 262.896L570.028 263.165C574.229 265.797 576.483 270.363 577.849 274.969L578.01 275.497C579.68 281.327 577.855 288.797 574.956 293.947C569.901 302.931 560.254 307.757 551.358 312.106C547.744 313.872 543.843 315.657 540.727 318.236C537.455 320.945 535.286 324.133 533.348 327.868C533.037 326.909 533.232 325.636 533.165 324.609C533.086 323.4 532.667 322.237 532.176 321.14C530.544 317.497 527.444 314.095 524.737 311.206C519.855 305.996 514.409 301.012 510.517 294.985C507.974 291.047 506.434 287.023 505.081 282.562C505.577 282.839 505.913 283.045 506.286 283.482L508.702 286.013C515.762 293.005 525.596 296.758 535.5 296.585C545.301 296.415 555.827 292.591 562.614 285.362C566.347 281.385 568.574 276.724 568.29 271.195C568.161 268.667 567.43 266.322 565.488 264.606C562.532 261.994 557.431 261.614 553.878 263.011C552.806 263.432 551.586 264.472 550.427 264.467L549.973 264.443Z" fill="#FE64AE"/>
<path d="M186.122 151.812C189.399 150.131 192.767 149.035 196.454 148.689C198.936 148.456 201.522 148.571 203.93 149.206L204.484 149.346C210.537 150.917 215.331 154.802 218.439 160.186C221.818 166.039 222.809 172.405 221.066 178.992C218.383 189.122 211.057 197.351 204.13 204.862C198.146 211.351 191.693 217.8 189.73 226.705L189.467 226.291C183.281 216.644 169.486 213.243 159.828 208.157C154.761 205.49 150.228 202.244 146.39 197.98C148.581 198.549 150.54 199.699 152.742 200.301C159.832 202.242 169.153 202.562 176.37 201.224C184.819 199.657 192.96 195.056 197.809 187.783L198.117 187.311C202.564 180.695 205.237 171.888 203.773 163.899C203.094 160.195 200.851 156.06 197.647 153.966C194.583 151.963 190.88 151.356 187.309 152.088C186.848 152.183 186.557 151.973 186.122 151.812Z" fill="#C5104B"/>
<path d="M103.665 300.674C101.923 299.151 100.459 297.498 99.2156 295.537C96.1443 290.696 94.5208 284.118 95.9626 278.487C97.2068 273.629 99.5759 269.998 103.948 267.468C108.16 265.032 113.557 264.586 118.213 265.911L118.781 266.079C122.029 267.009 124.352 268.334 127.082 270.307C129.927 265.023 133.574 260.396 139.471 258.374L139.822 258.587C140.717 258.992 141.831 258.854 142.797 258.879C145.891 258.957 147.519 260.28 148.867 263.064C151.528 268.554 151.403 275.818 149.356 281.508C146.761 288.724 140.964 294.616 134.036 297.76C127.47 300.738 119.784 301.719 112.629 301.434C110.802 301.361 108.95 301.246 107.144 300.949C106.004 300.761 104.788 300.256 103.665 300.674Z" fill="#E32168"/>
<path d="M106.011 272.711C106.867 272.678 107.934 272.563 108.774 272.734C109.627 272.909 110.445 273.548 110.9 274.286C111.588 275.404 111.581 276.687 111.245 277.922C110.72 279.849 107.568 283.003 105.821 283.938C105.074 284.175 103.988 284.272 103.236 284.04C102.293 283.749 101.493 282.926 101.031 282.072C100.358 280.828 100.344 279.416 100.747 278.086C101.584 275.326 103.588 273.996 106.011 272.711Z" fill="#EE8D9C"/>
<path d="M220.621 491.229L221.172 491.604C223.293 493.076 225.186 495.076 227.151 496.762C231.273 500.296 235.458 503.713 239.908 506.828C246.607 511.518 253.629 515.783 260.878 519.565C264.197 521.297 267.738 522.673 270.978 524.537C270.978 530.276 271.206 536.394 270.406 542.081C269.814 548.184 269.119 554.584 266.229 560.092C264.72 561.912 263.193 563.672 260.695 564.04C257.218 564.551 254.429 563.212 251.601 561.326C247.467 557.67 244.463 553.667 241.615 548.979C233.33 534.745 227.195 518.304 223.06 502.375L220.621 491.229Z" fill="#FC4091"/>
<path d="M241.615 548.979C251.342 547.51 261.208 545.648 270.406 542.081C269.814 548.184 269.119 554.584 266.229 560.092C264.72 561.912 263.194 563.672 260.696 564.04C257.218 564.551 254.43 563.212 251.601 561.326C247.468 557.67 244.463 553.667 241.615 548.979Z" fill="#3D1A4F"/>
<path d="M439.526 244.537C437.88 242.256 436.665 238.905 436.112 236.153L436.005 235.594C435.066 230.877 435.28 225.892 437.324 221.464C439.339 217.099 443.091 213.586 447.652 212.005C452.454 210.34 458.193 210.324 462.791 212.651C469.718 216.155 471.089 222.64 473.406 229.346C475.278 227.118 477.124 224.856 479.405 223.028C482.876 220.246 486.816 218.81 491.289 219.39L491.859 219.471C494.191 219.785 496.294 220.477 498.192 221.897L498.27 222.337C498.589 223.567 499.625 224.709 500.171 225.889C501.741 229.281 501.753 233.665 500.809 237.235L500.681 237.738C499.15 243.497 495.18 248.223 490.057 251.145C480.56 256.562 467.328 256.385 457.062 253.504C453.035 252.374 449.246 250.904 445.672 248.706C444.241 247.826 440.906 244.772 439.526 244.537Z" fill="#FC4091"/>
<path d="M447.36 215.742C447.709 215.637 447.816 215.591 448.223 215.55C449.502 215.424 449.876 215.611 450.857 216.398C451.096 217.073 451.366 217.763 451.399 218.487C451.518 221.087 448.324 223.852 446.642 225.546C445.927 225.985 445.79 225.996 444.946 226.006C444.627 225.712 444.288 225.42 444.036 225.063C443.192 223.863 443.155 222.005 443.515 220.638C444.102 218.406 445.377 216.848 447.36 215.742Z" fill="#FFB4D5"/>
<path d="M492.463 404.909C502.822 403.527 511.789 399.626 518.334 391.134C520.195 388.719 521.621 385.965 522.921 383.22C515.299 383.201 508.809 381.738 503.269 376.179C499.72 372.619 497.462 367.638 497.478 362.578C497.493 357.611 499.491 352.957 503.065 349.54C505.879 346.85 509.752 345.179 513.679 345.263C518.391 345.362 522.586 347.518 525.71 350.962C531.453 357.292 532.148 366.285 532.15 374.396C539.307 370.874 543.757 365.914 547.198 358.777C547.831 357.463 548.629 355.333 549.773 354.441C550.633 353.77 552.018 353.824 552.981 354.186C553.965 354.556 554.788 355.183 555.232 356.152C556.02 357.869 555.036 360.009 554.356 361.598C550.74 370.046 543.721 377.473 535.147 380.895C533.459 381.569 531.583 381.904 529.952 382.647C527.16 392.907 520.828 401.163 511.547 406.475C506.16 409.558 499.455 411.917 493.219 412.171C493.153 417.565 493.342 423.038 492.939 428.413C490.628 459.163 479.527 487.028 457.86 509.307C457.92 506.057 457.964 502.564 457.436 499.354L457.363 498.946L459.232 497.105C462.012 494.254 464.525 490.525 466.729 487.206C478.029 470.184 485.715 447.379 485.4 426.813L485.947 424.525C488.664 420.714 490.398 416.065 491.998 411.699C492.523 409.446 492.463 407.207 492.463 404.909Z" fill="#E32168"/>
<path d="M512.763 352.825C515.49 352.897 517.747 353.545 519.73 355.524C525.02 360.802 524.725 368.962 524.653 375.841C521.938 375.882 519.206 375.833 516.553 375.218C514.752 374.722 513.006 374.113 511.382 373.176C508.328 371.413 505.233 367.987 504.468 364.496C503.924 362.012 504.343 359.568 505.712 357.431C507.443 354.731 509.702 353.476 512.763 352.825Z" fill="#FFB4D5"/>
<path d="M186.122 151.813C186.557 151.973 186.848 152.183 187.309 152.088C190.88 151.356 194.583 151.963 197.647 153.966C200.85 156.06 203.094 160.195 203.773 163.899C205.237 171.888 202.564 180.695 198.116 187.311L197.809 187.783C192.96 195.056 184.819 199.657 176.37 201.224C169.153 202.562 159.832 202.242 152.742 200.302C150.54 199.699 148.581 198.549 146.39 197.98C145.7 197.513 145.064 196.397 144.577 195.687C142.476 192.622 140.93 189.315 140.147 185.674L140.021 185.063L139.762 183.822C138.744 178.213 139.891 171.464 143.289 166.824C146.558 162.361 151.632 159.643 157.065 158.926C163.925 158.022 169.655 160.289 174.989 164.433C177.71 158.861 180.499 154.843 186.122 151.813Z" fill="#E32168"/>
<path d="M151.658 167.409L153.311 167.346C154.431 167.34 155.563 167.6 156.326 168.492C157.235 169.555 157.386 170.63 157.16 172C156.677 174.927 152.755 177.866 150.516 179.583C149.786 179.74 148.839 179.959 148.117 179.705C147.069 179.337 146.311 178.336 145.887 177.351C145.164 175.671 145.585 173.65 146.289 172.03C147.381 169.518 149.23 168.391 151.658 167.409Z" fill="#EE8D9C"/>
<path d="M200.517 322.053C196.424 306.077 195.692 288.757 199.123 272.593C200.84 264.506 204.215 252.484 211.647 247.898C215.894 245.277 220.85 245.489 225.49 246.641C243.962 251.226 259.291 266.054 268.861 281.909L249.834 288.474C237.76 293.039 226.298 299.868 216.143 307.786C213.329 309.98 210.332 312.2 207.812 314.73L200.517 322.053Z" fill="#B22B7C"/>
<path d="M207.812 314.729C206.196 301.093 206.068 287.405 209.334 273.984C210.604 268.76 213.038 260.878 218.021 258.097C219.435 257.308 221.51 257.347 223.033 257.817C226.911 259.014 230.263 261.975 233.103 264.754C240.187 271.685 245.518 279.557 249.834 288.474C237.76 293.039 226.298 299.868 216.143 307.786C213.329 309.98 210.332 312.2 207.812 314.729Z" fill="#D582C0"/>
<path d="M268.861 281.909C291.6 275.722 317.426 273.351 340.55 278.717L334.941 282.286C334.293 282.7 333.153 283.601 332.455 283.734L323.097 290.991C317.485 290.286 311.453 290.419 305.792 290.582C298.904 290.78 291.916 291.239 285.126 292.467C263.609 296.36 242.372 306.414 225.155 319.827C220.002 323.842 215.043 328.302 210.869 333.348C217.722 337.733 222.642 343.048 224.414 351.211C226.338 360.071 222.609 367.501 218.173 374.812L210.332 372.008L208.78 372.561C202.558 370.412 195.736 370.238 189.269 370.936L188.905 370.596C184.984 371.21 181.233 371.976 177.488 373.322C174.501 374.561 171.807 375.895 169.105 377.7C170.215 373.386 171.234 369.115 172.786 364.932C178.546 349.407 188.735 333.67 200.518 322.053L207.812 314.73C210.332 312.201 213.33 309.98 216.144 307.786C226.298 299.868 237.76 293.039 249.834 288.474L268.861 281.909Z" fill="white"/>
<path d="M194.239 339.799C198.687 338.337 203.629 337.839 207.957 340.041C212.388 342.296 215.685 345.786 217.11 350.587C217.354 351.411 217.475 352.215 217.59 353.063L217.675 353.656C218.347 358.614 217.522 363.851 214.429 367.898C213.201 369.506 211.729 370.599 210.332 372.008L208.779 372.561C202.557 370.412 195.735 370.238 189.269 370.936L188.904 370.596C185.096 366.647 183.578 362.696 183.013 357.269L184.036 351.576C185.695 345.824 189.115 342.616 194.239 339.799Z" fill="#3D1A4F"/>
<path d="M205.71 342.946C206.8 342.975 208.024 343.278 208.998 343.767C211.095 344.822 213.04 346.791 213.711 349.082C214.219 350.817 213.973 352.874 213.094 354.453C211.808 356.761 209.758 357.914 207.338 358.7C205.74 358.707 204.157 358.794 202.693 358.042C200.758 357.049 199.201 355.025 198.671 352.914C198.191 350.998 198.432 348.597 199.482 346.915C200.993 344.496 203.063 343.55 205.71 342.946Z" fill="white"/>
<path d="M268.861 281.909C291.6 275.722 317.426 273.351 340.55 278.717L334.941 282.286C334.293 282.7 333.153 283.601 332.455 283.734C313.268 280.606 295.224 281.74 276.355 286.178C257.143 290.695 239.725 298.067 223.658 309.638C215.534 315.489 208.503 322.071 201.907 329.567C199.145 332.706 196.182 336.076 194.24 339.799C189.116 342.616 185.695 345.823 184.036 351.576L183.013 357.269C183.579 362.696 185.097 366.647 188.905 370.596C184.984 371.21 181.233 371.976 177.488 373.322C174.501 374.561 171.807 375.895 169.105 377.7C170.215 373.386 171.234 369.115 172.786 364.932C178.546 349.407 188.735 333.67 200.518 322.053L207.812 314.73C210.332 312.201 213.33 309.98 216.144 307.786C226.298 299.868 237.76 293.039 249.834 288.474L268.861 281.909Z" fill="#FC4091"/>
<path d="M177.488 373.322L177.25 372.724C178.133 367.829 180.332 361.46 183.013 357.269C183.579 362.696 185.097 366.647 188.904 370.596C184.984 371.21 181.233 371.976 177.488 373.322Z" fill="white"/>
<path d="M177.488 373.322C181.233 371.976 184.984 371.21 188.904 370.596L189.269 370.936C195.736 370.238 202.558 370.412 208.78 372.561L210.332 372.008L218.172 374.812C225.45 378.74 230.612 383.311 235.313 390.146C236.303 392.805 237.627 395.317 238.521 398.016C239.371 400.58 239.861 403.263 240.731 405.816C239.851 407.717 240.361 410.205 240.355 412.289C240.345 415.748 240.174 420.001 238.769 423.228C235.946 432.148 230.656 439.692 222.202 444.077C217.369 446.584 212.086 447.897 206.722 448.641C203.665 449.065 199.884 449.212 196.803 449.003L190.496 447.703C189.276 446.361 185.611 445.672 183.794 444.963C181.602 444.108 179.469 443.099 177.392 441.992C173.343 439.832 169.511 437.015 166.287 433.743C159.16 426.509 154.766 417.08 154.836 406.85C154.891 398.827 157.539 390.993 162.48 384.658C164.437 382.15 166.844 379.933 169.105 377.7C171.806 375.895 174.501 374.561 177.488 373.322Z" fill="#FFB4D5"/>
<path d="M189.725 372.865L194.841 372.657C200.778 372.741 207.202 373.753 212.693 376.088C214.235 376.745 216.031 377.512 217.169 378.769C217.819 379.486 218.064 380.136 217.895 381.117C217.785 381.753 217.213 382.409 216.649 382.7C215.817 383.13 215.015 382.717 214.192 382.486C208.319 379.609 200.712 377.993 194.242 377.777C192.081 377.705 188.637 378.494 186.741 377.836C185.956 377.564 185.476 377.025 185.187 376.252C184.913 375.52 185.045 374.729 185.397 374.062C186.386 373.052 188.367 373.056 189.725 372.865Z" fill="white"/>
<path d="M178.521 388.336C179.934 388.053 181.277 388.336 182.539 389.023C184.176 389.916 185.238 391.694 185.699 393.456L185.812 393.914C186.536 396.783 186.466 399.538 186.071 402.446C185.934 403.455 185.802 404.416 185.483 405.387C184.221 409.226 182.632 412.337 178.894 414.236C177.984 414.48 176.575 414.563 175.686 414.205C174.39 413.682 173.239 411.912 172.689 410.695C170.637 406.159 170.962 400.168 172.665 395.578C173.787 392.55 175.481 389.718 178.521 388.336Z" fill="#E32168"/>
<path d="M210.696 396.384C211.575 396.365 212.585 396.275 213.445 396.474C214.942 396.821 216.153 398.54 216.77 399.839C218.954 404.443 218.624 410.466 216.946 415.177C215.801 418.389 214.006 421.612 210.82 423.126C209.89 423.311 208.825 423.421 207.916 423.105C206.355 422.561 205.282 421.185 204.576 419.75C202.434 415.396 202.509 409.415 204.012 404.871C205.278 401.043 207.007 398.21 210.696 396.384Z" fill="#E32168"/>
<path d="M177.488 373.322C181.233 371.976 184.984 371.21 188.904 370.596L189.269 370.935C178.189 373.419 168.628 378.432 162.305 388.25C158.735 393.793 156.812 400.168 156.89 406.772C158.231 417.267 164.195 426.658 172.47 433.101C182.461 440.882 196.745 444.784 209.232 443.133C218.519 441.905 227.202 437.412 232.95 429.92L235.133 426.58L236.012 424.572C239.705 414.749 239.45 404.094 235.144 394.518C231.284 385.935 224.341 379.45 215.923 375.338C213.64 374.222 211.155 373.453 208.78 372.561L210.332 372.008L218.172 374.812C225.45 378.74 230.612 383.311 235.313 390.146C236.303 392.805 237.627 395.317 238.521 398.016C239.371 400.58 239.861 403.263 240.731 405.816C239.851 407.717 240.361 410.205 240.355 412.289C240.345 415.748 240.174 420.001 238.769 423.227C235.946 432.148 230.656 439.692 222.202 444.077C217.369 446.584 212.086 447.897 206.722 448.641C203.665 449.065 199.884 449.212 196.803 449.003L190.496 447.703C189.276 446.361 185.611 445.672 183.794 444.963C181.602 444.108 179.469 443.099 177.392 441.992C173.343 439.832 169.511 437.015 166.287 433.743C159.16 426.509 154.766 417.08 154.836 406.85C154.891 398.827 157.539 390.992 162.48 384.658C164.437 382.15 166.844 379.933 169.105 377.7C171.806 375.895 174.501 374.561 177.488 373.322Z" fill="#B22B7C"/>
<path d="M156.89 406.772C158.23 417.267 164.194 426.658 172.47 433.101C182.461 440.882 196.745 444.784 209.232 443.133C218.519 441.905 227.202 437.412 232.95 429.92L235.133 426.58L235.382 428.246C232.7 432.819 230.047 436.48 225.793 439.743C218.39 445.424 206.643 448.028 197.412 446.738C189.743 445.667 182.416 442.873 175.823 438.818C167.126 433.47 159.868 424.94 157.49 414.848L157.349 414.234C156.743 411.699 156.815 409.367 156.89 406.772Z" fill="#FC4091"/>
<path d="M306.383 167.58L306.165 167.143C310.668 166.684 315.084 167.741 319.37 169.037C319.46 169.845 319.526 170.564 319.852 171.32C326.677 174.72 332.732 178.487 337.327 184.734C342.136 191.273 344.435 197.316 345.649 205.285C347.145 215.114 343.164 227.18 337.331 234.977C330.647 243.915 320.475 249.622 309.491 251.124C301.908 252.162 294.471 250.987 287.546 247.776C285.5 246.827 283.736 245.572 281.651 244.767C281.431 244.682 281.182 244.472 280.993 244.326L280.665 244.499C280.148 244.732 279.768 244.727 279.215 244.732L278.741 245.027L279.229 245.474C279.729 245.942 279.983 246.34 280.256 246.975C277.535 245.124 275.353 242.749 273.077 240.399C273.894 240.156 274.635 239.943 275.497 239.968C276.303 239.992 275.937 240.126 276.531 239.695C275.935 237.582 273.488 234.852 272.206 232.978L268.536 233.928L265.482 228.41C262.846 221.753 261.335 214.683 261.699 207.488C262.234 196.915 267.263 185.598 275.237 178.494C284.062 170.632 294.593 166.995 306.383 167.58Z" fill="url(#paint2_linear_84_1717)"/>
<path d="M307.785 192.311C308.741 192.635 309.031 192.826 309.476 193.758C310.318 195.52 310.512 197.757 310.562 199.688L310.07 200.169C309.554 199.655 309.136 199.125 308.707 198.537L307.785 192.311Z" fill="#FA6C04"/>
<path d="M306.191 228.754C307.176 228.702 312.039 227.958 312.362 228.267C312.86 228.746 313.173 229.246 313.548 229.82C310.871 230.214 308.219 230.959 305.484 230.691C304.367 230.582 304.169 230.396 303.48 229.523L303.679 229.015L306.191 228.754Z" fill="#FA6C04"/>
<path d="M320.736 211.462C322.155 212.234 322.676 213.65 323.098 215.183C323.729 217.478 323.623 219.84 322.439 221.946C321.254 224.053 319.298 225.261 317.46 226.726C317.224 226.04 317.332 226.286 317.034 225.669L316.829 225.258C318.5 223.853 320.227 222.325 321.149 220.304C322.604 217.114 321.882 214.542 320.736 211.462Z" fill="#FA6C04"/>
<path d="M273.626 208.852C274.447 208.583 275.11 208.639 275.953 208.701C276.597 209.023 277.004 209.243 277.384 209.876C278.111 211.086 278.397 212.659 278.05 214.035C277.621 215.733 276.922 216.543 275.461 217.46C275.068 217.572 274.569 217.752 274.148 217.749C273.126 217.741 272.418 217.209 271.856 216.398C271.009 215.179 270.881 213.325 271.246 211.925C271.611 210.52 272.439 209.619 273.626 208.852Z" fill="white"/>
<path d="M277.177 193.102L278.414 192.968C279.933 193.497 281.241 194.279 282.031 195.736C282.83 197.21 282.259 198.956 281.792 200.484C281.065 202.863 279.613 204.059 277.505 205.242C276.46 205.507 275.706 205.475 274.64 205.343C273.946 204.904 273.383 204.579 273.041 203.785C272.056 201.502 272.245 199.079 273.154 196.81C273.876 195.005 275.479 193.889 277.177 193.102Z" fill="white"/>
<path d="M286.512 180.528C287.586 180.46 288.752 180.331 289.81 180.571C290.874 180.812 291.665 181.507 292.219 182.43C292.962 183.666 292.755 185.22 292.363 186.539C291.355 189.924 289.012 191.599 286.061 193.228C285.096 193.28 283.892 193.439 282.958 193.187C281.687 192.846 280.757 191.602 280.244 190.469C279.65 189.158 279.78 187.821 280.292 186.513C281.51 183.405 283.555 181.832 286.512 180.528Z" fill="white"/>
<path d="M265.482 228.411C262.846 221.753 261.335 214.683 261.699 207.488C262.234 196.915 267.263 185.599 275.237 178.494C284.062 170.632 294.593 166.996 306.383 167.581C308.607 167.773 311.687 167.789 313.523 169.152C310.594 170.069 306.858 169.528 303.754 170.021C289.856 172.227 278.363 179.644 271.763 192.301C269.39 196.853 268.008 201.551 267.294 206.614C266.454 212.573 267.151 219.112 268.867 224.85L272.206 232.978L268.536 233.928L265.482 228.411Z" fill="white"/>
<path d="M296.055 215.419L295.312 214.882L293.836 213.809C291.754 211.942 290.429 209.178 290.357 206.383C290.263 202.733 291.603 200.448 294.046 197.888C293.418 196.54 292.604 195.345 291.788 194.108L295.658 191.883L298.48 194.941C298.879 194.596 299.261 194.285 299.733 194.042C301.701 193.027 305.688 191.607 307.785 192.311L308.707 198.537C309.136 199.125 309.554 199.655 310.07 200.169L309.54 200.457C307.018 201.772 304.22 201.635 302.229 204.094C302.245 204.709 302.159 205.051 302.475 205.587C302.797 206.133 302.646 205.798 302.741 206.368L302.82 206.723C307.015 205.602 312.565 205.232 316.46 207.412C318.284 208.433 319.431 209.742 320.625 211.415L320.736 211.462C321.881 214.542 322.604 217.114 321.149 220.304C320.226 222.326 318.5 223.853 316.829 225.258L317.034 225.669C317.332 226.286 317.224 226.04 317.46 226.726C318.027 227.542 318.308 228.067 318.541 229.031C317.777 229.969 316.748 230.225 315.982 231.231C315.025 230.964 314.336 230.399 313.548 229.82C313.173 229.246 312.86 228.746 312.362 228.267C312.04 227.958 307.177 228.702 306.191 228.754C305.104 228.718 303.491 228.933 302.703 228.211C302.317 225.604 302.223 223.114 302.241 220.481C305.164 220.363 309.358 220.674 311.883 219.105C312.939 218.448 313.128 218.111 313.36 216.925C311.174 216.873 309.009 216.871 306.828 217.04C303.934 217.265 301.128 217.841 298.266 216.909C297.18 216.555 296.597 216.419 296.055 215.419Z" fill="white"/>
<path d="M296.056 215.419C298.268 215.989 300.26 216.035 302.529 215.8C305.849 215.455 310.271 213.956 313.03 216.243L313.36 216.925C311.174 216.874 309.009 216.871 306.828 217.04C303.935 217.265 301.128 217.842 298.266 216.909C297.18 216.555 296.598 216.419 296.056 215.419Z" fill="#FA6C04"/>
<path d="M308.707 198.537C309.137 199.125 309.555 199.655 310.07 200.169L309.54 200.457C307.018 201.772 304.22 201.635 302.229 204.094C302.245 204.709 302.159 205.051 302.475 205.587C302.797 206.133 302.646 205.798 302.741 206.367L302.82 206.723L301.955 206.669C300.834 206.522 300.139 206.072 299.451 205.18C299.227 204.289 299.177 203.778 299.64 202.945C300.78 200.896 304.228 199.784 306.402 199.323C307.048 199.185 307.623 199.069 308.222 198.782L308.707 198.537Z" fill="#FE9002"/>
<path d="M349.391 134.451C349.422 129.644 350.284 124.819 351.85 120.281C354.349 113.039 358.357 105.804 363.499 100.104C373.9 88.5758 390.366 81.4161 405.864 81.5572C409.031 81.5861 412.122 81.8053 415.267 82.1859C416.466 82.3316 418.403 83.0358 419.504 82.9426C419.815 82.9163 420.066 82.6709 420.347 82.535C434.555 89.7754 444.647 100.805 449.532 116.06C453.78 129.322 451.924 144.057 445.55 156.299C438.684 169.489 426.745 178.808 412.638 183.286C410.134 184.081 407.602 184.489 405.006 184.849C391.314 186.751 378.141 182.392 367.327 174.113C359.578 168.18 354.155 160.525 351.096 151.256L349.777 146.015L349.391 134.451Z" fill="url(#paint3_linear_84_1717)"/>
<path d="M364.419 108.639C365.146 108.721 365.911 108.799 366.595 109.076C367.853 109.586 368.733 110.661 369.18 111.925C369.827 113.752 369.387 115.741 368.458 117.386C367.124 119.752 364.917 120.778 362.394 121.392C361.246 121.436 359.86 121.477 358.815 120.922C358.197 120.594 357.588 119.973 357.426 119.273C356.948 117.202 357.633 114.84 358.653 113.039C360.026 110.614 361.812 109.403 364.419 108.639Z" fill="white"/>
<path d="M376.11 93.9561C377.072 94.0998 377.996 94.315 378.809 94.8728C380.295 95.8926 381.381 97.845 381.577 99.6241C381.787 101.55 381.113 103.426 379.862 104.896C377.866 107.243 375.21 107.797 372.314 108.046C371.443 107.847 370.468 107.635 369.689 107.181C368.521 106.502 367.201 105.051 366.934 103.688C366.574 101.845 367.664 99.5565 368.761 98.1095C370.651 95.6164 373.068 94.3918 376.11 93.9561Z" fill="white"/>
<path d="M397.717 105.486C397.893 104.706 398.057 104.19 398.505 103.524C398.953 103.402 398.945 103.383 399.493 103.356C401.016 103.28 404.611 103.919 405.678 104.919L407.418 105.607C415.031 106.834 423.543 111.862 428.123 118.125C432.895 124.652 435.794 133.254 434.347 141.329C434.161 142.37 433.939 143.393 433.544 144.375C431.151 150.329 426.969 157.345 421.474 160.946C420.262 161.74 419.325 162.654 418.03 163.405L417.375 163.892L415.079 165.208L411.139 167.015C410.522 167.262 410.121 167.467 409.478 167.636C408.667 167.849 408.03 168.139 407.181 168.28L406.579 168.404C405.614 168.59 404.667 168.38 403.732 168.131L403.689 168.085L400.313 167.952L399.882 166.962L399.651 167.822C399.052 167.889 398.435 167.847 397.852 167.915C393.126 168.468 388.084 166.119 384.113 163.72C377 159.423 371.175 152.276 369.296 144.072C367.397 135.778 368.996 127.693 373.594 120.574C379.375 111.62 387.597 107.705 397.717 105.486Z" fill="white"/>
<path d="M405.677 104.919L407.417 105.607C408.312 107.76 408.701 109.154 407.931 111.412C407.028 111.202 406.125 111.055 405.318 110.578C405.22 108.682 405.481 106.804 405.677 104.919Z" fill="#FE9002"/>
<path d="M402.545 128.217C401.857 127.836 401.216 127.353 400.615 126.847C399.661 126.046 399.009 124.82 399.037 123.539C399.057 122.659 399.487 121.929 400.148 121.361C401.029 120.604 401.888 120.688 402.956 120.767L402.333 122.943C401.919 124.515 402.363 126.12 402.818 127.626L402.545 128.217Z" fill="#FE9002"/>
<path d="M399.882 166.962L399.651 167.822C399.052 167.889 398.435 167.846 397.852 167.915C393.126 168.468 388.084 166.119 384.113 163.72C377 159.423 371.175 152.276 369.296 144.072C367.397 135.778 368.996 127.693 373.594 120.574C379.375 111.62 387.597 107.705 397.717 105.486L397.364 110.089C393.077 111.151 389.022 112.56 386.556 116.547C384.73 119.497 383.92 123.629 384.77 127.025C385.896 131.528 389.258 134.637 393.136 136.879C395.905 138.481 400.836 140.468 401.889 143.708C402.195 144.653 402.144 146.197 401.605 147.041C401.157 147.744 400.58 148.038 399.77 148.18C397.238 148.622 393.483 147.133 391.313 145.921C390.028 145.202 388.669 144.171 387.257 143.771C385.615 146.953 384.277 150.008 383.166 153.41C387.276 156.583 390.971 158.152 396.049 159.035C395.994 160.628 395.646 162.953 396.052 164.455L399.401 164.96L399.882 166.962Z" fill="#FEBB47"/>
<path d="M407.418 105.606C415.03 106.834 423.543 111.862 428.123 118.125C432.895 124.651 435.793 133.254 434.347 141.329C434.161 142.37 433.939 143.393 433.544 144.375C431.15 150.329 426.969 157.345 421.473 160.945C420.261 161.739 419.324 162.654 418.029 163.405L417.375 163.892L415.078 165.208L411.139 167.014C410.522 167.262 410.121 167.467 409.478 167.636C408.667 167.848 408.029 168.139 407.18 168.28L406.579 168.404C405.614 168.59 404.666 168.38 403.732 168.131L403.689 168.085L400.313 167.952L399.882 166.962L399.4 164.96C400.545 165.049 401.632 165.157 402.774 164.997C403.342 162.98 403.276 160.527 403.595 158.418C405.828 157.839 408.195 157.28 410.189 156.073C413.212 154.244 415.591 151.36 416.404 147.906C417.404 143.654 416.45 139.917 414.152 136.29L414.115 136.285C412.638 134.482 410.757 132.6 408.714 131.453C406.678 130.31 404.437 129.616 402.546 128.217L402.818 127.626C402.363 126.12 401.92 124.515 402.334 122.943L402.957 120.767C406.792 121.321 410.791 123.967 414.408 125.44L417.017 117.763C414.973 114.012 411.774 112.725 407.931 111.412C408.701 109.154 408.312 107.76 407.418 105.606Z" fill="#FEBB47"/>
<path d="M417.017 117.763L418.956 119.601C418.857 121.197 418.286 124.395 417.048 125.492C416.658 125.838 415.291 125.764 414.79 125.628L414.407 125.439L417.017 117.763Z" fill="#FA6C04"/>
<path d="M414.152 136.29L414.772 136.082C417.584 139.002 419.223 142.582 419.096 146.684C419.014 149.315 418.424 151.358 417.161 153.667L416.952 154.055C414.786 157.912 410.436 159.475 406.399 160.479L405.922 160.593C405.926 162.094 406.372 166.651 405.563 167.642L403.732 168.131L403.689 168.085L400.313 167.952L399.882 166.962L399.4 164.96C400.545 165.049 401.632 165.157 402.774 164.997C403.342 162.98 403.276 160.527 403.595 158.417C405.828 157.839 408.195 157.28 410.189 156.073C413.212 154.244 415.591 151.36 416.404 147.906C417.404 143.654 416.45 139.917 414.152 136.29Z" fill="#FA6C04"/>
<path d="M270.978 524.537C280.117 528.345 289.441 532.26 299.085 534.575L301.357 545.98C302.365 550.139 303.74 554.156 305.08 558.215L305.872 561.029L337.013 562.509L339.019 557.789L410.763 560.141C411.781 563.291 413.108 566.336 416.309 567.86L417.539 568.326L417.872 568.442C420.41 569.25 423.59 568.261 425.818 567.064C428.545 565.599 430.907 563.529 433.087 561.354C434.342 562.071 436.273 562.06 437.718 562.21L446.166 563.129C457.171 564.37 468.296 565.974 479.062 568.605C482.986 569.564 487.397 570.617 490.946 572.596C492.948 573.713 495.147 574.994 495.766 577.336C495.397 579.075 494.336 580.086 492.938 581.103C489.333 583.724 484.15 585.088 479.881 586.231C470.844 588.65 461.749 589.879 452.484 591.032L405.366 595.033L358.579 597.171L258.596 595.262C240.648 594.234 222.346 592.407 204.637 589.323C197.186 588.026 180.095 585.177 175.613 578.812C175.51 577.926 175.403 577.33 175.877 576.516C180.49 568.57 223.811 563.799 233.226 562.984L245.116 561.973C246.942 561.835 249.432 562.1 251.141 561.5L251.601 561.326C254.429 563.211 257.217 564.551 260.695 564.04C263.193 563.672 264.72 561.912 266.228 560.092C269.118 554.584 269.813 548.184 270.405 542.081C271.206 536.394 270.978 530.276 270.978 524.537Z" fill="#EE8D9C"/>
<path d="M305.872 561.029L337.013 562.509C334.768 568.01 330.494 577.964 324.519 580.25C322.465 581.035 319.589 580.853 317.624 579.877C311.033 576.603 308.022 567.499 305.872 561.029Z" fill="#3D1A4F"/>
<path d="M270.978 524.537C280.117 528.345 289.441 532.26 299.085 534.575L301.358 545.98C302.365 550.139 303.74 554.156 305.08 558.215C303.496 558.638 301.779 558.488 300.149 558.495L291.735 558.613L274.465 559.641C271.759 559.805 268.932 560.137 266.229 560.092C269.119 554.584 269.814 548.184 270.406 542.081C271.206 536.394 270.978 530.276 270.978 524.537Z" fill="#FFB4D5"/>
<path d="M238.769 423.228C240.174 420.001 240.345 415.748 240.355 412.289C240.361 410.205 239.851 407.717 240.731 405.816C242.113 409.469 243.081 412.794 243.595 416.669C244.047 420.066 243.928 423.905 243.271 427.264C241.631 435.657 237.318 442.947 230.18 447.837C226.531 450.336 222.793 451.672 218.496 452.531C220.818 454.238 223.164 455.772 225.732 457.087C227.252 457.865 228.98 458.391 230.348 459.414C224.345 460.735 218.632 460.895 212.547 459.859L212.14 460.114L216.142 463.328C221.425 467.224 227.187 470.487 232.928 473.649C258.169 487.55 285.276 494.41 313.851 496.93C333.698 498.68 353.244 498.327 372.968 495.382C393.017 492.387 411.535 486.703 429.804 477.906C442.918 471.591 455.74 463.651 465.84 453.04C470.924 447.7 475.596 441.958 479.705 435.835C481.613 432.992 483.125 429.852 485.169 427.117L485.4 426.813C485.715 447.38 478.029 470.184 466.729 487.206C464.525 490.525 462.012 494.254 459.232 497.106L457.363 498.946L457.436 499.355C457.964 502.564 457.92 506.057 457.86 509.307C456.759 511.126 456.674 513.351 456.201 515.395L454.141 522.767C450.834 533.512 445.416 544.67 438.9 553.842L433.087 561.354C430.907 563.529 428.545 565.599 425.818 567.064C423.59 568.261 420.411 569.25 417.872 568.442L417.539 568.326L416.31 567.86C413.108 566.336 411.781 563.292 410.763 560.141L339.019 557.79L337.013 562.509L305.872 561.03L305.08 558.215C303.74 554.156 302.365 550.139 301.358 545.98L299.085 534.575C289.442 532.26 280.117 528.346 270.978 524.537C267.738 522.673 264.197 521.297 260.878 519.565C253.629 515.783 246.607 511.518 239.908 506.828C235.458 503.713 231.273 500.296 227.152 496.762C225.186 495.076 223.293 493.076 221.172 491.604L220.621 491.229C220.023 490.06 218.562 488.982 217.628 488.035L211.821 481.775C202.954 471.35 195.911 460.278 190.496 447.703L196.803 449.003C199.884 449.212 203.665 449.065 206.721 448.641C212.086 447.897 217.368 446.584 222.202 444.077C230.655 439.692 235.945 432.148 238.769 423.228Z" fill="#FC4091"/>
<path d="M409.032 547.568L409.388 546.8L438.9 553.842L433.088 561.354C430.908 563.529 428.545 565.599 425.818 567.063C423.591 568.261 420.411 569.25 417.873 568.442L417.539 568.325L416.31 567.86C413.108 566.336 411.781 563.291 410.763 560.141C409.625 556.094 409.351 551.742 409.032 547.568Z" fill="#3D1A4F"/>
<path d="M345.218 539.112L345.882 531.628C361.638 532.227 377.843 531.131 393.238 527.657C398.545 526.459 403.733 524.724 408.921 523.102L408.422 530.877L407.535 531.499C392.832 536.325 377.004 538.574 361.563 539.047L345.218 539.112Z" fill="#E32168"/>
<path d="M238.769 423.228C240.174 420.001 240.345 415.748 240.355 412.289C240.361 410.205 239.851 407.717 240.731 405.816C242.113 409.469 243.081 412.794 243.595 416.669C244.047 420.066 243.928 423.905 243.271 427.264C241.631 435.657 237.318 442.947 230.18 447.837C226.531 450.336 222.793 451.672 218.496 452.531C215.795 452.738 213.054 452.89 210.359 452.53C206.759 452.049 203.27 450.862 199.705 450.152L200.035 450.367C202.755 452.169 205.329 454.426 207.857 456.499C208.76 457.241 209.82 457.807 210.199 458.929C206.315 457.697 203.752 455.257 200.2 453.567C203.198 458.395 205.892 463.354 209.276 467.937C226.195 490.856 249.872 507.296 275.625 518.829L288.422 524.014L295.64 526.344C296.312 526.541 297.899 526.794 298.433 527.16C298.469 527.185 298.579 527.762 298.585 527.818L299.085 534.575C289.442 532.26 280.117 528.346 270.978 524.537C267.738 522.673 264.197 521.297 260.878 519.565C253.629 515.783 246.607 511.518 239.908 506.828C235.458 503.713 231.273 500.296 227.152 496.762C225.186 495.076 223.293 493.076 221.172 491.604L220.621 491.229C220.023 490.06 218.562 488.982 217.628 488.035L211.821 481.775C202.954 471.35 195.911 460.278 190.496 447.703L196.803 449.003C199.884 449.212 203.665 449.065 206.721 448.641C212.086 447.897 217.368 446.584 222.202 444.077C230.655 439.692 235.945 432.148 238.769 423.228Z" fill="#E32168"/>
<path d="M407.535 531.5L408.241 532.064L408.629 541.853C408.689 543.654 408.554 545.837 409.032 547.568C409.351 551.742 409.625 556.094 410.763 560.141L339.02 557.79C341.349 551.783 344.085 545.481 345.218 539.112L361.563 539.047C377.004 538.574 392.832 536.325 407.535 531.5Z" fill="#FFB4D5"/>
<path d="M434.635 491.643C438.491 491.237 443.11 491.278 446.414 493.583C448.633 495.131 450.119 497.82 450.486 500.466C451.847 510.271 447.873 523.158 441.963 530.936C438.056 536.077 432.598 538.775 426.313 539.679C421.808 539.895 417.723 539.561 413.895 536.855C411.816 535.384 410.569 533.434 410.176 530.906C409.762 528.24 409.92 525.54 410.146 522.867C410.758 515.615 412.591 507.102 416.997 501.152C421.364 495.256 427.575 492.743 434.635 491.643Z" fill="#FFB4D5"/>
<path d="M314.069 508.042C315.945 507.818 318.136 507.863 320.007 508.136L320.578 508.224L323.564 508.746C330.719 510.645 337.414 514.634 341.045 521.274C344.113 526.883 342.87 530.964 341.28 536.648C340.419 539.726 339.202 542.873 337.688 545.691C335.59 549.596 332.466 552.505 328.197 553.808C323.511 554.594 318.885 553.402 314.728 551.179C307.6 547.365 303.267 540.962 301.059 533.346C299.355 527.47 298.142 521.597 301.285 515.947L301.547 515.484L302.202 514.43C305.27 510.452 309.218 508.779 314.069 508.042Z" fill="#FFB4D5"/>
<path d="M380.368 284.73C393.798 287.166 406.53 292.281 418.701 298.388C426.302 302.203 433.927 306.475 440.679 311.671C451.237 319.798 461.221 330.487 468.819 341.434C477.317 353.681 483.966 366.702 487.929 381.117C490.088 388.973 491.31 396.861 492.463 404.91C492.463 407.208 492.523 409.446 491.998 411.699C490.398 416.065 488.664 420.714 485.947 424.525L485.4 426.813L485.169 427.117C483.125 429.852 481.613 432.992 479.705 435.835C475.596 441.957 470.924 447.7 465.84 453.04C455.74 463.651 442.918 471.591 429.804 477.906C411.535 486.703 393.017 492.387 372.967 495.381C353.244 498.327 333.698 498.68 313.851 496.93C285.275 494.41 258.169 487.55 232.928 473.648C227.187 470.487 221.424 467.224 216.141 463.328L212.14 460.114L212.547 459.859C218.632 460.895 224.345 460.735 230.348 459.414C228.98 458.391 227.252 457.865 225.732 457.087C223.164 455.772 220.818 454.238 218.495 452.531C222.793 451.672 226.531 450.336 230.179 447.837C237.317 442.947 241.631 435.657 243.271 427.264C243.928 423.905 244.047 420.066 243.595 416.669C243.081 412.794 242.113 409.469 240.731 405.816C239.861 403.263 239.371 400.58 238.521 398.016C237.626 395.317 236.303 392.805 235.312 390.146C243.887 395.444 250.721 406.924 252.972 416.555C255.187 426.036 253.789 436.158 248.575 444.454C244.1 451.574 238.234 455.899 230.697 459.334L234.314 460.903C240.714 463.452 247.695 464.803 254.495 465.745C278.641 469.091 304.714 465.911 327.14 456.14C352.477 445.1 373.603 425 383.658 399.007C390.077 382.414 391.234 365.392 389.867 347.812C389.588 344.211 389.581 339.507 388.126 336.22C387.934 335.205 388.188 333.67 388.216 332.614L388.313 324.582C388.156 316.434 387.087 308.572 385.377 300.614L382.712 291.174C381.648 289.799 380.938 286.442 380.368 284.73Z" fill="#FE64AE"/>
<path d="M382.713 291.174C409.549 298.266 435.319 312.659 453.82 333.578C457.429 337.658 460.226 342.134 463.522 346.425C465.209 350.693 467.683 354.63 469.62 358.796C474.163 368.566 476.303 378.654 477.525 389.31L469.797 372.118C463.682 359.142 454.888 345.838 444.713 335.683C441.091 332.067 437.075 328.919 433.021 325.81C418.322 314.537 402.787 306.878 385.377 300.614L382.713 291.174Z" fill="white"/>
<path d="M431.428 332.818C433.822 332.62 435.88 332.937 437.773 334.507C440.672 336.911 442.554 340.245 442.859 344.014C443.05 346.373 442.4 349.033 441.677 351.258C439.128 359.097 433.218 367.722 427.869 373.996C426.73 373.74 425.258 372.368 424.282 371.693L415.596 365.567C410.888 361.783 405.676 357.07 402.897 351.604C400.962 347.799 399.973 342.763 401.446 338.652C402.273 336.342 403.857 334.794 406.094 333.82L406.547 333.63C407.159 333.366 407.682 333.164 408.351 333.073C414.206 332.275 419.042 334.737 423.469 338.225L424.921 336.075C426.554 333.836 428.818 333.266 431.428 332.818Z" fill="white"/>
<path d="M380.368 284.73C393.798 287.166 406.53 292.281 418.701 298.388C426.302 302.203 433.927 306.475 440.679 311.671C451.237 319.798 461.221 330.487 468.819 341.434C477.317 353.681 483.966 366.702 487.93 381.117C490.089 388.973 491.31 396.861 492.463 404.91C492.463 407.208 492.523 409.446 491.998 411.699C490.398 416.065 488.665 420.714 485.947 424.525L485.266 405.234C484.292 395.237 482.238 384.181 478.854 374.695C476.486 368.058 473.35 361.813 469.885 355.688C468.17 352.656 466.234 348.635 463.522 346.425C460.226 342.134 457.428 337.658 453.82 333.578C435.319 312.659 409.548 298.266 382.712 291.174C381.649 289.799 380.938 286.442 380.368 284.73Z" fill="#FC4091"/>
<path d="M340.55 278.717C347.401 275.401 354.357 272.474 361.834 270.867C364.799 270.23 367.936 269.567 370.906 270.502C373.733 271.394 375.23 274.138 376.476 276.623L380.369 284.73C380.938 286.442 381.649 289.799 382.713 291.174L385.377 300.614C387.087 308.572 388.156 316.434 388.313 324.582L388.217 332.614C388.189 333.67 387.935 335.205 388.127 336.22C389.582 339.507 389.588 344.211 389.868 347.813C391.234 365.392 390.078 382.414 383.659 399.007C373.604 425 352.478 445.1 327.141 456.14C304.715 465.911 278.641 469.091 254.495 465.745C247.696 464.803 240.715 463.452 234.315 460.903L230.698 459.334C238.235 455.899 244.1 451.574 248.575 444.455C253.79 436.158 255.188 426.036 252.972 416.555C250.721 406.924 243.888 395.444 235.313 390.146C230.612 383.311 225.45 378.74 218.173 374.812C222.609 367.501 226.338 360.071 224.414 351.211C222.642 343.047 217.722 337.733 210.869 333.347C215.043 328.302 220.002 323.842 225.155 319.827C242.372 306.414 263.609 296.36 285.126 292.467C291.916 291.239 298.904 290.78 305.792 290.582C311.453 290.419 317.485 290.286 323.096 290.991L332.455 283.734C333.153 283.601 334.293 282.7 334.941 282.286L340.55 278.717Z" fill="#FFB4D5"/>
<path d="M301.941 417.505C309.533 416.495 317.547 418.507 323.969 422.586C326.722 424.335 329.257 427.004 329.86 430.314C330.433 433.448 329.798 436.475 327.852 439.031C323.318 444.992 315.431 446.84 308.421 447.851C300.009 447.985 291.689 447.412 284.648 442.168C282.101 440.27 279.899 437.301 279.531 434.076C279.175 430.954 280.299 428.27 282.225 425.867C286.735 420.241 295.119 418.262 301.941 417.505Z" fill="#FE64AE"/>
<path d="M288.961 357.787C294.771 357.279 300.561 359.276 305.445 362.301C311.462 366.029 315.155 372.584 316.626 379.353C318.387 387.449 316.41 394.758 312.067 401.625C311.405 402.673 310.643 403.588 309.827 404.52C305.072 409.945 298.841 412.461 291.747 412.9C286.096 412.834 281.205 412.248 276.282 409.177C270.59 405.627 265.278 398.634 263.811 392.044L263.693 391.486C262.989 388.34 262.874 384.82 263.38 381.628C264.508 374.524 268.328 367.354 274.285 363.154L274.834 362.77C279.223 359.665 283.69 358.387 288.961 357.787Z" fill="white"/>
<path d="M285.727 367.607C290.92 366.888 296.185 368.02 300.531 370.959C305.357 374.221 308.993 379.961 310.023 385.694C311.029 391.292 309.284 397.344 306.019 401.926C302.045 407.502 296.738 409.949 290.139 411.122C284.998 411.217 280.705 410.786 276.281 407.826C271.468 404.605 267.134 399.062 266.059 393.259C264.959 387.32 266.257 381.644 269.794 376.718C273.7 371.279 279.296 368.699 285.727 367.607Z" fill="#3D1A4F"/>
<path d="M292.835 374.427C295.713 374.282 297.554 374.515 299.746 376.58C301.151 377.905 303.158 381.042 302.926 383.13L302.803 383.627C302.554 384.659 302.304 385.681 301.853 386.648C300.658 389.214 298.641 390.363 296.055 391.233L295.679 391.239C294.292 391.272 293.027 391.346 291.703 390.866C289.473 390.057 287.678 388.343 286.747 386.161C285.758 383.842 285.723 381.71 286.787 379.395C288.025 376.698 290.217 375.447 292.835 374.427Z" fill="white"/>
<path d="M340.549 278.717C347.4 275.401 354.356 272.474 361.833 270.867C364.799 270.23 367.935 269.567 370.906 270.502C373.733 271.394 375.229 274.138 376.476 276.623L380.368 284.73C380.938 286.442 381.648 289.799 382.712 291.174L385.377 300.614C387.087 308.572 388.156 316.434 388.313 324.582L388.216 332.614C388.188 333.67 387.934 335.205 388.126 336.22C386.812 346.158 384.854 355.239 380.864 364.494C380.308 365.783 379.536 368.03 378.441 368.921C377.206 369.928 375.129 370.002 373.627 369.769C371.438 369.431 369.518 366.157 368.401 364.433L367.263 362.643L362.135 356.022L362.063 355.962C351.3 343.812 338.627 333.33 324.248 325.736L310.067 319.096C308.609 319.001 306.866 318.77 305.743 317.74C304.805 316.878 304.12 315.272 304.214 313.993C304.512 309.892 319.662 294.069 323.096 290.991L332.454 283.734C333.152 283.601 334.292 282.7 334.941 282.286L340.549 278.717Z" fill="#D582C0"/>
<path d="M340.549 278.717C347.4 275.401 354.356 272.474 361.833 270.867C364.799 270.23 367.935 269.567 370.906 270.502C373.733 271.394 375.229 274.138 376.476 276.623L380.368 284.73C380.938 286.442 381.648 289.799 382.712 291.174L385.377 300.614C387.087 308.572 388.156 316.434 388.313 324.582L388.216 332.614C388.188 333.67 387.934 335.205 388.126 336.22C386.812 346.158 384.854 355.239 380.864 364.494C380.308 365.783 379.536 368.03 378.441 368.921C377.206 369.928 375.129 370.002 373.627 369.769C371.438 369.431 369.518 366.157 368.401 364.433L367.263 362.643L362.135 356.022C364.312 352.523 366.168 349.03 367.664 345.188C375.176 325.885 374.261 303.386 365.997 284.504L365.598 284.413C363.702 284.218 360.913 284.941 359.021 285.347C345.097 288.327 332.275 296.227 322.22 306.15C320.147 308.196 318.08 310.31 316.215 312.548C314.395 314.732 312.685 317.2 310.369 318.886L310.067 319.096C308.609 319.001 306.866 318.77 305.743 317.74C304.805 316.878 304.12 315.272 304.214 313.993C304.512 309.892 319.662 294.069 323.096 290.991L332.454 283.734C333.152 283.601 334.292 282.7 334.941 282.286L340.549 278.717Z" fill="#B22B7C"/>
<path d="M367.264 362.643C368.872 361.812 369.732 363.196 370.956 362.826C372.772 362.277 374.145 358.971 374.917 357.314C377.161 352.501 378.597 347.257 379.852 342.112C384.749 322.031 384.195 300.992 377.186 281.475C376.6 279.845 375.708 278.253 376.476 276.623L380.368 284.73C380.938 286.442 381.649 289.799 382.712 291.174L385.377 300.614C387.087 308.572 388.156 316.434 388.313 324.582L388.216 332.614C388.188 333.67 387.934 335.205 388.127 336.22C386.813 346.158 384.854 355.239 380.864 364.494C380.308 365.783 379.536 368.029 378.442 368.921C377.206 369.928 375.129 370.002 373.627 369.769C371.439 369.431 369.518 366.157 368.401 364.433L367.264 362.643Z" fill="#9D2479"/>
<defs>
<linearGradient id="paint0_linear_84_1717" x1="342.315" y1="237.782" x2="294.834" y2="202.824" gradientUnits="userSpaceOnUse">
<stop stop-color="#FE7901"/>
<stop offset="1" stop-color="#FF991B"/>
</linearGradient>
<linearGradient id="paint1_linear_84_1717" x1="441.951" y1="174.333" x2="383.17" y2="116.794" gradientUnits="userSpaceOnUse">
<stop stop-color="#FE7A04"/>
<stop offset="1" stop-color="#FF9E25"/>
</linearGradient>
<linearGradient id="paint2_linear_84_1717" x1="339.115" y1="230.853" x2="273.13" y2="190.637" gradientUnits="userSpaceOnUse">
<stop stop-color="#FFB12E"/>
<stop offset="1" stop-color="#FFE362"/>
</linearGradient>
<linearGradient id="paint3_linear_84_1717" x1="435.053" y1="169.101" x2="366.497" y2="97.7352" gradientUnits="userSpaceOnUse">
<stop stop-color="#FFB732"/>
<stop offset="1" stop-color="#FFF26F"/>
</linearGradient>
</defs>
</svg>
