<svg width="312" height="310" viewBox="0 0 312 310" fill="none" xmlns="http://www.w3.org/2000/svg">
<g clip-path="url(#clip0_90_2)">
<path d="M0 20C0 8.9543 8.95431 0 20 0H292C303.046 0 312 8.9543 312 20V290C312 301.046 303.046 310 292 310H20C8.95431 310 0 301.046 0 290V20Z" fill="#F875AA"/>
<path d="M33.958 208.952L55.1874 221.862L64.6927 227.565C65.4514 228.026 67.1187 228.79 67.6467 229.456C68.0608 229.979 68.2387 231.179 68.459 231.829L70.2996 237.025C69.2478 236.645 68.2247 235.995 67.2476 235.452L61.2272 231.883L47.7887 223.789L39.024 218.528C37.7303 217.764 36.3638 217.101 35.128 216.243C34.4851 215.797 33.947 215.202 33.5607 214.523C32.5555 212.76 33.4211 210.731 33.958 208.952Z" fill="#422769"/>
<path d="M271.578 122.629C272.772 122.521 274.249 122.27 275.437 122.476C275.771 122.535 276.033 122.646 276.33 122.8L276.519 122.895L277.037 123.206L277.182 123.297C278.377 124.077 279.189 125.33 279.445 126.72C279.765 128.456 279.88 130.258 280.075 132.013L281.216 142.533L285.426 181.702L288.133 205.708L289.149 213.751C289.314 215.106 289.562 216.529 289.597 217.893C289.63 219.161 289.193 220.341 288.471 221.375C287.009 223.466 285.273 224.075 282.826 224.469L209.457 236.173L187.236 239.535L179.891 240.593C178.393 240.799 176.727 240.893 175.271 241.3C171.746 242.285 168.252 243.9 164.848 245.243L147.668 252.035L115.47 265.05L102.851 270.086L96.0399 272.796C95.0277 273.177 93.8593 273.74 92.777 273.84C91.3294 273.974 89.6856 273.529 88.501 272.688C86.1839 271.043 85.8828 268.016 85.1025 265.524C88.0723 264.754 90.7063 263.549 93.5409 262.416L105.437 257.645L124.418 249.838L147.025 240.861L160.375 235.409L164.195 233.816C165 233.467 165.837 233.011 166.675 232.75C168.215 232.27 170.07 232.207 171.67 231.969L180.603 230.536L216.785 224.781L258.07 218.047L271.505 215.787C273.771 215.39 276.111 215.113 278.332 214.504C279.345 214.226 280.213 213.866 280.901 213.036C281.66 212.118 282.03 211.224 282.019 210.031C281.99 207.012 281.319 203.862 280.934 200.864L278.645 182.7L274.94 150.011L271.578 122.629Z" fill="#422769"/>
<path d="M33.9583 208.952L29.6758 206.382C28.763 205.844 27.5019 205.307 26.776 204.531C26.4356 204.168 26.1888 203.643 26.0604 203.168C25.9115 202.616 25.8914 202.092 26.0704 201.545C26.451 200.383 27.2852 199.234 27.8594 198.142L34.7158 185.827C33.0708 184.844 27.5273 182.237 26.919 180.669C26.7099 180.129 26.5353 179.328 26.6941 178.755C27.2055 176.91 28.7112 174.903 29.6621 173.206L31.8405 168.862L29.5658 165.06C29.1046 164.099 29.0289 163.418 29.4201 162.417C30.0311 160.854 31.0007 160.223 32.4635 159.55C32.0123 158.596 31.228 157.869 31.2174 156.741C31.2079 155.721 31.5793 154.873 32.3944 154.242C33.817 153.14 35.8502 152.41 37.4467 151.507L45.655 146.489C53.5001 141.5 60.8595 135.704 68.1114 129.908L99.4348 102.711L113.162 90.3287L143.878 61.6434L164.881 41.0962C165.68 40.2761 166.449 39.5259 167.672 39.5486C168.373 39.5616 169.127 39.6876 169.707 40.105C170.811 40.9003 171.796 42.0301 172.802 42.9525L178.724 48.2622C184.286 53.2116 190.162 57.8828 195.399 63.174L197.238 61.8601C199.164 60.5562 201.375 58.8942 203.85 59.434C204.68 59.615 205.529 60.0549 206.135 60.6534C207.15 61.6573 207.842 63.0853 208.573 64.295C210.444 67.395 212.122 70.6091 214.142 73.618C215.543 73.8218 216.507 74.3231 217.365 75.4565C219.15 77.8133 220.173 80.8543 221.933 83.2189L229.882 80.5255C230.885 80.1992 231.939 79.6763 232.996 79.5864C233.779 79.5195 234.52 79.6479 235.222 79.9975C235.86 80.3148 236.512 80.8267 236.93 81.411C237.882 82.7406 238.485 84.5694 239.112 86.071L243.264 96.1605C245.625 95.4122 247.579 94.5454 249.945 95.7969C250.718 96.2056 251.287 96.8129 251.727 97.5586C252.614 99.0604 253.088 101.126 253.654 102.778L256.014 109.295C256.099 109.527 256.38 110.572 256.521 110.698C256.565 110.738 257.216 110.544 257.461 110.496C259.043 110.181 260.643 110.015 262.244 109.835C265.508 109.469 269.067 109.074 270.266 112.996L270.326 113.183C270.684 114.338 270.745 115.651 270.88 116.851L271.579 122.629L274.94 150.011L278.646 182.7L280.934 200.864C281.32 203.862 281.99 207.012 282.019 210.031C282.031 211.224 281.66 212.118 280.901 213.036C280.214 213.866 279.346 214.226 278.332 214.504C276.111 215.113 273.771 215.39 271.505 215.787L258.071 218.047L216.785 224.781L180.604 230.536L171.67 231.969C170.07 232.207 168.216 232.27 166.675 232.75C165.838 233.011 165.001 233.467 164.196 233.816L160.375 235.409L147.025 240.861L124.419 249.838L105.438 257.644L93.5412 262.416C90.7067 263.548 88.0727 264.754 85.1029 265.524C83.6471 265.52 82.5167 265.47 81.1944 264.778C80.1517 264.233 79.1453 263.279 78.5975 262.24C77.3498 259.875 76.7182 256.784 75.8971 254.219L70.2999 237.025L68.4593 231.829C68.239 231.179 68.0611 229.979 67.647 229.456C67.119 228.79 65.4518 228.026 64.6931 227.565L55.1878 221.862L33.9583 208.952Z" fill="#3B003D"/>
<path d="M225.97 86.267C226.687 86.1247 227.493 85.7454 228.193 85.5035L233.31 83.7107L233.547 84.0125C232.588 84.809 231.436 85.3884 230.335 85.9697C229.451 86.2313 227.426 87.0798 226.548 86.8092L225.97 86.267Z" fill="#FFD796"/>
<path d="M135.512 216.017L135.678 216.343L135.929 216.341C136.804 216.406 137.264 216.006 138.06 215.754L138.286 215.685L138.524 216.045L131.277 219.207C129.843 219.876 128.174 220.954 126.647 221.313L135.512 216.017Z" fill="#E90E8C"/>
<path d="M261.281 114.025L266.093 113.56L266.476 116.92C265.179 117.187 263.358 117.872 262.072 117.753L261.281 114.025Z" fill="#FEE9B4"/>
<path d="M165.17 47.3052L167.87 44.6045L171.813 48.164C171.17 48.7359 170.22 49.6384 169.83 50.3852L169.627 50.4282C168.897 50.3359 166.061 47.8834 165.17 47.3052Z" fill="#FEFEFE"/>
<path d="M214.142 73.6179C215.543 73.8217 216.507 74.323 217.365 75.4564C219.15 77.8132 220.173 80.8542 221.932 83.2188L220.017 83.6911L214.142 73.6179Z" fill="#422769"/>
<path d="M114.642 229.832C114.507 229.777 114.192 229.95 114.069 230.003C113.713 230.155 113.43 230.262 113.046 230.337C113.503 229.791 114.788 229.421 115.436 229.125C117.373 228.242 119.263 227.155 121.23 226.352L128.39 223.64C133.701 221.428 139.097 219.098 144.587 217.376C144.745 217.534 144.687 217.433 144.724 217.696L114.642 229.832Z" fill="#240132"/>
<path d="M169.253 74.27L175.518 74.9984L172.222 76.6607C171.561 77.0337 167.994 79.3523 167.427 79.375C166.939 79.3941 166.19 79.151 165.694 79.0678L162.248 78.6185C163.105 78.4517 163.773 78.0015 164.517 77.5756C166.153 76.6389 167.885 75.5591 169.253 74.27Z" fill="#E90E8C"/>
<path d="M247.543 99.2212L247.822 99.3229L251.999 111.049L249.547 111.6C248.695 110.081 248.098 108.279 247.451 106.66L244.747 100.003L247.543 99.2212Z" fill="#901E17"/>
<path d="M252.622 118.999L250.925 115.386C251.174 115.208 251.636 115.233 251.943 115.199L254.871 114.891L261.281 114.025L262.072 117.753L262.073 117.877L252.622 118.999Z" fill="#FD5879"/>
<path d="M153.557 207.282C153.718 207.278 154.11 207.011 154.265 206.928L156.74 205.53L165.411 200.82L177.056 193.809L176.984 193.925C176.417 194.792 175.16 195.327 174.281 195.868L167.73 199.804C166.88 200.286 165.583 200.817 164.905 201.475C164.58 201.79 164.666 202.062 164.688 202.452L164.685 202.681C164.981 202.634 165.028 202.599 165.293 202.455C165.5 202.343 165.691 202.275 165.902 202.152L166.969 201.547L167.578 201.244L167.769 201.168L168.424 200.828C168.626 200.727 168.763 200.59 168.949 200.487L169.14 200.411C169.452 200.275 169.741 200.095 170.054 199.957L170.566 199.718C170.797 199.613 170.916 199.487 171.12 199.351C171.313 199.223 171.52 199.141 171.73 199.049L172.189 198.817C172.397 198.714 172.329 198.749 172.606 198.669L172.758 198.519L173.139 198.368L173.367 198.217L173.977 197.914C174.184 197.801 174.374 197.735 174.586 197.611L175.652 197.006L176.11 196.778L176.343 196.66L177.366 196.173L177.87 195.914C178.331 195.67 178.654 195.559 179.165 195.489C176.112 197.465 172.584 198.931 169.372 200.656L153.106 209.059L138.524 216.045L138.286 215.684C139.291 215.286 140.295 214.674 141.25 214.162L147.54 210.638C149.527 209.502 151.635 208.524 153.557 207.282Z" fill="#FE339A"/>
<path d="M215.358 183.388L215.357 183.417L171.177 203.279L163.527 206.268C161.94 206.884 160.344 207.602 158.687 208.002L216.882 177.314C216.833 177.427 216.821 177.565 216.735 177.653C216.544 177.847 215.792 178.124 215.517 178.261L211.79 180.119L206.731 182.852L198.206 187.172L178.02 198.006L177.411 198.331C177.188 198.457 177.04 198.592 176.862 198.77L176.68 198.801C176.41 198.863 176.522 198.82 176.345 198.968C176.161 199.121 176.07 199.123 175.844 199.185C175.405 199.305 175.227 199.5 174.931 199.824L174.731 200.04C174.572 200.295 174.674 200.642 174.421 200.839C174.063 201.119 173.775 201.401 173.474 201.741L173.824 201.924C173.981 201.872 174.123 201.781 174.281 201.735L174.586 201.697L174.738 201.584C174.939 201.464 175.62 201.176 175.839 201.133C176.187 201.064 175.889 201.144 176.262 200.941C176.549 200.785 176.368 200.935 176.719 200.827C176.947 200.757 177.472 200.494 177.633 200.336L177.9 200.372L178.073 200.245C178.531 199.928 178.008 200.275 178.547 200.032L178.699 199.919L178.854 199.869C179.144 199.773 178.949 199.848 179.237 199.692C179.526 199.536 179.405 199.593 179.749 199.524C180.108 199.452 180.124 199.336 180.413 199.2L180.68 199.123L180.832 198.974C181.051 198.829 180.983 198.938 181.213 198.896C181.576 198.83 181.325 198.849 181.594 198.671L181.784 198.595L182.203 198.368L182.47 198.404L182.584 198.217L182.813 198.215L183.27 197.988L183.517 197.867C183.895 197.679 183.573 197.85 183.879 197.649C184.3 197.37 184.795 197.312 185.25 197.006L185.631 196.854L185.859 196.74L186.047 196.685C186.348 196.595 186.167 196.66 186.507 196.475L186.812 196.324L186.966 196.241C187.172 196.139 187.104 196.174 187.383 196.135L187.536 196.021L188.297 195.644C188.427 195.573 188.618 195.531 188.754 195.492C189.181 195.368 189.614 195.189 189.973 194.924L190.277 194.885L190.43 194.735C190.612 194.615 191.023 194.441 191.23 194.356L191.496 194.281C191.796 194.194 191.863 194.141 192.106 193.978L192.488 193.826L192.715 193.676L193.021 193.599C193.352 193.505 193.509 193.402 193.781 193.222L193.972 193.145C194.308 192.986 194.498 192.912 194.848 192.805L195.343 192.54L195.555 192.448C195.838 192.319 195.72 192.385 195.99 192.162L196.219 192.161L196.435 192.015C196.716 191.83 196.802 191.792 197.133 191.745L197.361 191.557L197.515 191.555L197.742 191.405L197.933 191.329L198.554 191.063C198.945 190.908 198.5 191.091 198.961 190.8L199.151 190.723L199.299 190.647C199.578 190.509 199.339 190.624 199.723 190.497C199.987 190.41 200.247 190.28 200.482 190.135C200.744 189.973 200.986 189.912 201.246 189.74L201.437 189.664L201.584 189.588C201.841 189.46 201.66 189.547 202.008 189.437C202.447 189.299 203.167 189.038 203.455 188.681L203.684 188.679L203.836 188.529L204.217 188.378L204.445 188.227L205.055 187.924C205.281 187.798 205.572 187.723 205.822 187.66C206.108 187.588 206.26 187.386 206.578 187.317L206.731 187.167C206.944 187.04 207.118 187.011 207.34 186.864C207.458 186.786 207.678 186.762 207.797 186.711L208.14 186.485L208.332 186.409L208.559 186.259C208.879 186.085 208.621 186.275 209.016 186.145L209.206 186.031C209.406 185.918 209.571 185.891 209.777 185.803C210.013 185.703 210.302 185.511 210.539 185.388C210.713 185.297 210.833 185.205 211.02 185.131C211.337 185.005 211.647 184.825 211.948 184.669L212.291 184.442L212.634 184.479L212.748 184.291L212.977 184.289C213.276 184.223 213.486 183.976 213.738 183.837C213.858 183.771 214.074 183.719 214.195 183.684L214.348 183.534L214.538 183.458L214.686 183.382C214.82 183.315 214.974 183.295 215.109 183.23L215.246 183.113L215.358 183.388Z" fill="#FE339A"/>
<path d="M162.073 79.0667L167.062 79.6954L146.5 92.4911C147.388 91.2935 148.352 90.1797 149.342 89.0663C149.798 88.5534 150.485 87.9734 150.791 87.3667C151.113 86.4286 156.739 83.0836 157.926 82.2305L162.073 79.0667Z" fill="#FE339A"/>
<path d="M43.6407 188.828C44.1462 189.468 44.5435 190.317 44.9472 191.025L47.0346 194.607L52.9273 204.739L50.3304 203.184L40.0566 196.716L43.6407 188.828Z" fill="#9A306E"/>
<path d="M171.814 48.1641L187.187 61.7475C186.394 62.2273 184.109 63.5944 183.225 63.4988C182.709 62.6208 181.504 61.7732 180.756 61.0781L173.201 53.7892L170.759 51.5819C170.567 51.4109 169.997 51.0219 169.886 50.8193C169.815 50.6913 169.848 50.5299 169.83 50.3852C170.22 49.6384 171.17 48.7359 171.814 48.1641Z" fill="#FEE9B4"/>
<path d="M85.9336 246.606C87.468 245.386 89.6054 244.493 91.3144 243.476C92.8808 242.545 94.5261 241.197 96.1915 240.506C97.1281 240.118 98.3469 240.025 99.3502 239.842C99.5345 240.891 99.7326 241.987 99.5486 243.049L99.512 243.247C99.3932 243.941 99.2088 244.53 98.9471 245.185C97.5766 247.407 96.0596 248.666 93.463 249.276C91.4722 249.743 89.5085 249.431 87.7812 248.364C87.1027 247.945 86.3032 247.327 85.9336 246.606Z" fill="#B2464A"/>
<path d="M262.072 117.753C263.358 117.872 265.179 117.187 266.476 116.92L271.201 157.171C270.625 155.805 270.605 154.042 270.359 152.581L269.202 146.906L262.073 117.877L262.072 117.753Z" fill="url(#paint0_linear_90_2)"/>
<path d="M187.187 61.7476L191.232 65.4397L187.535 67.676C187.158 67.5607 187.031 67.4411 186.723 67.2037L187.148 67.8882C186.501 68.5373 185.418 69.0386 184.625 69.5163C182.369 70.8771 179.931 72.1598 177.789 73.6759C176.892 74.311 171.601 73.6541 170.382 73.4376L170.276 73.4174C170.527 73.2433 170.435 73.296 170.669 73.1703C171.42 72.7692 172.181 72.3629 172.876 71.8689C174.762 70.5269 176.438 68.939 178.252 67.5125L181.365 65.2136C182.003 64.751 182.73 64.2969 183.224 63.679L183.225 63.4989C184.109 63.5945 186.394 62.2274 187.187 61.7476Z" fill="#CD4635"/>
<path d="M148.576 228.186C148.666 228.188 148.609 228.178 148.728 228.269C147.508 228.875 146.08 229.263 144.8 229.756L134.1 233.84L118.459 240.115L114.926 241.538C114.275 241.801 113.577 242.188 112.883 242.299L111.802 240.61L109.808 237.431C112.642 237.099 115.577 236.157 118.371 235.542L142.034 229.88L148.576 228.186Z" fill="#9A306E"/>
<path d="M98.9474 245.185L99.2365 244.99C99.4745 244.345 99.7469 243.697 99.8212 243.009L99.8395 242.823C99.972 241.761 99.7533 240.769 99.6512 239.71L108.039 237.846L112.039 243.496L100.643 247.948C98.2311 248.879 95.6805 250.066 93.1193 250.481C91.357 250.766 89.4046 250.714 87.7535 249.978L87.3979 249.81L87.2148 249.728C85.8772 249.116 84.9491 248.138 84.0146 247.041L85.9339 246.606C86.3035 247.327 87.103 247.945 87.7815 248.363C89.5088 249.431 91.4725 249.743 93.4633 249.276C96.0599 248.666 97.5769 247.407 98.9474 245.185Z" fill="#901E17"/>
<path d="M161.04 217.33C162.101 218.386 163.06 219.201 164.336 219.987L147.621 224.475L116.743 231.859L109.092 233.776C108.202 233.991 107.033 234.435 106.127 234.376L106.097 234.306L161.04 217.33Z" fill="#BB027B"/>
<path d="M160.486 211.775C160.514 212.751 160.646 213.823 160.552 214.79C160.648 215.205 160.649 215.689 160.987 215.957C158.259 217.061 155.286 217.763 152.471 218.643L122.489 227.725L117.639 229.146C116.767 229.415 115.547 229.962 114.643 229.832L144.724 217.696L160.486 211.775Z" fill="#BB027B"/>
<path d="M178.69 78.5433L195.885 67.9419L200.613 65.0202C201.35 64.5788 202.156 63.996 202.973 63.7402L208.543 72.9464L207.539 76.8695C207.349 77.6388 207.237 78.484 206.958 79.2218L206.368 78.3832C205.834 76.6694 204.471 74.9329 203.606 73.3375L200.835 68.0282C198.926 68.8613 197.088 70.164 195.301 71.235L179.721 80.9022L178.69 78.5433Z" fill="url(#paint1_linear_90_2)"/>
<path d="M73.8954 131.159C75.0542 130.829 76.1998 130.199 77.3073 129.721C81.6927 127.828 85.778 125.603 89.9558 123.316C91.3342 122.562 92.6813 121.535 94.1432 120.978C92.6404 122.717 90.7054 124.225 89.0134 125.79C87.9708 126.755 86.9461 127.935 85.7999 128.767C84.7301 129.543 83.5056 130.196 82.3761 130.889L76.6687 134.427C67.9614 139.79 59.0313 145.166 49.7861 149.572C50.7633 148.546 52.1072 147.734 53.2529 146.894L61.0218 141.221L69.3346 134.747C70.8163 133.565 72.3016 132.174 73.8954 131.159Z" fill="#E90E8C"/>
<path d="M165.17 47.3052C166.061 47.8834 168.897 50.3359 169.627 50.4282L168.734 51.6328C167.407 52.8022 166.215 54.2221 164.997 55.5096L157.311 63.5647C156.189 64.6915 155.078 65.9146 153.827 66.8981C152.376 65.8667 151.109 63.4915 150.421 61.8936C150.619 61.4868 151.123 61.1298 151.46 60.8147L153.751 58.6035L165.17 47.3052Z" fill="#FE82C1"/>
<path d="M150.791 87.3668C149.679 88.3038 148.605 89.3043 147.664 90.4132C146.959 91.2439 146.342 92.2075 145.572 92.9716C145.082 93.4587 144.339 93.7524 143.753 94.1159L137.784 97.6171C138.155 92.9665 141.26 88.2114 144.61 85.1054C149.544 80.5304 155.452 78.8161 162.072 79.0667L157.926 82.2306C156.738 83.0837 151.112 86.4286 150.791 87.3668Z" fill="#FE82C1"/>
<path d="M41.4019 176.387L34.0303 163.841C35.0805 162.632 36.4148 162.143 37.799 161.402L42.7818 158.684L52.3143 153.315C55.0875 151.799 58.0092 150.37 60.684 148.7L60.7971 148.628L62.5752 151.361L49.0508 159.072L46.2327 160.555L42.6145 162.718C41.7456 163.192 40.7968 163.469 39.9418 163.926C39.6207 164.098 39.5217 164.244 39.3239 164.536C39.1673 165.665 41.0299 168.756 41.8248 169.625L41.9637 169.747L46.5794 177.247C45.3077 177.46 43.3202 176.43 42.1234 175.957L41.4019 176.387Z" fill="url(#paint2_linear_90_2)"/>
<path d="M203.635 216.521L203.414 216.38C206.836 214.682 210.8 213.497 214.428 212.305L235.026 205.842L243.697 203.053C245.315 202.515 247.047 201.702 248.734 201.474L244.123 209.399L203.635 216.521Z" fill="#FE82C1"/>
<path d="M208.543 72.9463L224.893 100.377L230.539 109.919C231.218 111.041 231.894 112.465 232.731 113.457L228.351 116.77L213.843 91.7667L209.338 83.8039C208.517 82.3156 207.583 80.801 206.958 79.2217C207.237 78.4839 207.349 77.6387 207.539 76.8694L208.543 72.9463Z" fill="#FEACA6"/>
<path d="M203.635 216.521L170.327 222.493C171.178 221.979 172.294 221.765 173.251 221.497L178.937 219.913L201.524 213.064L230.249 203.659L252.371 195.833L248.734 201.474C247.047 201.702 245.315 202.515 243.697 203.053L235.026 205.842L214.428 212.305C210.8 213.497 206.836 214.681 203.414 216.38L203.635 216.521Z" fill="#9A306E"/>
<path d="M41.4014 176.388L42.1229 175.958C43.3197 176.431 45.3072 177.461 46.5789 177.247L46.6807 177.306L51.4557 184.939C52.3159 186.344 53.1733 187.987 54.2162 189.259L68.7395 213.629L73.7589 223.126C73.2299 224.676 72.3418 226.285 70.9335 227.197L41.4014 176.388Z" fill="#FE82C1"/>
<path d="M160.486 211.775L240.28 176.063L237.917 181.793C237.804 181.767 237.693 181.708 237.577 181.716C237.008 181.757 235.768 182.52 235.188 182.776L226.26 186.676L216.844 190.633L196.982 199.375L172.717 209.784L165.902 212.695C164.153 213.467 162.416 214.321 160.552 214.79C160.646 213.823 160.514 212.751 160.486 211.775Z" fill="#9A306E"/>
<path d="M112.038 243.497L115.629 248.954L93.4718 257.977L88.6937 259.973C87.6343 260.447 86.5733 261.084 85.4646 261.416C84.95 261.57 84.5341 261.53 84.0408 261.32C83.0384 260.893 82.5637 260.658 82.17 259.614L77.5391 245.627C79.5293 246.759 81.0853 247.281 83.408 247.089L84.014 247.041C84.9485 248.138 85.8765 249.117 87.2141 249.728L87.3972 249.81L87.7528 249.978C89.4039 250.714 91.3563 250.766 93.1186 250.481C95.6799 250.066 98.2304 248.88 100.642 247.948L112.038 243.497Z" fill="#CD4635"/>
<path d="M34.5374 173.46L42.87 187.34C42.6726 188.145 42.0867 189.003 41.7217 189.763L38.1562 196.981C39.712 198.086 41.3883 199.028 43.0004 200.05L50.3605 204.82C51.6295 205.637 53.3354 206.45 54.4034 207.509C55.4759 208.572 56.3061 210.502 57.0992 211.814C59.0843 215.097 61.1726 218.28 62.9319 221.694L57.995 218.606L30.8242 201.896L40.2199 184.233L31.4299 178.978L34.5374 173.46Z" fill="#BB027B"/>
<path d="M177.056 193.809L234.533 157.506L234.669 157.993L234.129 167.267L194.25 187.491L182.662 193.666L180.106 195.036C179.859 195.168 179.434 195.463 179.165 195.489C178.654 195.56 178.331 195.67 177.87 195.914L177.366 196.173L176.343 196.66L176.11 196.778L175.652 197.006L174.586 197.611C174.374 197.735 174.184 197.802 173.977 197.914L173.367 198.217L173.139 198.368L172.758 198.52L172.605 198.669C172.329 198.749 172.396 198.714 172.189 198.817L171.73 199.049C171.52 199.141 171.313 199.223 171.12 199.352C170.916 199.487 170.797 199.613 170.566 199.718L170.054 199.957C169.741 200.095 169.452 200.275 169.14 200.411L168.949 200.487C168.763 200.591 168.626 200.727 168.424 200.828L167.769 201.168L167.578 201.244L166.969 201.547L165.902 202.152C165.691 202.275 165.5 202.343 165.293 202.455C165.028 202.599 164.981 202.634 164.685 202.682L164.688 202.452C164.666 202.062 164.58 201.79 164.905 201.475C165.583 200.817 166.88 200.286 167.73 199.804L174.281 195.868C175.16 195.327 176.417 194.792 176.984 193.925L177.056 193.809Z" fill="#FE82C1"/>
<path d="M169.627 50.4282L169.83 50.3853C169.848 50.53 169.815 50.6913 169.885 50.8194C169.997 51.0219 170.566 51.4109 170.759 51.582L173.201 53.7892L180.756 61.0781C181.504 61.7732 182.709 62.6209 183.225 63.4988L183.224 63.6789C182.73 64.2968 182.003 64.7509 181.365 65.2135L178.252 67.5125C176.438 68.9389 174.762 70.5268 172.875 71.8688C172.181 72.3629 171.42 72.7691 170.669 73.1703C170.434 73.2959 170.527 73.2432 170.276 73.4173C168.785 73.3516 167.159 72.9553 165.712 72.5878C161.546 71.53 157.389 69.8514 154.053 67.1056C157.992 63.526 161.597 59.4954 165.23 55.6153C166.246 54.5309 167.919 53.1622 168.612 51.8732L168.734 51.6328L169.627 50.4282Z" fill="#FEB470"/>
<path d="M169.862 65.8726C169.29 65.6858 168.439 65.3394 168.036 64.8747C167.567 64.3341 167.065 63.7743 166.899 63.058L166.87 62.893L166.8 62.7595C166.526 62.1199 166.707 60.6698 166.982 60.0546L167.107 59.7894L167.247 59.4155C167.645 58.7011 168.774 57.8153 169.57 57.6094L169.711 57.5788L169.87 57.5065C170.75 57.1932 171.652 57.5516 172.454 57.8655C172.719 57.9694 172.881 58.0115 173.11 58.1892L173.291 58.3363C173.951 58.7701 174.498 59.4119 174.76 60.1733L174.832 60.3955C174.988 60.8181 175.014 61.1768 175.047 61.6246C175.081 61.8634 175.151 62.0284 175.06 62.2503C174.963 62.4862 175 62.4277 175.001 62.7141C175.001 63.0913 174.839 63.3102 174.648 63.6223C174.479 63.8987 174.583 63.7128 174.437 64.0616C174.256 64.4957 173.493 65.2619 173.053 65.4284L172.834 65.4896L172.573 65.6391C172.228 65.8208 172.115 65.7394 171.768 65.7993L171.623 65.8635C171.215 66.0279 170.314 65.9264 169.862 65.8726Z" fill="#FEE9B4"/>
<path d="M169.861 65.8726L170.854 65.777C171.385 64.9892 172.346 64.5149 172.944 63.742C173.27 63.3215 173.809 61.5653 174.132 61.3846C174.298 61.2917 174.519 61.4276 174.815 61.2266C174.816 61.4012 174.849 61.5408 174.887 61.7106L175.047 61.6247C175.081 61.8635 175.15 62.0285 175.059 62.2504C174.963 62.4862 175 62.4278 175 62.7142C175.001 63.0914 174.839 63.3103 174.648 63.6224C174.479 63.8988 174.583 63.7129 174.437 64.0617C174.255 64.4958 173.492 65.262 173.053 65.4285L172.834 65.4897L172.572 65.6392C172.228 65.8209 172.115 65.7394 171.768 65.7994L171.623 65.8635C171.215 66.0279 170.314 65.9265 169.861 65.8726Z" fill="#FFD796"/>
<path d="M172.718 209.784L196.982 199.375L216.845 190.633L226.26 186.676L235.189 182.775C235.768 182.52 237.009 181.757 237.578 181.716C237.694 181.708 237.804 181.767 237.917 181.792L235.364 188.587C235.007 189.491 234.674 190.65 234.144 191.45L173.826 211.694L160.988 215.958C160.65 215.689 160.649 215.205 160.553 214.79C162.417 214.321 164.153 213.467 165.903 212.695L172.718 209.784Z" fill="#FE82C1"/>
<path d="M160.553 214.79C162.417 214.321 164.153 213.467 165.903 212.695L172.718 209.784L172.596 210.08L166.576 212.712C165.301 213.249 163.438 213.83 162.351 214.638L163.922 214.714L164.075 214.564C164.171 214.501 164.441 214.443 164.532 214.413L164.722 214.337L165.129 214.228C165.565 214.119 165.971 213.932 166.412 213.845C166.669 213.795 166.552 213.832 166.817 213.656L167.121 213.655L167.274 213.505L167.579 213.503L167.731 213.354L168.036 213.352L168.188 213.202C168.521 213.134 168.857 213.14 169.102 212.899L169.407 212.898L169.559 212.748L170.059 212.639C170.392 212.573 170.108 212.636 170.473 212.445C170.606 212.376 170.828 212.365 170.973 212.336C171.23 212.285 171.132 212.312 171.387 212.143C171.738 212.141 171.679 212.155 171.996 211.991L172.302 211.915L172.526 211.839C172.844 211.734 172.663 211.785 172.963 211.726C173.22 211.675 173.103 211.712 173.368 211.537L173.768 211.507L173.826 211.694L160.988 215.958C160.65 215.689 160.649 215.205 160.553 214.79Z" fill="#FE339A"/>
<path d="M151.746 205.915C151.926 205.562 178.033 189.438 181.157 187.468L213.621 166.43L234.788 152.48C234.91 153.315 234.816 154.23 234.803 155.078C234.789 156.032 234.862 157.063 234.669 157.993L234.533 157.506L177.056 193.809L165.411 200.82L156.74 205.531L154.264 206.928C154.11 207.012 153.718 207.278 153.556 207.282C151.634 208.524 149.527 209.502 147.539 210.638L141.249 214.162C140.294 214.674 139.29 215.286 138.286 215.685L138.06 215.754C137.263 216.006 136.803 216.406 135.928 216.342L135.677 216.343L135.512 216.017L151.746 205.915Z" fill="#9A306E"/>
<path d="M151.746 205.916L151.641 206.133C151.329 206.717 150.118 207.251 149.539 207.593C148.957 207.937 148.43 208.354 147.859 208.713L145.233 210.288C144.335 210.794 143.197 211.278 142.703 212.211L143.285 212.404L143.317 212.785L143.964 212.368L144.205 212.243C144.432 212.121 144.605 212.002 144.802 211.84L145.031 211.839L145.128 211.732C145.314 211.547 145.23 211.633 145.526 211.498C145.715 211.411 145.83 211.337 145.976 211.194C146.193 210.98 146.681 210.831 146.973 210.628C147.389 210.34 147.883 210.094 148.342 209.887C148.541 209.797 148.623 209.73 148.763 209.57L148.992 209.568L149.144 209.418L149.363 209.346C149.633 209.256 149.682 209.184 149.906 209.038C150.295 208.785 150.734 208.605 151.125 208.359L151.391 208.244L151.505 208.056L151.734 208.054C152.055 208.005 152.417 207.717 152.572 207.45L152.8 207.449L152.969 207.312L153.556 207.282C151.634 208.524 149.527 209.502 147.539 210.638L141.249 214.163C140.294 214.675 139.29 215.286 138.286 215.685L138.06 215.754C137.263 216.006 136.803 216.406 135.928 216.342L135.677 216.343L135.512 216.017L151.746 205.916Z" fill="#BB027B"/>
<path d="M189.844 224.976C189.743 225.043 189.814 225.004 189.591 225.044L180.296 226.385L171.72 227.758C169.743 228.073 167.69 228.217 165.75 228.712C163.729 229.227 161.757 230.304 159.837 231.115L149.336 235.448L117.082 248.341L113.762 243.517L123.929 239.497L144.213 231.513L151.702 228.569C153.282 227.936 154.865 227.214 156.501 226.742C158.521 226.161 160.704 225.877 162.77 225.458L182.394 221.808L193.184 219.87C195.622 219.421 198.149 218.742 200.628 218.662C199.436 219.503 190.025 224.593 189.844 224.976Z" fill="#BB027B"/>
<path d="M73.8955 131.159L149.378 62.8569C150.123 64.6331 151.08 66.1174 152.289 67.6144L94.1432 120.977C92.6813 121.535 91.3343 122.562 89.9559 123.316C85.778 125.603 81.6928 127.828 77.3074 129.721C76.1999 130.199 75.0542 130.828 73.8955 131.159Z" fill="#FE82C1"/>
<path d="M97.2592 218.643C101.273 221.209 104.729 224.578 107.339 228.55L85.0726 242.226C83.81 242.977 82.6571 243.432 81.1741 243.014C80.8649 242.926 80.2485 242.744 80.0026 242.551C79.5166 242.171 79.0849 241.241 78.7738 240.696L76.2236 236.188L70.9336 227.197C72.3419 226.284 73.23 224.676 73.759 223.125C74.6005 222.606 75.5612 222.268 76.4615 221.858C81.3487 219.634 86.3221 218.796 91.6843 218.718L95.1172 218.739C95.8223 218.772 96.6041 218.947 97.2592 218.643Z" fill="#CD4635"/>
<path d="M84.36 220.15C84.9206 220.123 85.4468 220.083 85.9944 220.225C87.5608 220.633 88.6442 221.134 89.6351 222.496L89.7521 222.659C90.2058 223.278 90.4827 224.033 90.6753 224.775C90.9608 225.876 90.621 227.421 90.0964 228.403L90.0077 228.565L89.5382 229.346C88.5272 230.714 87.0376 231.445 85.3771 231.668C84.3174 231.668 83.2269 231.572 82.2659 231.083C81.0465 230.462 79.8991 229.23 79.4875 227.918L79.3814 227.581C79.003 226.64 78.8875 225.524 79.1855 224.535L79.2586 224.326C79.45 223.756 79.7218 223.118 80.0575 222.616C81.06 221.116 82.6358 220.446 84.36 220.15Z" fill="#FDA67C"/>
<path d="M162.248 78.6186C156.704 78.1146 151.155 79.7799 146.604 82.9147C142.858 85.4946 139.654 89.6409 138.118 93.9309C137.652 95.2321 137.396 96.6691 137.144 98.0248C134.789 99.8345 131.957 101.25 129.399 102.775L116.714 110.437L99.7702 120.614C97.2142 122.132 94.7359 123.859 92.0537 125.148L153.385 68.5542C155.239 69.6474 157.08 70.7508 159.07 71.5879C162.263 72.9311 165.837 73.737 169.253 74.2701C167.885 75.5592 166.153 76.639 164.517 77.5757C163.773 78.0016 163.105 78.4518 162.248 78.6186Z" fill="#FE339A"/>
<path d="M62.5751 151.361C66.3635 158.208 67.9366 165.452 65.7469 173.11C64.8712 176.174 63.441 179.079 61.6677 181.725C59.5538 184.704 57.1647 187.111 54.2166 189.259C53.1736 187.987 52.3162 186.344 51.4561 184.939L46.681 177.305L46.5793 177.247L41.9636 169.747L41.8246 169.625C41.0297 168.756 39.1671 165.665 39.3238 164.536C39.5215 164.244 39.6205 164.098 39.9417 163.926C40.7966 163.47 41.7454 163.192 42.6144 162.718L46.2325 160.555L49.0506 159.072L62.5751 151.361Z" fill="#FEB470"/>
<path d="M41.9639 169.747C42.4895 169.891 42.7856 170.481 43.1074 170.894L45.235 173.457C45.7234 174.014 46.2182 174.475 46.7904 174.948C48.6688 176.501 50.759 177.681 52.9332 178.783C53.8723 179.259 54.8994 179.533 55.7333 180.183C53.6846 179.889 51.5798 179.264 49.6456 178.538C48.9147 178.264 48.1015 178.018 47.4467 177.596C47.1798 177.423 47.0058 177.351 46.6813 177.305L46.5796 177.247L41.9639 169.747Z" fill="#FDA67C"/>
<path d="M46.6807 177.306C47.0052 177.351 47.1791 177.423 47.446 177.596C48.1008 178.019 48.914 178.264 49.645 178.539C51.5791 179.265 53.6839 179.89 55.7326 180.183C57.6034 180.733 59.7411 181.549 61.6673 181.725C59.5534 184.704 57.1643 187.111 54.2162 189.259C53.1732 187.987 52.3159 186.344 51.4557 184.939L46.6807 177.306Z" fill="#F2785B"/>
<path d="M51.1596 160.369C52.0886 160.343 53.0584 160.24 53.9587 160.513C55.1991 160.888 56.3956 161.814 56.9721 162.984L57.0906 163.25C57.2095 163.505 57.3329 163.745 57.4112 164.017C57.8228 165.452 57.6211 167.336 56.8661 168.624C56.0486 170.019 54.8353 170.554 53.3341 170.963C52.5231 170.999 51.7979 170.995 51.0066 170.788L50.7306 170.712L50.4832 170.648C49.5353 170.363 48.2233 169.54 47.7855 168.608C47.4719 167.94 47.3166 167.438 47.1209 166.731C46.9086 165.963 46.9528 165.094 47.1919 164.317L47.269 164.082C47.404 163.66 47.4991 163.247 47.7486 162.875L47.9107 162.644C48.4905 161.754 49.3263 160.998 50.3506 160.651L51.1596 160.369Z" fill="#FEE9B4"/>
<path d="M249.4 171.748L261.508 166.244L262.827 169.978L268.278 186.152L259.538 189.061L247.861 193.102L228.516 199.953L201.716 208.667L196.054 210.457C195.477 210.639 194.536 211.068 193.97 211.082L164.336 219.987C163.061 219.201 162.101 218.386 161.04 217.33L193.12 206.701C194.178 206.15 195.568 205.809 196.702 205.397L207.929 201.528L230.84 193.834C231.335 193.671 235.1 192.569 235.203 192.444C235.473 192.114 235.717 191.188 235.887 190.771L238.519 183.942C238.888 182.986 239.219 181.811 239.764 180.954L239.904 180.741L241.673 176.418C241.798 176.14 242.025 175.442 242.225 175.234C242.509 174.937 243.519 174.568 243.929 174.369L249.4 171.748Z" fill="#FD5879"/>
<path d="M249.4 171.748L261.508 166.244L262.827 169.978L257.053 172.59C257.514 173.136 258.11 173.679 258.451 174.301L258.59 174.542C258.873 175.037 259.045 175.497 259.211 176.04L259.292 176.267C259.391 176.581 259.305 176.874 259.43 177.168C259.588 177.543 259.579 178.777 259.426 179.156L259.364 179.294C259.305 179.59 259.309 179.758 259.211 180.051L259.172 180.231C259.114 180.478 258.999 180.652 258.907 180.884L258.868 181.029C258.682 181.666 258.195 182.188 257.823 182.724C257.47 183.234 256.978 183.65 256.469 183.987L256.289 184.128C256 184.35 255.667 184.5 255.361 184.702C255.08 184.887 255.017 184.88 254.718 184.96L254.494 185.036C254.206 185.132 253.922 185.168 253.636 185.269C252.965 185.505 251.655 185.386 250.986 185.196C250.259 184.99 249.646 184.926 249.033 184.419L249.011 184.389L248.398 183.987C248.056 183.791 247.9 183.603 247.648 183.306C247.013 182.559 246.499 181.818 246.184 180.879L245.961 180.203C245.828 179.864 245.867 179.644 245.808 179.294C245.752 178.962 245.675 178.755 245.673 178.39C245.671 178.147 245.709 178.277 245.502 178.038L239.904 180.741L241.673 176.418C241.798 176.14 242.025 175.442 242.225 175.234C242.509 174.937 243.519 174.568 243.929 174.369L249.4 171.748Z" fill="#CD4635"/>
<path d="M250.416 172.029C251.155 171.568 251.879 171.439 252.74 171.383C253.166 171.356 253.385 171.354 253.805 171.425L254.2 171.443C254.874 171.478 255.419 171.738 256.014 172.03L256.166 172.256L256.394 172.263L256.797 172.62L256.778 172.688L256.986 173.175C256.428 173.498 255.886 173.799 255.287 174.042C255.275 174.361 255.417 174.522 255.559 174.802C254.648 174.356 254.39 174.339 253.424 174.668C251.898 175.187 249.922 175.974 248.788 177.145L248.323 177.232C247.616 177.482 246.931 177.723 246.191 177.864L246.192 177.058C246.174 176.727 246.134 176.416 246.276 176.107C246.345 175.957 246.432 175.815 246.493 175.662C246.59 175.416 246.606 175.317 246.802 175.122L246.949 174.98C247.096 174.737 247.263 174.598 247.406 174.374C247.574 174.111 247.697 173.784 248.015 173.617C248.37 173.432 248.136 173.66 248.367 173.426C248.593 173.197 248.717 173.035 249.015 172.886C249.328 172.731 249.16 172.855 249.434 172.61C249.679 172.392 249.791 172.291 250.129 172.276L250.301 172.277L250.416 172.029Z" fill="#B2464A"/>
<path d="M248.068 175.639C250.93 174.055 253.489 173.057 256.778 172.688L256.986 173.174C256.428 173.498 255.886 173.799 255.287 174.042C255.275 174.361 255.416 174.521 255.558 174.802C254.648 174.356 254.389 174.339 253.424 174.668C251.897 175.187 249.922 175.974 248.788 177.145L248.323 177.231C247.615 177.481 246.931 177.722 246.19 177.864L246.191 177.057C246.342 177.011 246.678 176.634 246.816 176.51C247.206 176.16 247.608 175.893 248.068 175.639Z" fill="#F2785B"/>
<path d="M246.191 177.057C246.342 177.011 246.678 176.634 246.816 176.51C247.206 176.16 247.608 175.893 248.068 175.639L248.825 175.813C248.955 176.325 248.528 176.749 248.323 177.232C247.615 177.482 246.931 177.723 246.19 177.864L246.191 177.057Z" fill="#FD5879"/>
<path d="M256.986 173.175C258.196 174.228 258.685 175.328 259.013 176.867C259.182 177.661 259.119 178.74 258.938 179.522L258.904 179.735C258.572 181.528 257.275 183.128 255.757 184.093C255.107 184.506 254.334 184.683 253.592 184.856C252.04 185.219 250.441 184.735 249.079 184.026L248.777 183.774C248.416 183.507 248.179 183.336 247.905 182.976C247.472 182.403 246.936 181.804 246.69 181.121C246.291 180.008 246.037 179.048 246.191 177.864C246.931 177.723 247.615 177.482 248.323 177.232L248.788 177.145L248.572 178.197C248.413 179.465 248.895 180.586 249.699 181.545C250.37 182.346 251.51 182.723 252.524 182.822C253.573 182.924 254.633 182.627 255.433 181.943C256.415 181.103 257.056 179.833 257.103 178.538C257.156 177.055 256.55 175.873 255.559 174.802C255.417 174.522 255.275 174.361 255.287 174.042C255.886 173.799 256.428 173.498 256.986 173.175Z" fill="#FDA67C"/>
<path d="M248.788 177.145C249.922 175.974 251.897 175.187 253.424 174.668C254.389 174.339 254.648 174.356 255.558 174.802C256.55 175.873 257.155 177.055 257.102 178.538C257.056 179.833 256.415 181.103 255.433 181.943C254.632 182.627 253.573 182.924 252.524 182.822C251.51 182.723 250.37 182.346 249.699 181.545C248.895 180.586 248.412 179.465 248.571 178.197L248.788 177.145Z" fill="#FEE9B4"/>
<path d="M252.622 118.999L262.072 117.877L269.201 146.906L270.358 152.581C270.605 154.042 270.625 155.805 271.201 157.171C271.411 158.007 271.405 158.903 271.478 159.762L271.906 163.457L273.848 179.294L276.427 199.845C276.887 203.379 277.563 207.004 277.795 210.552L228.006 218.707L206.584 222.23L195.678 224.119C193.781 224.429 191.76 224.857 189.844 224.976C190.024 224.593 199.435 219.503 200.628 218.662C203.384 217.721 206.532 217.464 209.403 216.92L228.265 213.548C228.368 213.428 229.12 213.34 229.303 213.304L241.551 211.07L244.284 210.669C244.381 210.657 244.994 210.629 245.052 210.584C245.308 210.385 245.59 209.689 245.75 209.401L247.459 206.369L253.416 196.876C253.746 196.391 254.164 195.481 254.597 195.112C254.845 194.9 255.399 194.765 255.718 194.653L258.486 193.741L266.904 190.932C268.226 190.471 269.7 190.068 270.943 189.433C271.952 188.918 272.42 188.007 272.73 186.964L272.792 186.748C273.108 185.708 270.817 180.325 270.368 179.068C268.789 174.644 267.025 170.153 265.791 165.625C265.744 165.45 265.428 164.493 265.464 164.378C265.483 164.316 265.582 164.325 265.641 164.298L266.449 163.924C267.688 163.319 269.261 162.562 269.773 161.209C270.058 160.458 269.965 159.58 269.74 158.826C269.085 156.621 268 154.529 267.074 152.427L262.479 141.953L252.622 118.999Z" fill="url(#paint3_linear_90_2)"/>
<path d="M263.138 195.795C263.808 195.785 264.786 195.651 265.414 195.859C266.918 196.357 268.075 196.957 268.975 198.299L269.115 198.517C269.395 198.948 269.691 199.451 269.811 199.956L269.878 200.335L269.958 200.467C270.155 200.861 270.12 202.391 269.968 202.816C269.62 203.789 269.45 204.738 268.727 205.552C268.598 205.697 268.504 205.793 268.409 205.968L268.355 206.087C267.922 206.285 267.702 206.682 267.283 206.903L267.058 207.01C266.763 207.176 266.549 207.339 266.222 207.449L265.763 207.602C265.333 207.785 264.975 207.838 264.508 207.905C263.22 207.914 262.425 207.823 261.193 207.45C260.968 207.382 260.955 207.408 260.736 207.299C259.611 206.738 258.526 205.432 258.121 204.261L258.053 204.044C257.94 203.707 257.912 203.391 257.819 203.059L257.749 202.916C257.619 202.615 257.626 201.698 257.743 201.391C257.84 201.138 257.801 201.322 257.82 200.949C257.841 200.53 257.989 200.263 258.122 199.88C258.219 199.599 258.255 199.404 258.434 199.157L258.572 198.972C258.986 198.171 259.674 197.486 260.446 196.975L260.66 196.839C260.884 196.678 260.989 196.561 261.259 196.468L263.138 195.795Z" fill="#F2785B"/>
<path d="M263.366 197.851C264.009 197.835 265.266 197.66 265.777 198.066L265.916 198.188C266.585 198.764 267.161 199.322 267.491 200.154L267.56 200.335L267.766 200.923C268.014 201.969 267.809 203.163 267.242 204.071C266.622 205.064 265.585 205.575 264.484 205.86C263.619 205.889 262.872 205.928 262.055 205.581C261.04 205.15 260.501 204.346 260.147 203.333C259.788 202.303 259.701 200.939 260.246 199.958C260.91 198.763 262.128 198.246 263.366 197.851Z" fill="#FDA67C"/>
<path d="M233.547 84.0125L252.938 130.751C253.569 131.844 254.007 133.056 254.513 134.211L256.905 139.571L262.812 153.232L265.677 159.83L215.358 183.388L215.246 183.113L215.109 183.23C214.974 183.295 214.82 183.315 214.685 183.382L214.538 183.458L214.347 183.534L214.195 183.684C214.074 183.719 213.858 183.771 213.738 183.837C213.486 183.976 213.276 184.223 212.976 184.29L212.748 184.291L212.634 184.479L212.291 184.442L211.948 184.669C211.647 184.825 211.336 185.005 211.02 185.131C210.833 185.205 210.712 185.297 210.539 185.388C210.302 185.511 210.013 185.703 209.777 185.803C209.57 185.891 209.406 185.918 209.206 186.031L209.015 186.145C208.621 186.276 208.878 186.085 208.558 186.259L208.331 186.409L208.139 186.485L207.797 186.711C207.678 186.762 207.458 186.786 207.34 186.864C207.117 187.011 206.944 187.04 206.73 187.167L206.578 187.317C206.26 187.387 206.108 187.588 205.821 187.66C205.572 187.723 205.281 187.799 205.055 187.924L204.445 188.227L204.217 188.378L203.836 188.529L203.683 188.679L203.455 188.681C203.166 189.038 202.447 189.3 202.008 189.438C201.659 189.547 201.84 189.461 201.584 189.588L201.436 189.664L201.246 189.74C200.985 189.912 200.743 189.973 200.482 190.135C200.247 190.28 199.986 190.41 199.722 190.497C199.338 190.624 199.578 190.509 199.299 190.648L199.151 190.724L198.961 190.8C198.5 191.091 198.944 190.908 198.554 191.064L197.932 191.329L197.742 191.405L197.515 191.555L197.361 191.557L197.133 191.745C196.801 191.792 196.716 191.83 196.435 192.015L196.219 192.161L195.99 192.162C195.72 192.385 195.838 192.32 195.554 192.448L195.343 192.54L194.847 192.805C194.498 192.912 194.307 192.986 193.971 193.145L193.781 193.222C193.508 193.402 193.352 193.505 193.02 193.6L192.715 193.676L192.488 193.826L192.105 193.979C191.862 194.141 191.796 194.194 191.496 194.281L191.229 194.356C191.023 194.441 190.612 194.615 190.43 194.735L190.277 194.885L189.972 194.924C189.614 195.19 189.181 195.368 188.754 195.492C188.618 195.532 188.427 195.573 188.297 195.644L187.536 196.021L187.383 196.135C187.104 196.174 187.172 196.139 186.966 196.241L186.811 196.324L186.507 196.476C186.167 196.66 186.347 196.595 186.047 196.685L185.859 196.74L185.631 196.855L185.25 197.006C184.795 197.313 184.3 197.37 183.879 197.649C183.573 197.851 183.895 197.68 183.517 197.868L183.269 197.988L182.812 198.215L182.584 198.217L182.47 198.405L182.203 198.368L181.784 198.595L181.594 198.671C181.325 198.849 181.576 198.83 181.213 198.897C180.982 198.939 181.05 198.829 180.832 198.974L180.679 199.124L180.413 199.2C180.124 199.336 180.107 199.452 179.749 199.524C179.404 199.593 179.526 199.537 179.237 199.692C178.949 199.848 179.144 199.773 178.854 199.869L178.699 199.919L178.547 200.032C178.007 200.275 178.53 199.928 178.073 200.245L177.899 200.372L177.633 200.336C177.472 200.494 176.947 200.757 176.719 200.827C176.367 200.935 176.548 200.786 176.262 200.941C175.889 201.144 176.187 201.064 175.838 201.133C175.62 201.176 174.938 201.465 174.738 201.584L174.586 201.697L174.281 201.736C174.123 201.781 173.981 201.872 173.824 201.924L173.474 201.741C173.775 201.401 174.062 201.119 174.421 200.839C174.673 200.642 174.572 200.295 174.731 200.04L174.931 199.824C175.227 199.5 175.405 199.306 175.844 199.185C176.07 199.123 176.16 199.121 176.345 198.968C176.522 198.82 176.41 198.863 176.68 198.801L176.862 198.771C177.04 198.592 177.188 198.457 177.411 198.331L178.02 198.006L198.206 187.173L206.73 182.852L211.79 180.119L215.517 178.261C215.792 178.124 216.544 177.847 216.734 177.653C216.821 177.565 216.833 177.428 216.882 177.315C217.343 176.941 218.024 176.696 218.559 176.432L221.456 175.001L231.122 170.144C232.573 169.422 234.074 168.805 235.493 168.022L236.168 155.688C236.416 154.253 236.37 152.64 236.445 151.179L236.704 151.07C237.657 150.656 238.567 150.016 239.464 149.489L245.175 145.987C246.77 144.982 248.609 144.058 250.026 142.815C250.665 142.256 251.158 141.666 251.449 140.864C251.78 139.953 251.828 139.23 251.481 138.312C250.739 136.346 249.361 134.443 248.303 132.617L242.705 122.869L234.175 107.712L226.15 93.9972C224.905 91.8681 223.488 89.8283 222.392 87.6171L225.969 86.2669L226.548 86.8091C227.425 87.0798 229.451 86.2312 230.334 85.9696C231.435 85.3884 232.588 84.8089 233.547 84.0125Z" fill="#FD5879"/>
<path d="M230.334 85.9695L251.788 132.917L251.842 133.046C252.776 135.26 254.128 137.34 255.198 139.499C255.638 140.388 256.131 141.313 256.337 142.29C256.459 142.868 256.492 143.712 256.285 144.268C255.816 145.531 254.505 146.116 253.375 146.674C253.029 146.845 252.619 146.96 252.402 147.28L253.676 148.098L254.017 148.316C254.584 148.691 255.216 149.351 255.556 149.931C255.824 150.386 256.068 150.707 256.238 151.216L256.311 151.429C256.405 151.721 256.373 151.611 256.427 151.902C256.499 152.294 256.42 151.966 256.551 152.29C256.708 152.681 256.703 154.55 256.538 154.942L256.469 155.076C256.311 155.522 256.211 155.919 256.012 156.362C255.862 156.696 255.758 156.963 255.552 157.27L255.413 157.483C254.949 158.171 254.155 159.078 253.422 159.465C252.444 159.982 251.47 160.518 250.328 160.521C250.072 160.522 249.987 160.534 249.767 160.65C249.391 160.586 249.034 160.533 248.653 160.514C248.374 160.501 248.331 160.465 248.091 160.372L247.877 160.303C246.653 159.897 245.026 158.956 244.358 157.801L244.283 157.647L244.142 157.402C243.918 157.009 243.727 156.644 243.603 156.21L243.376 155.534C243.258 155.165 243.22 154.837 243.219 154.455C243.219 154.111 243.252 154.255 243.153 154.018C242.899 153.409 243.246 152.727 243.175 152.091C242.455 152.09 240.897 153.25 240.235 153.618C238.914 154.352 237.558 155.092 236.167 155.688C236.415 154.253 236.37 152.64 236.445 151.178L236.703 151.069C237.657 150.656 238.567 150.015 239.464 149.489L245.174 145.987C246.77 144.981 248.608 144.058 250.026 142.815C250.664 142.255 251.158 141.666 251.449 140.864C251.78 139.953 251.827 139.23 251.481 138.312C250.739 136.346 249.361 134.443 248.303 132.617L242.705 122.869L234.174 107.712L226.15 93.9971C224.905 91.868 223.488 89.8281 222.392 87.617L225.969 86.2668L226.548 86.809C227.425 87.0796 229.45 86.231 230.334 85.9695Z" fill="url(#paint4_linear_90_2)"/>
<path d="M247.785 147.659C248.11 147.658 248.109 147.616 248.396 147.809L248.245 148.037L248.396 148.263C248.991 148.036 249.541 147.939 250.148 147.774C250.659 147.636 251.113 147.59 251.643 147.704L251.9 147.772C252.489 147.912 252.979 148.067 253.5 148.4C254.565 149.079 255.703 150.414 255.976 151.679L256.033 151.973C256.251 152.746 256.277 153.788 256.156 154.594L256.113 154.849C256.043 155.291 255.885 155.643 255.736 156.06C255.572 156.519 255.37 156.872 255.1 157.275L254.948 157.498C254.281 158.552 253.31 159.127 252.231 159.681C251.976 159.784 251.702 159.831 251.443 159.921L251.231 160.002C249.789 160.477 248.107 160.048 246.796 159.408C246.041 159.04 245.267 158.341 244.78 157.652L244.643 157.428C244.393 157.031 244.182 156.691 244.042 156.239C243.981 156.044 243.93 155.858 243.848 155.67C243.726 155.391 243.656 155.201 243.642 154.892C243.633 154.714 243.63 154.552 243.599 154.375C243.513 153.885 243.515 153.486 243.596 152.994C243.7 152.366 243.713 151.643 244.139 151.131L244.281 150.989L244.131 150.839C244.206 150.629 244.264 150.478 244.401 150.298L244.51 150.156C244.793 149.594 245.601 148.761 246.159 148.428L246.339 148.339L246.563 148.225L246.797 148.111L247.785 147.659Z" fill="#FDA67C"/>
<path d="M249.326 149.569C249.919 149.511 250.579 149.465 251.139 149.707C252.325 150.22 253.133 151.127 253.524 152.346C253.859 153.393 253.604 154.778 253.115 155.732C252.474 156.982 251.508 157.503 250.223 157.898C249.53 157.906 248.931 157.914 248.274 157.676C247.301 157.323 246.49 156.485 246.075 155.542C245.671 154.622 245.669 153.432 246.06 152.502C246.72 150.937 247.805 150.17 249.326 149.569Z" fill="#FEE9B4"/>
<path d="M233.378 114.795L247.547 139.762L230.805 150.002L212.424 162.295L168.492 190.58L123.383 218.561L112.993 224.811C111.696 225.601 109.636 226.542 108.684 227.709L104.553 222.917L220.61 150.625C219.928 148.937 219.163 147.254 218.736 145.479C217.992 142.385 218.139 138.887 218.675 135.768C220.161 127.114 226.33 119.753 233.378 114.795Z" fill="url(#paint5_linear_90_2)"/>
<path d="M229.848 129.645C230.346 129.636 230.77 129.708 231.258 129.786C231.5 129.825 231.71 129.852 231.944 129.93L232.173 130.011L232.858 130.279C234.213 130.945 235.315 132.087 235.808 133.52L235.906 133.809C236.047 134.175 236.008 134.346 236.07 134.717C236.245 135.748 236.197 136.424 235.834 137.446L235.753 137.668C235.605 138.085 235.428 138.497 235.164 138.856L234.772 139.41L234.671 139.593C233.981 140.692 232.276 141.306 231.082 141.592C230.422 141.605 229.627 141.699 228.985 141.56C228.325 141.416 227.687 141.214 227.121 140.839L226.916 140.697L226.765 140.633C225.946 140.226 225.059 138.818 224.758 137.962L224.688 137.745C224.583 137.436 224.537 137.144 224.451 136.836C224.271 136.188 224.212 135.308 224.383 134.644L224.461 134.414C224.624 133.879 224.75 133.368 225.017 132.871L225.163 132.597C225.299 132.258 225.46 132.122 225.683 131.841C226.337 131.016 227.306 130.339 228.311 130.002L228.516 129.94C228.966 129.777 229.374 129.714 229.848 129.645Z" fill="#FDA67C"/>
<path d="M229.243 131.111C230.369 131.08 231.367 131.05 232.319 131.756L232.47 131.872C233.162 132.379 233.671 133.068 233.879 133.908C234.235 135.339 234.079 137.053 233.261 138.311C232.407 139.626 231.264 140.149 229.774 140.476C228.694 140.495 227.879 140.387 226.841 140.096C226.011 139.181 225.612 138.412 225.213 137.26C225 136.643 224.808 136.168 224.942 135.511L224.984 135.322C225.082 134.843 225.211 134.457 225.455 134.025C226.372 132.409 227.472 131.587 229.243 131.111Z" fill="#FFD796"/>
<path d="M179.722 80.9022L195.301 71.2349C197.088 70.1639 198.926 68.8612 200.835 68.0281L203.606 73.3374C204.472 74.9328 205.834 76.6693 206.369 78.3831L206.959 79.2217C207.584 80.801 208.518 82.3156 209.339 83.8039L213.844 91.7667L228.352 116.77L232.731 113.457C233.058 113.839 233.368 114.278 233.378 114.795C226.33 119.753 220.161 127.114 218.675 135.768C218.139 138.887 217.992 142.385 218.736 145.479C219.163 147.254 219.928 148.937 220.611 150.625L104.553 222.917L108.684 227.709C108.425 228.12 108.115 228.286 107.707 228.525L107.34 228.55C104.729 224.578 101.273 221.209 97.2597 218.643C96.6046 218.947 95.8228 218.772 95.1177 218.739L91.6848 218.718C86.3226 218.796 81.3492 219.634 76.462 221.858C75.5617 222.268 74.601 222.606 73.7595 223.126L68.74 213.629L54.2168 189.259C57.165 187.111 59.554 184.704 61.6679 181.725C63.4412 179.08 64.8714 176.174 65.7471 173.11C67.9369 165.452 66.3638 158.208 62.5753 151.361L60.7971 148.628C61.1573 148.311 61.6835 148.245 62.1387 148.129C62.3297 148.108 62.6637 147.867 62.8337 147.773L65.0914 146.524L85.0378 134.759L156.267 91.9856L170.671 83.2599L175.409 80.3515C175.962 80.0191 176.694 79.4318 177.317 79.3449C177.592 78.859 178.187 78.697 178.691 78.5433L179.722 80.9022Z" fill="#240132"/>
<path d="M206.695 79.5974L212.643 91.4952L208.971 92.8526C208.401 93.0418 207.625 93.199 207.109 93.4763L205.27 85.7953C206.021 83.8402 206.367 81.6587 206.695 79.5974Z" fill="#CD4635"/>
<path d="M68.7393 213.629C77.7388 211.319 87.3977 212.724 95.415 217.434L97.2589 218.643C96.6038 218.947 95.822 218.772 95.117 218.738L91.6841 218.718C86.3219 218.796 81.3484 219.634 76.4613 221.858C75.5609 222.267 74.6002 222.606 73.7587 223.125L68.7393 213.629Z" fill="#FE339A"/>
<path d="M179.721 80.9022L195.301 71.2349C197.088 70.1639 198.925 68.8612 200.834 68.0281L203.605 73.3374C204.471 74.9328 205.834 76.6693 206.368 78.3831L206.695 79.5974C206.366 81.6587 206.021 83.8402 205.269 85.7952L207.108 93.4762C203.226 94.3127 199.175 94.6336 195.282 93.6252L193.216 93.0028C187.371 91.0504 182.454 86.3256 179.721 80.9022Z" fill="#FEB470"/>
<path d="M205.27 85.7952L207.109 93.4761C203.227 94.3126 199.176 94.6335 195.283 93.6251C195.516 93.4528 195.649 93.3732 195.939 93.3181L197.188 93.0378C200.995 91.9915 203.408 89.0835 205.27 85.7952Z" fill="#F2785B"/>
<path d="M196.979 78.1812C197.629 78.1664 198.414 78.0671 199.048 78.1945L199.266 78.243C199.428 78.2769 199.412 78.2599 199.57 78.3235C200.691 78.7758 201.358 79.3821 201.858 80.4799L201.947 80.6788C202.199 81.2185 202.176 82.2563 202.076 82.8463L202.028 83.1012C201.94 83.6092 201.75 83.991 201.49 84.4314L201.336 84.69C201.214 84.9073 201.132 85.1559 200.924 85.3094L200.776 85.3978C200.27 85.7241 199.791 85.9684 199.234 86.1982C198.41 86.2139 197.569 86.3045 196.785 86.0087L196.599 85.9339C195.749 85.65 195.164 85.2228 194.686 84.4635C194.16 83.6307 193.896 82.0653 194.197 81.1117C194.68 79.5792 195.57 78.8387 196.979 78.1812Z" fill="#FEE9B4"/>
<path d="M62.1387 148.129C62.3297 148.108 62.6637 147.867 62.8337 147.774L65.0914 146.524L85.0378 134.759L156.267 91.9856L170.671 83.2599L175.409 80.3516C175.962 80.0192 176.694 79.4319 177.317 79.345C178.132 81.159 179.081 82.781 180.144 84.4575C179.661 84.9773 178.735 85.3561 178.102 85.7257L173.935 88.2163L157.681 97.9634L124.86 117.763L111.182 125.821L101.031 132.03L81.3687 143.794L65.3665 153.45L62.1387 148.129Z" fill="#FE82C1"/>
<path d="M207.221 94.7989L213.115 92.8081L227.342 117.725C221.242 123.395 216.96 130.966 216.689 139.404C216.569 143.149 217.203 146.561 218.676 150.002C215.334 151.835 212.183 154.281 208.986 156.374L186.967 170.742L124.922 209.165L110.686 217.673L106.084 220.432C105.315 220.894 104.435 221.533 103.571 221.775C101.656 220.033 99.7167 218.394 97.5187 217.003C91.2501 213.038 83.3386 210.813 75.9078 211.166L69.5006 211.986L56.293 189.674C58.5653 187.772 60.4821 185.8 62.2889 183.45C64.0927 188.293 66.2709 193.039 69.9131 196.809C75.6543 202.751 83.7953 204.158 91.7354 204.322C96.0617 204.411 100.435 203.684 104.661 202.839C116.321 200.508 127.395 196.382 138.153 191.404L155.548 182.465L168.188 174.647C177.633 168.655 186.897 162.34 194.971 154.57C205.435 144.503 211.4 130.962 211.591 116.469C211.677 109.968 210.315 103.677 208.287 97.5238C208.042 96.7809 207.75 95.3368 207.221 94.7989Z" fill="#BB027B"/>
<path d="M62.2881 183.45C63.5635 181.398 64.8429 179.504 65.8094 177.271C69.0119 169.872 68.8316 162.172 65.8746 154.753L181.012 85.6323C183.056 88.2622 185.57 90.6541 188.481 92.3182C194.275 95.6316 200.737 96.542 207.221 94.7988C207.749 95.3368 208.041 96.7808 208.286 97.5237C210.314 103.677 211.676 109.968 211.59 116.469C211.399 130.962 205.434 144.503 194.971 154.57C186.896 162.34 177.632 168.655 168.187 174.647L155.547 182.465L138.152 191.403C127.395 196.382 116.32 200.508 104.66 202.839C100.434 203.684 96.0609 204.411 91.7346 204.321C83.7945 204.158 75.6535 202.751 69.9123 196.809C66.27 193.039 64.0918 188.293 62.2881 183.45Z" fill="#FE339A"/>
<path d="M182.471 110.742C184.812 109.396 188.201 109.217 190.769 109.903C193.136 110.534 195.003 111.605 196.933 113.076C199.589 115.984 201.398 119.4 201.206 123.444C201.031 127.116 199.529 130.427 196.763 132.889C194.262 135.113 190.359 136.378 187.026 136.157C183.512 135.925 180.242 134.275 177.953 131.623C176.969 130.484 176.247 129.234 175.655 127.855C174.6 124.987 174.164 121.358 175.44 118.479C175.552 118.023 175.723 117.585 175.921 117.158C177.19 114.42 179.573 111.808 182.471 110.742Z" fill="url(#paint6_linear_90_2)"/>
<path d="M182.472 110.742L182.556 110.924C181.907 111.278 180.663 111.81 180.261 112.428C180.609 112.379 180.441 112.449 180.649 112.293C181.129 111.936 181.727 111.722 182.204 111.369L182.504 111.339C182.513 111.417 182.529 111.496 182.525 111.575C179.241 113.276 177.717 115.163 176.325 118.504L176.192 118.32C176.18 117.812 176.417 117.607 176.534 117.144L176.567 117.007L176.91 116.439L177.326 115.718L177.919 114.859C178.07 114.66 178.005 114.798 178.052 114.472C176.946 115.131 176.19 117.384 175.656 118.525L175.44 118.479C175.553 118.023 175.723 117.585 175.922 117.158C177.191 114.42 179.574 111.808 182.472 110.742Z" fill="#010008"/>
<path d="M197.212 115.153C199.308 117.466 200.023 120.437 199.853 123.501C199.682 126.576 198.387 129.558 196.058 131.626C193.773 133.655 190.224 134.955 187.155 134.78C183.858 134.591 180.896 132.86 178.736 130.445C177.294 128.833 176.08 126.169 176.059 123.969L177.405 125.67L178.437 126.787C180.431 128.585 183.346 129.739 186.066 129.546C189.245 129.321 192.561 127.585 194.578 125.14C196.999 122.206 197.591 118.832 197.212 115.153Z" fill="#BB027B"/>
<path d="M182.524 111.575C186.158 110.281 189.46 109.918 193.043 111.614C194.688 112.393 196.251 113.593 197.211 115.153C197.59 118.832 196.998 122.206 194.577 125.14C192.56 127.586 189.244 129.321 186.065 129.546C183.345 129.739 180.43 128.585 178.436 126.787L177.404 125.67L176.058 123.969C175.636 122.1 175.874 120.335 176.324 118.504C177.716 115.163 179.241 113.276 182.524 111.575Z" fill="#FE339A"/>
<path d="M181.589 114.626C182.183 114.523 182.878 114.451 183.463 114.635C184.009 114.808 184.57 115.344 184.79 115.865C185.085 116.567 184.977 117.429 184.702 118.118C184.33 119.047 183.56 119.558 182.662 119.924C182.178 119.984 181.669 120.068 181.184 119.981C180.494 119.857 180.006 119.469 179.638 118.888C179.272 118.309 179.182 117.523 179.373 116.865C179.7 115.738 180.604 115.144 181.589 114.626Z" fill="#FEFEFE"/>
<path d="M82.5616 175.456C83.6563 173.463 85.29 171.911 87.2163 170.725C90.109 168.943 94.0135 168.168 97.3538 168.971C100.571 169.745 102.545 171.177 104.81 173.55C107.313 176.903 108.589 180.655 107.966 184.857C107.454 188.314 105.598 191.393 102.756 193.445C99.7895 195.587 96.3691 196.386 92.7628 195.777C89.0922 195.158 85.6438 192.936 83.5299 189.905C81.3632 186.799 80.547 182.909 81.2544 179.203C81.5043 177.894 81.9784 176.652 82.5616 175.456Z" fill="#240132"/>
<path d="M104.238 175.207C106.119 177.689 107.045 181.156 106.614 184.257C106.18 187.379 104.548 190.194 102.005 192.1C99.6144 193.891 96.4728 194.905 93.4716 194.452L92.549 194.259L92.2742 194.197C89.5728 193.573 86.7995 191.99 85.3294 189.601C85.0217 189.101 84.735 188.577 84.5107 188.035C86.3766 188.78 88.1006 189.469 90.135 189.637C93.4082 189.908 96.9761 188.798 99.4718 186.656C102.767 183.829 103.952 179.348 104.238 175.207Z" fill="#9A306E"/>
<path d="M84.5103 188.035L84.4682 187.993C82.8086 185.895 82.2166 182.287 82.6654 179.726C83.2056 176.645 84.8598 173.784 87.4941 172.01C90.0909 170.262 93.9266 169.649 96.976 170.278C99.9089 170.882 102.59 172.738 104.238 175.207C103.951 179.348 102.766 183.829 99.4713 186.656C96.9757 188.798 93.4078 189.908 90.1345 189.637C88.1001 189.469 86.3762 188.78 84.5103 188.035Z" fill="#FE339A"/>
<path d="M87.5902 173.391L87.8431 173.358C88.2953 173.354 88.4025 173.445 88.7212 173.724C88.7618 173.969 88.8775 174.24 88.7496 174.47C88.4979 174.923 87.8721 175.2 87.4705 175.524C86.9617 175.934 86.6277 176.386 86.2804 176.928L86.15 177.134L85.8453 177.38C85.3913 177.085 85.3575 177.069 85.1631 176.57C85.2298 176.049 85.3273 175.583 85.5753 175.114C85.9976 174.314 86.7234 173.662 87.5902 173.391Z" fill="#FEFEFE"/>
<path d="M88.4329 175.813C88.78 175.753 88.9866 175.71 89.3327 175.819C89.8205 175.972 90.333 176.533 90.5316 176.987C90.7303 177.441 90.7044 178.077 90.4987 178.526C90.2251 179.123 89.7976 179.358 89.1971 179.558C88.9948 179.587 88.7714 179.631 88.5649 179.605C88.0119 179.537 87.4698 179.115 87.1956 178.648C86.9482 178.226 86.9034 177.63 87.0436 177.163C87.2556 176.456 87.8038 176.116 88.4329 175.813Z" fill="#FEFEFE"/>
<path d="M82.5608 175.456C81.9767 175.44 81.5197 175.317 80.9971 175.051C79.5974 174.337 78.4895 173.036 78.0331 171.543L77.9752 171.348C77.4262 169.561 77.5039 167.344 77.9225 165.534C80.0361 156.39 87.6481 149.193 94.7489 143.554C100.105 139.301 105.634 135.581 111.324 131.796L131.189 118.988L146.95 110.076C158.532 104.105 171.745 98.5331 185.045 101.743C189.099 102.721 193.01 105.048 195.222 108.612C195.723 109.42 196.21 110.29 196.531 111.187L196.599 111.384C196.814 111.989 196.943 112.43 196.933 113.076C195.003 111.605 193.136 110.534 190.769 109.903C188.201 109.217 184.812 109.396 182.471 110.742C179.573 111.808 177.19 114.42 175.921 117.158C175.723 117.585 175.552 118.023 175.44 118.479C174.164 121.358 174.6 124.987 175.655 127.855L165.339 138.556L164.177 136.785C162.634 134.777 161.031 132.83 159.123 131.149C155.098 127.602 149.807 125.1 144.459 124.402C137.056 123.435 128.955 125.434 123.05 130.025C117.189 134.583 113.233 141.352 112.361 148.733C111.442 156.525 113.41 162.941 118.051 169.201L116.839 169.514L109.065 172.007C107.644 172.476 106.131 172.848 104.81 173.55C102.544 171.177 100.571 169.746 97.3531 168.971C94.0128 168.168 90.1082 168.944 87.2155 170.725C85.2893 171.912 83.6555 173.463 82.5608 175.456Z" fill="#FE82C1"/>
<path d="M116.839 169.514C115.992 168.345 115.031 167.254 114.24 166.047C112.004 162.635 110.809 158.659 110.298 154.65C109.374 147.403 111.551 139.005 116.114 133.237C120.798 127.315 127.689 123.523 135.214 122.706C143.108 121.849 151.374 123.943 157.646 128.852L158.309 129.391C159.742 130.65 164.055 134.982 164.177 136.785C162.634 134.777 161.031 132.83 159.123 131.149C155.098 127.602 149.807 125.1 144.459 124.402C137.056 123.435 128.955 125.434 123.05 130.025C117.189 134.583 113.233 141.352 112.361 148.733C111.441 156.525 113.41 162.941 118.051 169.201L116.839 169.514Z" fill="#FEFEFE"/>
<path d="M118.052 169.201C113.411 162.941 111.442 156.525 112.362 148.733C113.234 141.352 117.19 134.583 123.051 130.025C128.955 125.434 137.057 123.435 144.46 124.402C149.808 125.1 155.099 127.602 159.124 131.149C161.031 132.831 162.634 134.777 164.178 136.785L165.34 138.556C168.969 144.905 169.946 153.098 168.02 160.135C166.136 167.017 161.453 173.342 155.182 176.871C148.5 180.633 140.667 181.427 133.298 179.392C126.881 177.62 122.31 174.17 118.052 169.201Z" fill="#240132"/>
<path d="M164.275 139.252C167.836 146.078 168.619 154.04 166.253 161.369C164.18 167.791 159.446 173.378 153.397 176.436C146.728 179.806 139.472 180.073 132.436 177.768C127.361 176.105 122.164 172.886 119.093 168.445L125.061 166.454C126.034 167.38 127.006 168.329 128.101 169.115C132.448 172.234 137.284 173.42 142.591 173.308C146.041 173.236 150.817 172.016 153.564 169.836L153.588 169.795L153.288 168.943C157.077 166.218 158.876 162.852 160.525 158.622C161.58 153.653 161.481 149.162 159.485 144.435L158.209 142.045C158.246 141.422 158.21 140.94 158.044 140.339C158.878 141.411 159.549 142.558 160.166 143.765L164.275 139.252Z" fill="#BB027B"/>
<path d="M158.044 140.339C158.877 141.411 159.549 142.558 160.165 143.765C162.078 148.225 162.847 152.565 161.785 157.382C160.703 162.016 157.978 166.999 153.858 169.633L153.587 169.795L153.288 168.943C157.077 166.218 158.876 162.852 160.524 158.622C161.58 153.653 161.481 149.162 159.485 144.435L158.208 142.045C158.246 141.422 158.21 140.94 158.044 140.339Z" fill="url(#paint7_linear_90_2)"/>
<path d="M119.092 168.445L117.637 166.424C113.694 159.955 112.653 152.384 114.518 145.049C116.247 138.249 120.47 132.692 126.55 129.138C132.497 125.662 140.543 124.387 147.25 126.149C154.56 128.07 160.485 132.793 164.274 139.252L160.165 143.765C159.549 142.558 158.877 141.411 158.044 140.339C158.21 140.94 158.246 141.422 158.208 142.044C154.626 137.107 149.895 133.698 143.736 132.751C138.336 131.92 132.501 133.419 128.134 136.67C124.108 139.667 121.415 144.562 120.72 149.49C119.944 154.991 121.629 160.482 124.963 164.889L126.209 166.325C130.911 170.626 136.297 172.634 142.69 172.385C146.372 172.241 150.219 170.943 153.288 168.943L153.587 169.795L153.563 169.835C150.816 172.015 146.04 173.236 142.59 173.308C137.284 173.42 132.447 172.234 128.1 169.115C127.005 168.329 126.034 167.38 125.06 166.454L119.092 168.445Z" fill="#FE339A"/>
<path d="M125.06 166.454L123.12 164.006C119.655 159.037 118.955 153.297 120.076 147.458C120.993 142.686 124.352 137.901 128.408 135.227C133.304 132 139.191 130.747 144.952 131.945C149.904 132.975 155.249 136.082 158.044 140.338C158.21 140.94 158.246 141.422 158.208 142.044C154.626 137.106 149.895 133.698 143.736 132.75C138.336 131.919 132.501 133.419 128.134 136.67C124.108 139.667 121.415 144.562 120.72 149.49C119.944 154.991 121.629 160.482 124.963 164.889L126.209 166.325C130.911 170.626 136.297 172.634 142.69 172.384C146.372 172.241 150.219 170.943 153.288 168.943L153.587 169.795L153.563 169.835C150.816 172.015 146.04 173.236 142.59 173.308C137.284 173.419 132.447 172.234 128.1 169.115C127.005 168.329 126.033 167.38 125.06 166.454Z" fill="#240132"/>
<path d="M126.209 166.325L124.963 164.889C121.629 160.482 119.944 154.991 120.72 149.49C121.415 144.562 124.108 139.667 128.134 136.67C132.501 133.419 138.336 131.92 143.736 132.751C149.895 133.698 154.626 137.107 158.208 142.045L159.485 144.435C161.48 149.161 161.579 153.653 160.524 158.622C158.875 162.852 157.077 166.218 153.288 168.943C150.219 170.943 146.372 172.241 142.69 172.385C136.297 172.634 130.911 170.626 126.209 166.325Z" fill="#FEFEFE"/>
<path d="M128.199 151.639L128.542 151.594C128.76 152.168 128.803 152.315 129.288 152.727C129.772 153.467 130.242 154.038 130.859 154.669L130.972 154.792C134.023 156.622 137.467 156.482 140.842 155.652L143.087 155.031C143.653 155.083 144.265 155.193 144.83 155.183L144.192 155.378L144.119 155.554L144.204 155.625L144.05 155.733C142.738 155.721 141.358 156.139 140.087 156.433C137.182 157.106 134.068 157.44 131.387 155.883L130.861 155.588C129.401 154.675 128.599 153.275 128.199 151.639Z" fill="#090019"/>
<path d="M129.05 145.801C130.023 144.171 131.067 142.921 132.407 141.572C131.92 140.724 131.359 139.975 130.756 139.207L135.229 136.48C135.496 136.981 136.29 138.79 136.708 139.054C136.877 139.16 137.092 138.943 137.284 138.888C140.176 138.069 142.744 137.923 145.603 138.968C144.426 140.879 143.699 142.978 142.779 145.013C142.407 144.818 142.023 144.605 141.62 144.484C140.288 144.085 138.982 144.599 137.852 145.27L137.635 145.4C137.81 144.943 138.075 144.597 138.355 144.201L138.512 144.15C139.793 143.742 140.974 143.698 142.29 143.964C142.527 144.011 142.43 144.009 142.671 143.934C143.201 142.311 143.724 140.68 144.651 139.231C141.621 138.528 139.334 138.877 136.335 139.607C136.048 138.937 135.812 138.374 135.318 137.82C134.411 137.689 132.473 138.926 131.508 139.309L133.01 141.695C131.869 143.147 130.642 144.483 129.773 146.126L129.05 145.801Z" fill="#010008"/>
<path d="M129.773 146.126C130.643 144.483 131.87 143.147 133.01 141.695L131.508 139.309C132.473 138.926 134.411 137.689 135.319 137.82C135.812 138.374 136.049 138.937 136.336 139.607C139.335 138.877 141.621 138.528 144.651 139.232C143.724 140.68 143.201 142.311 142.671 143.934C142.431 144.009 142.528 144.011 142.291 143.964C140.975 143.698 139.793 143.742 138.512 144.15L138.356 144.202C138.076 144.598 137.811 144.943 137.636 145.4C137.169 145.974 136.594 146.608 136.688 147.402C136.773 148.119 137.094 148.476 137.643 148.915C139.739 149.594 142.898 148.074 145.102 147.811C146.317 147.666 147.491 147.774 148.688 148.001L148.956 148.05C150.366 148.321 151.635 148.946 152.692 149.916L152.352 150.218C152.008 150.022 151.673 149.918 151.296 149.807C150.599 150.692 149.322 151.325 148.36 151.889C146.612 152.915 144.753 153.883 143.087 155.031L140.842 155.652C137.467 156.482 134.023 156.622 130.972 154.792L130.859 154.669C130.242 154.038 129.773 153.467 129.289 152.727C128.803 152.315 128.76 152.168 128.542 151.594L128.2 151.639C127.613 149.607 128.16 147.644 129.05 145.801L129.773 146.126Z" fill="#9A306E"/>
<path d="M128.2 151.639C127.613 149.607 128.16 147.644 129.05 145.801L129.773 146.126C128.818 148.21 128.353 150.216 129.181 152.445L129.289 152.727C128.803 152.315 128.76 152.168 128.542 151.594L128.2 151.639Z" fill="#240132"/>
<path d="M151.296 149.807C150.032 149.295 148.602 148.677 147.24 148.518C145.307 148.292 143.37 148.792 141.505 149.229C140.327 149.505 138.887 149.912 137.69 149.609C137.053 149.448 136.499 148.992 136.199 148.409C135.932 147.891 135.957 147.168 136.142 146.628C136.529 145.493 137.271 144.704 138.356 144.201C138.076 144.597 137.811 144.943 137.636 145.4C137.169 145.974 136.594 146.608 136.688 147.402C136.773 148.119 137.094 148.476 137.643 148.915C139.739 149.594 142.898 148.074 145.102 147.811C146.317 147.666 147.491 147.774 148.688 148.001L148.956 148.05C150.366 148.321 151.635 148.946 152.692 149.916L152.352 150.218C152.008 150.022 151.673 149.918 151.296 149.807Z" fill="#240132"/>
<path d="M159.485 144.435C161.481 149.161 161.58 153.653 160.524 158.622C158.875 162.852 157.077 166.218 153.288 168.943C150.219 170.943 146.372 172.241 142.69 172.384C136.297 172.634 130.911 170.626 126.209 166.325C127.316 165.945 128.485 165.678 129.568 165.251C130.997 164.688 132.215 163.879 133.404 162.929C134.418 162.147 135.577 161.63 136.561 160.764C137.612 159.84 138.403 158.625 139.471 157.76L139.962 158.257L140.461 158.19C141.066 158.078 141.557 157.528 142.055 157.191C142.827 156.667 143.528 156.519 144.05 155.733L144.204 155.625L144.119 155.554L144.192 155.378L144.83 155.183C144.265 155.193 143.653 155.083 143.087 155.031C144.753 153.883 146.612 152.914 148.359 151.889C149.321 151.324 150.598 150.692 151.296 149.807C151.672 149.918 152.008 150.022 152.352 150.218L152.692 149.916L153.161 150.342C154.632 149.237 156.091 148.099 157.366 146.77C158.102 146.005 158.693 145.156 159.485 144.435Z" fill="url(#paint8_linear_90_2)"/>
<path d="M151.296 149.807C151.672 149.918 152.008 150.022 152.352 150.218L152.692 149.916L153.161 150.342C154.55 152.039 155.423 154.183 155.177 156.41C154.961 158.36 154.143 160.032 152.885 161.524C152.589 161.876 150.646 163.509 150.632 163.642C150.605 163.898 152.387 166.626 152.629 167.023L148.134 169.186L146.42 165.834C143.303 166.961 140.187 167.237 137.074 165.823C135.661 165.181 134.306 164.2 133.404 162.929C134.418 162.147 135.577 161.63 136.561 160.764C137.612 159.84 138.403 158.625 139.471 157.76L139.962 158.257L140.461 158.19C141.066 158.078 141.557 157.528 142.055 157.191C142.827 156.667 143.528 156.519 144.05 155.733L144.204 155.625L144.12 155.554L144.192 155.378L144.83 155.183C144.265 155.193 143.653 155.083 143.087 155.031C144.753 153.883 146.612 152.914 148.36 151.889C149.321 151.324 150.598 150.692 151.296 149.807Z" fill="#3B003D"/>
<path d="M152.692 149.916L153.161 150.342C154.55 152.039 155.423 154.183 155.177 156.409C154.961 158.36 154.143 160.032 152.885 161.524C152.589 161.876 150.646 163.509 150.632 163.642C150.605 163.898 152.387 166.626 152.629 167.023L148.134 169.186L146.42 165.834C143.303 166.961 140.187 167.237 137.074 165.823C135.661 165.181 134.306 164.2 133.404 162.929C134.418 162.147 135.577 161.63 136.561 160.764C137.612 159.84 138.403 158.625 139.471 157.76L139.962 158.257L140.461 158.19C141.066 158.078 141.557 157.528 142.055 157.191C142.827 156.667 143.528 156.519 144.05 155.733L144.204 155.625L144.12 155.554L144.192 155.378L144.83 155.183C145.412 155.423 146.037 155.728 146.39 156.27C146.815 156.922 146.896 157.444 146.688 158.18C146.467 158.962 145.786 159.546 145.087 159.917C143.934 160.529 142.612 160.548 141.375 160.183C140.708 159.987 139.951 159.687 139.639 159.017C139.487 158.693 139.631 158.841 139.318 158.646C137.83 160.216 136.249 162.049 134.197 162.857L134.018 162.925C134.87 163.733 135.85 164.535 136.921 165.038C139.942 166.455 143.83 166.286 146.919 165.201L148.39 168.278L151.876 166.829C151.198 165.994 150.475 165.174 150.144 164.136C150.09 163.968 149.869 163.463 149.876 163.313C149.878 163.277 150.667 162.678 150.747 162.615C152.532 161.215 153.827 159.584 154.4 157.363C154.778 155.904 154.46 153.468 153.7 152.159C153.284 151.441 152.916 150.838 152.352 150.218L152.692 149.916Z" fill="#010008"/>
<path d="M144.205 155.625C144.892 155.861 145.645 156.046 145.972 156.758C146.197 157.249 146.136 157.778 145.917 158.259C145.607 158.942 145.02 159.507 144.308 159.761C143.205 160.155 141.857 159.9 140.842 159.364C140.401 159.132 140.124 158.869 139.945 158.401L139.962 158.257L140.461 158.19C141.066 158.077 141.557 157.528 142.055 157.191C142.827 156.667 143.528 156.519 144.051 155.733L144.205 155.625Z" fill="#FEE9B4"/>
</g>
<defs>
<linearGradient id="paint0_linear_90_2" x1="260.323" y1="145.892" x2="273.302" y2="120.964" gradientUnits="userSpaceOnUse">
<stop stop-color="#FFA78A"/>
<stop offset="1" stop-color="#FFCCAB"/>
</linearGradient>
<linearGradient id="paint1_linear_90_2" x1="208.095" y1="73.3459" x2="179.501" y2="71.3685" gradientUnits="userSpaceOnUse">
<stop stop-color="#FFF4D4"/>
<stop offset="1" stop-color="white"/>
</linearGradient>
<linearGradient id="paint2_linear_90_2" x1="58.5243" y1="164.327" x2="35.7575" y2="158.549" gradientUnits="userSpaceOnUse">
<stop stop-color="#FFC4B6"/>
<stop offset="1" stop-color="#FEC3D3"/>
</linearGradient>
<linearGradient id="paint3_linear_90_2" x1="272.301" y1="163.479" x2="181.788" y2="179.553" gradientUnits="userSpaceOnUse">
<stop stop-color="#C65332"/>
<stop offset="1" stop-color="#FB0DA0"/>
</linearGradient>
<linearGradient id="paint4_linear_90_2" x1="218.661" y1="131.586" x2="247.719" y2="109.668" gradientUnits="userSpaceOnUse">
<stop stop-color="#B13935"/>
<stop offset="1" stop-color="#CD533F"/>
</linearGradient>
<linearGradient id="paint5_linear_90_2" x1="227.553" y1="111.21" x2="131.349" y2="243.57" gradientUnits="userSpaceOnUse">
<stop stop-color="#FD5A5A"/>
<stop offset="1" stop-color="#FB1C93"/>
</linearGradient>
<linearGradient id="paint6_linear_90_2" x1="184.821" y1="110.073" x2="190.779" y2="135.472" gradientUnits="userSpaceOnUse">
<stop stop-color="#07001A"/>
<stop offset="1" stop-color="#2C003C"/>
</linearGradient>
<linearGradient id="paint7_linear_90_2" x1="151.218" y1="168.546" x2="162.881" y2="142.604" gradientUnits="userSpaceOnUse">
<stop stop-color="#04000F"/>
<stop offset="1" stop-color="#12002D"/>
</linearGradient>
<linearGradient id="paint8_linear_90_2" x1="135.115" y1="173.503" x2="159.239" y2="144.915" gradientUnits="userSpaceOnUse">
<stop stop-color="#FFE0A5"/>
<stop offset="1" stop-color="#FEC1CA"/>
</linearGradient>
<clipPath id="clip0_90_2">
<rect width="312" height="310" fill="white"/>
</clipPath>
</defs>
</svg>
