<svg width="312" height="310" viewBox="0 0 312 310" fill="none" xmlns="http://www.w3.org/2000/svg">
<g clip-path="url(#clip0_91_110)">
<path d="M0 20C0 8.9543 8.95431 0 20 0H292C303.046 0 312 8.9543 312 20V290C312 301.046 303.046 310 292 310H20C8.95431 310 0 301.046 0 290V20Z" fill="#F875AA"/>
<path d="M257.492 66.7949C257.855 67.7034 258.057 68.6531 258.552 69.5132C259.747 71.5866 261.391 72.3525 263.606 72.9198C262.975 73.0709 262.333 73.212 261.739 73.479C259.382 74.5392 258.41 76.1358 257.537 78.4284C257.395 78.2761 257.435 78.3515 257.372 78.1517C257.111 77.3231 256.757 76.5778 256.261 75.8588C254.982 74.0079 253.349 73.367 251.217 72.9395C252.126 72.6943 253.035 72.4579 253.881 72.0359C256.001 70.9784 256.796 68.888 257.492 66.7949Z" fill="#FE5AA5"/>
<path d="M255.446 99.3477C255.403 99.5547 255.385 99.9568 255.233 100.094L255.017 100.031C249.497 104.547 244.277 108.94 239.514 114.273C239.279 114.478 239.115 114.59 238.983 114.877L232.833 122.155L230.417 125.148C230.457 124.476 230.463 123.644 230.302 122.987C233.745 118.403 237.484 114.117 241.532 110.054C245.645 105.927 250.158 101.916 255.446 99.3477Z" fill="#413BB8"/>
<path d="M293.188 179.861L294.215 177.999C294.431 178.99 294.749 180.049 294.841 181.056C295.468 183.501 295.902 186.012 296.242 188.511C296.417 189.801 296.667 191.183 296.621 192.488C297.017 195.296 296.894 198.117 296.921 200.942L294.06 200.49L294.303 200.183L292.905 193.088L292.877 193.077L292.539 191.535C292.314 188.217 292.192 183.773 293.366 180.632L293.188 179.861Z" fill="url(#paint0_linear_91_110)"/>
<path d="M293.188 179.861L293.366 180.632C292.192 183.773 292.313 188.217 292.539 191.535L292.877 193.077L292.905 193.088L294.303 200.183L294.06 200.491C292.422 200.234 290.586 199.894 288.933 199.987L287.144 199.803L287.252 199.228L287.349 192.529C287.262 191.653 287.439 190.066 286.933 189.409C287.568 188.432 287.908 187.079 288.451 186.016C289.66 183.649 291.422 181.825 293.188 179.861Z" fill="#75E7B9"/>
<path d="M287.349 192.529C287.921 192.162 288.414 191.809 289.095 191.676C289.796 193.378 289.81 194.548 289.395 196.352C289.306 196.74 288.29 199.625 288.295 199.636C288.318 199.686 288.847 199.941 288.933 199.987L287.145 199.803L287.252 199.227L287.349 192.529Z" fill="#1AC1A8"/>
<path d="M217.612 36.3877C218.243 36.4343 218.841 36.5003 219.451 36.675C221.21 37.179 222.809 38.4505 223.654 40.0692C224.409 41.5148 224.705 43.4456 224.203 45.0244L224.124 45.2587C223.832 46.1491 223.456 46.9425 222.873 47.6867C221.553 49.3702 219.49 50.0219 217.447 50.2236L216.044 50.0431C214.253 49.6393 212.642 48.4386 211.702 46.8838C210.842 45.4625 210.34 43.538 210.782 41.8857L210.835 41.7016C211.12 40.6935 211.534 39.7695 212.214 38.9585C213.662 37.2326 215.43 36.592 217.612 36.3877Z" fill="#5C60C4"/>
<path d="M76.0245 63.2166C75.5595 62.5146 75.1637 61.8255 74.8173 61.0602C72.6169 56.1989 72.4185 51.449 74.3642 46.4515C76.2551 41.5953 79.6664 38.2144 84.4476 36.1437C88.9551 34.1916 93.5513 34.2041 98.1095 36.0008C102.659 37.7936 106.431 41.4427 108.386 45.8957L103.695 45.6853C101.617 42.274 98.7176 39.7002 94.739 38.7205C91.9395 38.0315 88.9445 38.2601 86.2215 39.1592L85.9722 39.24C82.5628 40.3807 79.5595 43.2383 77.9982 46.4312C76.2996 49.906 75.9584 53.9514 77.2749 57.6054C77.8678 59.2505 78.8785 61.3109 80.1247 62.5857C79.8188 63.0029 79.802 63.1851 79.2718 63.2747C78.2118 63.4539 77.0869 63.3316 76.0245 63.2166Z" fill="#FE5AA5"/>
<path d="M103.695 45.6855L108.386 45.8959C109.986 49.48 110.486 53.3511 109.71 57.217L109.656 57.497C108.776 61.9457 105.856 66.1483 102.061 68.641C97.8172 71.428 92.5625 72.3788 87.5852 71.348C82.7467 70.346 78.6822 67.2908 76.0244 63.2169C77.0869 63.3319 78.2118 63.4542 79.2718 63.275C79.8019 63.1854 79.8187 63.0032 80.1246 62.586C80.4052 62.6538 80.9881 63.2696 81.2355 63.4809C81.9 64.0485 82.5889 64.5713 83.3333 65.0321C84.63 65.8352 86.0459 66.4117 87.5255 66.7831C91.225 67.711 95.3983 66.9136 98.6161 64.9404C101.898 62.9278 104.106 59.5332 104.996 55.8547C105.847 52.3415 105.113 48.9408 103.695 45.6855Z" fill="#FCB638"/>
<path d="M55.7026 65.4222C58.0895 65.1516 60.4944 65.5255 62.52 66.8757C64.6632 68.3043 66.1312 70.5006 66.5983 73.0269C67.1046 75.7661 66.4657 78.3799 64.8673 80.6561C63.3579 82.8055 61.0109 83.9683 58.4704 84.4264C55.9857 84.717 53.6789 84.239 51.5948 82.8222C49.6735 81.5162 48.0431 79.2908 47.6156 76.9885C47.1162 74.2975 47.6918 71.6337 49.2493 69.3756C50.778 67.1593 53.0951 65.9157 55.7026 65.4222Z" fill="#FE5AA5"/>
<path d="M230.199 108.724L230.256 69.8842C231.006 69.8175 231.593 69.5854 232.277 69.3008C237.655 72.4516 241.323 76.7556 242.882 82.8224C244.271 88.2268 243.626 94.5664 240.699 99.3899C238.319 103.313 234.426 106.863 230.199 108.724Z" fill="#5C60C4"/>
<path d="M80.1245 62.5857C78.8783 61.3109 77.8677 59.2505 77.2748 57.6055C75.9582 53.9515 76.2995 49.906 77.9981 46.4312C79.5593 43.2383 82.5626 40.3808 85.9721 39.2401L86.2213 39.1592C88.9443 38.2601 91.9394 38.0316 94.7388 38.7206C98.7175 39.7002 101.617 42.2741 103.695 45.6853C105.113 48.9406 105.847 52.3412 104.996 55.8544C104.106 59.533 101.898 62.9275 98.616 64.9401C95.3982 66.9133 91.2249 67.7107 87.5254 66.7828C86.0458 66.4114 84.6299 65.835 83.3332 65.0318C82.5888 64.5711 81.8999 64.0482 81.2354 63.4806C80.988 63.2693 80.4051 62.6536 80.1245 62.5857Z" fill="#FECF68"/>
<path d="M265.815 199.819L267.353 199.712L267.252 199.914C268.146 200.566 274.821 200.027 276.204 199.974C277.323 199.931 278.517 199.994 279.622 199.848L281.152 199.814L287.145 199.803L288.933 199.987C290.586 199.894 292.423 200.234 294.06 200.491L296.921 200.942L303.736 202.152C301.186 204.558 298.073 206.65 295.242 208.735L283.951 217.312C282.091 218.755 279.404 220.382 278.161 222.38C279.944 221.459 281.435 219.991 282.978 218.726L288.079 214.748C293.04 210.924 298.526 207.475 303.086 203.183C299.806 215.451 294.075 227.039 285.764 236.731C284.291 232.539 282.537 228.701 279.695 225.235C278.807 224.151 277.516 223.202 276.754 222.087L278.731 220.739C279.134 220.426 279.818 219.979 279.882 219.483L279.627 219.26C278.676 219.309 277.437 220.305 276.634 220.811C274.335 217.524 272.948 213.198 272.677 209.232C273.908 208.112 277.888 205.533 278.199 204.043C278.092 203.891 277.994 203.74 277.838 203.63C277.184 203.168 276.135 202.925 275.356 202.73C272.185 201.938 269.04 201.87 265.798 202.12L265.815 199.819Z" fill="#008383"/>
<path d="M257.152 98.464C262.47 96.3049 267.764 96.0148 273.13 98.236C278.579 100.492 283 104.585 285.267 110.057C287.817 116.213 287.548 122.888 284.963 128.991C283.66 132.067 281.901 134.953 279.783 137.542C279.053 138.434 278.256 139.26 277.448 140.081C277.119 140.415 276.625 140.775 276.478 141.213L273.905 142.962C273.109 143.378 272.297 143.843 271.424 144.072C268.743 144.777 265.681 144.249 262.951 144.082L263.251 133.445C263.138 133.057 263.211 132.382 263.198 131.967L263.077 128.54L262.624 122.079L262.508 121.337C262.319 120.99 262.336 120.002 262.285 119.58L261.653 115.282L259.654 106.119C259.009 103.537 258.331 100.862 257.152 98.464Z" fill="#5C60C4"/>
<path d="M256.683 98.7669L257.152 98.4639C258.331 100.862 259.009 103.536 259.653 106.119L261.653 115.282L262.284 119.58C262.336 120.002 262.319 120.989 262.507 121.337L262.623 122.079L263.077 128.54L263.197 131.967C263.21 132.382 263.138 133.057 263.251 133.445L262.951 144.082L262.524 150.178C262.057 150.023 261.884 149.906 261.398 150.031C259.088 150.605 257.004 151.631 254.771 152.423C252.498 153.229 250.093 153.815 247.674 153.921C245.72 154.006 243.789 153.799 241.845 153.799L241.049 157.445C240.684 157.398 240.69 157.387 240.435 157.119C240.562 155.753 241.01 154.358 241.299 153.012C237.876 151.579 234.806 149.711 232.65 146.575C231.964 145.577 231.353 144.119 230.554 143.27L230.42 143.147C230.255 142.489 230.325 141.757 230.326 141.079L230.336 137.37L230.335 125.33L230.417 125.148L232.833 122.155L238.983 114.877C239.115 114.59 239.279 114.478 239.514 114.273C244.277 108.94 249.497 104.546 255.017 100.031L255.233 100.093C255.385 99.9566 255.403 99.5546 255.446 99.3476L256.683 98.7669Z" fill="#75E7B9"/>
<path d="M256.683 98.7671C255.466 100.808 254.993 103.49 254.296 105.769L249.303 124.389C252.838 125.157 256.177 124.298 259.422 122.858L262.507 121.337L262.623 122.079C260.031 123.383 257.329 124.792 254.425 125.242C252.671 125.514 251.04 125.386 249.291 125.143C249.095 125.116 249.175 125.113 249.023 125.138L246.059 136.844L241.844 153.799L241.049 157.445C240.683 157.399 240.69 157.387 240.435 157.119C240.562 155.753 241.009 154.358 241.298 153.013L245.333 136.604L248.363 125.021L248.311 124.729C244.28 122.411 241.086 118.987 238.982 114.877C239.114 114.59 239.279 114.478 239.514 114.273C241.274 118.449 244.785 121.634 248.483 124.128C248.78 123.591 248.872 122.865 249.019 122.271L249.988 118.587L253.724 105.188L255.233 100.094C255.385 99.9568 255.403 99.5548 255.446 99.3477L256.683 98.7671Z" fill="#010064"/>
<path d="M239.515 114.273C244.278 108.94 249.498 104.547 255.017 100.031L255.234 100.094L253.725 105.188L249.989 118.587L249.02 122.271C248.872 122.865 248.78 123.591 248.483 124.128C244.785 121.634 241.275 118.449 239.515 114.273Z" fill="#75E7B9"/>
<path d="M238.982 114.877C241.085 118.987 244.28 122.411 248.311 124.729L248.363 125.02L245.333 136.604C238.955 133.624 235.205 128.633 232.833 122.155L238.982 114.877Z" fill="#75E7B9"/>
<path d="M262.624 122.079L263.077 128.54L263.198 131.967C263.211 132.382 263.138 133.057 263.251 133.445C258.608 136.315 251.633 138.354 246.234 136.899L246.06 136.844L249.024 125.138C249.176 125.113 249.095 125.116 249.292 125.143C251.04 125.386 252.672 125.514 254.426 125.242C257.33 124.792 260.032 123.383 262.624 122.079Z" fill="#75E7B9"/>
<path d="M230.417 125.148L232.833 122.155C235.205 128.633 238.955 133.624 245.333 136.604L241.299 153.012C237.876 151.579 234.806 149.711 232.65 146.575C231.964 145.577 231.353 144.119 230.554 143.27L230.42 143.147C230.255 142.489 230.325 141.757 230.326 141.079L230.336 137.37L230.335 125.33L230.417 125.148Z" fill="#1AC1A8"/>
<path d="M246.059 136.845L246.234 136.9C251.633 138.354 258.608 136.315 263.251 133.445L262.951 144.082L262.524 150.178C262.057 150.023 261.884 149.906 261.399 150.031C259.088 150.606 257.004 151.632 254.771 152.424C252.498 153.23 250.093 153.816 247.674 153.921C245.72 154.006 243.79 153.799 241.845 153.799L246.059 136.845Z" fill="#1AC1A8"/>
<path d="M14.2897 207.331C14.0368 206.216 13.4889 205.099 13.1632 203.989C12.3627 201.262 11.7955 198.429 11.5315 195.599C10.6646 186.307 14.1648 176.587 20.9468 170.111C22.5626 168.568 24.4676 167.402 26.1872 165.99C29.7599 163.057 32.6773 158.682 33.765 154.183C34.6191 150.65 34.5831 146.739 33.8589 143.188C33.4463 141.165 32.829 139.188 32.4878 137.151C31.6124 131.922 31.7264 126.422 33.0161 121.272C36.6239 106.865 49.0037 96.3192 63.5653 93.8407C67.6877 93.139 71.6794 93.4599 75.8162 93.2471C85.2886 92.7597 95.379 89.2047 102.761 83.2726C108.202 78.899 112.515 72.9475 115.756 66.822C117.258 63.982 118.565 61.0316 120.228 58.277C124.41 51.3544 130.087 45.6551 137.055 41.5058C148.464 34.7128 162.581 32.498 175.52 35.7415C189.834 39.3301 201.73 47.8587 209.331 60.4488L223.925 60.4849C225.902 60.4858 228.339 60.2275 230.271 60.5787C231.192 60.7461 231.957 61.1194 232.607 61.7936C233.481 62.6997 233.653 63.6575 233.599 64.8763C233.574 65.4306 233.522 65.9786 233.543 66.5344C233.551 66.7521 233.647 67.2882 233.596 67.4744C233.445 68.0145 232.676 68.9175 232.276 69.3008C231.593 69.5854 231.005 69.8176 230.256 69.8842L230.199 108.724L230.19 118.429C230.19 119.837 229.987 121.628 230.301 122.987C230.462 123.644 230.456 124.476 230.416 125.148L230.334 125.331L230.335 137.37L230.326 141.079C230.325 141.758 230.255 142.489 230.419 143.147L230.554 143.27C231.352 144.119 231.964 145.577 232.65 146.575C234.806 149.711 237.876 151.579 241.298 153.013C241.009 154.358 240.562 155.753 240.435 157.119C240.689 157.387 240.683 157.399 241.049 157.445L241.844 153.799C243.789 153.799 245.719 154.006 247.673 153.921C250.093 153.815 252.498 153.23 254.771 152.423C257.003 151.632 259.088 150.606 261.398 150.031C261.883 149.906 262.056 150.023 262.524 150.178L262.951 144.082C265.68 144.249 268.742 144.777 271.423 144.072C272.296 143.843 273.108 143.378 273.904 142.962L276.478 141.213C276.526 144.679 276.018 147.97 275.648 151.405C275.546 152.45 275.546 153.697 275.192 154.691L275.376 155.12C276.021 154.188 276.559 153.194 277.263 152.301C279.48 149.489 282.384 147.234 285.573 145.607C286.358 145.207 287.384 144.596 288.253 144.433C288.531 144.38 288.655 144.385 288.909 144.49C289.134 145.16 288.923 146.025 288.82 146.715C288.43 149.34 287.666 151.842 286.482 154.226C284.422 158.373 281.219 161.68 277.376 164.239C276.306 164.951 275.123 165.732 273.914 166.192L273.228 166.379C272.782 166.537 272.771 166.832 272.617 167.231L272.586 167.363C272.351 168.356 271.95 169.299 271.551 170.236C276.65 166.373 283.445 164.643 289.796 165.457C291.243 165.643 293.091 165.902 294.361 166.618L294.511 166.882C293.911 168.972 289.155 172.141 287.208 173.206C284.744 174.553 282.051 175.34 279.303 175.875L280.051 177.281C283.083 177.547 286.014 178.054 288.843 179.225C289.009 179.519 289.037 179.555 288.934 179.898C288.579 181.078 286.141 182.557 285.096 183.219L286.933 189.409C287.439 190.065 287.262 191.653 287.349 192.529L287.252 199.228L287.144 199.803L281.152 199.814L279.622 199.848C278.517 199.994 277.323 199.931 276.204 199.974C274.821 200.027 268.146 200.566 267.251 199.914L267.353 199.712L265.815 199.819L265.798 202.12C269.04 201.87 272.185 201.938 275.356 202.73C276.135 202.925 277.184 203.168 277.838 203.63C277.994 203.74 278.092 203.89 278.199 204.043C277.888 205.533 273.908 208.112 272.677 209.232C272.948 213.198 274.335 217.523 276.634 220.811C277.437 220.305 278.676 219.309 279.627 219.26L279.882 219.482C279.818 219.979 279.134 220.426 278.731 220.739L276.753 222.087C277.516 223.202 278.807 224.151 279.695 225.234C282.537 228.7 284.291 232.538 285.764 236.731C287.966 245.14 286.964 253.744 282.521 261.265C279.778 265.908 276.074 269.404 271.405 272.095C269.667 273.097 267.861 274.007 265.922 274.559L277.877 274.556L280.803 274.524C281.17 274.518 281.794 274.419 282.14 274.491C282.281 274.52 282.394 274.623 282.521 274.689C282.623 275.099 282.623 275.117 282.462 275.507C281.655 275.886 279.71 275.664 278.763 275.669L269.039 275.706L190.355 275.655L90.2706 275.642L30.9253 275.614C30.571 275.311 30.6012 275.332 30.5628 274.865C30.8013 274.561 30.8483 274.561 31.2541 274.52L39.5635 274.566C39.7927 272.704 40.186 270.989 41.7539 269.767C42.4078 269.257 43.2058 268.988 43.9724 268.688C39.5169 266.612 34.7221 263.887 32.964 258.999C32.3565 257.309 32.2666 255.416 33.0636 253.767C33.7135 252.422 35.0856 251.437 36.4859 250.975C36.7626 250.883 37.0374 250.839 37.3238 250.794L37.5474 250.757C40.5791 250.301 43.8989 252.391 46.2158 254.113L44.2295 249.783C42.2235 248.368 40.1571 246.993 38.2573 245.438C29.8562 238.561 22.4754 229.514 17.6257 219.807C15.6777 215.908 14.1248 211.798 12.4846 207.764L14.2897 207.331Z" fill="#010064"/>
<path d="M81.208 246.047C81.6148 245.938 82.0063 246.05 82.4179 246.112C82.892 246.663 82.619 249.348 82.6181 250.2C82.2897 248.753 81.7845 247.41 81.208 246.047Z" fill="#FEFEFE"/>
<path d="M222.83 241.169C223.06 241.23 223.115 241.285 223.346 241.204C223.757 241.061 224.19 240.902 224.632 241.02L224.788 241.1L224.66 242.618C224.13 242.882 223.317 242.667 222.715 242.682L222.83 241.169Z" fill="#FEEA8C"/>
<path d="M238.732 261.524C239.994 262.259 241.002 263.51 241.942 264.602L238.133 264.575C238.228 263.585 238.569 262.524 238.732 261.524Z" fill="#FE97C1"/>
<path d="M60.1047 242.984C60.5425 242.981 60.8207 242.878 61.1641 243.172C59.956 244.452 59.6681 246.023 59.3229 247.681C58.9911 247.251 58.3668 246.617 58.1928 246.117C57.928 245.355 58.2425 244.209 58.6242 243.524C59.1239 243.178 59.5084 243.087 60.1047 242.984Z" fill="#008383"/>
<path d="M273.904 142.963L276.478 141.213C276.526 144.679 276.019 147.97 275.648 151.405L275.57 150.607C275.537 150.354 275.515 150.266 275.345 150.081L275.122 143.723L274.752 143.627L274.35 143.875L274.363 149.714C274.364 150.868 274.451 152.114 274.241 153.25L274.206 144.331C274.246 143.754 274.178 143.479 273.904 142.963Z" fill="#1A1596"/>
<path d="M267.353 199.712C271.534 199.409 275.69 197.621 279.192 195.441L279.167 195.605C279.003 196.624 277.962 198.928 278.256 199.793L279.623 199.848C278.517 199.993 277.323 199.93 276.205 199.973C274.822 200.027 268.147 200.565 267.252 199.914L267.353 199.712Z" fill="url(#paint1_linear_91_110)"/>
<path d="M81.6549 257.565C82.0382 258.428 82.302 259.269 82.9023 260.015L83.0101 260.145L76.3783 272.725L75.8006 273.302C75.5273 271.834 79.2049 264.397 79.9559 262.535C80.6107 260.912 81.2033 259.255 81.6549 257.565Z" fill="url(#paint2_linear_91_110)"/>
<path d="M55.0479 235.847L63.5651 242.251L66.4124 244.273L65.8722 246.296C65.0849 244.983 64.4673 243.569 63.176 242.658C61.7671 242.093 60.1514 241.821 58.6971 242.427C58.2443 242.615 57.8793 242.906 57.4939 243.2L57.3559 243.302L55.0479 235.847Z" fill="#006A7D"/>
<path d="M79.8823 146.781L81.6742 148.479L71.3127 156.253C69.8167 157.343 68.2457 158.698 66.5928 159.513C66.9319 158.581 68.1686 157.725 68.8938 157.041L74.7313 151.645C76.4001 150.152 78.5938 148.59 79.8823 146.781Z" fill="#008383"/>
<path d="M280.052 177.281C274.889 177.494 270.04 178.56 265.897 181.804L269.613 174.655C272.982 175.804 275.729 176.205 279.304 175.875L280.052 177.281Z" fill="#008383"/>
<path d="M52.6084 194.321C53.2409 194.633 56.4334 193.158 57.4401 192.991C55.9715 196.664 55.0026 200.508 55.3052 204.482L52.0322 199.288C51.4859 198.451 50.4235 197.21 50.1992 196.261L50.3665 196.158C50.9487 195.791 51.4408 195.381 51.9481 194.917C52.0718 194.803 52.4649 194.361 52.6084 194.321Z" fill="#006A7D"/>
<path d="M265.798 202.12C262.883 202.516 259.872 203.356 257.309 204.814C256.416 205.322 255.658 205.955 254.817 206.533L258.389 198.626C260.864 199.432 263.222 199.729 265.816 199.819L265.798 202.12Z" fill="#006A7D"/>
<path d="M272.677 209.232C272.948 213.198 274.335 217.524 276.634 220.811L275.766 221.432C273.24 219.183 270.372 217.48 267.261 216.159C269.135 213.975 270.465 211.081 272.677 209.232Z" fill="#004F74"/>
<path d="M270.176 210.325C270.417 210.278 270.291 210.281 270.553 210.325L266.563 215.852C264.108 215.149 261.652 214.481 259.103 214.212C256.964 213.986 254.873 214.084 252.734 214.213C252.377 214.278 252.366 214.336 252.023 214.169C252.254 213.183 252.597 212.247 253.013 211.324C255.916 212.421 259.428 212.834 262.516 212.433C265.207 212.083 267.69 211.432 270.176 210.325Z" fill="#006A7D"/>
<path d="M260.739 160.886C261.717 165.54 264.024 171.138 268.197 173.806L268.591 174.05L265.306 180.836C265.113 175.81 263.3 170.581 260.25 166.551C259.311 165.312 258.185 164.247 257.068 163.171C258.154 162.079 259.329 161.471 260.739 160.886Z" fill="#008383"/>
<path d="M280.665 189.645L276.925 189.064C270.829 188.668 264.418 190.546 259.796 194.572L263.678 186.375C264.638 186.752 265.612 187.16 266.621 187.386C271.279 188.43 275.873 187.411 280.271 185.835C280.316 187.134 280.407 188.369 280.665 189.645Z" fill="url(#paint3_linear_91_110)"/>
<path d="M256.042 177.842C257.973 181.05 259.781 183.511 262.886 185.721L259.072 193.687C258.689 191.751 258.298 189.815 257.626 187.952C256.337 184.376 254.173 181.125 251.711 178.242C253.126 178.097 254.656 178.132 256.042 177.842Z" fill="#006A7D"/>
<path d="M65.0646 274.487L40.4824 274.575C40.5647 273.997 40.6427 273.415 40.8142 272.855C41.2121 271.556 41.9653 270.573 43.2039 269.956C44.1664 269.476 45.135 269.366 46.1932 269.442C47.8083 269.558 49.5289 270.147 51.0877 270.563L63.0674 273.79L65.0646 274.487Z" fill="#75E7B9"/>
<path d="M53.8896 233.803C59.9252 235.694 66.6972 237.104 72.9872 235.677L76.3427 240.589C76.0642 240.492 76.1641 240.538 75.96 240.435C75.4283 240.167 74.8936 240.015 74.3223 239.856C73.3814 239.725 72.3248 239.673 71.3818 239.798C69.2605 240.079 67.8288 241.776 66.6155 243.352C65.6875 243.026 64.5238 241.818 63.6951 241.203L53.8896 233.803Z" fill="#006A7D"/>
<path d="M285.097 183.219L286.933 189.408C287.44 190.065 287.263 191.653 287.349 192.529L287.252 199.228L287.145 199.803L281.153 199.814L279.623 199.848L278.256 199.793C277.962 198.928 279.003 196.624 279.167 195.605L279.192 195.441L283.032 192.428C283.436 191.981 283.931 191.547 284.084 190.95C283.263 190.242 281.696 189.951 280.665 189.645C280.407 188.369 280.316 187.134 280.271 185.835C281.95 185.156 283.568 184.183 285.097 183.219Z" fill="url(#paint4_linear_91_110)"/>
<path d="M283.032 192.428C283.433 193.115 282.636 195.23 282.414 196.063L282.103 197.111C281.789 197.96 281.326 198.931 281.153 199.814L279.623 199.848L278.256 199.793C277.962 198.928 279.003 196.624 279.167 195.605L279.192 195.441L283.032 192.428Z" fill="#75E7B9"/>
<path d="M65.5693 259.682L62.4816 253.229C61.7945 251.801 60.8805 250.265 60.4466 248.748C59.8942 246.819 60.917 244.585 61.8814 242.969L62.8414 243.422C63.4734 243.814 63.9712 244.53 64.3649 245.15C64.8481 245.91 65.3697 246.746 65.6863 247.591C66.1704 248.884 66.3785 250.377 66.7256 251.724L68.0053 256.38C69.359 259.669 70.1411 263.404 71.0253 266.853C71.5448 268.879 72.2261 270.971 72.5162 273.039C71.5131 271.823 70.8352 270.401 70.1195 269.007L67.3018 263.402C66.7548 262.289 65.8716 260.87 65.5693 259.682Z" fill="url(#paint5_linear_91_110)"/>
<path d="M262.151 151.219C265.362 153.109 267.476 157.144 268.549 160.578C269.618 164 270.975 169.316 269.218 172.634L268.963 173.063L268.842 173.042C268.469 172.933 268.049 172.571 267.743 172.328C266.294 171.183 265.308 169.713 264.41 168.126C261.644 163.237 260.605 156.647 262.151 151.219Z" fill="#FCB638"/>
<path d="M95.656 95.3779L119.772 95.4282C119.784 96.4399 120.017 98.4171 119.418 99.2211C119.088 99.6631 118.709 99.9871 118.142 100.046C117.047 100.161 115.832 100.064 114.722 100.057L108.153 100.027L100.914 99.9949C99.6276 99.9883 98.2016 100.087 96.9326 99.9159C96.4418 99.8496 96.2785 99.6647 95.9064 99.3725C95.4211 98.3369 95.6572 96.532 95.656 95.3779Z" fill="#DC328E"/>
<path d="M274.541 160.166C274.67 159.45 274.945 156.739 275.364 156.411C276.438 155.568 277.008 154.333 277.841 153.277C280.449 149.971 283.965 147.227 287.899 145.68C287.045 152.307 284.113 157.95 278.742 162.111C277.146 163.348 275.265 164.618 273.381 165.381C273.235 164.99 273.42 164.569 273.524 164.182L273.586 164.148L274.541 160.166Z" fill="#FCB638"/>
<path d="M95.6566 95.3781C95.6432 94.2425 95.2645 91.4913 96.128 90.6679C96.3641 90.4426 96.5082 90.3748 96.8315 90.35C98.319 90.2359 99.8717 90.317 101.366 90.3176L109.818 90.3236L115.603 90.3321C116.543 90.3333 117.602 90.2316 118.524 90.3491C118.91 90.3981 119.217 90.7475 119.433 91.0475C120.079 91.9424 119.785 94.2852 119.772 95.4284L95.6566 95.3781Z" fill="#FE5AA5"/>
<path d="M31.7723 188.048C33.0791 187.901 34.5249 187.918 35.8298 188.093L39.8426 188.927C44.1304 190.208 46.7114 191.916 48.8601 195.884L46.5408 196.548L45.1377 196.77C42.3766 196.831 39.7758 196.756 37.101 195.984C34.7528 195.306 32.4962 194.243 30.4478 192.92C29.5741 192.355 28.5156 191.572 28.0419 190.628C27.8234 190.193 27.8376 189.942 27.9932 189.494C28.9897 188.48 30.419 188.247 31.7723 188.048Z" fill="#75E7B9"/>
<path d="M284.248 166.412C285.94 166.284 287.797 166.215 289.481 166.438C290.809 166.614 291.977 166.819 293.27 167.206C289.197 171.323 284.578 174.153 278.747 174.926C275.683 175.211 272.609 174.782 269.756 173.624L270.085 173.164C273.289 169.121 279.266 166.998 284.248 166.412Z" fill="#FCB638"/>
<path d="M70.4764 198.518L70.6589 198.491C71.1159 198.455 71.484 198.589 71.8082 198.904C72.6138 199.684 72.6772 200.693 72.6875 201.749C72.7146 204.543 72.0032 207.234 71.0788 209.856C69.6739 213.841 67.886 217.44 64.8878 220.478C64.2644 219.665 63.7614 218.708 63.259 217.817C63.1542 217.631 63.0381 217.449 62.9848 217.239C62.7943 216.492 62.8973 215.516 62.933 214.749C63.1091 210.956 64.184 207.268 65.8747 203.873C66.7748 202.064 68.4639 199.187 70.4764 198.518Z" fill="#06A39D"/>
<path d="M278.674 178.372C281.88 178.204 284.834 178.755 287.825 179.863C284.031 183.72 278.367 186.069 273.037 186.717C272.824 186.803 272.277 186.782 272.033 186.795C270.827 186.859 269.495 186.881 268.298 186.7L268.049 186.66C266.602 186.447 265.427 186.048 264.103 185.44C264.447 184.816 264.833 184.238 265.304 183.7C268.421 180.135 274.136 178.664 278.674 178.372Z" fill="#FCB638"/>
<path d="M62.5432 262.852C61.4948 261.669 60.6039 260.278 59.6426 259.018L52.4501 249.182C51.3182 247.526 50.3143 245.472 48.98 243.999L48.6738 243.649C50.0659 243.108 51.8712 243.456 53.2179 243.97C57.7334 245.695 59.8172 249.981 61.8394 254L65.2723 261.24L68.7543 268.254C69.626 269.956 70.884 271.851 71.3904 273.69L66.2887 267.665C65.013 266.127 63.6084 264.543 62.5432 262.852Z" fill="url(#paint6_linear_91_110)"/>
<path d="M253.476 161.971L253.779 162.096C258.227 164.265 261.425 169.542 263.038 174.005C264.142 177.062 264.986 181.251 263.543 184.29L263.326 184.631L263.021 184.633C261.015 183.078 259.311 181.413 257.966 179.25C254.955 174.408 252.121 167.715 253.476 161.971Z" fill="#FCB638"/>
<path d="M40.9194 202.285C41.1851 202.177 41.8359 202.216 42.1366 202.199C44.6847 202.05 47.4644 202.285 49.922 203.002C51.5228 203.47 53.464 204.135 54.6392 205.356C55.5657 206.318 56.187 207.67 56.8262 208.837C54.8208 209.511 52.9478 209.855 50.851 210.09C47.5317 210.167 44.4199 210.022 41.2107 209.081C39.2451 208.505 35.6084 207.286 34.6919 205.33C34.4981 204.916 34.5612 204.743 34.7056 204.326C36.2443 202.858 38.8887 202.527 40.9194 202.285Z" fill="#1AC1A8"/>
<path d="M63.6854 186.106C63.8252 186.074 63.9142 186.046 64.0656 186.052C64.4523 186.068 64.7612 186.262 65.0233 186.528C66.1244 187.644 66.0562 189.74 65.9861 191.197C65.8986 193.008 65.3727 194.782 64.8325 196.503C63.4709 200.84 61.5736 205.067 58.1191 208.146C57.9314 208.294 58.0526 208.22 57.7306 208.323C57.184 207.601 56.7446 206.626 56.4524 205.771C56.0484 204.588 56.0645 203.236 56.1371 202.004C56.3333 198.681 57.191 195.338 58.6587 192.343C59.6705 190.277 61.3835 186.901 63.6854 186.106Z" fill="#1AC1A8"/>
<path d="M34.9641 169.758C36.3343 169.526 37.4963 170.16 38.5905 170.931C42.6011 173.755 45.9371 179.567 46.7622 184.366C46.9337 185.365 47.0596 186.308 47.0681 187.327C47.0788 188.604 46.9069 189.399 45.9776 190.344L45.6982 190.293C45.2997 190.152 44.7257 189.578 44.3905 189.284C41.8266 187.034 39.5777 184.143 37.791 181.257C36.153 178.611 34.7039 175.444 34.1826 172.365C34.093 171.836 33.9416 171.106 34.1171 170.591C34.2807 170.11 34.5454 169.985 34.9641 169.758Z" fill="#FCB638"/>
<path d="M273.271 190.026C276.725 189.771 279.484 190.208 282.755 191.279L282.715 191.412C278.238 195.186 273.925 197.83 268.011 198.689C264.647 199.064 261.854 198.697 258.649 197.679L258.882 197.287C259.106 196.89 259.301 196.477 259.589 196.12C262.641 192.345 268.624 190.552 273.271 190.026Z" fill="#FCB638"/>
<path d="M268.362 202.898C269.596 202.813 270.953 202.881 272.174 203.07C273.835 203.327 275.367 203.72 276.935 204.322C275.961 205.215 274.992 206.161 273.931 206.95C270.461 209.534 266.797 210.89 262.526 211.452C259.242 211.632 256.508 211.43 253.367 210.384C253.712 209.514 254.046 208.48 254.702 207.797C255.722 206.735 257.092 205.983 258.409 205.352C261.686 203.778 264.744 203.081 268.362 202.898Z" fill="#FCB638"/>
<path d="M56.8455 173.088C57.0853 173.052 57.3427 173.058 57.5859 173.047C57.9929 173.234 58.2282 173.389 58.4716 173.772C59.5383 175.452 59.0511 178.556 58.6739 180.411C57.6422 185.483 55.1213 191.933 50.6158 194.91C50.2615 195.114 50.1652 195.255 49.7402 195.2C49.5692 194.914 49.4343 194.647 49.3142 194.335C48.6332 192.566 48.746 190.759 48.9434 188.909C49.2804 185.752 50.0068 182.864 51.352 179.978C52.4522 177.617 54.2389 174.039 56.8455 173.088Z" fill="#75E7B9"/>
<path d="M245.979 174.82C248.481 175.891 250.491 178.268 252.131 180.359C254.927 183.929 256.985 187.904 257.736 192.386C257.912 193.438 258.13 194.673 257.978 195.734L257.943 195.945C257.863 196.454 257.805 196.868 257.537 197.316L256.941 197.102C252.428 195.358 249.06 190.279 247.227 186.031C245.798 182.72 244.586 178.3 245.979 174.82Z" fill="#FCB638"/>
<path d="M78.0952 209.719L78.6102 209.682C78.7799 209.781 78.9624 209.876 79.098 210.022C80.2533 211.264 80.0851 214.751 79.9596 216.326C79.5553 221.405 77.7774 227.211 75.2699 231.637C74.7513 232.553 74.1699 233.646 73.354 234.329L73.0493 233.985C72.4021 232.892 71.634 231.782 71.1374 230.615C70.7334 229.666 70.8092 228.61 70.8205 227.598C70.865 223.533 71.8449 219.544 73.4686 215.825C74.3445 213.817 75.9067 210.582 78.0952 209.719Z" fill="#06A39D"/>
<path d="M46.8177 213.493C49.927 213.562 52.9684 213.669 55.9887 214.499C57.9549 215.039 60.1441 215.794 61.5688 217.31C62.5487 218.353 63.272 219.802 63.9728 221.038C61.9792 221.643 60.1645 221.879 58.0932 222.027C52.9879 222.166 46.4761 221.029 42.1995 218.096C41.6553 217.723 40.9393 217.084 40.8784 216.379C40.8385 215.919 40.9893 215.441 41.2918 215.093C42.542 213.654 45.0563 213.611 46.8177 213.493Z" fill="#1AC1A8"/>
<path d="M56.5922 262.91C55.4569 262.112 54.3945 261.078 53.354 260.154C50.9442 258.016 48.2148 255.68 46.6478 252.832C45.7127 251.133 44.6613 248.713 45.2901 246.786C45.7895 245.256 46.8827 244.365 48.2861 243.695C51.4177 249.893 55.9758 255.425 59.9553 261.091L65.0229 267.59C66.7051 269.618 68.7611 271.561 70.1889 273.76C68.546 272.421 66.7538 271.29 65.0674 270.007L58.7217 264.771C58.1147 264.256 57.024 263.537 56.5922 262.91Z" fill="#75E7B9"/>
<path d="M239.251 186.865C244.072 189.16 248.477 194.18 250.954 198.812C252.086 200.928 253.645 204.278 253.344 206.734C253.242 207.567 252.849 208.499 252.601 209.306L252.401 209.719L252.206 209.725C249.551 208.105 247.219 206.219 245.238 203.816C241.298 199.038 238.633 193.138 239.251 186.865Z" fill="#FCB638"/>
<path d="M241.844 153.799C243.789 153.799 245.719 154.006 247.673 153.921C250.093 153.815 252.498 153.229 254.771 152.423C257.003 151.631 259.088 150.605 261.398 150.031C260.41 153.585 260.216 157.226 260.739 160.886C259.33 161.471 258.155 162.079 257.069 163.171C255.916 162.229 254.445 160.943 252.891 160.797C252.481 161.151 252.433 161.751 252.323 162.258C251.387 161.759 250.618 161.149 249.604 160.758C247.489 159.943 242.435 159.079 241.049 157.445L241.844 153.799Z" fill="#06A39D"/>
<path d="M204.634 206.089C206.428 204.876 208.187 203.678 210.145 202.729C215.951 199.915 223 198.908 229.353 200.152C237.022 201.652 244.234 206.459 248.535 212.931L249.689 214.928L246.658 215.794L245.88 214.412C245.059 213.206 243.957 212.057 242.933 211.025C238.543 206.603 233.025 203.775 226.834 202.816C220.984 201.91 213.797 203.472 208.792 206.666C207.412 207.546 206.317 208.745 204.996 209.68L204.75 209.851L204.634 206.089Z" fill="#FECF68"/>
<path d="M262.951 144.082C265.68 144.249 268.742 144.777 271.423 144.072C272.296 143.843 273.108 143.378 273.904 142.962C274.177 143.479 274.245 143.754 274.205 144.33L274.24 153.25C274.159 158.439 272.379 163.625 270.969 168.566C270.873 168.394 270.925 167.97 270.922 167.758C270.911 167.035 270.854 166.314 270.77 165.596C270.057 159.495 267.418 154.003 262.523 150.178L262.951 144.082Z" fill="#413BB8"/>
<path d="M47.6935 231.338C49.0162 231.979 50.4247 232.575 51.6819 233.332C52.8632 234.044 53.9622 234.997 55.0481 235.847L57.3561 243.301C57.527 244.063 57.5243 244.905 57.5815 245.684C55.1248 243.825 52.5767 242.182 49.3193 242.592L49.0552 242.629C47.5275 242.837 46.4431 243.565 45.3221 244.56C43.0507 242.862 41.711 240.898 41.0571 238.123C40.647 236.382 40.2052 233.84 41.2043 232.262C41.4621 232.222 41.6845 232.186 41.927 232.085C42.8274 231.71 43.7518 231.53 44.7134 231.383C45.706 231.231 46.6935 231.301 47.6935 231.338Z" fill="#06A39D"/>
<path d="M50.5332 225.746C50.7477 225.649 51.3714 225.68 51.6201 225.665C54.4381 225.504 57.4963 225.671 60.2519 226.281C63.679 227.04 67.4294 228.351 69.8587 231.011C70.926 232.18 71.7495 233.629 72.6005 234.959L68.6369 235.393C62.0334 235.417 55.2525 234.119 49.3928 230.984C48.4294 230.469 46.6268 229.512 46.3727 228.364C46.2637 227.87 46.2768 227.375 46.6323 226.975C47.473 226.031 49.3352 225.893 50.5332 225.746Z" fill="#06A39D"/>
<path d="M108.157 101.413L114.716 101.41L114.734 124.532L108.269 129.197L108.157 101.413Z" fill="#7ED8E9"/>
<path d="M66.5932 159.513L65.0475 160.689C64.8232 160.883 64.9951 160.975 65.1166 161.231C65.489 162.015 66.4052 163.095 66.346 163.929L61.5713 153.996L70.8682 138.582C73.9309 141.074 77.2996 143.803 79.8827 146.781C78.5942 148.59 76.4004 150.151 74.7317 151.645L68.8942 157.041C68.169 157.725 66.9323 158.581 66.5932 159.513Z" fill="#75E7B9"/>
<path d="M204.75 209.851L204.996 209.68C206.318 208.745 207.412 207.546 208.792 206.666C213.797 203.472 220.984 201.91 226.834 202.816C233.025 203.775 238.543 206.603 242.933 211.025C243.957 212.057 245.06 213.206 245.88 214.412L246.658 215.795L242.362 217.341C241.331 215.535 239.92 213.939 238.387 212.538C234.254 208.759 228.098 206.466 222.482 206.72C217.033 206.965 212.021 209.01 208.084 212.802C206.886 213.956 205.891 215.291 204.772 216.517L204.75 209.851Z" fill="#FEF684"/>
<path d="M44.1055 151.415L54.1934 153.722C56.3268 154.198 58.7707 154.923 60.9504 155.004L63.8687 161.19L62.6402 161.708C58.6022 162.958 54.5559 165.095 50.7678 166.966C49.5755 167.555 48.3056 168.449 47.0615 168.859L44.1055 151.415Z" fill="#75E7B9"/>
<path d="M93.4194 251.743C94.2131 251.686 95.1582 251.666 95.9288 251.877C97.4379 252.289 98.6807 253.103 99.404 254.517C100.046 255.772 99.8992 257.366 99.458 258.658C98.9382 260.182 98.0988 261.577 96.9312 262.697C95.4778 264.091 93.4443 265.18 91.7165 266.233C87.4871 268.81 83.1825 271.269 78.7331 273.454C79.8105 271.977 81.542 270.61 82.8522 269.297L91.7347 260.11C92.7012 259.064 93.6985 258.05 94.4203 256.816C92.8603 257.978 91.4407 259.459 90.0532 260.817L83.1051 267.799C81.3315 269.608 79.5765 271.692 77.3389 272.941C77.9936 271.339 79.0585 269.857 79.8638 268.321C81.6968 264.826 83.3336 261.229 85.4423 257.884C87.3823 254.808 89.8113 252.58 93.4194 251.743Z" fill="#06A39D"/>
<path d="M44.1878 150.521L44.1079 150.372C43.8383 149.365 44.036 147.793 44.0315 146.712C44.0025 139.751 44.7978 132.635 48.1292 126.392L48.3861 126.314L60.5477 154.046L44.1878 150.521Z" fill="#75E7B9"/>
<path d="M48.5859 126.226L48.6831 125.862C54.8448 127.171 60.2658 130.412 65.2776 134.113C66.8172 135.25 68.472 136.919 70.1578 137.742C69.2444 139.702 67.8251 141.623 66.706 143.489L61.1116 152.914C60.6516 152.379 60.3907 151.572 60.0925 150.925L58.0273 146.381L52.3147 133.939C51.1261 131.371 49.9915 128.682 48.5859 126.226Z" fill="#75E7B9"/>
<path d="M194.269 61.9851C194.492 61.9285 194.689 61.8897 194.921 61.8821L203.064 61.9088L217.055 61.9233L225.762 61.9227C227.112 61.9236 228.599 61.7877 229.93 61.973C230.814 62.0959 231.286 62.5415 231.921 63.1209C232.133 64.2571 232.278 65.5274 232.117 66.6775C232.007 67.4549 231.74 67.7046 231.137 68.1624L230.09 68.3531C228.737 68.512 227.202 68.3555 225.832 68.3377L217.882 68.3071L202.755 68.3107C200.145 68.3104 197.45 68.4357 194.847 68.2665C194.475 68.2423 193.996 68.1451 193.736 67.8581C193.161 67.2215 193.454 63.7536 193.475 62.7419C193.67 62.3396 193.902 62.2082 194.269 61.9851Z" fill="#FECF68"/>
<path d="M108.269 129.197L99.9441 135.246L99.8447 101.417L108.157 101.413L108.269 129.197Z" fill="#B9F5F7"/>
<path d="M105.223 261.47L106.641 261.427C109.193 261.482 111.754 262.153 113.53 264.076C114.718 265.363 115.156 266.953 115.039 268.677C114.951 269.961 114.041 271.177 113.081 271.978C111.693 273.136 109.722 274.103 107.936 274.43C106.124 274.762 104.041 274.583 102.191 274.585L91.3931 274.588L85.941 274.608C84.6522 274.637 83.3834 274.761 82.0946 274.642L103.855 268.722C105.895 268.063 108.018 267.63 109.921 266.627C106.653 266.825 103.226 268.07 100.09 268.959C93.1255 270.934 85.9626 273.322 78.7842 274.373L89.2386 268.829L94.3939 265.762C96.0389 264.729 97.6059 263.635 99.4073 262.881C101.25 262.109 103.245 261.7 105.223 261.47Z" fill="#06A39D"/>
<path d="M63.3202 273.04C58.5028 271.405 53.5284 270.242 48.601 268.984C47.8457 268.79 47.0968 268.615 46.325 268.5C45.9036 268.436 45.4167 268.483 45.0179 268.342C44.3936 268.122 43.7763 267.664 43.1898 267.351C40.0018 265.647 37.0662 263.889 34.9477 260.876C33.8459 259.309 33.1326 257.333 33.4995 255.417C33.7213 254.26 34.4068 253.212 35.3943 252.554C36.7764 251.632 38.5259 251.578 40.1008 251.951C44.6376 253.025 48.786 257.225 52.1119 260.275L57.3913 264.934L67.5209 273.074C64.9003 272.245 62.5859 271.017 60.1532 269.756L46.7811 262.069C44.0267 260.394 41.0789 258.778 38.4671 256.904L38.3148 256.981C39.507 258.414 41.773 259.679 43.3503 260.736C48.9407 264.481 54.6692 268.011 60.6721 271.071C62.7205 272.115 64.7903 273.259 67.0099 273.899L66.8792 274.009L66.2171 273.887L63.3202 273.04Z" fill="#75E7B9"/>
<path d="M69.2145 241.981C70.375 240.991 71.6736 240.561 73.2108 240.683C75.4874 240.863 77.2095 242.03 78.5998 243.754C79.2637 244.577 79.8423 245.431 80.2405 246.413C81.9797 249.17 82.0732 252.686 81.3794 255.764C80.094 261.467 76.8548 266.717 74.7936 272.176C74.9615 270.068 74.892 267.947 74.8686 265.835L74.5039 255.103C74.4539 254.277 74.5496 252.613 74.2488 251.885L73.7044 245.215L73.5057 245.088C72.9771 246.22 73.4247 250.247 73.4719 251.712L73.8713 261.203L73.9783 267.61C73.9932 269.257 74.0316 271.083 73.6824 272.694C73.1657 271.586 72.9231 270.365 72.599 269.191L71.116 263.798C71.003 263.375 70.5326 262.106 70.5993 261.766L67.8861 252.621C67.3912 250.776 66.7474 248.665 66.9065 246.74C67.0643 244.832 67.7505 243.254 69.2145 241.981Z" fill="url(#paint7_linear_91_110)"/>
<path d="M244.549 175.854L244.433 176.465C243.625 181.927 246.719 188.254 249.864 192.539C251.866 195.268 254.254 196.917 257.273 198.372L254.336 204.941C253.984 203.416 253.568 201.967 252.953 200.525C251.186 196.386 248.514 193.067 245.314 189.934C243.775 188.426 241.755 186.67 239.721 185.91C239.277 185.744 238.99 185.678 238.551 185.866C238.218 186.522 238.18 187.348 238.142 188.075C238.043 189.994 238.198 191.863 238.702 193.717C240.659 200.912 245.546 206.932 252.04 210.568C251.997 211.055 251.691 211.602 251.518 212.065L250.63 214.506C246.251 207.245 240.222 202.125 232.031 199.563L231.879 176.743L231.853 170.745C231.851 170.092 231.731 169.179 231.861 168.55C231.897 168.377 231.953 168.319 232.045 168.189C231.921 169.253 231.976 170.345 231.988 171.414L232.141 171.457C235.352 172.383 238.421 173.946 241.618 174.995C242.585 175.313 243.542 175.686 244.549 175.854Z" fill="#006A7D"/>
<path d="M230.335 125.331L230.336 137.37L230.327 141.079C230.326 141.758 230.256 142.489 230.42 143.147L230.555 143.27C231.353 144.119 231.965 145.577 232.651 146.575C234.807 149.711 237.877 151.579 241.299 153.013C241.01 154.358 240.563 155.753 240.436 157.119C240.69 157.387 240.684 157.399 241.049 157.445C242.435 159.08 247.49 159.943 249.605 160.758C250.619 161.149 251.388 161.76 252.323 162.258C251.422 167.612 253.59 173.171 256.042 177.843C254.656 178.132 253.127 178.097 251.712 178.242L248.69 175.361C247.922 174.725 246.773 173.72 245.731 173.812C244.941 174.301 244.776 174.997 244.549 175.854C243.542 175.686 242.585 175.313 241.618 174.995C238.421 173.946 235.352 172.383 232.141 171.457L231.988 171.414C231.976 170.345 231.921 169.253 232.045 168.19C232.736 168.47 233.473 169.031 234.15 169.399C234.596 168.963 234.924 166.906 235.188 166.21C235.864 164.422 236.806 162.588 238.662 161.775C238.988 161.632 239.21 161.531 239.475 161.282C239.164 160.239 237.619 159.331 236.772 158.645L230.173 153.355L230.183 133.84L230.185 128.518C230.186 127.48 230.083 126.34 230.335 125.331Z" fill="#008383"/>
<path d="M196.321 126.197L221.538 125.988C222.786 125.975 227.984 126.29 228.772 125.787L228.836 152.408L196.346 128.485L196.321 126.197Z" fill="#DC328E"/>
<path d="M211.402 247.342C211.781 246.057 212.378 244.88 213.624 244.223C215.318 243.33 218.475 243.805 220.365 243.825C221.815 243.84 223.775 243.597 225.133 244.104C225.906 244.393 226.619 245.038 226.954 245.79C227.551 247.125 227.347 249.173 227.351 250.62C227.354 251.532 227.44 252.631 227.05 253.478C226.622 254.407 225.852 255.192 225.189 255.96L232.063 255.957C233.068 255.959 234.244 255.834 235.217 256.028C235.709 256.126 236.07 256.394 236.417 256.742C237.526 257.854 237.555 259.526 237.505 260.991C237.468 262.114 237.291 263.693 236.44 264.514L235.285 265.498C237.4 265.766 239.58 265.739 241.709 265.751C242.905 265.758 244.322 265.595 245.473 265.921C245.989 266.068 246.394 266.45 246.721 266.86C247.557 267.91 247.434 270.868 247.212 272.144C247.061 273.013 246.673 273.809 245.919 274.312C245.615 274.515 245.233 274.647 244.87 274.69C243.238 274.882 241.388 274.725 239.735 274.726L228.903 274.732L228.973 274.364L228.988 265.37L211.412 265.465L211.328 265.325L203.682 265.251L207.438 265.229L207.449 255.787L209.112 255.779C208.251 255.432 207.082 255.576 206.147 255.578L200.84 255.559L211.512 255.543L211.513 250.772C211.504 249.643 211.563 248.459 211.402 247.342Z" fill="#1AC1A8"/>
<path d="M209.112 255.779L220.295 255.81L220.278 265.237L207.438 265.229L207.449 255.787L209.112 255.779Z" fill="#1A1596"/>
<path d="M196.377 89.4286C196.154 88.8028 196.278 87.769 196.275 87.0785L196.303 81.055L196.332 69.7578L228.82 69.7811L228.817 80.9608L228.818 89.4452L196.377 89.4286Z" fill="#FE5AA5"/>
<path d="M196.377 89.4286L196.373 80.8745L228.817 80.9608L228.818 89.4452L196.377 89.4286Z" fill="#FEFEFE"/>
<path d="M152.498 107.724L69.9622 167.736C69.4494 167.173 69.149 166.274 68.805 165.589L66.5479 161.348L79.3048 151.92L90.8162 143.511L104.301 133.905L123.733 119.488L142.552 105.529L148.992 100.788C150.118 99.9588 151.253 98.974 152.496 98.3301L152.987 98.5941L152.891 105.132C152.885 105.682 153.018 106.974 152.769 107.458C152.711 107.571 152.588 107.635 152.498 107.724Z" fill="#FE5AA5"/>
<path d="M211.411 265.465L228.988 265.37L228.973 274.364L228.903 274.732L214.415 274.748L180.972 274.607L161.264 274.648L149.39 274.752C147.816 274.751 145.85 274.96 144.335 274.603C146.188 274.336 148.325 274.52 150.211 274.509C149.009 274.489 143.243 274.728 142.592 274.275C142.298 273.699 142.465 272.481 142.464 271.829L142.458 265.587L151.19 265.526L210.045 265.465H211.411Z" fill="#413BB8"/>
<path d="M211.412 265.465L228.988 265.37L228.973 274.364L210.094 274.341L210.046 265.465H211.412Z" fill="#1A1596"/>
<path d="M142.592 274.275C142.298 273.699 142.465 272.481 142.464 271.829L142.458 265.588L151.19 265.526L151.478 265.597C153.021 265.946 155.2 265.681 156.802 265.683L169.591 265.686L169.636 274.235L142.592 274.275Z" fill="#1A1596"/>
<path d="M152.987 98.5938L153.164 98.7975C153.788 99.4917 154.825 100.052 155.597 100.605L160.599 104.237L182.037 120.003L216.072 144.783L229.288 154.515C232.205 156.659 235.161 158.983 238.246 160.866L238.108 160.949C235.538 162.515 234.701 165.016 233.636 167.641L209.396 149.793L171.145 121.721L160.352 113.755C157.791 111.873 155.156 110.015 152.791 107.892C152.644 107.76 152.704 107.806 152.498 107.723C152.589 107.635 152.712 107.57 152.769 107.458C153.019 106.973 152.886 105.682 152.891 105.131L152.987 98.5938Z" fill="#6B9CEA"/>
<path d="M233.699 254.758C233.218 254.76 230.059 254.907 229.883 254.768C229.589 254.534 229.19 253.675 228.965 253.327C228.453 252.534 228.637 251.272 228.638 250.362C228.639 249.024 228.628 247.714 228.381 246.396C228.202 245.443 227.706 244.649 226.993 243.996C226.775 243.796 225.833 243.21 225.778 242.996C225.742 242.856 225.819 242.454 225.83 242.305C225.905 241.387 226.002 240.513 226.225 239.618C227.036 236.355 228.12 233.187 229.807 230.257C232.259 225.997 236.251 222.207 240.473 219.709C246.961 215.872 255.444 214.16 262.85 216.025C270.429 217.934 277.417 222.834 281.433 229.556C285.459 236.296 286.828 244.998 284.848 252.622C283.391 258.233 280.311 263.676 275.882 267.492C274.325 268.833 272.574 269.914 270.801 270.948C267.37 272.951 263.709 274.251 259.739 274.648C258.352 274.787 256.911 274.714 255.517 274.7L247.664 274.585L247.765 274.389C248.781 272.384 248.512 270.223 248.504 268.037C250.1 268.554 251.591 269.009 253.267 269.207C259.249 269.911 265.986 267.956 270.683 264.215C276.037 259.951 279.16 254.197 279.881 247.419C280.492 241.667 278.868 235.141 275.158 230.59C270.938 225.413 265.409 222.017 258.68 221.252C256.625 221.018 254.578 221.137 252.533 221.393C246.582 222.136 240.455 225.807 236.839 230.488C233.168 235.241 230.997 241.81 231.813 247.815C232.148 250.283 232.779 252.441 233.699 254.758Z" fill="#FE97C1"/>
<path d="M62.6402 161.708L63.8687 161.19C66.0637 164.751 67.8202 168.69 69.7013 172.428L80.1549 193.792L81.6823 196.97C81.983 197.565 82.4019 198.215 82.5439 198.864C82.7365 199.744 82.5762 201.049 82.5786 201.97L82.5917 210.523L82.6115 245.181C81.9671 244.986 81.1682 244.793 80.6168 244.387C80.0357 243.96 79.5013 243.205 79.0339 242.653C77.1071 240.381 75.5379 237.86 73.8975 235.384C77.2213 230.66 79.2362 225.594 80.3572 219.943C80.8303 217.559 81.1944 214.729 80.7843 212.305L80.6585 211.687L80.6 211.385C80.433 210.559 80.0473 209.449 79.3075 208.947C78.8931 208.666 78.2792 208.621 77.8033 208.758C75.4907 209.423 73.4807 213.51 72.5925 215.567C70.761 219.808 70.0435 224.154 69.7845 228.729L65.2715 221.284C70.134 216.726 72.4795 210.082 73.488 203.632C73.6818 202.394 73.694 200.973 73.3381 199.766L73.2845 199.574C73.0754 198.858 72.665 198.201 71.9828 197.851C71.3969 197.551 70.4177 197.593 69.8141 197.811C66.9537 198.845 64.9427 203.449 63.8836 206.013C62.5835 209.161 61.9763 212.475 61.9827 215.87L58.1835 209.265C62.0601 205.893 64.1908 201.742 65.6752 196.895C66.29 194.888 66.84 192.901 66.9856 190.796C67.0959 189.202 66.836 187.224 65.7782 185.963C65.3611 185.466 64.713 185.144 64.061 185.124C62.9708 185.09 61.8389 185.962 61.139 186.711C59.5446 188.418 58.3417 190.836 57.4355 192.972L57.4404 192.991C56.4337 193.158 53.2412 194.633 52.6087 194.321C53.5538 193.328 54.5148 192.312 55.2988 191.186C57.5053 188.018 58.9087 183.922 59.6287 180.154C59.9778 178.327 60.1753 176.293 59.7868 174.46C59.607 173.612 59.2155 172.796 58.4221 172.364C57.8636 172.061 57.0766 172.038 56.484 172.249C53.6135 173.273 51.7351 177.242 50.4295 179.758C50.077 178.073 49.4737 176.485 48.9098 174.861L47.0615 168.859C48.3056 168.449 49.5755 167.556 50.7677 166.966C54.5559 165.095 58.6022 162.958 62.6402 161.708Z" fill="url(#paint8_linear_91_110)"/>
<path d="M204.771 216.517C205.89 215.291 206.886 213.956 208.084 212.802C212.021 209.01 217.032 206.965 222.481 206.719C228.098 206.466 234.254 208.759 238.387 212.537C239.919 213.939 241.331 215.534 242.362 217.34L238.381 219.548C233.84 222.633 230.474 226.626 227.877 231.415L226.95 233.403C225.978 235.931 225.247 238.431 224.787 241.1L224.631 241.02C224.19 240.902 223.757 241.061 223.345 241.204C223.114 241.285 223.06 241.23 222.829 241.169L222.714 242.682L221.515 242.693L220.061 242.658L215.322 242.684C213.622 243.039 212.631 243.562 211.486 244.863C209.776 243.748 208.156 242.137 206.898 240.544C206.235 239.706 205.689 238.78 204.977 237.984L204.87 237.866L204.771 216.517Z" fill="#FECF68"/>
<path d="M213.698 241.409C213.061 240.135 212.265 238.968 212.379 237.495C212.693 237.12 212.927 236.86 213.449 236.8C213.881 236.75 214.185 236.917 214.474 237.217C215.309 238.083 215.637 239.317 216.553 240.221C217.606 241.26 218.963 241.64 219.994 242.601L220.062 242.658L215.322 242.685L213.698 241.409Z" fill="#FEF684"/>
<path d="M221.516 242.693L221.578 230.838L219.245 229.913C217.366 228.957 215.795 227.654 215.125 225.597L215.062 225.396L214.932 225.005C214.458 223.254 214.873 221.007 215.836 219.489C217.216 217.317 219.274 216.627 221.658 216.135L221.696 213.731C222.157 213.513 222.452 213.598 222.955 213.636C223.322 214.227 223.11 215.432 223.083 216.125C224.14 216.312 225.268 216.459 226.264 216.87C227.985 217.58 229.375 218.892 230.052 220.636C230.319 221.323 230.624 222.345 230.303 223.039C229.776 223.483 229.306 223.695 228.609 223.645C227.861 222.944 227.685 221.582 227.109 220.701C226.159 219.247 224.586 218.801 222.971 218.473C222.921 219.428 222.793 228.6 222.901 228.769C222.947 228.841 223.915 229.153 224.11 229.235C225.325 229.741 227.049 230.387 227.878 231.415L226.95 233.403C225.979 235.931 225.248 238.431 224.788 241.1L224.632 241.02C224.19 240.902 223.757 241.061 223.346 241.204C223.115 241.285 223.061 241.23 222.83 241.169L222.715 242.682L221.516 242.693Z" fill="#FEF684"/>
<path d="M222.83 241.169L222.905 231.395C223.783 231.695 224.651 232.037 225.443 232.524C225.871 232.787 226.19 233.128 226.671 233.305L226.95 233.403C225.979 235.931 225.248 238.431 224.788 241.1L224.632 241.02C224.19 240.902 223.757 241.061 223.346 241.204C223.115 241.285 223.06 241.23 222.83 241.169Z" fill="#FECF68"/>
<path d="M221.229 218.65L221.497 218.617L221.689 218.801L221.743 228.214C220.985 228.083 220.036 227.498 219.389 227.092C218.569 226.55 217.943 225.855 217.577 224.941C217.118 223.797 217.182 222.498 217.694 221.38C218.402 219.834 219.695 219.181 221.229 218.65Z" fill="#FECF68"/>
<path d="M204.771 216.517C205.89 215.291 206.886 213.956 208.084 212.802C212.021 209.01 217.032 206.965 222.481 206.719C228.098 206.466 234.254 208.759 238.387 212.537C239.919 213.939 241.331 215.534 242.362 217.34L238.381 219.548C237.887 218.553 237.104 217.773 236.338 216.982C234.161 214.734 231.883 212.971 228.885 211.963C224.666 210.545 219.436 210.819 215.442 212.82L213.537 213.983L213.29 214.151C210.247 216.242 208.256 219.92 207.626 223.493C206.742 228.51 207.227 234.073 210.231 238.352C210.999 239.447 212.158 240.827 213.43 241.302L213.698 241.409L215.322 242.684C213.622 243.039 212.631 243.562 211.486 244.863C209.776 243.748 208.156 242.137 206.898 240.544C206.235 239.706 205.689 238.78 204.977 237.984L204.87 237.866L204.771 216.517Z" fill="#FCB638"/>
<path d="M44.4951 197.707C46.2525 197.54 47.5712 197.218 49.208 196.571C49.7839 197.156 50.2183 198.042 50.6684 198.736L53.9706 203.917L53.7573 203.776C49.6726 201.099 43.0679 200.817 38.4385 201.807C37.058 202.103 34.7606 202.694 33.9602 203.911C33.6531 204.378 33.5855 204.77 33.7131 205.329C34.0528 206.819 36.1351 207.953 37.3889 208.557C43.0585 211.29 50.2781 211.867 56.2716 209.908L57.1405 209.625C57.182 209.611 57.2268 209.563 57.2645 209.584C57.4068 209.665 57.9187 210.677 58.0439 210.884L60.9357 215.738L60.7346 215.59C57.5071 213.232 52.2707 212.694 48.3817 212.666C47.1477 212.656 45.8781 212.62 44.6566 212.812C43.2757 213.029 41.3056 213.354 40.4632 214.599C40.0518 215.206 39.8233 216.072 39.9967 216.791C40.2581 217.876 41.5061 218.763 42.4281 219.283C47.6373 222.222 55.3764 223.738 61.2669 222.568C62.3406 222.355 63.3147 222.105 64.3613 221.774L67.0627 226.023C67.5566 226.811 68.2595 227.762 68.516 228.656C63.8851 225.858 58.8696 224.783 53.4913 224.772C51.7598 224.768 50.0331 224.794 48.3354 225.179C47.4332 225.384 46.1815 225.862 45.6669 226.687C45.3077 227.263 45.3638 228.123 45.4862 228.783L21.4476 213.316L18.4499 211.345C18.2655 211.22 17.6831 210.73 17.5199 210.708C17.425 210.695 17.3292 210.725 17.2338 210.733L16.9183 211.157C17.0089 211.535 17.0009 211.456 17.2985 211.671L30.5529 220.343L41.1018 227.19C43.2645 228.519 45.7452 229.712 47.6934 231.338C46.6934 231.301 45.7059 231.231 44.7132 231.383C43.7517 231.53 42.8272 231.71 41.9269 232.085C41.6843 232.186 41.4619 232.222 41.2042 232.262C40.8391 232.269 40.6067 232.36 40.3331 232.613C39.6911 233.206 39.774 235.175 39.8392 236.014C40.114 239.547 41.4473 242.48 44.18 244.78L44.8632 245.3L44.7602 245.537C44.1264 247.011 44.1624 248.208 44.2303 249.782C42.2243 248.368 40.1579 246.993 38.2581 245.438C29.857 238.561 22.4761 229.513 17.6265 219.806C15.6785 215.908 14.1255 211.798 12.4854 207.764L14.2905 207.33L38.5043 199.669L41.5902 198.759C42.6222 198.47 43.5996 198.34 44.4951 197.707Z" fill="url(#paint9_linear_91_110)"/>
<path d="M228.817 89.4449L228.772 125.787C227.984 126.29 222.786 125.975 221.538 125.987L196.321 126.197L196.377 89.4282L228.817 89.4449Z" fill="#FE5AA5"/>
<path d="M212.694 99.1959C214.888 99.0811 216.832 99.392 218.69 100.659C220.828 102.118 222.332 104.402 222.778 106.941C223.231 109.524 222.663 112.222 221.124 114.358C219.441 116.694 217.307 117.745 214.492 118.206C212.311 118.239 210.536 118.089 208.624 116.991C206.475 115.757 204.948 113.566 204.313 111.214L204.244 110.953L204.066 110.208C203.632 107.79 204.362 105.052 205.807 103.088C207.511 100.772 209.86 99.6024 212.694 99.1959Z" fill="#FEFEFE"/>
<path d="M213.039 101.001C214.381 100.876 215.802 101.238 216.985 101.858C218.849 102.835 220.358 104.698 220.902 106.722C221.446 108.745 221.06 110.923 219.945 112.693C218.629 114.783 216.645 115.765 214.287 116.286C212.761 116.419 211.371 116.204 210.006 115.496C208.182 114.55 206.751 112.886 206.153 110.925L206.073 110.653L205.889 109.953C205.561 108.008 206.02 105.989 207.155 104.378C208.582 102.351 210.65 101.423 213.039 101.001Z" fill="#FECF68"/>
<path d="M83.931 170.012L83.9038 162.485C83.9014 161.689 83.7152 160.382 83.9998 159.691L152.247 109.819L222.348 161.104L222.3 170.5L152.503 119.614L83.931 170.012Z" fill="#DC328E"/>
<path d="M233.699 254.758C232.779 252.441 232.148 250.283 231.813 247.815C230.997 241.81 233.168 235.24 236.839 230.488C240.455 225.807 246.582 222.135 252.532 221.392C254.578 221.137 256.625 221.018 258.68 221.251C265.409 222.017 270.938 225.413 275.158 230.59C278.868 235.141 280.492 241.667 279.88 247.419C279.159 254.197 276.037 259.951 270.683 264.215C265.986 267.956 259.249 269.911 253.267 269.207C251.591 269.009 250.099 268.554 248.503 268.037C248.288 267.177 248.027 266.378 247.393 265.725C246 264.292 243.766 264.592 241.941 264.602C241.001 263.51 239.994 262.259 238.732 261.524C238.746 259.562 238.875 257.458 237.408 255.908C236.35 254.792 235.141 254.767 233.699 254.758Z" fill="#DC328E"/>
<path d="M254.193 227.556L254.263 227.541C258.329 227.16 263.1 228.526 266.38 230.932C270.31 233.814 272.838 237.898 273.546 242.69C274.196 247.087 273.018 251.925 270.326 255.497C267.116 259.756 262.948 262.429 257.649 263.195C253.539 263.618 248.858 262.18 245.517 259.803C241.604 257.019 238.918 252.243 238.196 247.561C237.498 243.039 238.789 238.511 241.498 234.846C244.534 230.739 249.176 228.306 254.193 227.556Z" fill="#FE5AA5"/>
<path d="M256.275 230.154C256.66 230.09 256.666 230.115 257.012 230.305C257.365 230.981 257.171 232.529 257.166 233.324C258.837 233.383 260.352 233.495 261.785 234.448C262.626 235.007 263.633 235.775 263.817 236.814C263.691 236.958 263.566 237.111 263.409 237.224C261.853 238.34 260.861 236.509 259.502 235.926C258.781 235.618 257.921 235.565 257.147 235.477L257.146 244.742C258.388 245.26 259.622 245.441 260.813 246.158C262.459 247.148 263.805 248.496 264.227 250.424C264.566 251.971 264.121 253.986 263.201 255.256C261.7 257.329 259.59 257.873 257.191 258.28C257.2 259.097 257.32 260.062 257.08 260.846L256.623 260.903L256.09 260.791C255.694 260.157 255.846 259.028 255.836 258.266C253.518 258.168 251.574 257.542 249.814 255.995C249.326 255.567 248.851 255.215 248.812 254.524C248.954 254.348 249.118 254.134 249.311 254.012C249.527 253.876 249.995 253.69 250.252 253.75C250.954 253.917 251.705 254.628 252.354 254.978C253.467 255.578 254.671 255.82 255.898 256.064L255.911 246.797C254.393 246.358 252.824 245.876 251.55 244.909C250.231 243.908 249.316 242.501 249.127 240.845C248.936 239.173 249.506 237.081 250.591 235.786C251.984 234.122 253.751 233.533 255.865 233.331C255.895 232.294 255.723 231.032 256.275 230.154Z" fill="#FEEA8C"/>
<path d="M255.125 235.755C255.337 235.714 255.569 235.711 255.785 235.694C256.092 236.17 255.92 237.44 255.919 238.027L255.91 244.315L253.62 243.139C252.91 242.67 252.16 242.039 251.844 241.232C251.474 240.287 251.575 239.235 252.013 238.328C252.665 236.975 253.728 236.221 255.125 235.755Z" fill="#FE5AA5"/>
<path d="M257.172 247.446C258.047 247.731 258.907 248.023 259.687 248.521C260.587 249.097 261.353 249.989 261.538 251.061C261.776 252.437 260.984 253.646 260.201 254.694C259.219 255.502 258.377 255.757 257.159 256.05L257.172 247.446Z" fill="#FE5AA5"/>
<path d="M14.2897 207.331C14.0368 206.216 13.4889 205.099 13.1632 203.989C12.3627 201.262 11.7955 198.429 11.5315 195.599C10.6646 186.307 14.1648 176.587 20.9468 170.111C22.5626 168.568 24.4676 167.402 26.1871 165.99C29.7599 163.057 32.6773 158.682 33.765 154.183C34.6191 150.65 34.5831 146.739 33.8589 143.188C33.4463 141.165 32.829 139.188 32.4878 137.151C31.6124 131.922 31.7264 126.422 33.0161 121.272C36.6239 106.865 49.0037 96.3192 63.5653 93.8407C67.6877 93.139 71.6794 93.4599 75.8162 93.2471C85.2886 92.7597 95.3789 89.2047 102.761 83.2726C108.202 78.899 112.515 72.9475 115.756 66.822C117.258 63.982 118.565 61.0316 120.228 58.277C124.41 51.3544 130.087 45.6551 137.055 41.5058C148.464 34.7128 162.581 32.498 175.52 35.7415C189.834 39.3301 201.73 47.8587 209.331 60.4488L198.736 60.4119C197.272 60.411 195.598 60.2315 194.162 60.4183C193.654 60.4843 193.154 60.7879 192.791 61.1388C191.452 62.4296 191.844 65.09 191.872 66.8108C191.887 67.749 191.958 68.1622 192.638 68.8558C193.251 69.4809 194.003 69.6356 194.825 69.8057L194.848 99.0187L194.864 105.652C194.866 106.321 195.035 107.605 194.805 108.208L167.73 88.7082L159.414 82.7888C157.905 81.7156 156.203 80.6718 154.863 79.4048L116.231 107.47L116.178 101.41C117.764 101.438 119.137 101.637 120.405 100.482C121.374 99.6003 121.255 98.4759 121.264 97.2853C121.278 95.2818 121.808 91.3072 120.37 89.7965C119.923 89.3276 119.327 88.9679 118.673 88.8871C116.745 88.6485 114.541 88.8523 112.588 88.8529L99.6467 88.8822C98.09 88.8913 96.0453 88.5396 94.886 89.7372C94.6635 89.9669 94.2805 90.4117 94.1629 90.6887C94.0353 90.9902 94.1139 91.879 94.106 92.2305C94.0575 94.3539 93.9826 96.5996 94.1306 98.7157C94.1882 99.5376 94.6108 100.254 95.2373 100.779C96.1078 101.51 97.2921 101.548 98.374 101.621L98.4228 118.947L90.138 124.599L76.4536 134.23L72.6051 136.988C72.2562 137.242 71.6353 137.852 71.2483 137.999C71.1249 138.045 70.9841 138.008 70.8522 138.012L70.2663 137.705L70.1569 137.742C68.4711 136.919 66.8163 135.25 65.2767 134.113C60.2649 130.412 54.8439 127.171 48.6822 125.862L48.585 126.226L48.3852 126.314L48.1283 126.392C44.7969 132.635 44.0016 139.751 44.0306 146.712C44.0351 147.793 43.8374 149.365 44.107 150.372L44.1869 150.521C44.0888 150.859 44.015 151.068 44.1046 151.415L47.0607 168.859L48.9089 174.861C49.4729 176.485 50.0762 178.073 50.4287 179.758C49.8501 181.146 49.2965 182.492 48.9315 183.953C48.6274 185.17 48.4936 186.421 48.1713 187.632C48.0107 186.364 47.8955 185.049 47.6021 183.803C46.4217 178.79 43.5044 173.585 39.3923 170.377C38.2829 169.512 36.5925 168.495 35.1224 168.667C34.5018 168.74 33.9753 169.051 33.6093 169.555C32.9668 170.439 33.1535 172.045 33.3659 173.065C34.6879 179.42 38.5502 184.323 42.838 189.006C39.4441 187.874 36.2891 186.995 32.6773 187.07C31.2547 187.1 29.8307 187.26 28.5422 187.898C27.9465 188.194 27.2614 188.672 27.0325 189.323C26.8037 189.974 26.946 190.696 27.2845 191.277C27.9433 192.407 29.2217 193.254 30.316 193.92C32.9856 195.547 35.5715 196.438 38.5562 197.285C40.5568 197.607 42.473 197.709 44.4943 197.707C43.5988 198.34 42.6214 198.47 41.5894 198.759L38.5035 199.669L14.2897 207.331Z" fill="#5C60C4"/>
<path d="M38.5566 197.285C40.5572 197.606 42.4734 197.709 44.4947 197.707C43.5992 198.34 42.6218 198.47 41.5898 198.759L38.5039 199.669C38.7093 199.471 38.9189 199.325 39.1523 199.162C39.4631 199.212 39.4774 199.15 39.7617 199.048L39.9917 198.972C40.3713 198.815 40.0587 198.882 40.4487 198.821C40.7275 198.777 40.8762 198.759 41.1334 198.631C41.2281 198.401 41.2848 198.173 41.3479 197.932L40.8281 197.837C40.3948 197.747 39.9682 197.733 39.5426 197.639C39.3214 197.59 39.1175 197.555 38.8909 197.539L38.6288 197.523L38.5566 197.285Z" fill="#06A39D"/>
<path d="M71.1728 104.822C71.4586 104.717 71.7359 104.688 72.0387 104.718C72.4278 104.757 72.7417 104.993 72.9824 105.286C73.2526 105.615 73.4894 106.14 73.3806 106.572C73.2203 107.21 72.9699 107.438 72.4394 107.773C72.2319 107.828 71.9745 107.916 71.7539 107.915C71.2347 107.912 70.8346 107.663 70.5488 107.244C70.2795 106.849 70.1707 106.236 70.3066 105.776C70.4599 105.256 70.7362 105.083 71.1728 104.822Z" fill="#FEB7CB"/>
<path d="M181.799 88.6255C182.17 88.6155 182.462 88.6551 182.788 88.8343C183.199 89.0608 183.507 89.6102 183.59 90.0574C183.68 90.533 183.645 91.061 183.345 91.4603C182.979 91.9483 182.552 92.06 181.974 92.1644L181.213 92.0288C180.767 91.8481 180.41 91.4369 180.245 90.9934C180.056 90.4851 180.087 90.114 180.346 89.6405C180.647 89.0889 181.233 88.8141 181.799 88.6255Z" fill="#FEFEFE"/>
<path d="M58.3184 108.606C58.6667 108.53 59.1636 108.467 59.5082 108.564C59.9537 108.69 60.4223 109.164 60.6325 109.562C60.8558 109.987 60.8735 110.758 60.7017 111.204C60.4521 111.852 59.9661 112.152 59.3446 112.39C59.0228 112.432 58.6371 112.446 58.3248 112.351C57.8452 112.204 57.3998 111.79 57.1761 111.349C56.9077 110.819 56.929 110.268 57.1347 109.721C57.3571 109.128 57.7703 108.873 58.3184 108.606Z" fill="#FE97C1"/>
<path d="M130.571 79.3145L131.701 79.3423C132.218 79.4234 132.784 79.8857 133.064 80.3083C133.497 80.9628 133.661 81.6513 133.452 82.4196C133.215 83.2912 132.568 83.7771 131.814 84.1963L131.747 84.1948C131.323 84.2003 130.78 84.2708 130.374 84.1313C129.726 83.9078 129.252 83.362 128.971 82.7523C128.697 82.158 128.627 81.433 128.871 80.816C129.174 80.0504 129.86 79.6478 130.571 79.3145Z" fill="#FEFEFE"/>
<path d="M74.7427 117.175C75.6321 117.151 76.4026 117.123 77.2384 117.492C78.3953 118.003 79.4004 119.014 79.8142 120.218C80.1829 121.291 80.0205 122.753 79.4891 123.743C78.8218 124.985 77.7058 125.689 76.3871 126.08C75.5717 126.134 74.6516 126.155 73.8844 125.847C72.6699 125.358 71.8131 124.417 71.3555 123.212C70.9234 122.075 71.0669 120.657 71.6029 119.58C72.2516 118.277 73.4234 117.629 74.7427 117.175Z" fill="#F9D6D1"/>
<path d="M160.764 50.0879L161.467 51.789C162.832 54.8015 165.258 56.4066 168.262 57.5536C167.352 57.9009 166.445 58.2493 165.597 58.7322C163.017 60.201 161.746 62.3211 160.962 65.1141L159.651 62.1839C158.333 59.8614 156.115 58.2375 153.541 57.5439L153.323 57.4864C154.16 57.1964 155.017 56.9627 155.808 56.5576C158.442 55.2077 159.896 52.8001 160.764 50.0879Z" fill="#FEFEFE"/>
<path d="M83.9308 170.013L152.503 119.614L222.3 170.5C222.306 173.686 222.488 197.84 222.289 198.291C222.247 198.385 222.163 198.455 222.1 198.536L221.247 198.587C217.554 198.915 214.362 199.768 210.923 201.111C208.629 202.154 206.633 203.414 204.649 204.965C204.623 205.34 204.575 205.716 204.634 206.089L204.75 209.851L204.772 216.517L204.871 237.867L204.977 237.984C205.689 238.781 206.236 239.706 206.898 240.544C208.156 242.138 209.777 243.748 211.487 244.863C211.25 245.436 211.011 245.993 210.861 246.596C211.018 246.908 211.126 247.12 211.402 247.342C211.564 248.459 211.504 249.643 211.513 250.773L211.513 255.543L200.84 255.559L206.147 255.578C207.082 255.577 208.252 255.433 209.113 255.779L207.449 255.787L207.439 265.229L203.682 265.252L211.328 265.326L211.412 265.465H210.046L151.19 265.526L142.458 265.587L142.464 271.829C142.466 272.481 142.299 273.699 142.592 274.275C143.243 274.728 149.009 274.489 150.211 274.51C148.326 274.521 146.188 274.336 144.335 274.603L110.513 274.578C112.442 273.826 114.265 272.67 115.352 270.864C116.167 269.511 116.389 267.75 115.957 266.231C115.395 264.254 113.963 262.664 112.163 261.694C107.913 259.402 103.402 260.561 99.0708 261.861C100.116 259.92 101.256 257.533 100.761 255.272C100.429 253.758 99.444 252.421 98.1104 251.619C96.5114 250.657 94.4362 250.419 92.6251 250.844C88.3354 251.852 86.2066 254.763 84.0046 258.266C83.8172 257.236 83.9436 255.967 83.9406 254.913L83.9251 247.759L83.9092 220.303L83.8906 210.074L83.9308 170.013Z" fill="#FE5AA5"/>
<path d="M210.924 201.111C209.977 200.299 208.886 199.654 208.144 198.623C207.26 197.394 206.837 195.897 207.122 194.398L207.162 194.204C207.369 193.151 207.729 192.194 208.507 191.419C209.909 190.022 211.751 190.227 213.581 190.208C215.728 190.186 218.246 189.925 219.878 191.585C221.728 193.467 221.243 196.175 221.248 198.587C217.554 198.915 214.362 199.767 210.924 201.111Z" fill="#FEB7CB"/>
<path d="M83.8906 210.074C85.6094 210.065 96.7704 209.612 97.6217 210.433C97.7963 210.601 97.9858 210.814 98.065 211.048C98.2737 211.667 98.178 212.625 98.1777 213.276L98.1259 218.426C98.1116 219.051 97.9821 219.618 97.5141 220.071C96.9337 220.632 85.8382 220.291 83.9092 220.303L83.8906 210.074Z" fill="#F9D6D1"/>
<path d="M146.056 215.353L147.197 214.066C147.563 213.702 148.066 213.369 148.571 213.243C149.734 212.952 151.221 213.064 152.42 213.064L158.819 213.128C159.87 213.165 160.796 213.491 161.527 214.26C162.702 215.497 162.71 217.251 162.623 218.848C162.586 219.513 162.581 220.117 162.297 220.729L162.223 220.892C161.792 221.789 160.89 222.502 159.956 222.834C158.473 223.361 156.357 223.115 154.782 223.103C152.825 223.089 149.72 223.466 147.977 222.607C147.111 222.181 146.595 221.482 146.086 220.698C146.088 218.993 146.227 217.155 146.059 215.467L146.056 215.353Z" fill="#FEB7CB"/>
<path d="M116.051 249.938L126.278 249.933C127.329 250.058 128.407 250.697 129.019 251.552C129.934 252.829 130.037 255.135 129.712 256.621L129.67 256.794C129.574 257.221 129.472 257.564 129.222 257.932C128.504 258.985 127.553 259.494 126.332 259.759L121.717 259.807C119.537 259.846 116.259 260.278 114.258 259.288C113.326 258.826 112.737 257.92 112.462 256.943C112.045 255.462 112.059 253.126 112.895 251.799C113.642 250.614 114.754 250.209 116.051 249.938Z" fill="#FEB7CB"/>
<path d="M106.078 158.531L118.802 158.509C119.803 158.619 120.843 159.082 121.482 159.877C122.614 161.284 122.69 162.96 122.463 164.688C122.284 166.052 121.643 166.792 120.566 167.582C119.898 167.88 119.256 168.135 118.516 168.162L109.678 168.183C108.467 168.183 106.909 168.372 105.757 168.143C105.401 168.073 105.274 167.902 105.018 167.663C104.654 166.83 104.647 160.087 104.994 159.348C105.223 158.862 105.586 158.676 106.078 158.531Z" fill="#F9D6D1"/>
<path d="M165.573 155.795C167.291 155.668 169.087 155.765 170.813 155.764C172.01 155.763 173.356 155.634 174.533 155.804C175.12 155.889 175.764 156.213 176.262 156.524C177.535 157.319 178.375 158.611 178.645 160.08C178.917 161.56 178.541 163.012 177.634 164.21C176.705 165.437 175.389 166.064 173.893 166.282C172.346 166.408 170.746 166.336 169.193 166.341C167.469 166.347 164.907 166.672 163.339 165.839C162.197 165.231 161.344 164.174 161.01 162.93C160.634 161.534 160.721 159.308 161.513 158.065C162.338 156.774 164.12 156.063 165.573 155.795Z" fill="#FEB7CB"/>
<path d="M183.55 180.584L182.208 180.043C180.982 179.555 180.027 178.562 179.507 177.364C178.908 175.986 178.909 174.106 179.502 172.719C179.981 171.596 180.92 170.574 182.07 170.111C183.938 169.358 186.634 169.681 188.623 169.68C190.332 169.68 192.778 169.379 194.358 170.121C195.673 170.738 196.613 171.832 197.081 173.193C197.606 174.721 197.539 176.362 196.772 177.801C195.933 179.374 194.748 180.029 193.113 180.588L183.55 180.584Z" fill="#FEB7CB"/>
<path d="M165.267 247.064L182.658 247.131L182.657 255.519L158.433 255.549L158.426 247.034L165.267 247.064Z" fill="#1A1596"/>
<path d="M176.632 265.209L150.691 265.231L150.669 255.815L160.186 255.836L160.344 255.856C162.251 256.083 164.298 255.951 166.221 255.958L176.605 255.977L176.632 265.209Z" fill="#1A1596"/>
<path d="M160.186 255.835L207.449 255.787L207.439 265.229L203.682 265.251L176.631 265.209L176.604 255.977L166.22 255.958C164.298 255.951 162.25 256.082 160.344 255.856L160.186 255.835Z" fill="#413BB8"/>
<path d="M145.976 231.118L151.213 231.127L151.218 239.042L92.5521 239.071L92.5591 234.42C92.5597 233.599 92.6429 232.679 92.5234 231.87L107.677 231.765L132.444 231.861L141.522 231.828C142.834 231.822 144.51 232.006 145.777 231.708L145.976 231.118Z" fill="#1A1596"/>
<path d="M151.356 132.498C152.14 132.325 153.404 132.401 154.214 132.502C157.973 132.972 161.214 134.935 163.5 137.915C165.648 140.718 166.441 144.821 165.959 148.269L165.916 148.567C165.557 151.241 164.459 153.669 162.753 155.767C160.325 158.753 156.815 160.588 152.99 161.014C149.852 161.145 146.978 160.351 144.38 158.567C141.454 156.558 139.112 153.449 138.486 149.911L138.33 149C137.741 145.148 138.893 141.272 141.216 138.18C143.698 134.876 147.312 133.085 151.356 132.498Z" fill="#010064"/>
<path d="M153.246 147.763L161.893 147.777C162.443 147.78 163.955 147.627 164.312 147.879C163.858 150.975 162.767 153.229 160.627 155.538C158.526 157.552 156.19 158.715 153.306 159.184L153.246 147.763Z" fill="#FECF68"/>
<path d="M153.347 134.204C156.04 134.345 158.475 135.346 160.483 137.143C162.63 139.065 164.076 141.864 164.232 144.74C164.264 145.322 164.399 145.625 163.998 146.068L153.283 146.066L153.347 134.204Z" fill="#FECF68"/>
<path d="M139.82 147.734L151.726 147.736L151.716 159.383C149.085 159.106 146.675 158.337 144.584 156.667C141.671 154.34 140.244 151.371 139.82 147.734Z" fill="#FECF68"/>
<path d="M150.575 134.289L151.582 134.22C151.935 134.847 151.733 136.622 151.733 137.409L151.729 146.065L141.032 146.07C140.652 146.078 140.272 146.131 139.928 145.945C139.829 144.147 140.82 141.818 141.778 140.326C143.867 137.074 146.802 135.089 150.575 134.289Z" fill="#FECF68"/>
<path d="M92.5234 231.871L92.6164 231.213C93.0045 230.901 93.7236 231.024 94.2288 231.024L99.14 231.032L99.1342 206.924L99.1595 199.726C99.1726 197.055 99.1793 194.607 99.7799 191.981C100.55 188.616 102.303 185.24 104.541 182.609C108.368 178.109 114.614 174.705 120.56 174.25C127.036 173.754 133.174 175.625 138.1 179.896C142.397 183.621 145.284 188.849 145.885 194.507C146.113 196.658 145.988 198.907 145.982 201.072C145.969 205.8 145.765 210.638 146.056 215.353L146.059 215.467L145.928 226.616C145.92 227.989 145.684 229.799 145.976 231.118L145.777 231.708C144.51 232.007 142.834 231.823 141.522 231.828L132.444 231.861L107.677 231.766L92.5234 231.871Z" fill="#010064"/>
<path d="M115.915 224.273L129.08 224.298L129.068 231.016L115.903 231.01L115.915 224.273Z" fill="#FECF68"/>
<path d="M100.927 224.332L114.204 224.321L114.164 231.017L100.9 231.009L100.927 224.332Z" fill="#FECF68"/>
<path d="M130.935 224.318L144.249 224.303L144.208 231.026L130.923 231.038L130.935 224.318Z" fill="#FECF68"/>
<path d="M113.669 177.932C114.015 177.849 113.863 177.827 114.128 177.932L114.149 196.657L101.537 196.656C101.158 196.621 101.336 196.679 101.004 196.475C100.959 194.367 101.368 192.406 102.054 190.42C104.035 184.685 108.276 180.572 113.669 177.932Z" fill="#FECF68"/>
<path d="M130.878 177.45C133.35 178.572 135.574 179.967 137.564 181.818C141.817 185.776 144.04 190.961 144.249 196.698L130.855 196.663L130.878 177.45Z" fill="#FECF68"/>
<path d="M121.082 175.949C122.214 175.76 123.651 175.827 124.791 175.983C126.285 176.187 127.642 176.461 129.09 176.885L129.085 196.683L124.084 196.687L115.866 196.672L115.83 177.048C117.613 176.58 119.24 176.143 121.082 175.949Z" fill="#FECF68"/>
<path d="M115.863 198.402L129.062 198.416L129.052 222.354L128.806 222.589L115.837 222.566L115.863 198.402Z" fill="#FECF68"/>
<path d="M101.474 198.367L114.125 198.359L114.15 214.662C114.154 217.176 114.418 220.028 114.087 222.503L113.725 222.61L100.87 222.574L100.86 205.75L100.857 201.288C100.856 200.356 100.783 199.372 100.928 198.45L101.474 198.367Z" fill="#FECF68"/>
<path d="M132.734 198.367L144.279 198.361L144.247 222.601L142.518 222.631L130.858 222.618V198.368L132.734 198.367Z" fill="#FECF68"/>
<path d="M183.55 180.584L193.112 180.589C194.445 180.664 203.985 180.438 204.438 180.707L204.649 204.965C204.623 205.34 204.575 205.716 204.634 206.089L204.75 209.851L204.772 216.517L204.871 237.867L204.977 237.984C205.689 238.781 206.236 239.706 206.898 240.544C208.156 242.138 209.776 243.748 211.487 244.863C211.25 245.436 211.011 245.993 210.86 246.596C211.018 246.908 211.126 247.12 211.402 247.342C211.563 248.459 211.504 249.643 211.513 250.773L211.513 255.543L200.84 255.559L182.656 255.519L182.658 247.132L165.266 247.064L165.272 194.951L165.254 183.96L165.164 180.608L183.55 180.584Z" fill="#413BB8"/>
<path d="M204.897 244.77C205.547 245.611 206.218 246.322 207.005 247.037L204.913 247.048L204.897 244.77Z" fill="#FCB638"/>
<path d="M204.871 237.867L204.977 237.984C205.689 238.781 206.236 239.706 206.898 240.544C208.157 242.138 209.777 243.748 211.487 244.863C211.25 245.436 211.011 245.993 210.861 246.596L210.768 247.052C209.637 247.261 208.16 247.124 207.005 247.038C206.218 246.323 205.547 245.611 204.897 244.77L204.871 237.867Z" fill="#FEF684"/>
<path d="M184.046 182.657L191.048 182.662L191.003 194.947L184.1 194.944L184.046 182.657Z" fill="#010064"/>
<path d="M191.049 182.662L197.014 182.564L202.314 182.55L202.32 194.958L195.846 194.951L191.003 194.947L191.049 182.662Z" fill="#010064"/>
<path d="M191.049 182.662L197.014 182.564L195.991 182.644C195.582 183.247 195.802 184.91 195.804 185.719L195.846 194.952L191.003 194.947L191.049 182.662Z" fill="#1A1596"/>
<path d="M173.804 247.024L171.835 247.039C171.628 246.298 171.818 245.054 171.819 244.251L171.829 236.258L171.845 199.632L202.02 199.644L202.007 202.725L173.969 202.832L173.804 247.024Z" fill="#5C60C4"/>
<path d="M166.639 182.537L184.046 182.657L184.099 194.944L179.121 194.947L171.716 194.949L166.641 194.965L165.272 194.951L165.254 183.96L165.369 182.583L166.639 182.537Z" fill="#1A1596"/>
<path d="M165.254 183.96L165.369 182.583L166.639 182.537L166.641 194.965L165.272 194.951L165.254 183.96Z" fill="#010064"/>
<path d="M171.716 194.949L171.623 182.7L179.191 182.722L179.121 194.947L171.716 194.949Z" fill="#010064"/>
<path d="M173.805 247.023L173.97 202.832L202.007 202.725L202.018 247.051L173.805 247.023Z" fill="#6B9CEA"/>
<path d="M192.493 218.33C193.393 217.902 194.265 217.657 195.238 218.003C195.454 218.08 195.723 218.165 195.916 218.289C196.827 218.872 197.592 219.661 197.839 220.747C198.064 221.74 197.859 222.759 197.276 223.588C196.675 224.443 195.763 224.982 194.735 225.15C193.754 225.311 192.872 225.047 192.085 224.45C191.229 223.801 190.717 222.789 190.605 221.732C190.535 221.068 190.795 220.269 191.109 219.688C191.517 219.093 191.893 218.733 192.493 218.33Z" fill="#010064"/>
<path d="M193.502 218.741L194.827 218.664C195.83 219.143 196.528 219.631 196.875 220.727C197.09 221.402 197.048 222.177 196.706 222.802C196.308 223.531 195.685 223.963 194.888 224.19C194.256 224.371 193.521 224.345 192.944 224.008C192.241 223.597 191.735 222.877 191.549 222.09C191.436 221.608 191.489 221.066 191.515 220.575C192.023 219.619 192.515 219.197 193.502 218.741Z" fill="#FCB638"/>
</g>
<defs>
<linearGradient id="paint0_linear_91_110" x1="295.279" y1="200.994" x2="293.478" y2="178.202" gradientUnits="userSpaceOnUse">
<stop stop-color="#00938E"/>
<stop offset="1" stop-color="#6BC5BF"/>
</linearGradient>
<linearGradient id="paint1_linear_91_110" x1="269.755" y1="196.186" x2="277.484" y2="199.993" gradientUnits="userSpaceOnUse">
<stop stop-color="#15B8AF"/>
<stop offset="1" stop-color="#10D0AF"/>
</linearGradient>
<linearGradient id="paint2_linear_91_110" x1="74.7618" y1="270.268" x2="83.2082" y2="260.186" gradientUnits="userSpaceOnUse">
<stop stop-color="#0CA298"/>
<stop offset="1" stop-color="#3FD5AC"/>
</linearGradient>
<linearGradient id="paint3_linear_91_110" x1="261.932" y1="187.855" x2="279.615" y2="191.709" gradientUnits="userSpaceOnUse">
<stop stop-color="#006E7F"/>
<stop offset="1" stop-color="#008D90"/>
</linearGradient>
<linearGradient id="paint4_linear_91_110" x1="282.777" y1="199.865" x2="284.863" y2="183.133" gradientUnits="userSpaceOnUse">
<stop stop-color="#3BBDAA"/>
<stop offset="1" stop-color="#9AFBD2"/>
</linearGradient>
<linearGradient id="paint5_linear_91_110" x1="75.6751" y1="270.211" x2="59.1892" y2="244.824" gradientUnits="userSpaceOnUse">
<stop stop-color="#20C19D"/>
<stop offset="1" stop-color="#6AE2A9"/>
</linearGradient>
<linearGradient id="paint6_linear_91_110" x1="56.9476" y1="269.736" x2="62.9316" y2="246.356" gradientUnits="userSpaceOnUse">
<stop stop-color="#41C89E"/>
<stop offset="1" stop-color="#62E6A9"/>
</linearGradient>
<linearGradient id="paint7_linear_91_110" x1="70.9683" y1="271.921" x2="75.5685" y2="240.969" gradientUnits="userSpaceOnUse">
<stop stop-color="#1FB998"/>
<stop offset="1" stop-color="#6EE9B0"/>
</linearGradient>
<linearGradient id="paint8_linear_91_110" x1="90.3638" y1="206.655" x2="41.3364" y2="196.513" gradientUnits="userSpaceOnUse">
<stop stop-color="#004B69"/>
<stop offset="1" stop-color="#24AFA0"/>
</linearGradient>
<linearGradient id="paint9_linear_91_110" x1="65.1824" y1="217.947" x2="18.764" y2="230.239" gradientUnits="userSpaceOnUse">
<stop stop-color="#00737D"/>
<stop offset="1" stop-color="#008683"/>
</linearGradient>
<clipPath id="clip0_91_110">
<rect width="312" height="310" fill="white"/>
</clipPath>
</defs>
</svg>
