<svg width="100" height="50" viewBox="0 0 100 50" fill="none" xmlns="http://www.w3.org/2000/svg">
<g clip-path="url(#clip0_86_1963)">
<path d="M0 10.8838L6.05499 21.7067V28.3084L0.00708333 39.11L0 10.8838Z" fill="#5B57A2"/>
<path d="M23.248 17.7676L28.9218 14.2901L40.5334 14.2793L23.248 24.8685V17.7676Z" fill="#D90751"/>
<path d="M23.2168 10.8196L23.2488 25.1487L17.1797 21.4196V0L23.2168 10.8196Z" fill="#FAB718"/>
<path d="M40.5342 14.2796L28.9222 14.2904L23.2168 10.8196L17.1797 0L40.5342 14.2796Z" fill="#ED6F26"/>
<path d="M23.2488 39.17V32.2179L17.1797 28.5596L17.183 50.0004L23.2488 39.17Z" fill="#63B22F"/>
<path d="M28.9083 35.7242L6.05458 21.7067L0 10.8838L40.5095 35.71L28.9083 35.7242Z" fill="#1487C9"/>
<path d="M17.1836 50.0004L23.2486 39.17L28.9082 35.7241L40.5094 35.71L17.1836 50.0004Z" fill="#017F36"/>
<path d="M0.0078125 39.1093L17.2299 28.5593L11.4399 25.0068L6.05572 28.3077L0.0078125 39.1093Z" fill="#984995"/>
<path fill-rule="evenodd" clip-rule="evenodd" d="M66.2026 26.6991C70.11 26.6991 73.0116 24.3033 73.0116 20.6713C73.0116 17.1557 70.8709 14.8734 67.2929 14.8734C65.6417 14.8734 64.2791 15.4544 63.2529 16.4574C63.4979 14.3847 65.2508 12.871 67.1808 12.871C67.6263 12.871 70.9796 12.8641 70.9796 12.8641L72.8759 9.23535C72.8759 9.23535 68.6659 9.33138 66.7088 9.33138C62.2371 9.4091 59.2167 13.4736 59.2167 18.4101C59.2167 24.1617 62.1625 26.6991 66.2026 26.6991ZM66.2264 18.0875C67.6772 18.0875 68.6828 19.0408 68.6828 20.6709C68.6828 22.1378 67.7893 23.3467 66.2264 23.3499C64.7312 23.3499 63.7254 22.2297 63.7254 20.6957C63.7254 19.0653 64.7312 18.0875 66.2264 18.0875ZM88.0999 14.038V26.2621H83.7349V17.6871H79.532V26.2621H75.167V14.0372L88.0999 14.038ZM53.0932 22.8763C54.633 22.764 55.6636 22.1695 55.6636 22.1695L57.279 25.1582C56.2445 25.8227 54.5471 26.2548 53.3166 26.3004C48.9146 26.3813 45.8525 23.7027 45.8525 19.8001C45.8525 15.9468 49.1103 13.2043 53.3166 13.2043C54.9833 13.2043 56.4162 13.6514 57.492 14.4669C57.2656 14.8681 56.9578 15.4239 56.6652 15.9557L56.1967 16.8094L55.7705 17.589C55.7705 17.589 54.2204 16.7768 53.0487 16.7768C51.1379 16.7768 49.7463 17.8873 49.7463 19.8245C49.7463 21.811 51.3232 22.9288 53.0932 22.8763ZM49.7475 34.4888C49.6142 34.6589 49.4389 34.7875 49.2285 34.8742C49.0124 34.962 48.7815 35.0068 48.5484 35.0056C48.3166 35.0088 48.0861 34.9702 47.868 34.8917C47.6721 34.8204 47.4931 34.7094 47.3421 34.5657C47.1932 34.4217 47.0762 34.2479 46.9989 34.0555C46.9151 33.8451 46.8734 33.6201 46.876 33.3934C46.876 33.1684 46.9147 32.9601 46.995 32.7628C47.0721 32.565 47.1842 32.3953 47.3246 32.2529C47.3883 32.187 47.4577 32.128 47.5321 32.0751L47.5777 32.0442C47.6255 32.0128 47.6754 31.9835 47.727 31.9567L47.7826 31.929L47.8227 31.9099C48.0155 31.8265 48.2259 31.7813 48.4572 31.7813C48.7062 31.7813 48.9376 31.8126 49.1479 31.8749C49.2808 31.914 49.4008 31.9697 49.5082 32.0421C49.5713 32.0849 49.6299 32.1333 49.6842 32.1874L49.4285 32.6207C49.3046 32.5084 49.1589 32.4234 49.0004 32.3705C48.8499 32.3221 48.6924 32.2977 48.5343 32.2981C48.3942 32.2981 48.2609 32.3257 48.1313 32.3778C48.0037 32.4291 47.887 32.5044 47.7877 32.6C47.6859 32.6976 47.606 32.8161 47.5525 32.9467C47.4931 33.0814 47.465 33.2307 47.465 33.3971C47.465 33.5668 47.4963 33.7194 47.5559 33.8512C47.616 33.9863 47.6963 34.101 47.798 34.1979C47.8996 34.2951 48.0188 34.3676 48.1555 34.4164C48.2113 34.4376 48.2682 34.4542 48.3264 34.4664C48.4112 34.4843 48.4991 34.4929 48.5905 34.4929C48.7797 34.4929 48.9518 34.4542 49.0989 34.3814C49.176 34.344 49.2491 34.2992 49.317 34.2475C49.3772 34.2016 49.4334 34.1503 49.4846 34.0941L49.7475 34.4888ZM50.4698 34.9328V31.8472H51.0238V34.1462L52.8259 31.8472H53.3801V34.9332H52.8259V32.6346L51.0238 34.9332L50.4698 34.9328ZM57.051 34.4888C56.9147 34.6605 56.7358 34.7932 56.5322 34.8742C56.4085 34.9242 56.2797 34.9604 56.1485 34.982C56.0506 34.9979 55.9513 35.006 55.8518 35.0056C55.7589 35.0068 55.6661 35.0015 55.5743 34.9893C55.4372 34.9714 55.3023 34.9389 55.1717 34.8917C55.1269 34.8754 55.083 34.8571 55.0401 34.8367C54.9882 34.8119 54.9377 34.7842 54.8889 34.7541C54.8018 34.7 54.7202 34.6369 54.6456 34.5657C54.4964 34.4217 54.3795 34.2479 54.3021 34.0555C54.2185 33.8451 54.1766 33.6201 54.1793 33.3934C54.1793 33.1684 54.2179 32.9601 54.2985 32.7628C54.376 32.565 54.4879 32.3953 54.6281 32.2529C54.7685 32.1072 54.9367 31.9966 55.1259 31.9099C55.3257 31.822 55.5422 31.7781 55.7605 31.7813C55.9053 31.7813 56.0439 31.7919 56.1759 31.813L56.2534 31.8265C56.2827 31.8322 56.3118 31.8387 56.3405 31.8456L56.3916 31.8582L56.4514 31.8749C56.6618 31.9371 56.8404 32.0413 56.9879 32.1874L56.7318 32.6207C56.6083 32.5084 56.4626 32.4234 56.3043 32.3705C56.2663 32.3583 56.2278 32.3473 56.1889 32.3379C56.1623 32.3318 56.1354 32.3266 56.1084 32.3217C56.0829 32.3172 56.0573 32.3131 56.0317 32.3099L55.9751 32.3038C55.9295 32.2997 55.8838 32.2977 55.838 32.2981C55.5595 32.2989 55.2919 32.4071 55.0909 32.6C55.0649 32.6256 55.0403 32.6521 55.0171 32.6802C54.9896 32.7131 54.9642 32.7481 54.941 32.7843C54.908 32.836 54.8795 32.8901 54.8559 32.9467C54.8429 32.976 54.8315 33.0061 54.8216 33.037C54.81 33.0724 54.8004 33.1086 54.7927 33.1456C54.7764 33.225 54.7685 33.3084 54.7685 33.3971C54.7685 33.4773 54.7754 33.5534 54.789 33.6254C54.7971 33.6681 54.8075 33.7088 54.8201 33.7483C54.8315 33.7841 54.8448 33.8183 54.8596 33.8512C54.8972 33.9367 54.9432 34.014 54.9975 34.0836C55.0293 34.1242 55.0639 34.1621 55.1013 34.1979C55.203 34.2951 55.3227 34.3676 55.4592 34.4164C55.5959 34.4648 55.7397 34.4929 55.8937 34.4929C55.9584 34.4929 56.0207 34.4884 56.0807 34.4795C56.1963 34.4628 56.3031 34.4294 56.4022 34.3814C56.5478 34.311 56.6789 34.2134 56.7879 34.0941L57.051 34.4888ZM57.3384 31.8472H60.1784V32.3953H59.0354V34.9328H58.4814V32.3953H57.3384V31.8472ZM63.3095 34.5967C63.1553 34.735 62.9767 34.8359 62.7661 34.9018C62.5632 34.9673 62.3517 35.0011 62.1386 35.0023C62.0532 35.0036 61.968 34.9991 61.8833 34.9893C61.735 34.9718 61.5889 34.938 61.4479 34.888C61.2408 34.8119 61.0659 34.7041 60.922 34.5621C60.7751 34.418 60.6604 34.2443 60.5853 34.0526C60.5082 33.8549 60.4661 33.6331 60.4661 33.3902C60.464 33.1749 60.5009 32.9613 60.5749 32.7595C60.6423 32.5695 60.7485 32.3961 60.8866 32.2496C60.9525 32.1817 61.0246 32.1198 61.1017 32.0653C61.191 32.0023 61.287 31.9489 61.3883 31.9062C61.5039 31.8582 61.629 31.8228 61.7643 31.8017C61.8626 31.7862 61.9661 31.7781 62.0754 31.7781C62.1397 31.7776 62.2038 31.7813 62.267 31.789C62.3244 31.796 62.3814 31.8061 62.4375 31.8191C62.5061 31.8354 62.5738 31.8566 62.6399 31.8822C62.8119 31.9461 62.9693 32.0438 63.1028 32.1699C63.137 32.2029 63.1691 32.237 63.1994 32.2732C63.2245 32.303 63.2483 32.3335 63.2706 32.3652C63.305 32.4136 63.3364 32.4649 63.364 32.5174C63.3811 32.5499 63.3968 32.5833 63.4112 32.6171C63.443 32.6887 63.4682 32.7632 63.4869 32.8409C63.5136 32.9511 63.527 33.0683 63.527 33.1928C63.527 33.3349 63.5166 33.4561 63.492 33.5635H61.0937C61.1183 33.8553 61.227 34.0836 61.4266 34.2467C61.6266 34.4099 61.879 34.4892 62.184 34.4892C62.288 34.4892 62.3875 34.4811 62.4817 34.4648C62.5718 34.4494 62.6574 34.4266 62.7382 34.396C62.9028 34.3334 63.0395 34.2573 63.1413 34.167L63.3095 34.5967ZM62.0508 32.2948C61.7633 32.2948 61.5354 32.3709 61.3637 32.5267C61.1938 32.6802 61.0856 32.8897 61.0587 33.1163H62.952C62.9378 32.86 62.8542 32.659 62.6961 32.5133C62.6699 32.4889 62.642 32.4669 62.6127 32.447C62.585 32.4279 62.5559 32.4108 62.5254 32.3953C62.5024 32.3835 62.4784 32.3729 62.4536 32.3632C62.3366 32.3176 62.2019 32.2948 62.0508 32.2948ZM64.2808 31.8472H64.7857L65.9849 33.3764L67.1207 31.8472H67.6117V34.9332H67.0579V32.683L65.9778 34.1149H65.9566L64.835 32.6826V34.9328H64.2808V31.8472ZM68.8769 31.9404C68.9555 31.907 69.0364 31.8794 69.119 31.8578C69.2979 31.8094 69.4836 31.7817 69.6803 31.7817C69.8718 31.7817 70.0388 31.8025 70.181 31.844C70.2761 31.8716 70.3601 31.9087 70.4327 31.9546C70.5021 31.9982 70.5611 32.0503 70.6095 32.1109C70.6876 32.2065 70.7483 32.32 70.7918 32.4511C70.8479 32.6199 70.8756 32.8177 70.8756 33.0439V34.9368H70.357V34.5381C70.2657 34.6561 70.1395 34.7598 69.9815 34.8502C69.824 34.9401 69.6169 34.9852 69.3575 34.9852C69.1695 34.9852 69.0057 34.9498 68.8659 34.879C68.8354 34.8636 68.8061 34.8465 68.7778 34.8278C68.7587 34.8148 68.74 34.8009 68.7219 34.7867C68.7018 34.7708 68.6822 34.7537 68.6633 34.7358C68.4881 34.5694 68.4002 34.3334 68.4002 34.0319C68.3986 33.8866 68.4297 33.7434 68.4916 33.612C68.5494 33.4923 68.6332 33.3869 68.7369 33.3039C68.8387 33.2205 68.9648 33.1579 69.1119 33.1163C69.141 33.1082 69.1705 33.1005 69.2002 33.0936L69.245 33.0838L69.2952 33.0748C69.3864 33.059 69.4806 33.0504 69.5786 33.0504C69.7129 33.0521 69.8466 33.0659 69.9782 33.0923C70.1143 33.1159 70.2435 33.1692 70.357 33.2486C70.357 33.1871 70.3556 33.1277 70.3528 33.0704L70.3473 32.9861C70.3436 32.9406 70.3387 32.8962 70.3324 32.8531C70.3149 32.7318 70.2832 32.6281 70.2341 32.5447C70.2109 32.5056 70.1833 32.4694 70.1507 32.4376C70.1355 32.4226 70.1192 32.4083 70.1017 32.3953C70.0899 32.3868 70.0775 32.3782 70.0645 32.3705C70.0504 32.362 70.0358 32.3542 70.0203 32.3469C69.9257 32.2985 69.8028 32.2737 69.6486 32.2737C69.4557 32.2737 69.2944 32.2948 69.1683 32.34L69.1011 32.3648L69.0444 32.3864L68.9778 32.4136C68.915 32.4401 68.8523 32.4686 68.7894 32.4995L68.6423 32.0621C68.7174 32.0157 68.7959 31.975 68.8769 31.9404ZM69.5508 34.4892C69.754 34.4892 69.919 34.4481 70.0453 34.3578C70.1591 34.2821 70.2628 34.1922 70.3536 34.0905V33.6986C70.2923 33.6547 70.227 33.6181 70.1576 33.5884C70.1188 33.5717 70.0787 33.5574 70.0374 33.5456C70.0087 33.5375 69.9794 33.5302 69.9495 33.5237C69.9153 33.5163 69.8803 33.5106 69.8445 33.5062C69.7829 33.4984 69.7188 33.4944 69.6525 33.4944C69.5682 33.4944 69.4879 33.5045 69.4069 33.5253C69.3668 33.535 69.3278 33.5485 69.2903 33.5656C69.2568 33.5806 69.2242 33.5985 69.1933 33.6193C69.1337 33.6608 69.0812 33.7129 69.0423 33.7788L69.0344 33.793C69.0285 33.804 69.0232 33.815 69.0185 33.8264C69.0132 33.839 69.0088 33.852 69.0049 33.8655C69.0012 33.8777 68.9982 33.8903 68.9955 33.9033C68.9892 33.9346 68.9862 33.968 68.9862 34.0038C68.9862 34.1495 69.0352 34.2675 69.1337 34.3574C69.1902 34.4074 69.2608 34.4437 69.3449 34.4652C69.4063 34.4811 69.4751 34.4892 69.5508 34.4892ZM76.0827 30.4955C75.9845 30.6237 75.8795 30.7103 75.7674 30.762C75.6549 30.8141 75.5324 30.8491 75.3991 30.8768C75.299 30.8975 75.1945 30.9166 75.0848 30.9366L74.9749 30.9569C74.8087 30.9874 74.6472 31.0399 74.4944 31.1128C74.4364 31.1376 74.3809 31.1677 74.3286 31.2023C74.2911 31.2271 74.2553 31.254 74.2214 31.2833L74.1805 31.3203L74.1556 31.3451L74.1298 31.3724C74.1109 31.3948 74.0926 31.4175 74.0751 31.4407C74.0401 31.4867 74.0079 31.5343 73.9786 31.584C73.9491 31.634 73.9225 31.6861 73.8987 31.7402C73.8387 31.8749 73.7933 32.0177 73.7616 32.1666C73.7302 32.316 73.7127 32.4612 73.702 32.6032H73.7162C73.7652 32.4926 73.8352 32.3953 73.9194 32.3082C74.0055 32.2204 74.1034 32.1447 74.2104 32.0832C74.2338 32.0698 74.2574 32.0568 74.2814 32.0442C74.3084 32.0303 74.3359 32.0173 74.3638 32.0051C74.4277 31.977 74.4936 31.9534 74.5611 31.9343C74.6875 31.8997 74.8171 31.8822 74.9503 31.8822C75.0805 31.8806 75.2101 31.8948 75.3363 31.9245C75.4099 31.942 75.4823 31.9648 75.5531 31.9929C75.7275 32.0621 75.8844 32.1691 76.0127 32.3054C76.1409 32.4446 76.239 32.6085 76.3002 32.7872C76.3669 32.9747 76.4019 33.1859 76.4019 33.4179C76.4019 33.6331 76.3633 33.8374 76.2827 34.0282C76.2496 34.1104 76.2097 34.1889 76.1637 34.263C76.1033 34.3606 76.0327 34.4502 75.9531 34.5311C75.8091 34.6776 75.6374 34.794 75.4482 34.8742C75.252 34.9576 75.0345 35.0027 74.7996 35.0027C74.5436 35.0027 74.3158 34.9576 74.1123 34.8676C73.9091 34.7777 73.7369 34.6524 73.5933 34.486C73.4495 34.3228 73.3412 34.1222 73.2637 33.8825C73.1866 33.6433 73.1482 33.3768 73.1482 33.0818C73.1482 32.8531 73.162 32.6142 73.1903 32.3644C73.2177 32.1194 73.2731 31.879 73.3549 31.6466C73.4356 31.4175 73.5549 31.2096 73.7058 31.0261C73.8566 30.8422 74.0562 30.6969 74.3054 30.5891L74.3597 30.5655C74.3864 30.5545 74.4132 30.5439 74.4403 30.5342C74.4895 30.5163 74.5391 30.5 74.5894 30.4853C74.6195 30.4768 74.6498 30.4686 74.6803 30.4613C74.7186 30.452 74.7572 30.4438 74.7961 30.4369L74.988 30.4039L75.0907 30.386L75.1957 30.3673C75.2573 30.3567 75.3184 30.3425 75.3784 30.3246C75.4256 30.3108 75.4722 30.2949 75.5182 30.277C75.5436 30.2672 75.5684 30.2546 75.5924 30.2404L75.6237 30.22C75.6803 30.1806 75.7328 30.1277 75.7812 30.0622L76.0827 30.4955ZM73.7408 33.1859C73.7376 33.369 73.7636 33.5517 73.8177 33.7267C73.8641 33.8748 73.9365 34.0132 74.0315 34.136C74.1223 34.2459 74.236 34.3346 74.3648 34.396C74.4944 34.4583 74.635 34.4896 74.789 34.4896C74.9056 34.4896 75.0126 34.4738 75.1123 34.4416L75.1485 34.4294C75.168 34.4225 75.1873 34.4148 75.2065 34.4062C75.3277 34.355 75.4374 34.2793 75.5289 34.1849C75.6205 34.0901 75.6921 33.9778 75.7395 33.8549C75.7881 33.7304 75.8166 33.5949 75.8166 33.4459C75.8166 33.1444 75.7324 32.8946 75.5603 32.694C75.5027 32.6273 75.4368 32.5719 75.3621 32.5276C75.3009 32.4909 75.2337 32.4621 75.1607 32.4405C75.0579 32.4104 74.9436 32.3953 74.8171 32.3953C74.5554 32.3933 74.3007 32.48 74.0948 32.6415C74.0037 32.7147 73.9266 32.7977 73.8669 32.8913C73.8462 32.9223 73.8275 32.9544 73.811 32.9878C73.7978 33.0146 73.7858 33.0419 73.7754 33.0696C73.7612 33.1074 73.7496 33.1465 73.7408 33.1859ZM80.0974 31.8476H80.6516V34.9336H80.0974V31.8476ZM77.7553 31.8476H77.2011H77.1978V34.9368H78.2041C78.2546 34.9368 78.303 34.9352 78.3498 34.9323C78.3793 34.9307 78.408 34.9283 78.436 34.9254C78.4613 34.923 78.4861 34.9201 78.5103 34.9165C78.6252 34.9002 78.7284 34.8742 78.8212 34.84C78.8602 34.8253 78.8975 34.8099 78.9329 34.7932L78.9782 34.7704L79.014 34.7513C79.0393 34.7366 79.0635 34.7212 79.0865 34.7049C79.1013 34.6947 79.1156 34.6841 79.1294 34.6736C79.1463 34.6601 79.1626 34.6463 79.1782 34.6321C79.1931 34.6186 79.2073 34.6044 79.2207 34.5901C79.319 34.486 79.3929 34.3716 79.435 34.2402C79.4618 34.1621 79.4803 34.084 79.4907 34.0046C79.498 33.9497 79.5015 33.8939 79.5015 33.8374C79.5015 33.8077 79.5005 33.7784 79.4985 33.7491C79.4968 33.7234 79.4944 33.6982 79.4913 33.673C79.4816 33.5932 79.4649 33.5155 79.4419 33.4386C79.4032 33.3108 79.3365 33.1965 79.2419 33.0993C79.1473 33.002 79.0212 32.9227 78.8633 32.8633C78.7052 32.8047 78.5091 32.7733 78.2674 32.7733H77.7553V31.8476ZM78.1585 34.4201H77.7553V33.2897V33.2824H78.1657C78.2173 33.2824 78.2662 33.284 78.3123 33.2877C78.3831 33.2933 78.4472 33.3035 78.5048 33.3178C78.5481 33.3283 78.5876 33.3418 78.6234 33.3572C78.6688 33.3772 78.7078 33.4008 78.7408 33.4284C78.778 33.461 78.8094 33.498 78.8346 33.5403C78.8625 33.5867 78.8832 33.6392 78.896 33.6974C78.9068 33.7458 78.9123 33.7983 78.9123 33.8549C78.9123 34.0388 78.8566 34.1771 78.7441 34.2744C78.695 34.3167 78.6301 34.3501 78.5494 34.3741C78.4452 34.4046 78.3146 34.4201 78.1585 34.4201ZM84.3157 34.4888C84.1825 34.6589 84.0071 34.7875 83.7967 34.8742C83.5807 34.9616 83.3498 35.0064 83.1166 35.0056C82.8849 35.0088 82.6544 34.9702 82.4363 34.8917C82.2404 34.8204 82.0613 34.7094 81.9104 34.5657C81.8532 34.5104 81.8007 34.4506 81.7533 34.3871L81.7148 34.333C81.701 34.3126 81.6878 34.2919 81.675 34.2707L81.6573 34.241C81.6457 34.2211 81.6347 34.2007 81.6241 34.18C81.6099 34.1527 81.5964 34.1251 81.5838 34.0966L81.5667 34.0555C81.4833 33.8451 81.4416 33.6201 81.4443 33.3934C81.4443 33.1684 81.4825 32.9601 81.5633 32.7628C81.6404 32.565 81.7525 32.3953 81.8929 32.2529C82.0332 32.1072 82.2013 31.9966 82.3909 31.9099C82.5907 31.822 82.8072 31.7781 83.0255 31.7813C83.2741 31.7813 83.5058 31.8126 83.7162 31.8749C83.9268 31.9371 84.1054 32.0413 84.2525 32.1874L83.9967 32.6207C83.9449 32.5735 83.8891 32.5312 83.8301 32.4942C83.801 32.4759 83.7711 32.4588 83.7404 32.4429C83.7164 32.4307 83.692 32.4193 83.6669 32.4083L83.6202 32.3892L83.5687 32.3705C83.4181 32.3221 83.2607 32.2977 83.1026 32.2981C83.0462 32.2981 82.9909 32.3025 82.9364 32.3111C82.8556 32.3241 82.7769 32.3469 82.6991 32.3778C82.5716 32.4291 82.455 32.5048 82.3559 32.6C82.3234 32.6317 82.293 32.6655 82.2652 32.7009L82.2408 32.733C82.1927 32.7994 82.1525 32.871 82.1207 32.9467C82.0613 33.0814 82.0332 33.2307 82.0332 33.3971C82.0332 33.5668 82.0646 33.7194 82.1242 33.8512C82.1838 33.9863 82.2646 34.101 82.3663 34.1979C82.4678 34.2951 82.587 34.3676 82.7238 34.4164C82.8609 34.4648 83.0045 34.4929 83.1587 34.4929C83.2727 34.4929 83.3789 34.4791 83.4783 34.4518C83.5034 34.4449 83.528 34.4371 83.5522 34.4286C83.5917 34.4152 83.6299 34.3993 83.6671 34.3814C83.8128 34.311 83.9438 34.2134 84.0529 34.0941L84.3157 34.4888ZM84.6032 31.8472H87.4434V32.3953H86.3V34.9328H85.7462V32.3953H84.6032V31.8472ZM88.0462 31.848H88.6004V32.2118C88.7054 32.0865 88.8562 31.9868 89.0492 31.9034C89.2421 31.82 89.4453 31.7785 89.6624 31.7785C89.6976 31.7776 89.7326 31.7785 89.7676 31.7805C89.8382 31.7846 89.9082 31.7935 89.9772 31.8073C90.0746 31.8269 90.17 31.8566 90.262 31.8961C90.4351 31.9685 90.59 32.0788 90.7145 32.2187C90.8416 32.3624 90.9393 32.5296 91.0021 32.7107C91.0345 32.8034 91.0593 32.9007 91.0764 33.0028C91.0945 33.1111 91.1037 33.2242 91.1037 33.3422C91.1037 33.5741 91.065 33.793 90.9879 33.9969C90.9108 34.2016 90.8019 34.3749 90.6583 34.5246C90.5122 34.6736 90.3385 34.7924 90.1466 34.8746C89.9466 34.9576 89.7257 35.0023 89.4803 35.0023C89.3153 35.0023 89.1542 34.9852 89 34.9507C88.8458 34.9161 88.7125 34.864 88.6004 34.7912V36.306H88.0462V31.848ZM89.5017 32.2948C89.3157 32.2948 89.144 32.3367 88.9862 32.4201C88.8287 32.5031 88.6987 32.6037 88.6008 32.7212V34.2504C88.7263 34.3346 88.8649 34.3981 89.0108 34.438C89.144 34.4725 89.2846 34.4896 89.435 34.4896C89.5902 34.4925 89.7442 34.4628 89.8874 34.403C90.0158 34.3505 90.1318 34.2711 90.2274 34.1706C90.3226 34.0689 90.3957 33.9485 90.4416 33.817C90.4905 33.6783 90.5187 33.5294 90.5187 33.3629C90.5187 33.3279 90.5177 33.2933 90.5155 33.2596L90.5108 33.2046L90.5063 33.1656L90.5002 33.1253L90.4931 33.0866L90.4833 33.0415C90.4746 33.0044 90.4642 32.9682 90.452 32.9328C90.4099 32.8014 90.3434 32.6903 90.2559 32.5931C90.1678 32.4962 90.0628 32.4234 89.9367 32.3713C89.8067 32.3192 89.6628 32.2948 89.5017 32.2948ZM94.7991 31.8476H95.3533V34.9332H94.7991V31.8476ZM92.4538 31.8476H91.8996H91.8963V34.9364H92.9024C93.1479 34.9364 93.3512 34.9018 93.5196 34.84C93.6879 34.7773 93.8212 34.6943 93.9192 34.5901C94.0175 34.486 94.0911 34.3716 94.1332 34.2398C94.1786 34.1084 94.1996 33.9761 94.1996 33.8374C94.1996 33.6986 94.1786 33.5672 94.14 33.4386C94.1017 33.3108 94.035 33.1961 93.9404 33.0993C93.8458 33.002 93.7196 32.9223 93.5615 32.8633C93.4037 32.8047 93.2075 32.7733 92.9654 32.7733H92.4538V31.8476ZM92.8609 34.4201H92.4574V33.2897V33.2824H92.8678C93.1341 33.2824 93.327 33.3312 93.4429 33.4284C93.555 33.5257 93.6144 33.6673 93.6144 33.8549C93.6144 34.0388 93.5583 34.1771 93.4462 34.274C93.3341 34.3716 93.1376 34.4201 92.8609 34.4201ZM98.0112 33.3349L99.1961 34.9332H98.5162L97.6009 33.6848L96.6717 34.9332H96.0266L97.2045 33.3621L96.0965 31.8472H96.7771L97.622 33.0122L98.4808 31.8472H99.1261L98.0112 33.3349ZM49.3376 38.7466H47.6371V41.3195H47.0829V38.2339H49.8913V41.3195H49.3376V38.7466ZM53.0363 38.7812H51.9425L51.9071 39.3012C51.8829 39.5783 51.8532 39.8208 51.8162 40.03C51.7942 40.1533 51.7698 40.2652 51.7425 40.3657C51.6687 40.6363 51.5775 40.8442 51.4726 40.9899C51.3676 41.1355 51.2445 41.236 51.1041 41.2849C50.9593 41.3374 50.8061 41.363 50.652 41.361L50.6099 40.8267C50.6695 40.83 50.7395 40.8165 50.8166 40.7819C50.8942 40.7474 50.9713 40.6709 51.0445 40.5569C51.1184 40.4385 51.1851 40.2721 51.2445 40.0573C51.3041 39.8388 51.343 39.5547 51.3637 39.1971L51.4201 38.2368H53.5905V41.3227H53.0363V38.7812ZM54.6069 38.4451C54.7436 38.3584 54.905 38.2893 55.084 38.2409C55.2667 38.1904 55.4553 38.1648 55.6449 38.1648C56.0866 38.1648 56.3987 38.275 56.5741 38.4939C56.7527 38.7125 56.8408 39.0245 56.8408 39.4266V41.3195H56.3216V40.9207C56.2302 41.0387 56.1041 41.1429 55.9466 41.2328C55.7886 41.3231 55.5821 41.3683 55.3225 41.3683C55.035 41.3683 54.8032 41.2849 54.6283 41.1185C54.532 41.0277 54.4625 40.9158 54.4189 40.7836C54.3831 40.6741 54.3652 40.5512 54.3652 40.4149C54.365 40.393 54.3654 40.371 54.3666 40.349C54.3693 40.3006 54.3756 40.253 54.3856 40.2062C54.4008 40.1333 54.4244 40.0625 54.4562 39.995C54.5139 39.8754 54.5978 39.77 54.7015 39.687C54.7569 39.6414 54.8193 39.6023 54.8885 39.5694C54.9467 39.5417 55.0095 39.5185 55.0769 39.4994C55.224 39.4575 55.3786 39.4335 55.5432 39.4335C55.6775 39.4351 55.8111 39.4489 55.9428 39.475C55.9932 39.4839 56.0427 39.497 56.0907 39.5136C56.1725 39.5421 56.2502 39.5816 56.3216 39.6308C56.3216 39.4888 56.3145 39.3574 56.297 39.2357C56.2876 39.1714 56.2744 39.112 56.2567 39.0579C56.2475 39.0302 56.2374 39.0038 56.226 38.979C56.2176 38.9611 56.2087 38.9436 56.1991 38.9273C56.1499 38.8439 56.0799 38.7747 55.9849 38.7295C55.9232 38.6982 55.85 38.6766 55.7635 38.6657L55.7212 38.6612C55.687 38.6583 55.651 38.6567 55.6132 38.6567C55.4207 38.6567 55.259 38.6779 55.1328 38.7226C55.0962 38.7356 55.0596 38.7495 55.023 38.7637C54.9337 38.7987 54.8441 38.8378 54.7544 38.8821L54.6069 38.4451ZM55.519 40.8723C55.6461 40.8723 55.7582 40.856 55.8551 40.8218C55.9133 40.8011 55.966 40.7742 56.0132 40.74C56.1271 40.6648 56.2309 40.5748 56.322 40.4731V40.0813C56.1291 39.9429 55.8939 39.8774 55.6207 39.8774C55.5888 39.8774 55.5568 39.8786 55.5251 39.8815C55.4746 39.8864 55.4246 39.8953 55.3753 39.9079C55.2944 39.9291 55.2211 39.96 55.1615 40.0019C55.1019 40.0434 55.049 40.0955 55.0108 40.1614C54.9719 40.2273 54.9544 40.3002 54.9544 40.3868C54.9544 40.5321 55.0036 40.6501 55.1019 40.74C55.2 40.8271 55.3365 40.8723 55.519 40.8723ZM57.3875 38.2339H60.2276V38.7816H59.0842V41.3195H58.5305V38.782H57.3875V38.2339ZM63.0656 41.1856C62.9874 41.2263 62.9042 41.2605 62.8153 41.2881C62.605 41.3541 62.3946 41.389 62.1875 41.389C61.9523 41.3919 61.7185 41.3532 61.497 41.2743C61.2901 41.1982 61.1145 41.0904 60.9708 40.9484C60.827 40.8064 60.7116 40.6363 60.6341 40.4389C60.557 40.2408 60.5149 40.0194 60.5149 39.7765C60.5131 39.5612 60.5499 39.3476 60.6238 39.1454C60.6553 39.0571 60.6952 38.9725 60.7428 38.8923C60.7973 38.8003 60.862 38.7141 60.9359 38.636C61.0781 38.4887 61.2488 38.3719 61.4376 38.2925C61.6371 38.2091 61.865 38.1644 62.1246 38.1644C62.3177 38.1631 62.5091 38.1985 62.6892 38.2685C62.8611 38.3324 63.0184 38.4305 63.1516 38.5562C63.2837 38.6832 63.3886 38.8353 63.4605 39.0034C63.5376 39.1767 63.5762 39.3676 63.5762 39.5787C63.5762 39.7212 63.5654 39.8428 63.5412 39.9498H61.143C61.1676 40.2412 61.2758 40.4703 61.4758 40.633C61.6758 40.7958 61.9283 40.8755 62.2333 40.8755C62.4367 40.8755 62.6225 40.8446 62.787 40.7824C62.952 40.7197 63.0888 40.6436 63.1905 40.5529L63.3587 40.983C63.2696 41.0627 63.1724 41.1303 63.0656 41.1856ZM62.0967 38.6775C61.8091 38.6775 61.5812 38.754 61.4095 38.9098C61.2398 39.0628 61.1314 39.2723 61.1045 39.4994H62.9978C62.9838 39.2426 62.8996 39.0416 62.7421 38.896C62.5842 38.754 62.3704 38.6775 62.0967 38.6775ZM64.5475 38.2339H63.8462L64.9924 39.7212L63.7937 41.3195H64.4736L65.6166 39.7216L64.5475 38.2339ZM66.3075 38.2339H65.7533V41.3195H66.3075V38.2339ZM67.0682 39.7212L68.2883 41.3195H67.6013L66.4441 39.7212L67.5203 38.2335H68.208L67.0682 39.7212ZM71.3633 40.983C71.2091 41.1213 71.0304 41.2222 70.8199 41.2881C70.617 41.3532 70.4054 41.3874 70.1924 41.389C69.9572 41.3919 69.7233 41.3532 69.5017 41.2743C69.2946 41.1982 69.1196 41.0904 68.9758 40.9484C68.832 40.8064 68.7162 40.6363 68.6391 40.4389C68.562 40.2408 68.5201 40.0194 68.5201 39.7765C68.5178 39.5612 68.5547 39.3476 68.6287 39.1454C68.6961 38.9558 68.8025 38.782 68.9408 38.636C69.0828 38.4887 69.2535 38.3719 69.4421 38.2925C69.6421 38.2091 69.87 38.1644 70.1292 38.1644C70.3222 38.1631 70.5137 38.1985 70.6937 38.2685C70.8659 38.3324 71.0231 38.4305 71.1566 38.5562C71.2884 38.6832 71.3932 38.8353 71.465 39.0034C71.5425 39.1767 71.5808 39.3676 71.5808 39.5787C71.5808 39.7212 71.5704 39.8428 71.5458 39.9498H69.1475C69.1721 40.2412 69.2808 40.4703 69.4804 40.633C69.6803 40.7958 69.9328 40.8755 70.2378 40.8755C70.4413 40.8755 70.627 40.8446 70.792 40.7824C70.9566 40.7197 71.0933 40.6436 71.195 40.5529L71.3633 40.983ZM70.1017 38.6775C69.8142 38.6775 69.5862 38.754 69.4142 38.9098C69.2444 39.0628 69.1359 39.2723 69.1091 39.4994H71.0026C70.9887 39.2426 70.9045 39.0416 70.7466 38.896C70.5888 38.754 70.3717 38.6775 70.1017 38.6775ZM73.4444 37.0556C73.5335 37.15 73.6619 37.1972 73.8287 37.1972C74.1371 37.1972 74.309 37.0169 74.3337 36.6564H74.8525C74.8525 36.7947 74.8278 36.9196 74.7788 37.0376C74.73 37.1556 74.6596 37.2562 74.5721 37.3392C74.5328 37.375 74.4909 37.4083 74.446 37.4384C74.3866 37.4783 74.3215 37.5125 74.2496 37.5402C74.1782 37.5695 74.1023 37.5898 74.0212 37.6024C73.9589 37.6118 73.8936 37.6163 73.825 37.6163C73.7589 37.6163 73.6958 37.6126 73.636 37.6053C73.5404 37.5935 73.4527 37.5723 73.373 37.5402C73.2434 37.4885 73.1309 37.4226 73.0434 37.3392C72.9905 37.2891 72.9451 37.2321 72.9075 37.1691C72.8829 37.128 72.8615 37.084 72.8434 37.0376C72.818 36.9721 72.7992 36.9042 72.7876 36.833C72.7783 36.7764 72.7734 36.7178 72.7734 36.6564H73.2959C73.3095 36.8326 73.3591 36.9656 73.4444 37.0556ZM72.8853 41.3195H72.3313V38.2335H72.8853V40.5321L74.6875 38.2335H75.2417V41.3195H74.6875V39.0205L72.8853 41.3195Z" fill="white"/>
</g>
<defs>
<clipPath id="clip0_86_1963">
<rect width="100" height="50" fill="white"/>
</clipPath>
</defs>
</svg>
