<svg width="35" height="42" viewBox="0 0 35 42" fill="none" xmlns="http://www.w3.org/2000/svg">
<path d="M34.2653 32.0489C33.6599 33.4456 32.9118 34.7774 32.0329 36.0237C30.8587 37.6832 29.8944 38.83 29.1554 39.4683C28.0074 40.5112 26.7742 41.0478 25.4557 41.0781C24.5112 41.0781 23.3698 40.812 22.0404 40.271C20.7066 39.7323 19.4821 39.4683 18.3604 39.4683C17.1862 39.4683 15.9268 39.7323 14.5777 40.271C13.2308 40.812 12.1419 41.0954 11.3088 41.1214C10.0472 41.1755 8.78553 40.6259 7.52827 39.4683C6.72581 38.7759 5.72218 37.5859 4.5174 35.9025C3.22734 34.1088 2.16686 32.0208 1.33598 29.6472C0.446055 27.0789 0 24.5949 0 22.1889C0 19.4345 0.6013 17.0565 1.80609 15.0659C2.71732 13.5026 4.02007 12.1978 5.58881 11.2773C7.13571 10.3591 8.90161 9.86477 10.7053 9.84489C11.7111 9.84489 13.0296 10.1521 14.663 10.758C16.2963 11.3638 17.3458 11.6711 17.8028 11.6711C18.1483 11.6711 19.3094 11.3097 21.286 10.5935C23.1511 9.92928 24.7254 9.65449 26.0155 9.76267C29.514 10.0418 32.14 11.4049 33.8871 13.8629C30.7603 15.7388 29.2144 18.3634 29.245 21.7323C29.2713 24.3569 30.2355 26.5401 32.1247 28.2732C32.9599 29.0642 33.9344 29.697 35 30.1405C34.7682 30.8048 34.5233 31.4388 34.2653 32.0489ZM26.2473 0.824375C26.2473 2.8799 25.4864 4.80128 23.9755 6.57769C22.1475 8.68947 19.9391 9.91197 17.5448 9.7194C17.5135 9.46092 17.4982 9.20079 17.4989 8.94046C17.4989 6.96499 18.3648 4.85321 19.9107 3.1244C20.6803 2.25026 21.6599 1.52109 22.8472 0.941215C24.0323 0.369995 25.1518 0.0540928 26.2057 0C26.2341 0.276955 26.2473 0.551747 26.2473 0.824375Z" fill="white"/>
</svg>
