<svg width="35" height="40" viewBox="0 0 35 40" fill="none" xmlns="http://www.w3.org/2000/svg">
<path d="M19.0882 18.8316L25.3919 12.3581L5.03106 0.606484C3.68163 -0.142222 2.41747 -0.247303 1.30893 0.571457L19.0882 18.8316ZM26.4664 26.4106L33.0196 22.6254C34.2986 21.8899 35 20.8478 35 19.6919C35 18.5382 34.2986 17.494 33.0217 16.7584L27.0889 13.3367L20.4099 20.1932L26.4664 26.4106ZM0.21318 2.163C0.0767448 2.59428 0 3.0759 0 3.6035V35.7957C0 36.6297 0.179072 37.3478 0.503106 37.9192L17.7643 20.1911L0.21318 2.163ZM19.0882 21.5484L1.92289 39.178C2.25119 39.3071 2.60507 39.375 2.97813 39.375C3.64326 39.375 4.33609 39.1736 5.04172 38.7708L24.7716 27.3935L19.0882 21.5484Z" fill="white"/>
</svg>
